<?xml version="1.0" standalone="no"?>
<!DOCTYPE svg PUBLIC "-//W3C//DTD SVG 1.1//EN" "http://www.w3.org/Graphics/SVG/1.1/DTD/svg11.dtd" >
<svg xmlns="http://www.w3.org/2000/svg" xmlns:xlink="http://www.w3.org/1999/xlink" version="1.1">
<metadata>
Created by FontForge 20201107 at Mon Apr 12 18:07:11 2021
 By 
Copyright (c) 2017 by Studio Kmzero &#38; Zetafonts. All rights reserved.
</metadata>
<defs>
<font id="HeadingNowTrial-66Bold" horiz-adv-x="0" >
  <font-face 
    font-family="Heading Now Trial 64"
    font-weight="700"
    font-stretch="normal"
    units-per-em="1000"
    panose-1="0 0 8 0 0 0 0 0 0 0"
    ascent="800"
    descent="-200"
    x-height="594"
    cap-height="744"
    bbox="-643 -326 1512 1140"
    underline-thickness="50"
    underline-position="-100"
    unicode-range="U+0020-F8FF"
  />
<missing-glyph horiz-adv-x="998" 
 />
    <glyph glyph-name="f_f" unicode="ff" horiz-adv-x="765" 
d="M655 639q-15 -12 -17 -45h128v-158h-129v-436h-203v436h-159v-436h-203v436h-68v158h70q8 104 59.5 151t162.5 47q47 0 114 -13l-7 -132q-42 4 -55 4q-40 0 -55 -12t-17 -45h160q8 104 60 151t163 47q46 0 113 -13l-7 -132q-42 4 -55 4q-40 0 -55 -12z" />
    <glyph glyph-name=".notdef" horiz-adv-x="998" 
 />
    <glyph glyph-name=".null" 
 />
    <glyph glyph-name="nonmarkingreturn" horiz-adv-x="333" 
 />
    <glyph glyph-name="space" unicode=" " horiz-adv-x="294" 
 />
    <glyph glyph-name="exclam" unicode="!" horiz-adv-x="313" 
d="M71 204q-13 81 -18 176t-5 364h217q0 -267 -4.5 -362t-16.5 -178h-173zM73.5 3.5q-25.5 20.5 -25.5 64.5t26 65t82 21q57 0 82.5 -21t25.5 -65t-25.5 -64.5t-82.5 -20.5t-82.5 20.5z" />
    <glyph glyph-name="quotedbl" unicode="&#x22;" horiz-adv-x="442" 
d="M203 744l-15 -267h-143l-12 267h170zM410 744l-15 -267h-143l-12 267h170z" />
    <glyph glyph-name="numbersign" unicode="#" horiz-adv-x="746" 
d="M738 582v-165h-97l-19 -110h72v-165h-101l-24 -142h-203l25 142h-114l-25 -142h-200l25 142h-69v165h98l19 110h-69v165h98l28 161h201l-28 -161h113l28 161h201l-28 -161h69zM306 307h114l19 110h-113z" />
    <glyph glyph-name="dollar" unicode="$" horiz-adv-x="616" 
d="M541 65q-51 -56 -142 -74v-102h-182v102q-96 20 -145.5 81.5t-49.5 163.5h206q1 -40 19 -64t63 -24q34 0 51 16.5t17 44.5q0 27 -11.5 42t-35.5 26.5t-87 35.5q-82 27 -127.5 57t-65 70t-20.5 101v1q0 83 48.5 137.5t137.5 72.5v96h182v-98q90 -21 136 -83.5t46 -157.5
h-198q-1 41 -18.5 63t-58.5 22q-32 0 -47.5 -14.5t-15.5 -38.5v-1q0 -28 21 -44t70 -32q100 -30 156 -64.5t79 -79.5t23 -112q0 -87 -51 -143z" />
    <glyph glyph-name="percent" unicode="%" horiz-adv-x="1084" 
d="M76.5 424q-49.5 52 -49.5 140v2q0 87 46.5 140.5t164.5 53.5q126 0 167 -56t41 -137v-3q0 -81 -41 -136.5t-166 -55.5q-113 0 -162.5 52zM688 744h251l-543 -744h-251zM271 517q8 16 8 46v4q0 30 -8 47t-35 17q-26 0 -34 -17t-8 -47v-4q0 -29 8 -45.5t34 -16.5
q27 0 35 16zM638 176v2q0 87 46.5 140t164.5 53q89 0 135 -29.5t59.5 -70.5t13.5 -92v-3q0 -82 -41 -137.5t-166 -55.5q-212 0 -212 193zM882 129q8 16 8 46v4q0 30 -8 47t-34 17t-34.5 -17.5t-8.5 -46.5v-4q0 -29 8.5 -45.5t34.5 -16.5t34 16z" />
    <glyph glyph-name="ampersand" unicode="&#x26;" horiz-adv-x="670" 
d="M663 131v-146h-41q-44 0 -81.5 8.5t-74.5 30.5q-79 -41 -178 -41q-131 0 -198 57t-67 150v14q0 62 34 116t101 87q-32 54 -45 88t-13 64v13q0 86 60.5 136.5t166.5 50.5q112 0 165.5 -47t53.5 -120t-41.5 -128t-134.5 -97q5 -6 20 -30q36 -55 67 -95q25 55 25 135v26h167
v-26q0 -68 -15.5 -129.5t-46.5 -110.5q20 -6 54 -6h22zM286 565q0 -38 25 -92q35 20 48.5 43.5t13.5 57.5q0 20 -11 32.5t-31 12.5t-32.5 -12t-12.5 -33v-9zM205 210q0 -34 22.5 -55t61.5 -21q24 0 48 6q-37 45 -78 108l-27 42q-27 -29 -27 -70v-10z" />
    <glyph glyph-name="quotesingle" unicode="'" horiz-adv-x="236" 
d="M203 744l-15 -267h-143l-12 267h170z" />
    <glyph glyph-name="parenleft" unicode="(" horiz-adv-x="376" 
d="M352 -160q-115 0 -183.5 30.5t-102 105t-33.5 207.5v279q0 133 34 207.5t102.5 104.5t182.5 30v-169q-60 0 -84 -37.5t-24 -128.5v-293q0 -62 10 -98t33.5 -52t64.5 -16v-170z" />
    <glyph glyph-name="parenright" unicode=")" horiz-adv-x="376" 
d="M25 10q40 0 63.5 16t33.5 52t10 98v293q0 91 -24 128.5t-83 37.5v169q113 0 182 -30t103 -104.5t34 -207.5v-279q0 -133 -33.5 -207.5t-102.5 -105t-183 -30.5v170z" />
    <glyph glyph-name="asterisk" unicode="*" horiz-adv-x="405" 
d="M319 561l-51 -1l40 -32l44 -45l-100 -74l-31 56l-18 50l-16 -46l-30 -57l-101 69l42 48l37 31h-49l-59 9l33 115l56 -24l45 -27l-14 48l-8 63h126l-7 -63l-14 -47l42 27l54 24l38 -113z" />
    <glyph glyph-name="plus" unicode="+" horiz-adv-x="499" 
d="M331 130h-161v127h-119v149h119v127h161v-127h117v-149h-117v-127z" />
    <glyph glyph-name="comma" unicode="," horiz-adv-x="253" 
d="M41 -71q33 -1 49 3.5t22 16t6 34.5q-49 0 -75 21t-26 63q0 44 26.5 65.5t81.5 21.5q58 0 84.5 -24t26.5 -77q0 -112 -40.5 -159t-123.5 -47q-20 0 -31 1v81z" />
    <glyph glyph-name="hyphen" unicode="-" horiz-adv-x="525" 
d="M474 353v-156h-423v156h423z" />
    <glyph glyph-name="period" unicode="." horiz-adv-x="256" 
d="M43.5 3.5q-26.5 20.5 -26.5 64.5t27 65t84 21t84 -21t27 -65t-26.5 -64.5t-84.5 -20.5t-84.5 20.5z" />
    <glyph glyph-name="slash" unicode="/" horiz-adv-x="527" 
d="M299 745h222l-294 -848h-221z" />
    <glyph glyph-name="zero" unicode="0" horiz-adv-x="1313" 
d="M1286 462v-193h-1254v193h486q4 56 44.5 94t96.5 38t96.5 -38t44.5 -94h486zM744 547q-38 33 -85 33q-49 0 -85 -33h170zM757 371q29 35 29 81q0 48 -32 85l-166 -166h169zM560 533q-29 -35 -29 -81q0 -49 33 -85l167 166h-171zM923 321q19 18 19 46q0 27 -19 45t-47 18
t-46.5 -18t-18.5 -45q0 -28 18.5 -46t46.5 -18t47 18zM123 392h28v35h-96v-35h29v-86h39v86zM220 306h41l-21 46q14 12 14 32q0 18 -13.5 30.5t-32.5 12.5h-50v-121h39v35h8zM267 306h38v121h-38v-121zM392 325l5 -19h42l-41 121h-45l-41 -121h41l5 19h34zM446 306h82v33
h-43v88h-39v-121zM1026 306h40v121h-39v-64l-37 64h-40v-121h39l-1 59zM1078 306h82v33h-43v88h-39v-121zM1221 306v48l41 73h-45l-16 -36l-15 36h-46l42 -73v-48h39zM895.5 387q7.5 -8 7.5 -20q0 -13 -7.5 -21t-19.5 -8q-11 0 -19 8t-8 21q0 12 8 20t19 8q12 0 19.5 -8z
M207 394q3 0 5.5 -3t2.5 -7t-2.5 -7.5t-5.5 -3.5h-10v21h10zM366 357l8 29h1l8 -29h-17zM574 357q37 -32 85 -32t85 32h-170zM515 176q12 -7 26 -7q11 0 18.5 6t7.5 17q0 13 -23 22q-9 3 -12.5 5.5t-3.5 7.5t4 8t10 3q11 0 20 -7v13q-10 5 -20 5q-12 0 -19 -6t-7 -16
q0 -9 5 -13.5t17 -9.5q17 -5 17 -12q0 -12 -14 -12q-13 0 -26 9v-13zM615.5 180.5q11.5 -11.5 28.5 -11.5t28.5 11.5t11.5 28.5t-11.5 28.5t-28.5 11.5t-28.5 -11.5t-11.5 -28.5t11.5 -28.5zM763 168v79h-12v-54l-49 55h-6v-78h12v52l49 -54h6zM81 247h-50v-77h12v29h33v11
h-33v26h38v11zM91 200q0 -13 9 -22t22 -9q14 0 23 8.5t9 22.5v47h-12v-47q0 -8 -6 -14t-14 -6t-13.5 5.5t-5.5 14.5v47h-12v-47zM181 247h-12v-77h47v11h-35v66zM239 247h-12v-77h48v11h-36v66zM347 170l32 77h-14l-22 -57l-22 57h-14l32 -77h8zM439 247h-50v-77h50v11h-38
v23h33v10h-33v22h38v11zM495 170h14l-15 31q12 7 12 21q0 11 -7 18t-18 7h-29v-77h12v28h18zM591 247h-12v-77h12v77zM663 188q-8 -8 -19 -8q-12 0 -20 8t-8 21q0 12 8 20t20 8q11 0 19 -8t8 -20q0 -13 -8 -21zM490 212q-4 -4 -9 -4h-17v28h17q5 0 9 -4t4 -10t-4 -10z
M1250 183l25 24l-25 24l-8 -7l13 -11h-458v-12h458l-13 -11zM511 53.5q17 -16.5 42 -16.5t42 16.5t17 41.5q0 24 -17 40.5t-42 16.5t-42 -16.5t-17 -40.5q0 -25 17 -41.5zM821 47q16 -10 38 -10q19 0 31.5 10t12.5 27q0 27 -36 35q-3 1 -7 2t-5.5 2.5t-1.5 3.5q0 4 11 4
q7 0 16.5 -3t15.5 -8v34q-18 8 -32 8q-21 0 -33 -9t-12 -25q0 -14 7.5 -21.5t24.5 -13.5q3 -1 10 -3t7 -6q0 -6 -9 -6q-13 0 -38 16v-37zM966 53.5q17 -16.5 41 -16.5q12 0 26 7l1 35q-10 -10 -25 -10q-11 0 -18 7.5t-7 18.5t7.5 18t17.5 7t22 -7v33q-10 6 -23 6
q-25 0 -42 -16.5t-17 -40.5q0 -25 17 -41.5zM1054 53.5q17 -16.5 43 -16.5q25 0 42 16.5t17 41.5q0 24 -17 40.5t-42 16.5t-42.5 -16.5t-17.5 -40.5q0 -25 17 -41.5zM32 118h36l-41 -78h95v31h-38l41 78h-93v-31zM211 149h-79v-109h80v30h-45v10h38v30h-38v9h44v30zM216 118
h26v-78h35v78h26v31h-87v-31zM332 57h31l4 -17h38l-37 109h-40l-37 -109h36zM490 149h-79v-109h35v34h37v29h-37v16h44v30zM724 40v109h-35v-58l-33 58h-36v-109h35l-1 53l34 -53h36zM730 118h26v-78h35v78h25v31h-86v-31zM1198 149h-35v-109h35v43l14 -27h25l14 27v-43h34
v109h-35l-26 -50zM570 76.5q-7 -7.5 -17 -7.5t-17 7.5t-7 18.5t7 18t17 7t17 -7t7 -18t-7 -18.5zM1114 76.5q-7 -7.5 -17 -7.5q-11 0 -18 7.5t-7 18.5t7.5 18t17.5 7t17 -7.5t7 -17.5q0 -11 -7 -18.5zM348 112l7 -26h-15l7 26h1zM913 42q5 -5 13 -5q7 0 12 5t5 12t-5 11.5
t-12 4.5q-8 0 -13 -4.5t-5 -11.5t5 -12z" />
    <glyph glyph-name="one" unicode="1" horiz-adv-x="1313" 
d="M1286 462v-193h-1254v193h486q4 56 44.5 94t96.5 38t96.5 -38t44.5 -94h486zM744 547q-38 33 -85 33q-49 0 -85 -33h170zM757 371q29 35 29 81q0 48 -32 85l-166 -166h169zM560 533q-29 -35 -29 -81q0 -49 33 -85l167 166h-171zM923 321q19 18 19 46q0 27 -19 45t-47 18
t-46.5 -18t-18.5 -45q0 -28 18.5 -46t46.5 -18t47 18zM123 392h28v35h-96v-35h29v-86h39v86zM220 306h41l-21 46q14 12 14 32q0 18 -13.5 30.5t-32.5 12.5h-50v-121h39v35h8zM267 306h38v121h-38v-121zM392 325l5 -19h42l-41 121h-45l-41 -121h41l5 19h34zM446 306h82v33
h-43v88h-39v-121zM1026 306h40v121h-39v-64l-37 64h-40v-121h39l-1 59zM1078 306h82v33h-43v88h-39v-121zM1221 306v48l41 73h-45l-16 -36l-15 36h-46l42 -73v-48h39zM895.5 387q7.5 -8 7.5 -20q0 -13 -7.5 -21t-19.5 -8q-11 0 -19 8t-8 21q0 12 8 20t19 8q12 0 19.5 -8z
M207 394q3 0 5.5 -3t2.5 -7t-2.5 -7.5t-5.5 -3.5h-10v21h10zM366 357l8 29h1l8 -29h-17zM574 357q37 -32 85 -32t85 32h-170zM515 176q12 -7 26 -7q11 0 18.5 6t7.5 17q0 13 -23 22q-9 3 -12.5 5.5t-3.5 7.5t4 8t10 3q11 0 20 -7v13q-10 5 -20 5q-12 0 -19 -6t-7 -16
q0 -9 5 -13.5t17 -9.5q17 -5 17 -12q0 -12 -14 -12q-13 0 -26 9v-13zM615.5 180.5q11.5 -11.5 28.5 -11.5t28.5 11.5t11.5 28.5t-11.5 28.5t-28.5 11.5t-28.5 -11.5t-11.5 -28.5t11.5 -28.5zM763 168v79h-12v-54l-49 55h-6v-78h12v52l49 -54h6zM81 247h-50v-77h12v29h33v11
h-33v26h38v11zM91 200q0 -13 9 -22t22 -9q14 0 23 8.5t9 22.5v47h-12v-47q0 -8 -6 -14t-14 -6t-13.5 5.5t-5.5 14.5v47h-12v-47zM181 247h-12v-77h47v11h-35v66zM239 247h-12v-77h48v11h-36v66zM347 170l32 77h-14l-22 -57l-22 57h-14l32 -77h8zM439 247h-50v-77h50v11h-38
v23h33v10h-33v22h38v11zM495 170h14l-15 31q12 7 12 21q0 11 -7 18t-18 7h-29v-77h12v28h18zM591 247h-12v-77h12v77zM663 188q-8 -8 -19 -8q-12 0 -20 8t-8 21q0 12 8 20t20 8q11 0 19 -8t8 -20q0 -13 -8 -21zM490 212q-4 -4 -9 -4h-17v28h17q5 0 9 -4t4 -10t-4 -10z
M1250 183l25 24l-25 24l-8 -7l13 -11h-458v-12h458l-13 -11zM511 53.5q17 -16.5 42 -16.5t42 16.5t17 41.5q0 24 -17 40.5t-42 16.5t-42 -16.5t-17 -40.5q0 -25 17 -41.5zM821 47q16 -10 38 -10q19 0 31.5 10t12.5 27q0 27 -36 35q-3 1 -7 2t-5.5 2.5t-1.5 3.5q0 4 11 4
q7 0 16.5 -3t15.5 -8v34q-18 8 -32 8q-21 0 -33 -9t-12 -25q0 -14 7.5 -21.5t24.5 -13.5q3 -1 10 -3t7 -6q0 -6 -9 -6q-13 0 -38 16v-37zM966 53.5q17 -16.5 41 -16.5q12 0 26 7l1 35q-10 -10 -25 -10q-11 0 -18 7.5t-7 18.5t7.5 18t17.5 7t22 -7v33q-10 6 -23 6
q-25 0 -42 -16.5t-17 -40.5q0 -25 17 -41.5zM1054 53.5q17 -16.5 43 -16.5q25 0 42 16.5t17 41.5q0 24 -17 40.5t-42 16.5t-42.5 -16.5t-17.5 -40.5q0 -25 17 -41.5zM32 118h36l-41 -78h95v31h-38l41 78h-93v-31zM211 149h-79v-109h80v30h-45v10h38v30h-38v9h44v30zM216 118
h26v-78h35v78h26v31h-87v-31zM332 57h31l4 -17h38l-37 109h-40l-37 -109h36zM490 149h-79v-109h35v34h37v29h-37v16h44v30zM724 40v109h-35v-58l-33 58h-36v-109h35l-1 53l34 -53h36zM730 118h26v-78h35v78h25v31h-86v-31zM1198 149h-35v-109h35v43l14 -27h25l14 27v-43h34
v109h-35l-26 -50zM570 76.5q-7 -7.5 -17 -7.5t-17 7.5t-7 18.5t7 18t17 7t17 -7t7 -18t-7 -18.5zM1114 76.5q-7 -7.5 -17 -7.5q-11 0 -18 7.5t-7 18.5t7.5 18t17.5 7t17 -7.5t7 -17.5q0 -11 -7 -18.5zM348 112l7 -26h-15l7 26h1zM913 42q5 -5 13 -5q7 0 12 5t5 12t-5 11.5
t-12 4.5q-8 0 -13 -4.5t-5 -11.5t5 -12z" />
    <glyph glyph-name="two" unicode="2" horiz-adv-x="1313" 
d="M1286 462v-193h-1254v193h486q4 56 44.5 94t96.5 38t96.5 -38t44.5 -94h486zM744 547q-38 33 -85 33q-49 0 -85 -33h170zM757 371q29 35 29 81q0 48 -32 85l-166 -166h169zM560 533q-29 -35 -29 -81q0 -49 33 -85l167 166h-171zM923 321q19 18 19 46q0 27 -19 45t-47 18
t-46.5 -18t-18.5 -45q0 -28 18.5 -46t46.5 -18t47 18zM123 392h28v35h-96v-35h29v-86h39v86zM220 306h41l-21 46q14 12 14 32q0 18 -13.5 30.5t-32.5 12.5h-50v-121h39v35h8zM267 306h38v121h-38v-121zM392 325l5 -19h42l-41 121h-45l-41 -121h41l5 19h34zM446 306h82v33
h-43v88h-39v-121zM1026 306h40v121h-39v-64l-37 64h-40v-121h39l-1 59zM1078 306h82v33h-43v88h-39v-121zM1221 306v48l41 73h-45l-16 -36l-15 36h-46l42 -73v-48h39zM895.5 387q7.5 -8 7.5 -20q0 -13 -7.5 -21t-19.5 -8q-11 0 -19 8t-8 21q0 12 8 20t19 8q12 0 19.5 -8z
M207 394q3 0 5.5 -3t2.5 -7t-2.5 -7.5t-5.5 -3.5h-10v21h10zM366 357l8 29h1l8 -29h-17zM574 357q37 -32 85 -32t85 32h-170zM515 176q12 -7 26 -7q11 0 18.5 6t7.5 17q0 13 -23 22q-9 3 -12.5 5.5t-3.5 7.5t4 8t10 3q11 0 20 -7v13q-10 5 -20 5q-12 0 -19 -6t-7 -16
q0 -9 5 -13.5t17 -9.5q17 -5 17 -12q0 -12 -14 -12q-13 0 -26 9v-13zM615.5 180.5q11.5 -11.5 28.5 -11.5t28.5 11.5t11.5 28.5t-11.5 28.5t-28.5 11.5t-28.5 -11.5t-11.5 -28.5t11.5 -28.5zM763 168v79h-12v-54l-49 55h-6v-78h12v52l49 -54h6zM81 247h-50v-77h12v29h33v11
h-33v26h38v11zM91 200q0 -13 9 -22t22 -9q14 0 23 8.5t9 22.5v47h-12v-47q0 -8 -6 -14t-14 -6t-13.5 5.5t-5.5 14.5v47h-12v-47zM181 247h-12v-77h47v11h-35v66zM239 247h-12v-77h48v11h-36v66zM347 170l32 77h-14l-22 -57l-22 57h-14l32 -77h8zM439 247h-50v-77h50v11h-38
v23h33v10h-33v22h38v11zM495 170h14l-15 31q12 7 12 21q0 11 -7 18t-18 7h-29v-77h12v28h18zM591 247h-12v-77h12v77zM663 188q-8 -8 -19 -8q-12 0 -20 8t-8 21q0 12 8 20t20 8q11 0 19 -8t8 -20q0 -13 -8 -21zM490 212q-4 -4 -9 -4h-17v28h17q5 0 9 -4t4 -10t-4 -10z
M1250 183l25 24l-25 24l-8 -7l13 -11h-458v-12h458l-13 -11zM511 53.5q17 -16.5 42 -16.5t42 16.5t17 41.5q0 24 -17 40.5t-42 16.5t-42 -16.5t-17 -40.5q0 -25 17 -41.5zM821 47q16 -10 38 -10q19 0 31.5 10t12.5 27q0 27 -36 35q-3 1 -7 2t-5.5 2.5t-1.5 3.5q0 4 11 4
q7 0 16.5 -3t15.5 -8v34q-18 8 -32 8q-21 0 -33 -9t-12 -25q0 -14 7.5 -21.5t24.5 -13.5q3 -1 10 -3t7 -6q0 -6 -9 -6q-13 0 -38 16v-37zM966 53.5q17 -16.5 41 -16.5q12 0 26 7l1 35q-10 -10 -25 -10q-11 0 -18 7.5t-7 18.5t7.5 18t17.5 7t22 -7v33q-10 6 -23 6
q-25 0 -42 -16.5t-17 -40.5q0 -25 17 -41.5zM1054 53.5q17 -16.5 43 -16.5q25 0 42 16.5t17 41.5q0 24 -17 40.5t-42 16.5t-42.5 -16.5t-17.5 -40.5q0 -25 17 -41.5zM32 118h36l-41 -78h95v31h-38l41 78h-93v-31zM211 149h-79v-109h80v30h-45v10h38v30h-38v9h44v30zM216 118
h26v-78h35v78h26v31h-87v-31zM332 57h31l4 -17h38l-37 109h-40l-37 -109h36zM490 149h-79v-109h35v34h37v29h-37v16h44v30zM724 40v109h-35v-58l-33 58h-36v-109h35l-1 53l34 -53h36zM730 118h26v-78h35v78h25v31h-86v-31zM1198 149h-35v-109h35v43l14 -27h25l14 27v-43h34
v109h-35l-26 -50zM570 76.5q-7 -7.5 -17 -7.5t-17 7.5t-7 18.5t7 18t17 7t17 -7t7 -18t-7 -18.5zM1114 76.5q-7 -7.5 -17 -7.5q-11 0 -18 7.5t-7 18.5t7.5 18t17.5 7t17 -7.5t7 -17.5q0 -11 -7 -18.5zM348 112l7 -26h-15l7 26h1zM913 42q5 -5 13 -5q7 0 12 5t5 12t-5 11.5
t-12 4.5q-8 0 -13 -4.5t-5 -11.5t5 -12z" />
    <glyph glyph-name="three" unicode="3" horiz-adv-x="1313" 
d="M1286 462v-193h-1254v193h486q4 56 44.5 94t96.5 38t96.5 -38t44.5 -94h486zM744 547q-38 33 -85 33q-49 0 -85 -33h170zM757 371q29 35 29 81q0 48 -32 85l-166 -166h169zM560 533q-29 -35 -29 -81q0 -49 33 -85l167 166h-171zM923 321q19 18 19 46q0 27 -19 45t-47 18
t-46.5 -18t-18.5 -45q0 -28 18.5 -46t46.5 -18t47 18zM123 392h28v35h-96v-35h29v-86h39v86zM220 306h41l-21 46q14 12 14 32q0 18 -13.5 30.5t-32.5 12.5h-50v-121h39v35h8zM267 306h38v121h-38v-121zM392 325l5 -19h42l-41 121h-45l-41 -121h41l5 19h34zM446 306h82v33
h-43v88h-39v-121zM1026 306h40v121h-39v-64l-37 64h-40v-121h39l-1 59zM1078 306h82v33h-43v88h-39v-121zM1221 306v48l41 73h-45l-16 -36l-15 36h-46l42 -73v-48h39zM895.5 387q7.5 -8 7.5 -20q0 -13 -7.5 -21t-19.5 -8q-11 0 -19 8t-8 21q0 12 8 20t19 8q12 0 19.5 -8z
M207 394q3 0 5.5 -3t2.5 -7t-2.5 -7.5t-5.5 -3.5h-10v21h10zM366 357l8 29h1l8 -29h-17zM574 357q37 -32 85 -32t85 32h-170zM515 176q12 -7 26 -7q11 0 18.5 6t7.5 17q0 13 -23 22q-9 3 -12.5 5.5t-3.5 7.5t4 8t10 3q11 0 20 -7v13q-10 5 -20 5q-12 0 -19 -6t-7 -16
q0 -9 5 -13.5t17 -9.5q17 -5 17 -12q0 -12 -14 -12q-13 0 -26 9v-13zM615.5 180.5q11.5 -11.5 28.5 -11.5t28.5 11.5t11.5 28.5t-11.5 28.5t-28.5 11.5t-28.5 -11.5t-11.5 -28.5t11.5 -28.5zM763 168v79h-12v-54l-49 55h-6v-78h12v52l49 -54h6zM81 247h-50v-77h12v29h33v11
h-33v26h38v11zM91 200q0 -13 9 -22t22 -9q14 0 23 8.5t9 22.5v47h-12v-47q0 -8 -6 -14t-14 -6t-13.5 5.5t-5.5 14.5v47h-12v-47zM181 247h-12v-77h47v11h-35v66zM239 247h-12v-77h48v11h-36v66zM347 170l32 77h-14l-22 -57l-22 57h-14l32 -77h8zM439 247h-50v-77h50v11h-38
v23h33v10h-33v22h38v11zM495 170h14l-15 31q12 7 12 21q0 11 -7 18t-18 7h-29v-77h12v28h18zM591 247h-12v-77h12v77zM663 188q-8 -8 -19 -8q-12 0 -20 8t-8 21q0 12 8 20t20 8q11 0 19 -8t8 -20q0 -13 -8 -21zM490 212q-4 -4 -9 -4h-17v28h17q5 0 9 -4t4 -10t-4 -10z
M1250 183l25 24l-25 24l-8 -7l13 -11h-458v-12h458l-13 -11zM511 53.5q17 -16.5 42 -16.5t42 16.5t17 41.5q0 24 -17 40.5t-42 16.5t-42 -16.5t-17 -40.5q0 -25 17 -41.5zM821 47q16 -10 38 -10q19 0 31.5 10t12.5 27q0 27 -36 35q-3 1 -7 2t-5.5 2.5t-1.5 3.5q0 4 11 4
q7 0 16.5 -3t15.5 -8v34q-18 8 -32 8q-21 0 -33 -9t-12 -25q0 -14 7.5 -21.5t24.5 -13.5q3 -1 10 -3t7 -6q0 -6 -9 -6q-13 0 -38 16v-37zM966 53.5q17 -16.5 41 -16.5q12 0 26 7l1 35q-10 -10 -25 -10q-11 0 -18 7.5t-7 18.5t7.5 18t17.5 7t22 -7v33q-10 6 -23 6
q-25 0 -42 -16.5t-17 -40.5q0 -25 17 -41.5zM1054 53.5q17 -16.5 43 -16.5q25 0 42 16.5t17 41.5q0 24 -17 40.5t-42 16.5t-42.5 -16.5t-17.5 -40.5q0 -25 17 -41.5zM32 118h36l-41 -78h95v31h-38l41 78h-93v-31zM211 149h-79v-109h80v30h-45v10h38v30h-38v9h44v30zM216 118
h26v-78h35v78h26v31h-87v-31zM332 57h31l4 -17h38l-37 109h-40l-37 -109h36zM490 149h-79v-109h35v34h37v29h-37v16h44v30zM724 40v109h-35v-58l-33 58h-36v-109h35l-1 53l34 -53h36zM730 118h26v-78h35v78h25v31h-86v-31zM1198 149h-35v-109h35v43l14 -27h25l14 27v-43h34
v109h-35l-26 -50zM570 76.5q-7 -7.5 -17 -7.5t-17 7.5t-7 18.5t7 18t17 7t17 -7t7 -18t-7 -18.5zM1114 76.5q-7 -7.5 -17 -7.5q-11 0 -18 7.5t-7 18.5t7.5 18t17.5 7t17 -7.5t7 -17.5q0 -11 -7 -18.5zM348 112l7 -26h-15l7 26h1zM913 42q5 -5 13 -5q7 0 12 5t5 12t-5 11.5
t-12 4.5q-8 0 -13 -4.5t-5 -11.5t5 -12z" />
    <glyph glyph-name="four" unicode="4" horiz-adv-x="1313" 
d="M1286 462v-193h-1254v193h486q4 56 44.5 94t96.5 38t96.5 -38t44.5 -94h486zM744 547q-38 33 -85 33q-49 0 -85 -33h170zM757 371q29 35 29 81q0 48 -32 85l-166 -166h169zM560 533q-29 -35 -29 -81q0 -49 33 -85l167 166h-171zM923 321q19 18 19 46q0 27 -19 45t-47 18
t-46.5 -18t-18.5 -45q0 -28 18.5 -46t46.5 -18t47 18zM123 392h28v35h-96v-35h29v-86h39v86zM220 306h41l-21 46q14 12 14 32q0 18 -13.5 30.5t-32.5 12.5h-50v-121h39v35h8zM267 306h38v121h-38v-121zM392 325l5 -19h42l-41 121h-45l-41 -121h41l5 19h34zM446 306h82v33
h-43v88h-39v-121zM1026 306h40v121h-39v-64l-37 64h-40v-121h39l-1 59zM1078 306h82v33h-43v88h-39v-121zM1221 306v48l41 73h-45l-16 -36l-15 36h-46l42 -73v-48h39zM895.5 387q7.5 -8 7.5 -20q0 -13 -7.5 -21t-19.5 -8q-11 0 -19 8t-8 21q0 12 8 20t19 8q12 0 19.5 -8z
M207 394q3 0 5.5 -3t2.5 -7t-2.5 -7.5t-5.5 -3.5h-10v21h10zM366 357l8 29h1l8 -29h-17zM574 357q37 -32 85 -32t85 32h-170zM515 176q12 -7 26 -7q11 0 18.5 6t7.5 17q0 13 -23 22q-9 3 -12.5 5.5t-3.5 7.5t4 8t10 3q11 0 20 -7v13q-10 5 -20 5q-12 0 -19 -6t-7 -16
q0 -9 5 -13.5t17 -9.5q17 -5 17 -12q0 -12 -14 -12q-13 0 -26 9v-13zM615.5 180.5q11.5 -11.5 28.5 -11.5t28.5 11.5t11.5 28.5t-11.5 28.5t-28.5 11.5t-28.5 -11.5t-11.5 -28.5t11.5 -28.5zM763 168v79h-12v-54l-49 55h-6v-78h12v52l49 -54h6zM81 247h-50v-77h12v29h33v11
h-33v26h38v11zM91 200q0 -13 9 -22t22 -9q14 0 23 8.5t9 22.5v47h-12v-47q0 -8 -6 -14t-14 -6t-13.5 5.5t-5.5 14.5v47h-12v-47zM181 247h-12v-77h47v11h-35v66zM239 247h-12v-77h48v11h-36v66zM347 170l32 77h-14l-22 -57l-22 57h-14l32 -77h8zM439 247h-50v-77h50v11h-38
v23h33v10h-33v22h38v11zM495 170h14l-15 31q12 7 12 21q0 11 -7 18t-18 7h-29v-77h12v28h18zM591 247h-12v-77h12v77zM663 188q-8 -8 -19 -8q-12 0 -20 8t-8 21q0 12 8 20t20 8q11 0 19 -8t8 -20q0 -13 -8 -21zM490 212q-4 -4 -9 -4h-17v28h17q5 0 9 -4t4 -10t-4 -10z
M1250 183l25 24l-25 24l-8 -7l13 -11h-458v-12h458l-13 -11zM511 53.5q17 -16.5 42 -16.5t42 16.5t17 41.5q0 24 -17 40.5t-42 16.5t-42 -16.5t-17 -40.5q0 -25 17 -41.5zM821 47q16 -10 38 -10q19 0 31.5 10t12.5 27q0 27 -36 35q-3 1 -7 2t-5.5 2.5t-1.5 3.5q0 4 11 4
q7 0 16.5 -3t15.5 -8v34q-18 8 -32 8q-21 0 -33 -9t-12 -25q0 -14 7.5 -21.5t24.5 -13.5q3 -1 10 -3t7 -6q0 -6 -9 -6q-13 0 -38 16v-37zM966 53.5q17 -16.5 41 -16.5q12 0 26 7l1 35q-10 -10 -25 -10q-11 0 -18 7.5t-7 18.5t7.5 18t17.5 7t22 -7v33q-10 6 -23 6
q-25 0 -42 -16.5t-17 -40.5q0 -25 17 -41.5zM1054 53.5q17 -16.5 43 -16.5q25 0 42 16.5t17 41.5q0 24 -17 40.5t-42 16.5t-42.5 -16.5t-17.5 -40.5q0 -25 17 -41.5zM32 118h36l-41 -78h95v31h-38l41 78h-93v-31zM211 149h-79v-109h80v30h-45v10h38v30h-38v9h44v30zM216 118
h26v-78h35v78h26v31h-87v-31zM332 57h31l4 -17h38l-37 109h-40l-37 -109h36zM490 149h-79v-109h35v34h37v29h-37v16h44v30zM724 40v109h-35v-58l-33 58h-36v-109h35l-1 53l34 -53h36zM730 118h26v-78h35v78h25v31h-86v-31zM1198 149h-35v-109h35v43l14 -27h25l14 27v-43h34
v109h-35l-26 -50zM570 76.5q-7 -7.5 -17 -7.5t-17 7.5t-7 18.5t7 18t17 7t17 -7t7 -18t-7 -18.5zM1114 76.5q-7 -7.5 -17 -7.5q-11 0 -18 7.5t-7 18.5t7.5 18t17.5 7t17 -7.5t7 -17.5q0 -11 -7 -18.5zM348 112l7 -26h-15l7 26h1zM913 42q5 -5 13 -5q7 0 12 5t5 12t-5 11.5
t-12 4.5q-8 0 -13 -4.5t-5 -11.5t5 -12z" />
    <glyph glyph-name="five" unicode="5" horiz-adv-x="1313" 
d="M1286 462v-193h-1254v193h486q4 56 44.5 94t96.5 38t96.5 -38t44.5 -94h486zM744 547q-38 33 -85 33q-49 0 -85 -33h170zM757 371q29 35 29 81q0 48 -32 85l-166 -166h169zM560 533q-29 -35 -29 -81q0 -49 33 -85l167 166h-171zM923 321q19 18 19 46q0 27 -19 45t-47 18
t-46.5 -18t-18.5 -45q0 -28 18.5 -46t46.5 -18t47 18zM123 392h28v35h-96v-35h29v-86h39v86zM220 306h41l-21 46q14 12 14 32q0 18 -13.5 30.5t-32.5 12.5h-50v-121h39v35h8zM267 306h38v121h-38v-121zM392 325l5 -19h42l-41 121h-45l-41 -121h41l5 19h34zM446 306h82v33
h-43v88h-39v-121zM1026 306h40v121h-39v-64l-37 64h-40v-121h39l-1 59zM1078 306h82v33h-43v88h-39v-121zM1221 306v48l41 73h-45l-16 -36l-15 36h-46l42 -73v-48h39zM895.5 387q7.5 -8 7.5 -20q0 -13 -7.5 -21t-19.5 -8q-11 0 -19 8t-8 21q0 12 8 20t19 8q12 0 19.5 -8z
M207 394q3 0 5.5 -3t2.5 -7t-2.5 -7.5t-5.5 -3.5h-10v21h10zM366 357l8 29h1l8 -29h-17zM574 357q37 -32 85 -32t85 32h-170zM515 176q12 -7 26 -7q11 0 18.5 6t7.5 17q0 13 -23 22q-9 3 -12.5 5.5t-3.5 7.5t4 8t10 3q11 0 20 -7v13q-10 5 -20 5q-12 0 -19 -6t-7 -16
q0 -9 5 -13.5t17 -9.5q17 -5 17 -12q0 -12 -14 -12q-13 0 -26 9v-13zM615.5 180.5q11.5 -11.5 28.5 -11.5t28.5 11.5t11.5 28.5t-11.5 28.5t-28.5 11.5t-28.5 -11.5t-11.5 -28.5t11.5 -28.5zM763 168v79h-12v-54l-49 55h-6v-78h12v52l49 -54h6zM81 247h-50v-77h12v29h33v11
h-33v26h38v11zM91 200q0 -13 9 -22t22 -9q14 0 23 8.5t9 22.5v47h-12v-47q0 -8 -6 -14t-14 -6t-13.5 5.5t-5.5 14.5v47h-12v-47zM181 247h-12v-77h47v11h-35v66zM239 247h-12v-77h48v11h-36v66zM347 170l32 77h-14l-22 -57l-22 57h-14l32 -77h8zM439 247h-50v-77h50v11h-38
v23h33v10h-33v22h38v11zM495 170h14l-15 31q12 7 12 21q0 11 -7 18t-18 7h-29v-77h12v28h18zM591 247h-12v-77h12v77zM663 188q-8 -8 -19 -8q-12 0 -20 8t-8 21q0 12 8 20t20 8q11 0 19 -8t8 -20q0 -13 -8 -21zM490 212q-4 -4 -9 -4h-17v28h17q5 0 9 -4t4 -10t-4 -10z
M1250 183l25 24l-25 24l-8 -7l13 -11h-458v-12h458l-13 -11zM511 53.5q17 -16.5 42 -16.5t42 16.5t17 41.5q0 24 -17 40.5t-42 16.5t-42 -16.5t-17 -40.5q0 -25 17 -41.5zM821 47q16 -10 38 -10q19 0 31.5 10t12.5 27q0 27 -36 35q-3 1 -7 2t-5.5 2.5t-1.5 3.5q0 4 11 4
q7 0 16.5 -3t15.5 -8v34q-18 8 -32 8q-21 0 -33 -9t-12 -25q0 -14 7.5 -21.5t24.5 -13.5q3 -1 10 -3t7 -6q0 -6 -9 -6q-13 0 -38 16v-37zM966 53.5q17 -16.5 41 -16.5q12 0 26 7l1 35q-10 -10 -25 -10q-11 0 -18 7.5t-7 18.5t7.5 18t17.5 7t22 -7v33q-10 6 -23 6
q-25 0 -42 -16.5t-17 -40.5q0 -25 17 -41.5zM1054 53.5q17 -16.5 43 -16.5q25 0 42 16.5t17 41.5q0 24 -17 40.5t-42 16.5t-42.5 -16.5t-17.5 -40.5q0 -25 17 -41.5zM32 118h36l-41 -78h95v31h-38l41 78h-93v-31zM211 149h-79v-109h80v30h-45v10h38v30h-38v9h44v30zM216 118
h26v-78h35v78h26v31h-87v-31zM332 57h31l4 -17h38l-37 109h-40l-37 -109h36zM490 149h-79v-109h35v34h37v29h-37v16h44v30zM724 40v109h-35v-58l-33 58h-36v-109h35l-1 53l34 -53h36zM730 118h26v-78h35v78h25v31h-86v-31zM1198 149h-35v-109h35v43l14 -27h25l14 27v-43h34
v109h-35l-26 -50zM570 76.5q-7 -7.5 -17 -7.5t-17 7.5t-7 18.5t7 18t17 7t17 -7t7 -18t-7 -18.5zM1114 76.5q-7 -7.5 -17 -7.5q-11 0 -18 7.5t-7 18.5t7.5 18t17.5 7t17 -7.5t7 -17.5q0 -11 -7 -18.5zM348 112l7 -26h-15l7 26h1zM913 42q5 -5 13 -5q7 0 12 5t5 12t-5 11.5
t-12 4.5q-8 0 -13 -4.5t-5 -11.5t5 -12z" />
    <glyph glyph-name="six" unicode="6" horiz-adv-x="1313" 
d="M1286 462v-193h-1254v193h486q4 56 44.5 94t96.5 38t96.5 -38t44.5 -94h486zM744 547q-38 33 -85 33q-49 0 -85 -33h170zM757 371q29 35 29 81q0 48 -32 85l-166 -166h169zM560 533q-29 -35 -29 -81q0 -49 33 -85l167 166h-171zM923 321q19 18 19 46q0 27 -19 45t-47 18
t-46.5 -18t-18.5 -45q0 -28 18.5 -46t46.5 -18t47 18zM123 392h28v35h-96v-35h29v-86h39v86zM220 306h41l-21 46q14 12 14 32q0 18 -13.5 30.5t-32.5 12.5h-50v-121h39v35h8zM267 306h38v121h-38v-121zM392 325l5 -19h42l-41 121h-45l-41 -121h41l5 19h34zM446 306h82v33
h-43v88h-39v-121zM1026 306h40v121h-39v-64l-37 64h-40v-121h39l-1 59zM1078 306h82v33h-43v88h-39v-121zM1221 306v48l41 73h-45l-16 -36l-15 36h-46l42 -73v-48h39zM895.5 387q7.5 -8 7.5 -20q0 -13 -7.5 -21t-19.5 -8q-11 0 -19 8t-8 21q0 12 8 20t19 8q12 0 19.5 -8z
M207 394q3 0 5.5 -3t2.5 -7t-2.5 -7.5t-5.5 -3.5h-10v21h10zM366 357l8 29h1l8 -29h-17zM574 357q37 -32 85 -32t85 32h-170zM515 176q12 -7 26 -7q11 0 18.5 6t7.5 17q0 13 -23 22q-9 3 -12.5 5.5t-3.5 7.5t4 8t10 3q11 0 20 -7v13q-10 5 -20 5q-12 0 -19 -6t-7 -16
q0 -9 5 -13.5t17 -9.5q17 -5 17 -12q0 -12 -14 -12q-13 0 -26 9v-13zM615.5 180.5q11.5 -11.5 28.5 -11.5t28.5 11.5t11.5 28.5t-11.5 28.5t-28.5 11.5t-28.5 -11.5t-11.5 -28.5t11.5 -28.5zM763 168v79h-12v-54l-49 55h-6v-78h12v52l49 -54h6zM81 247h-50v-77h12v29h33v11
h-33v26h38v11zM91 200q0 -13 9 -22t22 -9q14 0 23 8.5t9 22.5v47h-12v-47q0 -8 -6 -14t-14 -6t-13.5 5.5t-5.5 14.5v47h-12v-47zM181 247h-12v-77h47v11h-35v66zM239 247h-12v-77h48v11h-36v66zM347 170l32 77h-14l-22 -57l-22 57h-14l32 -77h8zM439 247h-50v-77h50v11h-38
v23h33v10h-33v22h38v11zM495 170h14l-15 31q12 7 12 21q0 11 -7 18t-18 7h-29v-77h12v28h18zM591 247h-12v-77h12v77zM663 188q-8 -8 -19 -8q-12 0 -20 8t-8 21q0 12 8 20t20 8q11 0 19 -8t8 -20q0 -13 -8 -21zM490 212q-4 -4 -9 -4h-17v28h17q5 0 9 -4t4 -10t-4 -10z
M1250 183l25 24l-25 24l-8 -7l13 -11h-458v-12h458l-13 -11zM511 53.5q17 -16.5 42 -16.5t42 16.5t17 41.5q0 24 -17 40.5t-42 16.5t-42 -16.5t-17 -40.5q0 -25 17 -41.5zM821 47q16 -10 38 -10q19 0 31.5 10t12.5 27q0 27 -36 35q-3 1 -7 2t-5.5 2.5t-1.5 3.5q0 4 11 4
q7 0 16.5 -3t15.5 -8v34q-18 8 -32 8q-21 0 -33 -9t-12 -25q0 -14 7.5 -21.5t24.5 -13.5q3 -1 10 -3t7 -6q0 -6 -9 -6q-13 0 -38 16v-37zM966 53.5q17 -16.5 41 -16.5q12 0 26 7l1 35q-10 -10 -25 -10q-11 0 -18 7.5t-7 18.5t7.5 18t17.5 7t22 -7v33q-10 6 -23 6
q-25 0 -42 -16.5t-17 -40.5q0 -25 17 -41.5zM1054 53.5q17 -16.5 43 -16.5q25 0 42 16.5t17 41.5q0 24 -17 40.5t-42 16.5t-42.5 -16.5t-17.5 -40.5q0 -25 17 -41.5zM32 118h36l-41 -78h95v31h-38l41 78h-93v-31zM211 149h-79v-109h80v30h-45v10h38v30h-38v9h44v30zM216 118
h26v-78h35v78h26v31h-87v-31zM332 57h31l4 -17h38l-37 109h-40l-37 -109h36zM490 149h-79v-109h35v34h37v29h-37v16h44v30zM724 40v109h-35v-58l-33 58h-36v-109h35l-1 53l34 -53h36zM730 118h26v-78h35v78h25v31h-86v-31zM1198 149h-35v-109h35v43l14 -27h25l14 27v-43h34
v109h-35l-26 -50zM570 76.5q-7 -7.5 -17 -7.5t-17 7.5t-7 18.5t7 18t17 7t17 -7t7 -18t-7 -18.5zM1114 76.5q-7 -7.5 -17 -7.5q-11 0 -18 7.5t-7 18.5t7.5 18t17.5 7t17 -7.5t7 -17.5q0 -11 -7 -18.5zM348 112l7 -26h-15l7 26h1zM913 42q5 -5 13 -5q7 0 12 5t5 12t-5 11.5
t-12 4.5q-8 0 -13 -4.5t-5 -11.5t5 -12z" />
    <glyph glyph-name="seven" unicode="7" horiz-adv-x="1313" 
d="M1286 462v-193h-1254v193h486q4 56 44.5 94t96.5 38t96.5 -38t44.5 -94h486zM744 547q-38 33 -85 33q-49 0 -85 -33h170zM757 371q29 35 29 81q0 48 -32 85l-166 -166h169zM560 533q-29 -35 -29 -81q0 -49 33 -85l167 166h-171zM923 321q19 18 19 46q0 27 -19 45t-47 18
t-46.5 -18t-18.5 -45q0 -28 18.5 -46t46.5 -18t47 18zM123 392h28v35h-96v-35h29v-86h39v86zM220 306h41l-21 46q14 12 14 32q0 18 -13.5 30.5t-32.5 12.5h-50v-121h39v35h8zM267 306h38v121h-38v-121zM392 325l5 -19h42l-41 121h-45l-41 -121h41l5 19h34zM446 306h82v33
h-43v88h-39v-121zM1026 306h40v121h-39v-64l-37 64h-40v-121h39l-1 59zM1078 306h82v33h-43v88h-39v-121zM1221 306v48l41 73h-45l-16 -36l-15 36h-46l42 -73v-48h39zM895.5 387q7.5 -8 7.5 -20q0 -13 -7.5 -21t-19.5 -8q-11 0 -19 8t-8 21q0 12 8 20t19 8q12 0 19.5 -8z
M207 394q3 0 5.5 -3t2.5 -7t-2.5 -7.5t-5.5 -3.5h-10v21h10zM366 357l8 29h1l8 -29h-17zM574 357q37 -32 85 -32t85 32h-170zM515 176q12 -7 26 -7q11 0 18.5 6t7.5 17q0 13 -23 22q-9 3 -12.5 5.5t-3.5 7.5t4 8t10 3q11 0 20 -7v13q-10 5 -20 5q-12 0 -19 -6t-7 -16
q0 -9 5 -13.5t17 -9.5q17 -5 17 -12q0 -12 -14 -12q-13 0 -26 9v-13zM615.5 180.5q11.5 -11.5 28.5 -11.5t28.5 11.5t11.5 28.5t-11.5 28.5t-28.5 11.5t-28.5 -11.5t-11.5 -28.5t11.5 -28.5zM763 168v79h-12v-54l-49 55h-6v-78h12v52l49 -54h6zM81 247h-50v-77h12v29h33v11
h-33v26h38v11zM91 200q0 -13 9 -22t22 -9q14 0 23 8.5t9 22.5v47h-12v-47q0 -8 -6 -14t-14 -6t-13.5 5.5t-5.5 14.5v47h-12v-47zM181 247h-12v-77h47v11h-35v66zM239 247h-12v-77h48v11h-36v66zM347 170l32 77h-14l-22 -57l-22 57h-14l32 -77h8zM439 247h-50v-77h50v11h-38
v23h33v10h-33v22h38v11zM495 170h14l-15 31q12 7 12 21q0 11 -7 18t-18 7h-29v-77h12v28h18zM591 247h-12v-77h12v77zM663 188q-8 -8 -19 -8q-12 0 -20 8t-8 21q0 12 8 20t20 8q11 0 19 -8t8 -20q0 -13 -8 -21zM490 212q-4 -4 -9 -4h-17v28h17q5 0 9 -4t4 -10t-4 -10z
M1250 183l25 24l-25 24l-8 -7l13 -11h-458v-12h458l-13 -11zM511 53.5q17 -16.5 42 -16.5t42 16.5t17 41.5q0 24 -17 40.5t-42 16.5t-42 -16.5t-17 -40.5q0 -25 17 -41.5zM821 47q16 -10 38 -10q19 0 31.5 10t12.5 27q0 27 -36 35q-3 1 -7 2t-5.5 2.5t-1.5 3.5q0 4 11 4
q7 0 16.5 -3t15.5 -8v34q-18 8 -32 8q-21 0 -33 -9t-12 -25q0 -14 7.5 -21.5t24.5 -13.5q3 -1 10 -3t7 -6q0 -6 -9 -6q-13 0 -38 16v-37zM966 53.5q17 -16.5 41 -16.5q12 0 26 7l1 35q-10 -10 -25 -10q-11 0 -18 7.5t-7 18.5t7.5 18t17.5 7t22 -7v33q-10 6 -23 6
q-25 0 -42 -16.5t-17 -40.5q0 -25 17 -41.5zM1054 53.5q17 -16.5 43 -16.5q25 0 42 16.5t17 41.5q0 24 -17 40.5t-42 16.5t-42.5 -16.5t-17.5 -40.5q0 -25 17 -41.5zM32 118h36l-41 -78h95v31h-38l41 78h-93v-31zM211 149h-79v-109h80v30h-45v10h38v30h-38v9h44v30zM216 118
h26v-78h35v78h26v31h-87v-31zM332 57h31l4 -17h38l-37 109h-40l-37 -109h36zM490 149h-79v-109h35v34h37v29h-37v16h44v30zM724 40v109h-35v-58l-33 58h-36v-109h35l-1 53l34 -53h36zM730 118h26v-78h35v78h25v31h-86v-31zM1198 149h-35v-109h35v43l14 -27h25l14 27v-43h34
v109h-35l-26 -50zM570 76.5q-7 -7.5 -17 -7.5t-17 7.5t-7 18.5t7 18t17 7t17 -7t7 -18t-7 -18.5zM1114 76.5q-7 -7.5 -17 -7.5q-11 0 -18 7.5t-7 18.5t7.5 18t17.5 7t17 -7.5t7 -17.5q0 -11 -7 -18.5zM348 112l7 -26h-15l7 26h1zM913 42q5 -5 13 -5q7 0 12 5t5 12t-5 11.5
t-12 4.5q-8 0 -13 -4.5t-5 -11.5t5 -12z" />
    <glyph glyph-name="eight" unicode="8" horiz-adv-x="1313" 
d="M1286 462v-193h-1254v193h486q4 56 44.5 94t96.5 38t96.5 -38t44.5 -94h486zM744 547q-38 33 -85 33q-49 0 -85 -33h170zM757 371q29 35 29 81q0 48 -32 85l-166 -166h169zM560 533q-29 -35 -29 -81q0 -49 33 -85l167 166h-171zM923 321q19 18 19 46q0 27 -19 45t-47 18
t-46.5 -18t-18.5 -45q0 -28 18.5 -46t46.5 -18t47 18zM123 392h28v35h-96v-35h29v-86h39v86zM220 306h41l-21 46q14 12 14 32q0 18 -13.5 30.5t-32.5 12.5h-50v-121h39v35h8zM267 306h38v121h-38v-121zM392 325l5 -19h42l-41 121h-45l-41 -121h41l5 19h34zM446 306h82v33
h-43v88h-39v-121zM1026 306h40v121h-39v-64l-37 64h-40v-121h39l-1 59zM1078 306h82v33h-43v88h-39v-121zM1221 306v48l41 73h-45l-16 -36l-15 36h-46l42 -73v-48h39zM895.5 387q7.5 -8 7.5 -20q0 -13 -7.5 -21t-19.5 -8q-11 0 -19 8t-8 21q0 12 8 20t19 8q12 0 19.5 -8z
M207 394q3 0 5.5 -3t2.5 -7t-2.5 -7.5t-5.5 -3.5h-10v21h10zM366 357l8 29h1l8 -29h-17zM574 357q37 -32 85 -32t85 32h-170zM515 176q12 -7 26 -7q11 0 18.5 6t7.5 17q0 13 -23 22q-9 3 -12.5 5.5t-3.5 7.5t4 8t10 3q11 0 20 -7v13q-10 5 -20 5q-12 0 -19 -6t-7 -16
q0 -9 5 -13.5t17 -9.5q17 -5 17 -12q0 -12 -14 -12q-13 0 -26 9v-13zM615.5 180.5q11.5 -11.5 28.5 -11.5t28.5 11.5t11.5 28.5t-11.5 28.5t-28.5 11.5t-28.5 -11.5t-11.5 -28.5t11.5 -28.5zM763 168v79h-12v-54l-49 55h-6v-78h12v52l49 -54h6zM81 247h-50v-77h12v29h33v11
h-33v26h38v11zM91 200q0 -13 9 -22t22 -9q14 0 23 8.5t9 22.5v47h-12v-47q0 -8 -6 -14t-14 -6t-13.5 5.5t-5.5 14.5v47h-12v-47zM181 247h-12v-77h47v11h-35v66zM239 247h-12v-77h48v11h-36v66zM347 170l32 77h-14l-22 -57l-22 57h-14l32 -77h8zM439 247h-50v-77h50v11h-38
v23h33v10h-33v22h38v11zM495 170h14l-15 31q12 7 12 21q0 11 -7 18t-18 7h-29v-77h12v28h18zM591 247h-12v-77h12v77zM663 188q-8 -8 -19 -8q-12 0 -20 8t-8 21q0 12 8 20t20 8q11 0 19 -8t8 -20q0 -13 -8 -21zM490 212q-4 -4 -9 -4h-17v28h17q5 0 9 -4t4 -10t-4 -10z
M1250 183l25 24l-25 24l-8 -7l13 -11h-458v-12h458l-13 -11zM511 53.5q17 -16.5 42 -16.5t42 16.5t17 41.5q0 24 -17 40.5t-42 16.5t-42 -16.5t-17 -40.5q0 -25 17 -41.5zM821 47q16 -10 38 -10q19 0 31.5 10t12.5 27q0 27 -36 35q-3 1 -7 2t-5.5 2.5t-1.5 3.5q0 4 11 4
q7 0 16.5 -3t15.5 -8v34q-18 8 -32 8q-21 0 -33 -9t-12 -25q0 -14 7.5 -21.5t24.5 -13.5q3 -1 10 -3t7 -6q0 -6 -9 -6q-13 0 -38 16v-37zM966 53.5q17 -16.5 41 -16.5q12 0 26 7l1 35q-10 -10 -25 -10q-11 0 -18 7.5t-7 18.5t7.5 18t17.5 7t22 -7v33q-10 6 -23 6
q-25 0 -42 -16.5t-17 -40.5q0 -25 17 -41.5zM1054 53.5q17 -16.5 43 -16.5q25 0 42 16.5t17 41.5q0 24 -17 40.5t-42 16.5t-42.5 -16.5t-17.5 -40.5q0 -25 17 -41.5zM32 118h36l-41 -78h95v31h-38l41 78h-93v-31zM211 149h-79v-109h80v30h-45v10h38v30h-38v9h44v30zM216 118
h26v-78h35v78h26v31h-87v-31zM332 57h31l4 -17h38l-37 109h-40l-37 -109h36zM490 149h-79v-109h35v34h37v29h-37v16h44v30zM724 40v109h-35v-58l-33 58h-36v-109h35l-1 53l34 -53h36zM730 118h26v-78h35v78h25v31h-86v-31zM1198 149h-35v-109h35v43l14 -27h25l14 27v-43h34
v109h-35l-26 -50zM570 76.5q-7 -7.5 -17 -7.5t-17 7.5t-7 18.5t7 18t17 7t17 -7t7 -18t-7 -18.5zM1114 76.5q-7 -7.5 -17 -7.5q-11 0 -18 7.5t-7 18.5t7.5 18t17.5 7t17 -7.5t7 -17.5q0 -11 -7 -18.5zM348 112l7 -26h-15l7 26h1zM913 42q5 -5 13 -5q7 0 12 5t5 12t-5 11.5
t-12 4.5q-8 0 -13 -4.5t-5 -11.5t5 -12z" />
    <glyph glyph-name="nine" unicode="9" horiz-adv-x="1313" 
d="M1286 462v-193h-1254v193h486q4 56 44.5 94t96.5 38t96.5 -38t44.5 -94h486zM744 547q-38 33 -85 33q-49 0 -85 -33h170zM757 371q29 35 29 81q0 48 -32 85l-166 -166h169zM560 533q-29 -35 -29 -81q0 -49 33 -85l167 166h-171zM923 321q19 18 19 46q0 27 -19 45t-47 18
t-46.5 -18t-18.5 -45q0 -28 18.5 -46t46.5 -18t47 18zM123 392h28v35h-96v-35h29v-86h39v86zM220 306h41l-21 46q14 12 14 32q0 18 -13.5 30.5t-32.5 12.5h-50v-121h39v35h8zM267 306h38v121h-38v-121zM392 325l5 -19h42l-41 121h-45l-41 -121h41l5 19h34zM446 306h82v33
h-43v88h-39v-121zM1026 306h40v121h-39v-64l-37 64h-40v-121h39l-1 59zM1078 306h82v33h-43v88h-39v-121zM1221 306v48l41 73h-45l-16 -36l-15 36h-46l42 -73v-48h39zM895.5 387q7.5 -8 7.5 -20q0 -13 -7.5 -21t-19.5 -8q-11 0 -19 8t-8 21q0 12 8 20t19 8q12 0 19.5 -8z
M207 394q3 0 5.5 -3t2.5 -7t-2.5 -7.5t-5.5 -3.5h-10v21h10zM366 357l8 29h1l8 -29h-17zM574 357q37 -32 85 -32t85 32h-170zM515 176q12 -7 26 -7q11 0 18.5 6t7.5 17q0 13 -23 22q-9 3 -12.5 5.5t-3.5 7.5t4 8t10 3q11 0 20 -7v13q-10 5 -20 5q-12 0 -19 -6t-7 -16
q0 -9 5 -13.5t17 -9.5q17 -5 17 -12q0 -12 -14 -12q-13 0 -26 9v-13zM615.5 180.5q11.5 -11.5 28.5 -11.5t28.5 11.5t11.5 28.5t-11.5 28.5t-28.5 11.5t-28.5 -11.5t-11.5 -28.5t11.5 -28.5zM763 168v79h-12v-54l-49 55h-6v-78h12v52l49 -54h6zM81 247h-50v-77h12v29h33v11
h-33v26h38v11zM91 200q0 -13 9 -22t22 -9q14 0 23 8.5t9 22.5v47h-12v-47q0 -8 -6 -14t-14 -6t-13.5 5.5t-5.5 14.5v47h-12v-47zM181 247h-12v-77h47v11h-35v66zM239 247h-12v-77h48v11h-36v66zM347 170l32 77h-14l-22 -57l-22 57h-14l32 -77h8zM439 247h-50v-77h50v11h-38
v23h33v10h-33v22h38v11zM495 170h14l-15 31q12 7 12 21q0 11 -7 18t-18 7h-29v-77h12v28h18zM591 247h-12v-77h12v77zM663 188q-8 -8 -19 -8q-12 0 -20 8t-8 21q0 12 8 20t20 8q11 0 19 -8t8 -20q0 -13 -8 -21zM490 212q-4 -4 -9 -4h-17v28h17q5 0 9 -4t4 -10t-4 -10z
M1250 183l25 24l-25 24l-8 -7l13 -11h-458v-12h458l-13 -11zM511 53.5q17 -16.5 42 -16.5t42 16.5t17 41.5q0 24 -17 40.5t-42 16.5t-42 -16.5t-17 -40.5q0 -25 17 -41.5zM821 47q16 -10 38 -10q19 0 31.5 10t12.5 27q0 27 -36 35q-3 1 -7 2t-5.5 2.5t-1.5 3.5q0 4 11 4
q7 0 16.5 -3t15.5 -8v34q-18 8 -32 8q-21 0 -33 -9t-12 -25q0 -14 7.5 -21.5t24.5 -13.5q3 -1 10 -3t7 -6q0 -6 -9 -6q-13 0 -38 16v-37zM966 53.5q17 -16.5 41 -16.5q12 0 26 7l1 35q-10 -10 -25 -10q-11 0 -18 7.5t-7 18.5t7.5 18t17.5 7t22 -7v33q-10 6 -23 6
q-25 0 -42 -16.5t-17 -40.5q0 -25 17 -41.5zM1054 53.5q17 -16.5 43 -16.5q25 0 42 16.5t17 41.5q0 24 -17 40.5t-42 16.5t-42.5 -16.5t-17.5 -40.5q0 -25 17 -41.5zM32 118h36l-41 -78h95v31h-38l41 78h-93v-31zM211 149h-79v-109h80v30h-45v10h38v30h-38v9h44v30zM216 118
h26v-78h35v78h26v31h-87v-31zM332 57h31l4 -17h38l-37 109h-40l-37 -109h36zM490 149h-79v-109h35v34h37v29h-37v16h44v30zM724 40v109h-35v-58l-33 58h-36v-109h35l-1 53l34 -53h36zM730 118h26v-78h35v78h25v31h-86v-31zM1198 149h-35v-109h35v43l14 -27h25l14 27v-43h34
v109h-35l-26 -50zM570 76.5q-7 -7.5 -17 -7.5t-17 7.5t-7 18.5t7 18t17 7t17 -7t7 -18t-7 -18.5zM1114 76.5q-7 -7.5 -17 -7.5q-11 0 -18 7.5t-7 18.5t7.5 18t17.5 7t17 -7.5t7 -17.5q0 -11 -7 -18.5zM348 112l7 -26h-15l7 26h1zM913 42q5 -5 13 -5q7 0 12 5t5 12t-5 11.5
t-12 4.5q-8 0 -13 -4.5t-5 -11.5t5 -12z" />
    <glyph glyph-name="colon" unicode=":" horiz-adv-x="256" 
d="M43.5 3.5q-26.5 20.5 -26.5 64.5t27 65t84 21t84 -21t27 -65t-26.5 -64.5t-84.5 -20.5t-84.5 20.5zM43.5 460.5q-26.5 20.5 -26.5 64.5t27 65t84 21t84 -21t27 -65t-26.5 -64.5t-84.5 -20.5t-84.5 20.5z" />
    <glyph glyph-name="semicolon" unicode=";" horiz-adv-x="256" 
d="M41 -71q33 -1 49 3.5t22 16t6 34.5q-49 0 -75 21t-26 63q0 44 26.5 65.5t81.5 21.5q58 0 84.5 -24t26.5 -77q0 -112 -40.5 -159t-123.5 -47q-20 0 -31 1v81zM43.5 460.5q-26.5 20.5 -26.5 64.5t27 65t84 21t84 -21t27 -65t-26.5 -64.5t-84.5 -20.5t-84.5 20.5z" />
    <glyph glyph-name="less" unicode="&#x3c;" horiz-adv-x="339" 
d="M189 102l-154 204v65l154 204l131 -76l-124 -160l124 -160z" />
    <glyph glyph-name="equal" unicode="=" horiz-adv-x="499" 
d="M448 343h-397v149h397v-149zM448 167h-397v149h397v-149z" />
    <glyph glyph-name="greater" unicode="&#x3e;" horiz-adv-x="339" 
d="M304 371v-65l-154 -204l-131 77l124 160l-124 160l131 76z" />
    <glyph glyph-name="question" unicode="?" horiz-adv-x="553" 
d="M151 196q-2 20 -2 62q0 51 18 88.5t43 61.5t64 52q36 26 52 43t16 39q0 27 -15.5 39.5t-47.5 12.5q-38 0 -54.5 -19.5t-16.5 -62.5v-7h-185v13q0 121 69 181.5t192 60.5q113 0 179.5 -50.5t66.5 -148.5q0 -45 -15.5 -79t-37.5 -56.5t-58 -51.5q-45 -37 -67 -64.5
t-23 -67.5l-2 -46h-176zM160.5 3.5q-25.5 20.5 -25.5 64.5t25.5 65t82.5 21t82.5 -21t25.5 -65t-25.5 -64.5t-82.5 -20.5t-82.5 20.5z" />
    <glyph glyph-name="at" unicode="@" horiz-adv-x="833" 
d="M590 64l7 50h-5q-19 -48 -57.5 -72.5t-90.5 -24.5q-95 0 -138 64t-43 196v13q0 131 43.5 196t137.5 65q51 0 89.5 -25t58.5 -73h4l-3 23q-5 55 -51.5 91.5t-121.5 36.5q-102 0 -157 -70t-55 -239v-57q0 -105 29 -165.5t88 -85.5t156 -25h286v-147h-290
q-138 0 -236.5 34.5t-156 123t-57.5 242.5v103q0 236 106 338.5t283 102.5q175 0 275.5 -94t100.5 -274v-358h-202v31zM591 258v61q0 34 -15 62t-52 28q-64 0 -64 -96v-60q0 -44 13.5 -68.5t49.5 -24.5q68 0 68 98z" />
    <glyph glyph-name="A" unicode="A" horiz-adv-x="687" 
d="M682 0h-223l-25 124h-180l-26 -124h-222l193 744h289zM331 496l-44 -212h114l-44 212l-12 68h-2z" />
    <glyph glyph-name="B" unicode="B" horiz-adv-x="643" 
d="M51 0v744h293q114 0 178.5 -46.5t64.5 -135.5v-3q0 -122 -110 -164v-1q69 -13 104.5 -58t35.5 -114v-5q0 -105 -65.5 -161t-190.5 -56h-310zM322 451q39 0 56 16.5t17 52.5q0 33 -17 48.5t-55 15.5h-63v-133h62zM326 159q42 0 60.5 18t18.5 57q0 38 -19.5 55t-62.5 17
h-63v-147h66z" />
    <glyph glyph-name="C" unicode="C" horiz-adv-x="656" 
d="M108.5 64q-75.5 81 -75.5 241v131q0 161 75 242.5t223 81.5t222 -77t75 -220v-19h-214v30q-1 52 -20 79t-62 27q-83 0 -83 -119v-179q0 -120 83 -120q40 0 61 25t22 79v36h213v-23q-2 -296 -297 -296q-147 0 -222.5 81z" />
    <glyph glyph-name="D" unicode="D" horiz-adv-x="672" 
d="M51 0v744h298q152 0 221 -82.5t69 -252.5v-75q0 -169 -68.5 -251.5t-220.5 -82.5h-299zM321 170q52 0 77.5 30.5t25.5 104.5v133q0 75 -25.5 105t-78.5 30h-54v-403h55z" />
    <glyph glyph-name="E" unicode="E" horiz-adv-x="560" 
d="M535 0h-484v744h477v-172h-262v-116h233v-158h-233v-124h269v-174z" />
    <glyph glyph-name="F" unicode="F" horiz-adv-x="536" 
d="M267 0h-216v744h470v-174h-254v-128h224v-171h-224v-271z" />
    <glyph glyph-name="G" unicode="G" horiz-adv-x="656" 
d="M108.5 64.5q-75.5 81.5 -75.5 241.5v130q0 161 75 242.5t224 81.5q147 0 220.5 -75t73.5 -216v-3h-212v20q0 45 -20 70.5t-62 25.5q-40 0 -62 -28.5t-22 -86.5v-192q0 -125 87 -125q86 0 89 96v6h-90v147h294v-76q0 -176 -70 -258t-225 -82q-149 0 -224.5 81.5z" />
    <glyph glyph-name="H" unicode="H" horiz-adv-x="689" 
d="M422 463v281h216v-744h-216v288h-156v-288h-215v744h215v-281h156z" />
    <glyph glyph-name="I" unicode="I" horiz-adv-x="318" 
d="M266 0h-215v744h215v-744z" />
    <glyph glyph-name="J" unicode="J" horiz-adv-x="501" 
d="M245 744h215v-491q0 -142 -70 -206t-210 -64q-81 0 -173 19l6 175q78 -16 131 -16t77 25t24 82v305h-206v170h206v1z" />
    <glyph glyph-name="K" unicode="K" horiz-adv-x="665" 
d="M266 0h-215v744h215v-276h48l94 276h231l-152 -358v-5l172 -381h-232l-113 294h-48v-294z" />
    <glyph glyph-name="L" unicode="L" horiz-adv-x="519" 
d="M504 0h-453v744h215v-567h238v-177z" />
    <glyph glyph-name="M" unicode="M" horiz-adv-x="850" 
d="M256 0h-205v744h258l107 -386l8 -36h2l9 36l106 386h258v-744h-204v365l2 80h-2l-10 -33l-94 -320h-132l-94 320l-10 33h-2l3 -80v-365z" />
    <glyph glyph-name="N" unicode="N" horiz-adv-x="710" 
d="M257 0h-206v744h222l157 -347l22 -54h2l-1 61v340h205v-744h-221l-157 344l-23 53h-1l1 -61v-336z" />
    <glyph glyph-name="O" unicode="O" horiz-adv-x="667" 
d="M109 64.5q-76 81.5 -76 240.5v133q0 159 76 240.5t224 81.5q149 0 225 -81.5t76 -240.5v-133q0 -159 -76 -240.5t-224 -81.5q-149 0 -225 81.5zM418 282v179q0 119 -84 119q-85 0 -85 -119v-179q0 -119 85 -119q84 0 84 119z" />
    <glyph glyph-name="P" unicode="P" horiz-adv-x="635" 
d="M51 0v744h301q129 0 200.5 -68t71.5 -200v-13q0 -137 -67.5 -207t-187.5 -70h-103v-186h-215zM325 360q42 0 63 22.5t21 79.5v9q0 53 -20 75.5t-62 22.5h-61v-209h59z" />
    <glyph glyph-name="Q" unicode="Q" horiz-adv-x="667" 
d="M558 678.5q76 -81.5 76 -240.5v-133q0 -130 -50.5 -208t-150.5 -103v-136h-186v133q-106 22 -160 101t-54 213v133q0 159 76 240.5t224 81.5q149 0 225 -81.5zM249 282q0 -119 85 -119q84 0 84 119v179q0 119 -84 119q-85 0 -85 -119v-179z" />
    <glyph glyph-name="R" unicode="R" horiz-adv-x="646" 
d="M51 0v744h301q136 0 203.5 -57.5t67.5 -165.5v-8q0 -71 -31 -119t-88 -64v-1q97 -23 107 -173l5 -64q5 -62 19 -92h-214q-10 36 -17 118l-5 53q-4 38 -23.5 56t-59.5 18h-50v-245h-215zM330 395q38 0 58.5 21t20.5 70v9q0 83 -73 83h-70v-183h64z" />
    <glyph glyph-name="S" unicode="S" horiz-adv-x="615" 
d="M95.5 47q-72.5 64 -73.5 189h207q0 -88 82 -88q34 0 51 16.5t17 44.5q0 27 -11.5 42t-35.5 26.5t-87 35.5q-82 27 -128 57t-65.5 70t-19.5 101v1q0 102 72 160t202 58q137 0 206.5 -66.5t68.5 -184.5h-198q-1 41 -18.5 63t-57.5 22q-32 0 -47.5 -14.5t-15.5 -38.5v-1
q0 -28 20.5 -44t70.5 -32q100 -30 155.5 -64.5t79 -80t23.5 -111.5q0 -107 -76 -166t-207 -59q-142 0 -214.5 64z" />
    <glyph glyph-name="T" unicode="T" horiz-adv-x="544" 
d="M379 0h-215v566h-156v178h528v-178h-157v-566z" />
    <glyph glyph-name="U" unicode="U" horiz-adv-x="667" 
d="M109.5 55.5q-68.5 72.5 -68.5 230.5v458h215v-475q0 -106 78 -106q77 0 77 106v475h215v-457q0 -158 -68.5 -231t-224.5 -73q-155 0 -223.5 72.5z" />
    <glyph glyph-name="V" unicode="V" horiz-adv-x="682" 
d="M197 0l-191 744h222l106 -528l6 -41h2l6 41l106 528h223l-193 -744h-287z" />
    <glyph glyph-name="W" unicode="W" horiz-adv-x="995" 
d="M425 0h-272l-147 744h216l70 -504l8 -59h1l8 59l71 504h236l70 -504l8 -59h2l7 59l70 504h217l-147 -744h-272l-65 482l-7 60h-3l-6 -60z" />
    <glyph glyph-name="X" unicode="X" horiz-adv-x="668" 
d="M239 0h-233l159 382l-144 362h232l67 -226l13 -46h3l13 46l67 226h232l-144 -361l159 -383h-232l-81 245l-15 47h-2l-15 -48z" />
    <glyph glyph-name="Y" unicode="Y" horiz-adv-x="645" 
d="M431 0h-216v204l-209 540h230l79 -298l7 -38h1l8 38l77 298h232l-209 -540v-204z" />
    <glyph glyph-name="Z" unicode="Z" horiz-adv-x="564" 
d="M550 0h-535v162l272 396h-259v186h513v-155l-274 -404h283v-185z" />
    <glyph glyph-name="bracketleft" unicode="[" horiz-adv-x="384" 
d="M360 12v-172h-309v963h309v-171h-99v-620h99z" />
    <glyph glyph-name="backslash" unicode="\" horiz-adv-x="527" 
d="M300 -103l-294 848h222l294 -848h-222z" />
    <glyph glyph-name="bracketright" unicode="]" horiz-adv-x="385" 
d="M333 -160h-308v172h99v620h-99v171h308v-963z" />
    <glyph glyph-name="asciicircum" unicode="^" horiz-adv-x="451" 
d="M354 740l78 -269h-159l-44 163h-7l-44 -163h-159l79 269h256z" />
    <glyph glyph-name="underscore" unicode="_" horiz-adv-x="589" 
d="M589 -37v-97h-589v97h589z" />
    <glyph glyph-name="grave" unicode="`" horiz-adv-x="294" 
d="M264 668h-115l-129 150h177z" />
    <glyph glyph-name="a" unicode="a" horiz-adv-x="603" 
d="M498.5 547.5q61.5 -63.5 61.5 -180.5v-367h-202v38l5 44h-2q-45 -99 -153 -99q-88 0 -135.5 50.5t-47.5 135.5q0 87 55 135.5t165 48.5q57 0 113 -17v48q0 76 -63 76q-31 0 -46 -20t-15 -48v-9h-195q1 101 63 164.5t195 63.5q140 0 201.5 -63.5zM340 165.5
q18 28.5 18 74.5v5q-13 7 -32.5 11.5t-37.5 4.5q-64 0 -64 -62q0 -32 14 -47t45 -15q39 0 57 28.5z" />
    <glyph glyph-name="b" unicode="b" horiz-adv-x="615" 
d="M544 539q44 -72 44 -219v-41q0 -151 -44.5 -223.5t-142.5 -72.5q-52 0 -93.5 26.5t-62.5 76.5h-3l5 -55v-31h-202v766h202v-199l-4 -59h2q23 52 63.5 77.5t92.5 25.5q99 0 143 -72zM385 338q0 53 -14 84t-53 31q-71 0 -71 -108v-100q0 -46 17 -75t54 -29q40 0 53.5 28
t13.5 84v85z" />
    <glyph glyph-name="c" unicode="c" horiz-adv-x="577" 
d="M94.5 58q-67.5 74 -67.5 216v50q0 141 68.5 214t201.5 73q119 0 187.5 -64.5t69.5 -194.5v-5h-194v28q-2 40 -17 59t-46 19q-68 0 -68 -97v-115q0 -100 68 -100q61 0 64 82v30h193v-5q-1 -135 -69.5 -199.5t-190.5 -64.5q-132 0 -199.5 74z" />
    <glyph glyph-name="d" unicode="d" horiz-adv-x="616" 
d="M368 766h203v-766h-203v31l6 55h-3q-22 -50 -64 -76.5t-93 -26.5q-98 0 -142.5 72.5t-44.5 223.5v41q0 147 44.5 219t142.5 72q52 0 93 -25.5t64 -77.5h2l-5 59v199zM351.5 169.5q16.5 28.5 16.5 75.5v100q0 108 -70 108q-40 0 -54 -31t-14 -84v-85q0 -56 13.5 -84
t53.5 -28q38 0 54.5 28.5z" />
    <glyph glyph-name="e" unicode="e" horiz-adv-x="581" 
d="M554 249h-325v-10q0 -52 16 -78.5t50 -26.5q33 0 48.5 18t17.5 56h191q-5 -106 -71.5 -165.5t-189.5 -59.5q-130 0 -197 76.5t-67 213.5v52q0 135 68 210.5t199 75.5q127 0 193.5 -69.5t66.5 -205.5v-87zM229 357h132v7q0 50 -15.5 74t-50.5 24q-34 0 -50 -25t-16 -79v-1
z" />
    <glyph glyph-name="f" unicode="f" horiz-adv-x="411" 
d="M296 639q-15 -12 -17 -45h128v-158h-129v-436h-203v436h-68v158h70q8 104 60 151t163 47q46 0 113 -13l-7 -132q-42 4 -54 4q-41 0 -56 -12z" />
    <glyph glyph-name="g" unicode="g" horiz-adv-x="616" 
d="M369 594h202v-518q0 -138 -73.5 -205.5t-224.5 -67.5q-99 0 -188 25l7 147q28 -9 69.5 -14.5t80.5 -5.5q121 0 128 97v1l4 68h-2q-22 -48 -63.5 -74t-93.5 -26q-98 0 -143 71.5t-45 216.5v18q0 144 45 214t143 70q52 0 94 -26.5t63 -76.5h2l-5 54v32zM352.5 204.5
q16.5 27.5 16.5 71.5v71q0 45 -16 75.5t-55 30.5t-53.5 -30t-14.5 -79v-69q0 -46 14.5 -72t53.5 -26q38 0 54.5 27.5z" />
    <glyph glyph-name="h" unicode="h" horiz-adv-x="628" 
d="M585 395v-395h-203v367q0 41 -15.5 61.5t-45.5 20.5q-36 0 -55 -29t-19 -73v-347h-202v766h202v-205l-5 -56h2q24 53 65.5 79.5t94.5 26.5q181 0 181 -216z" />
    <glyph glyph-name="i" unicode="i" horiz-adv-x="292" 
d="M60 668q-27 21 -27 68q0 48 27 69.5t86 21.5q60 0 87 -21.5t27 -69.5q0 -47 -27 -68t-87 -21q-59 0 -86 21zM247 0h-202v594h202v-594z" />
    <glyph glyph-name="j" unicode="j" horiz-adv-x="294" 
d="M62 668q-27 21 -27 68q0 48 27 69.5t86 21.5q60 0 87 -21.5t27 -69.5q0 -47 -27 -68t-87 -21q-59 0 -86 21zM-63 -187l5 143q25 -5 46 -5q34 0 46.5 21t12.5 75v547h202v-540q0 -125 -54 -187.5t-180 -62.5q-33 0 -78 9z" />
    <glyph glyph-name="k" unicode="k" horiz-adv-x="612" 
d="M247 0h-202v766h202v-381h48l77 209h220l-125 -291l144 -303h-226l-91 229h-47v-229z" />
    <glyph glyph-name="l" unicode="l" horiz-adv-x="292" 
d="M247 0h-202v766h202v-766z" />
    <glyph glyph-name="m" unicode="m" horiz-adv-x="951" 
d="M45 0v594h202v-33l-5 -56h2q23 52 66 79t99 27q61 0 101.5 -28.5t56.5 -78.5h2q23 51 66 79t99 28q100 0 137 -67t37 -170v-374h-203v361q0 40 -12 64t-45 24q-32 0 -51 -28.5t-19 -70.5v-350h-203v366q0 83 -58 83q-32 0 -51 -28.5t-19 -70.5v-350h-202z" />
    <glyph glyph-name="n" unicode="n" horiz-adv-x="627" 
d="M585 394v-394h-203v368q0 40 -16 60.5t-46 20.5q-36 0 -54.5 -29t-18.5 -73v-347h-202v594h202v-32l-5 -57h1q49 106 161 106q181 0 181 -217z" />
    <glyph glyph-name="o" unicode="o" horiz-adv-x="600" 
d="M96 57q-69 74 -69 215v52q0 140 69.5 213.5t203.5 73.5q135 0 204 -73.5t69 -213.5v-52q0 -142 -69 -215.5t-204 -73.5t-204 74zM370 240v114q0 99 -70 99t-70 -99v-114q0 -99 70 -99t70 99z" />
    <glyph glyph-name="p" unicode="p" horiz-adv-x="615" 
d="M543.5 538.5q44.5 -72.5 44.5 -224.5v-40q0 -147 -44 -219t-143 -72q-52 0 -93.5 26.5t-62.5 76.5h-3l5 -59v-207h-202v774h202v-31l-5 -55h3q21 50 62.5 76.5t93.5 26.5q98 0 142.5 -72.5zM385 341q0 53 -14 82.5t-53 29.5q-71 0 -71 -107v-98q0 -49 15.5 -78t55.5 -29
q39 0 53 29.5t14 86.5v84z" />
    <glyph glyph-name="q" unicode="q" horiz-adv-x="616" 
d="M368 594h203v-774h-203v207l5 59h-2q-22 -50 -64 -76.5t-93 -26.5q-98 0 -142.5 72t-44.5 219v40q0 152 44.5 224.5t142.5 72.5q52 0 93.5 -26.5t62.5 -76.5h3l-5 55v31zM352.5 169.5q15.5 28.5 15.5 78.5v98q0 51 -16 79t-55 28t-53 -30t-14 -82v-84q0 -57 14 -86.5
t54 -29.5q39 0 54.5 28.5z" />
    <glyph glyph-name="r" unicode="r" horiz-adv-x="447" 
d="M438 603v-180q-28 7 -60 7q-63 0 -97 -39t-34 -113v-278h-202v594h202v-33l-6 -58h2q17 51 54.5 79.5t84.5 28.5q32 0 56 -8z" />
    <glyph glyph-name="s" unicode="s" horiz-adv-x="571" 
d="M89.5 40q-65.5 56 -65.5 159h194q1 -73 74 -73q28 0 42 11.5t14 32.5v2q0 25 -18.5 38t-71.5 24q-86 19 -135 45.5t-69 63.5t-20 91v1q0 81 58.5 128.5t186.5 47.5t190 -51.5t62 -144.5h-184q-1 24 -16 39t-46 15q-51 0 -51 -39v-1q0 -23 18 -35t70 -23
q122 -24 174.5 -70.5t52.5 -129.5q0 -91 -66.5 -139t-195.5 -48q-132 0 -197.5 56z" />
    <glyph glyph-name="t" unicode="t" horiz-adv-x="415" 
d="M407 160v-159q-67 -18 -137 -18q-102 0 -149 54t-47 158v241h-67v158h67v131h203v-131h122v-158h-122v-199q0 -44 14.5 -63.5t48.5 -19.5q32 0 67 6z" />
    <glyph glyph-name="u" unicode="u" horiz-adv-x="627" 
d="M380 594h203v-594h-203v33l6 56h-2q-49 -106 -161 -106q-180 0 -180 217v394h202v-368q0 -40 16 -60.5t46 -20.5q36 0 54.5 29t18.5 73v347z" />
    <glyph glyph-name="v" unicode="v" horiz-adv-x="588" 
d="M429 0h-271l-156 594h211l75 -376l4 -44h3l3 44l76 376h212z" />
    <glyph glyph-name="w" unicode="w" horiz-adv-x="887" 
d="M379 0h-252l-125 594h208l56 -374l3 -46h2l5 46l67 374h202l67 -374l4 -46h3l3 46l56 374h208l-125 -594h-253l-60 365l-3 25h-3l-2 -25z" />
    <glyph glyph-name="x" unicode="x" horiz-adv-x="604" 
d="M223 0h-221l146 311l-129 283h217l59 -176l6 -24h2l6 23l59 177h218l-129 -283l145 -311h-221l-72 191l-6 19h-2l-6 -19z" />
    <glyph glyph-name="y" unicode="y" horiz-adv-x="588" 
d="M112 -57q60 12 90.5 29t40.5 48l2 5h-79l-164 569h211l75 -351l5 -43h2l5 43l74 351h212l-157 -556q-28 -104 -98.5 -162t-192.5 -70z" />
    <glyph glyph-name="z" unicode="z" horiz-adv-x="515" 
d="M498 0h-480v137l234 301h-216v156h458v-148l-235 -290h239v-156z" />
    <glyph glyph-name="braceleft" unicode="{" horiz-adv-x="395" 
d="M345 -161q-141 0 -212.5 51t-71.5 145q0 28 12 100q7 47 7 59q0 51 -72 68v115q72 16 72 69q0 7 -8 63q-11 79 -11 99q0 94 71 144.5t213 50.5h25v-166h-18q-46 0 -65 -15.5t-19 -45.5q0 -13 8 -71q1 -11 5 -38.5t4 -41.5q0 -71 -73 -105q37 -17 55 -42.5t18 -63.5
q0 -21 -10 -87q-7 -47 -7 -61q0 -31 19 -46.5t65 -15.5h18v-165h-25z" />
    <glyph glyph-name="bar" unicode="|" horiz-adv-x="300" 
d="M249 784v-824h-198v824h198z" />
    <glyph glyph-name="braceright" unicode="}" horiz-adv-x="395" 
d="M25 -161v165h18q46 0 65.5 16t19.5 46q0 7 -8 61q-10 66 -10 87q0 38 18 63.5t55 42.5q-73 34 -73 105q0 14 4 41.5t5 38.5q8 58 8 71q0 30 -19 45.5t-65 15.5h-18v166h25q142 0 213 -50.5t71 -144.5q0 -20 -11 -99q-8 -56 -8 -63q0 -53 72 -69v-115q-72 -17 -72 -68
q0 -12 7 -59q12 -72 12 -100q0 -94 -71.5 -145t-212.5 -51h-25z" />
    <glyph glyph-name="asciitilde" unicode="~" horiz-adv-x="452" 
d="M252.5 315q-20.5 6 -45.5 17q-26 11 -36 11q-21 0 -24 -34l-95 14q2 66 26.5 98.5t74.5 32.5q27 0 48.5 -6.5t44.5 -16.5q3 -1 15 -6t21 -5q21 0 24 34l95 -15q-2 -130 -101 -130q-27 0 -47.5 6z" />
    <glyph glyph-name="exclamdown" unicode="&#xa1;" horiz-adv-x="313" 
d="M238.5 590.5q25.5 -20.5 25.5 -64.5t-25.5 -65t-82.5 -21q-56 0 -82 21t-26 65t25.5 64.5t82.5 20.5t82.5 -20.5zM244 390q12 -82 16.5 -177.5t4.5 -362.5h-217q0 269 5 364.5t18 175.5h173z" />
    <glyph glyph-name="cent" unicode="&#xa2;" horiz-adv-x="577" 
d="M554 347h-194v28q-2 40 -17 59t-46 19q-68 0 -68 -97v-115q0 -100 68 -100q61 0 64 82v30h193v-5q-3 -216 -178 -256v-118h-168v120q-90 22 -135.5 92.5t-45.5 187.5v50q0 115 45.5 185t135.5 92v118h168v-116q84 -19 130.5 -82t47.5 -169v-5z" />
    <glyph glyph-name="sterling" unicode="&#xa3;" horiz-adv-x="596" 
d="M523.5 149q23.5 6 48.5 22v-159q-25 -16 -51 -22t-61 -6q-36 0 -99 13q-42 8 -67.5 11.5t-54.5 3.5q-50 0 -93.5 -6.5t-112.5 -22.5v134q63 32 88 59.5t25 59.5q0 21 -5 36h-123v104h62q-28 40 -40 77t-12 90q0 103 72 159.5t197 56.5q135 0 201 -62.5t66 -190.5v-15
h-198v13q0 48 -16 72t-58 24q-34 0 -53 -15.5t-19 -47.5t9 -57t32 -55q17 -22 32 -49h166v-104h-137v-13q0 -50 -23 -88h15q20 0 37 -3.5t45 -11.5q4 -1 26.5 -7t44.5 -6q33 0 56.5 6z" />
    <glyph glyph-name="currency" unicode="&#xa4;" horiz-adv-x="451" 
d="M407 305q0 -63 -26 -109l30 -46l-102 -68l-27 41q-25 -6 -56 -6q-32 0 -57 6l-27 -41l-102 68l29 45q-26 44 -26 109v28q0 67 27 112l-30 45l102 67l27 -40q25 6 56 6q33 0 57 -7l27 41l102 -67l-30 -46q26 -46 26 -110v-28zM265 310v18q0 70 -39 70q-41 0 -41 -70v-18
q0 -69 41 -69q39 0 39 69z" />
    <glyph glyph-name="yen" unicode="&#xa5;" horiz-adv-x="645" 
d="M408 744h232l-188 -485h95v-82h-116v-42h116v-81h-116v-54h-216v54h-117v81h117v42h-117v82h96l-188 485h230l79 -298l7 -38h1l8 38z" />
    <glyph glyph-name="brokenbar" unicode="&#xa6;" horiz-adv-x="300" 
d="M249 784v-383h-198v383h198zM51 -40v388h198v-388h-198z" />
    <glyph glyph-name="section" unicode="&#xa7;" horiz-adv-x="579" 
d="M549 125v-1q0 -91 -59 -136t-189 -45q-252 0 -255 197h178q0 -29 16 -48t51 -19q29 0 44 12.5t15 35.5v1q0 27 -17.5 40t-65.5 19q-122 15 -180.5 53t-58.5 123q0 74 49 115q-41 41 -41 105v2q0 91 58.5 136t188.5 45q251 0 256 -197h-178q-2 66 -68 66q-28 0 -43 -12.5
t-15 -35.5q0 -27 18 -40.5t65 -19.5q122 -15 180.5 -53t58.5 -122q0 -74 -51 -114q43 -40 43 -107zM227 362q0 -28 23 -43.5t73 -21.5q36 9 36 42v2q0 28 -23.5 43.5t-75.5 21.5q-33 -11 -33 -43v-1z" />
    <glyph glyph-name="dieresis" unicode="&#xa8;" horiz-adv-x="437" 
d="M43 686.5q-22 20.5 -22 64.5t22 65t69 21q48 0 69.5 -21t21.5 -65t-21.5 -64.5t-69.5 -20.5q-47 0 -69 20.5zM263 686.5q-22 20.5 -22 64.5t22 65t69 21q48 0 69.5 -21t21.5 -65t-21.5 -64.5t-69.5 -20.5q-47 0 -69 20.5z" />
    <glyph glyph-name="copyright" unicode="&#xa9;" horiz-adv-x="849" 
d="M208.5 29.5q-89.5 46.5 -135.5 133.5t-46 207q0 186 103 288t294 102t294 -102t103 -288q0 -120 -46 -207t-134.5 -133.5t-215.5 -46.5t-216.5 46.5zM686 370q0 134 -64 202.5t-197 68.5q-263 0 -263 -271q0 -130 64.5 -199t198.5 -69q261 0 261 268zM272.5 206
q-53.5 56 -53.5 166v1q0 110 54 165t152 55q95 0 148.5 -48t56.5 -143h-134q-4 43 -21 60.5t-47 17.5q-67 0 -67 -96v-27q0 -95 67 -95q31 0 47.5 19.5t20.5 60.5h133q-3 -95 -56 -143.5t-148 -48.5q-99 0 -152.5 56z" />
    <glyph glyph-name="guillemotleft" unicode="&#xab;" horiz-adv-x="586" 
d="M321 78h-189l-130 191v38l130 191h189l-143 -210zM584 78h-189l-130 191v38l130 191h189l-143 -210z" />
    <glyph glyph-name="logicalnot" unicode="&#xac;" horiz-adv-x="597" 
d="M51 403h495v-239h-135v121h-360v118z" />
    <glyph glyph-name="uni00AD" unicode="&#xad;" horiz-adv-x="525" 
d="M474 353v-156h-423v156h423z" />
    <glyph glyph-name="registered" unicode="&#xae;" horiz-adv-x="849" 
d="M718 658q103 -102 103 -288q0 -120 -46 -207t-134.5 -133.5t-215.5 -46.5t-216.5 46.5t-135.5 133.5t-46 207q0 186 103 288t294 102t294 -102zM686 370q0 134 -64 202.5t-197 68.5q-263 0 -263 -271q0 -130 64.5 -199t198.5 -69q261 0 261 268zM593 208q4 -31 14 -49
h-121q-6 12 -9 21t-4 24l-5 57q-2 22 -13.5 33.5t-38.5 11.5h-37v-147h-118v429h185q73 0 111.5 -36t38.5 -100q0 -38 -15 -67t-41 -48q42 -17 48 -75zM414 388q32 0 47.5 10.5t15.5 37.5v19q0 45 -59 45h-43v-112h39z" />
    <glyph glyph-name="macron" unicode="&#xaf;" horiz-adv-x="359" 
d="M341 667h-322v120h322v-120z" />
    <glyph glyph-name="degree" unicode="&#xb0;" horiz-adv-x="353" 
d="M69 590q-36 28 -36 82t36 82t108 28q71 0 107.5 -28t36.5 -82t-36.5 -82t-107.5 -28q-72 0 -108 28zM211 672q0 39 -34 39q-35 0 -35 -39q0 -38 35 -38q34 0 34 38z" />
    <glyph glyph-name="plusminus" unicode="&#xb1;" horiz-adv-x="499" 
d="M448 428v-149h-117v-123h117v-149h-397v149h119v123h-119v149h119v127h161v-127h117z" />
    <glyph glyph-name="acute" unicode="&#xb4;" horiz-adv-x="294" 
d="M275 818l-129 -150h-115l66 150h178z" />
    <glyph glyph-name="uni00B5" unicode="&#xb5;" horiz-adv-x="621" 
d="M577 177q0 -23 6 -31.5t22 -8.5v-140q-12 -6 -34 -10t-47 -4q-66 0 -93.5 28t-27.5 63v12h-3q-13 -51 -44 -77t-76 -26q-36 0 -60 18l5 -36l13 -145h-202v774h203v-380q0 -44 12 -68t47 -24q37 0 56 29t20 74v369h203v-417z" />
    <glyph glyph-name="paragraph" unicode="&#xb6;" horiz-adv-x="712" 
d="M661 -178h-162v772h-51v-772h-163v413h-47q-104 0 -165 62t-61 169v55q0 67 28.5 117.5t81 78t120.5 27.5h419v-922z" />
    <glyph glyph-name="periodcentered" unicode="&#xb7;" horiz-adv-x="276" 
d="M53.5 351.5q-26.5 20.5 -26.5 64.5t27 65t84 21t84 -21t27 -65t-26.5 -64.5t-84.5 -20.5t-84.5 20.5z" />
    <glyph glyph-name="cedilla" unicode="&#xb8;" horiz-adv-x="297" 
d="M21 -101h89q1 -19 9.5 -26t23.5 -7q25 0 25 28q0 14 -7.5 21.5t-19.5 7.5q-5 0 -13 -2l-37 24l24 73h77l-19 -57q14 2 20 2q33 0 56 -18.5t23 -53.5q0 -43 -31.5 -69.5t-91.5 -26.5q-127 0 -128 104z" />
    <glyph glyph-name="guillemotright" unicode="&#xbb;" horiz-adv-x="587" 
d="M321 269l-130 -191h-189l143 210l-143 210h189l130 -191v-38zM585 269l-131 -191h-189l143 210l-143 210h189l131 -191v-38z" />
    <glyph glyph-name="questiondown" unicode="&#xbf;" horiz-adv-x="553" 
d="M392.5 590.5q25.5 -20.5 25.5 -64.5t-26 -65t-82 -21q-57 0 -82.5 21t-25.5 65t25.5 64.5t82.5 20.5t82.5 -20.5zM402 398q2 -40 2 -62q0 -51 -18.5 -88.5t-42.5 -61t-64 -52.5q-35 -24 -51.5 -41.5t-16.5 -39.5q0 -28 15.5 -40.5t46.5 -12.5q38 0 54.5 19t16.5 63v7h186
v-13q0 -121 -69 -181.5t-192 -60.5q-114 0 -180.5 50.5t-66.5 148.5q0 45 15.5 79t37.5 57t58 51q45 37 67 64.5t23 68.5l2 45h177z" />
    <glyph glyph-name="Agrave" unicode="&#xc0;" horiz-adv-x="687" 
d="M682 0h-223l-25 124h-180l-26 -124h-222l193 744h289zM331 496l-44 -212h114l-44 212l-12 68h-2zM454 791h-115l-135 151h177z" />
    <glyph glyph-name="Aacute" unicode="&#xc1;" horiz-adv-x="687" 
d="M682 0h-223l-25 124h-180l-26 -124h-222l193 744h289zM331 496l-44 -212h114l-44 212l-12 68h-2zM469 942l-135 -151h-116l73 151h178z" />
    <glyph glyph-name="Acircumflex" unicode="&#xc2;" horiz-adv-x="687" 
d="M682 0h-223l-25 124h-180l-26 -124h-222l193 744h289zM331 496l-44 -212h114l-44 212l-12 68h-2zM272 790h-107l90 150h153l90 -150h-107l-59 70z" />
    <glyph glyph-name="Atilde" unicode="&#xc3;" horiz-adv-x="687" 
d="M682 0h-223l-25 124h-180l-26 -124h-222l193 744h289zM331 496l-44 -212h114l-44 212l-12 68h-2zM358.5 794q-20.5 6 -45.5 17q-26 11 -36 11q-21 0 -24 -34l-95 15q3 130 101 130q27 0 47.5 -6t45.5 -16q3 -1 15 -6t21 -5q21 0 24 33l95 -14q-2 -131 -101 -131
q-27 0 -47.5 6z" />
    <glyph glyph-name="Adieresis" unicode="&#xc4;" horiz-adv-x="687" 
d="M682 0h-223l-25 124h-180l-26 -124h-222l193 744h289zM331 496l-44 -212h114l-44 212l-12 68h-2zM162 866q0 77 77 77t77 -77t-77 -77t-77 77zM358 866q0 77 77 77t77 -77t-77 -77t-77 77z" />
    <glyph glyph-name="Aring" unicode="&#xc5;" horiz-adv-x="687" 
d="M682 0h-223l-25 124h-180l-26 -124h-222l193 744h289zM331 496l-44 -212h114l-44 212l-12 68h-2zM224 811q-36 24 -36 71q0 95 144 95t144 -95q0 -47 -36.5 -71t-107.5 -24q-72 0 -108 24zM366 882q0 34 -34 34q-35 0 -35 -34q0 -33 35 -33q34 0 34 33z" />
    <glyph glyph-name="AE" unicode="&#xc6;" horiz-adv-x="895" 
d="M608 298v-126h263v-172h-478v153h-126l-46 -153h-215l257 744h603v-171h-258v-119h230v-156h-230zM379 524l-69 -228h83v299h-4z" />
    <glyph glyph-name="Ccedilla" unicode="&#xc7;" horiz-adv-x="656" 
d="M628 444h-214v30q-1 52 -20 79t-62 27q-83 0 -83 -119v-179q0 -120 83 -120q40 0 61 25t22 79v36h213v-23q-2 -281 -267 -295l-8 -23q14 2 20 2q33 0 56 -18.5t23 -53.5q0 -43 -31.5 -69.5t-91.5 -26.5q-127 0 -128 104h89q1 -19 9.5 -26t23.5 -7q25 0 25 28
q0 14 -7.5 21.5t-19.5 7.5q-5 0 -13 -2l-37 24l13 40q-124 13 -187.5 93t-63.5 227v131q0 161 75 242.5t223 81.5t222 -77t75 -220v-19z" />
    <glyph glyph-name="Egrave" unicode="&#xc8;" horiz-adv-x="560" 
d="M535 0h-484v744h477v-172h-262v-116h233v-158h-233v-124h269v-174zM408 791h-115l-135 151h177z" />
    <glyph glyph-name="Eacute" unicode="&#xc9;" horiz-adv-x="560" 
d="M535 0h-484v744h477v-172h-262v-116h233v-158h-233v-124h269v-174zM423 942l-135 -151h-116l73 151h178z" />
    <glyph glyph-name="Ecircumflex" unicode="&#xca;" horiz-adv-x="560" 
d="M535 0h-484v744h477v-172h-262v-116h233v-158h-233v-124h269v-174zM226 790h-107l90 150h153l90 -150h-107l-59 70z" />
    <glyph glyph-name="Edieresis" unicode="&#xcb;" horiz-adv-x="560" 
d="M535 0h-484v744h477v-172h-262v-116h233v-158h-233v-124h269v-174zM116 866q0 77 77 77t77 -77t-77 -77t-77 77zM312 866q0 77 77 77t77 -77t-77 -77t-77 77z" />
    <glyph glyph-name="Igrave" unicode="&#xcc;" horiz-adv-x="318" 
d="M266 0h-215v744h215v-744zM281 791h-115l-135 151h177z" />
    <glyph glyph-name="Iacute" unicode="&#xcd;" horiz-adv-x="318" 
d="M266 0h-215v744h215v-744zM296 942l-135 -151h-116l73 151h178z" />
    <glyph glyph-name="Icircumflex" unicode="&#xce;" horiz-adv-x="318" 
d="M266 0h-215v744h215v-744zM99 790h-107l90 150h153l90 -150h-107l-59 70z" />
    <glyph glyph-name="Idieresis" unicode="&#xcf;" horiz-adv-x="318" 
d="M266 0h-215v744h215v-744zM-11 866q0 77 77 77t77 -77t-77 -77t-77 77zM185 866q0 77 77 77t77 -77t-77 -77t-77 77z" />
    <glyph glyph-name="Eth" unicode="&#xd0;" horiz-adv-x="672" 
d="M349 744q152 0 221 -82.5t69 -252.5v-75q0 -169 -68.5 -251.5t-220.5 -82.5h-299v319h-51v100h51v325h298zM424 438q0 75 -25.5 105t-78.5 30h-54v-154h74v-100h-74v-149h55q52 0 77.5 30.5t25.5 104.5v133z" />
    <glyph glyph-name="Ntilde" unicode="&#xd1;" horiz-adv-x="710" 
d="M257 0h-206v744h222l157 -347l22 -54h2l-1 61v340h205v-744h-221l-157 344l-23 53h-1l1 -61v-336zM380.5 794q-20.5 6 -45.5 17q-26 11 -36 11q-21 0 -24 -34l-95 15q3 130 101 130q27 0 47.5 -6t45.5 -16q3 -1 15 -6t21 -5q21 0 24 33l95 -14q-2 -131 -101 -131
q-27 0 -47.5 6z" />
    <glyph glyph-name="Ograve" unicode="&#xd2;" horiz-adv-x="667" 
d="M109 64.5q-76 81.5 -76 240.5v133q0 159 76 240.5t224 81.5q149 0 225 -81.5t76 -240.5v-133q0 -159 -76 -240.5t-224 -81.5q-149 0 -225 81.5zM418 282v179q0 119 -84 119q-85 0 -85 -119v-179q0 -119 85 -119q84 0 84 119zM463 791h-115l-135 151h177z" />
    <glyph glyph-name="Oacute" unicode="&#xd3;" horiz-adv-x="667" 
d="M109 64.5q-76 81.5 -76 240.5v133q0 159 76 240.5t224 81.5q149 0 225 -81.5t76 -240.5v-133q0 -159 -76 -240.5t-224 -81.5q-149 0 -225 81.5zM418 282v179q0 119 -84 119q-85 0 -85 -119v-179q0 -119 85 -119q84 0 84 119zM478 942l-135 -151h-116l73 151h178z" />
    <glyph glyph-name="Ocircumflex" unicode="&#xd4;" horiz-adv-x="667" 
d="M109 64.5q-76 81.5 -76 240.5v133q0 159 76 240.5t224 81.5q149 0 225 -81.5t76 -240.5v-133q0 -159 -76 -240.5t-224 -81.5q-149 0 -225 81.5zM418 282v179q0 119 -84 119q-85 0 -85 -119v-179q0 -119 85 -119q84 0 84 119zM280 790h-107l90 150h153l90 -150h-107
l-59 70z" />
    <glyph glyph-name="Otilde" unicode="&#xd5;" horiz-adv-x="667" 
d="M109 64.5q-76 81.5 -76 240.5v133q0 159 76 240.5t224 81.5q149 0 225 -81.5t76 -240.5v-133q0 -159 -76 -240.5t-224 -81.5q-149 0 -225 81.5zM418 282v179q0 119 -84 119q-85 0 -85 -119v-179q0 -119 85 -119q84 0 84 119zM366.5 794q-20.5 6 -45.5 17q-26 11 -36 11
q-21 0 -24 -34l-95 15q3 130 101 130q27 0 47.5 -6t45.5 -16q3 -1 15 -6t21 -5q21 0 24 33l95 -14q-2 -131 -101 -131q-27 0 -47.5 6z" />
    <glyph glyph-name="Odieresis" unicode="&#xd6;" horiz-adv-x="667" 
d="M109 64.5q-76 81.5 -76 240.5v133q0 159 76 240.5t224 81.5q149 0 225 -81.5t76 -240.5v-133q0 -159 -76 -240.5t-224 -81.5q-149 0 -225 81.5zM418 282v179q0 119 -84 119q-85 0 -85 -119v-179q0 -119 85 -119q84 0 84 119zM171 866q0 77 77 77t77 -77t-77 -77t-77 77z
M367 866q0 77 77 77t77 -77t-77 -77t-77 77z" />
    <glyph glyph-name="multiply" unicode="&#xd7;" horiz-adv-x="433" 
d="M141 185l-86 85l76 76l-80 79l84 85l81 -79l79 80l86 -85l-80 -80l80 -81l-85 -85l-80 81z" />
    <glyph glyph-name="Oslash" unicode="&#xd8;" horiz-adv-x="667" 
d="M544 692q90 -81 90 -254v-133q0 -159 -76 -240.5t-224 -81.5q-73 0 -130 20l-39 -78l-74 35l41 83q-99 80 -99 262v133q0 159 76 240.5t224 81.5q81 0 141 -24l41 83l74 -35zM249 282v-2l139 281q-20 19 -54 19q-85 0 -85 -119v-179zM418 282v156l-130 -263
q20 -12 46 -12q84 0 84 119z" />
    <glyph glyph-name="Ugrave" unicode="&#xd9;" horiz-adv-x="667" 
d="M109.5 55.5q-68.5 72.5 -68.5 230.5v458h215v-475q0 -106 78 -106q77 0 77 106v475h215v-457q0 -158 -68.5 -231t-224.5 -73q-155 0 -223.5 72.5zM453 791h-115l-135 151h177z" />
    <glyph glyph-name="Uacute" unicode="&#xda;" horiz-adv-x="667" 
d="M109.5 55.5q-68.5 72.5 -68.5 230.5v458h215v-475q0 -106 78 -106q77 0 77 106v475h215v-457q0 -158 -68.5 -231t-224.5 -73q-155 0 -223.5 72.5zM468 942l-135 -151h-116l73 151h178z" />
    <glyph glyph-name="Ucircumflex" unicode="&#xdb;" horiz-adv-x="667" 
d="M109.5 55.5q-68.5 72.5 -68.5 230.5v458h215v-475q0 -106 78 -106q77 0 77 106v475h215v-457q0 -158 -68.5 -231t-224.5 -73q-155 0 -223.5 72.5zM270 790h-107l90 150h153l90 -150h-107l-59 70z" />
    <glyph glyph-name="Udieresis" unicode="&#xdc;" horiz-adv-x="667" 
d="M109.5 55.5q-68.5 72.5 -68.5 230.5v458h215v-475q0 -106 78 -106q77 0 77 106v475h215v-457q0 -158 -68.5 -231t-224.5 -73q-155 0 -223.5 72.5zM161 866q0 77 77 77t77 -77t-77 -77t-77 77zM357 866q0 77 77 77t77 -77t-77 -77t-77 77z" />
    <glyph glyph-name="Yacute" unicode="&#xdd;" horiz-adv-x="645" 
d="M431 0h-216v204l-209 540h230l79 -298l7 -38h1l8 38l77 298h232l-209 -540v-204zM462 942l-135 -151h-116l73 151h178z" />
    <glyph glyph-name="Thorn" unicode="&#xde;" horiz-adv-x="612" 
d="M368 636q70 0 122.5 -28t81 -80t28.5 -121v-68q0 -72 -28 -126t-79.5 -83t-120.5 -29h-106v-101h-215v744h215v-108h102zM385 403q0 34 -17.5 51.5t-50.5 17.5h-51v-206h48q34 0 52.5 18.5t18.5 54.5v64z" />
    <glyph glyph-name="germandbls" unicode="&#xdf;" horiz-adv-x="608" 
d="M33 541q0 123 64.5 181.5t194.5 58.5q128 0 193.5 -51.5t65.5 -146.5v-8q0 -59 -14 -96t-45 -62q47 -22 65.5 -62t18.5 -102v-24q0 -113 -63.5 -171t-178.5 -58h-54v163h18q32 0 48.5 14t16.5 52v52q0 56 -63 56h-20v143h10q34 0 50.5 14.5t16.5 57.5v4q0 29 -15.5 44.5
t-44.5 15.5q-34 0 -48.5 -18.5t-14.5 -53.5v-544h-201v541z" />
    <glyph glyph-name="agrave" unicode="&#xe0;" horiz-adv-x="603" 
d="M498.5 547.5q61.5 -63.5 61.5 -180.5v-367h-202v38l5 44h-2q-45 -99 -153 -99q-88 0 -135.5 50.5t-47.5 135.5q0 87 55 135.5t165 48.5q57 0 113 -17v48q0 76 -63 76q-31 0 -46 -20t-15 -48v-9h-195q1 101 63 164.5t195 63.5q140 0 201.5 -63.5zM340 165.5
q18 28.5 18 74.5v5q-13 7 -32.5 11.5t-37.5 4.5q-64 0 -64 -62q0 -32 14 -47t45 -15q39 0 57 28.5zM396 664h-115l-129 150h177z" />
    <glyph glyph-name="aacute" unicode="&#xe1;" horiz-adv-x="603" 
d="M498.5 547.5q61.5 -63.5 61.5 -180.5v-367h-202v38l5 44h-2q-45 -99 -153 -99q-88 0 -135.5 50.5t-47.5 135.5q0 87 55 135.5t165 48.5q57 0 113 -17v48q0 76 -63 76q-31 0 -46 -20t-15 -48v-9h-195q1 101 63 164.5t195 63.5q140 0 201.5 -63.5zM340 165.5
q18 28.5 18 74.5v5q-13 7 -32.5 11.5t-37.5 4.5q-64 0 -64 -62q0 -32 14 -47t45 -15q39 0 57 28.5zM447 814l-129 -150h-116l67 150h178z" />
    <glyph glyph-name="acircumflex" unicode="&#xe2;" horiz-adv-x="603" 
d="M498.5 547.5q61.5 -63.5 61.5 -180.5v-367h-202v38l5 44h-2q-45 -99 -153 -99q-88 0 -135.5 50.5t-47.5 135.5q0 87 55 135.5t165 48.5q57 0 113 -17v48q0 76 -63 76q-31 0 -46 -20t-15 -48v-9h-195q1 101 63 164.5t195 63.5q140 0 201.5 -63.5zM340 165.5
q18 28.5 18 74.5v5q-13 7 -32.5 11.5t-37.5 4.5q-64 0 -64 -62q0 -32 14 -47t45 -15q39 0 57 28.5zM240 659h-107l90 151h153l90 -151h-107l-59 70z" />
    <glyph glyph-name="atilde" unicode="&#xe3;" horiz-adv-x="603" 
d="M498.5 547.5q61.5 -63.5 61.5 -180.5v-367h-202v38l5 44h-2q-45 -99 -153 -99q-88 0 -135.5 50.5t-47.5 135.5q0 87 55 135.5t165 48.5q57 0 113 -17v48q0 76 -63 76q-31 0 -46 -20t-15 -48v-9h-195q1 101 63 164.5t195 63.5q140 0 201.5 -63.5zM340 165.5
q18 28.5 18 74.5v5q-13 7 -32.5 11.5t-37.5 4.5q-64 0 -64 -62q0 -32 14 -47t45 -15q39 0 57 28.5zM326.5 661q-20.5 6 -45.5 17q-26 11 -36 11q-21 0 -24 -34l-95 14q2 66 26.5 98.5t74.5 32.5q27 0 48.5 -6.5t44.5 -16.5q3 -1 15 -6t21 -5q21 0 24 34l95 -15
q-2 -130 -101 -130q-27 0 -47.5 6z" />
    <glyph glyph-name="adieresis" unicode="&#xe4;" horiz-adv-x="603" 
d="M498.5 547.5q61.5 -63.5 61.5 -180.5v-367h-202v38l5 44h-2q-45 -99 -153 -99q-88 0 -135.5 50.5t-47.5 135.5q0 87 55 135.5t165 48.5q57 0 113 -17v48q0 76 -63 76q-31 0 -46 -20t-15 -48v-9h-195q1 101 63 164.5t195 63.5q140 0 201.5 -63.5zM340 165.5
q18 28.5 18 74.5v5q-13 7 -32.5 11.5t-37.5 4.5q-64 0 -64 -62q0 -32 14 -47t45 -15q39 0 57 28.5zM117 682.5q-22 20.5 -22 64.5t22 65t69 21q48 0 69.5 -21t21.5 -65t-21.5 -64.5t-69.5 -20.5q-47 0 -69 20.5zM337 682.5q-22 20.5 -22 64.5t22 65t69 21q48 0 69.5 -21
t21.5 -65t-21.5 -64.5t-69.5 -20.5q-47 0 -69 20.5z" />
    <glyph glyph-name="aring" unicode="&#xe5;" horiz-adv-x="603" 
d="M498.5 547.5q61.5 -63.5 61.5 -180.5v-367h-202v38l5 44h-2q-45 -99 -153 -99q-88 0 -135.5 50.5t-47.5 135.5q0 87 55 135.5t165 48.5q57 0 113 -17v48q0 76 -63 76q-31 0 -46 -20t-15 -48v-9h-195q1 101 63 164.5t195 63.5q140 0 201.5 -63.5zM340 165.5
q18 28.5 18 74.5v5q-13 7 -32.5 11.5t-37.5 4.5q-64 0 -64 -62q0 -32 14 -47t45 -15q39 0 57 28.5zM192 679q-36 28 -36 82t36 82t108 28q71 0 107.5 -28t36.5 -82t-36.5 -82t-107.5 -28q-72 0 -108 28zM334 761q0 39 -34 39q-35 0 -35 -39q0 -38 35 -38q34 0 34 38z" />
    <glyph glyph-name="ae" unicode="&#xe6;" horiz-adv-x="912" 
d="M70.5 32q-44.5 49 -45.5 133v4q0 84 55.5 133.5t164.5 49.5q62 0 113 -17v49q0 33 -14.5 54.5t-48.5 21.5q-31 0 -46 -19.5t-15 -47.5v-10h-196v4q1 98 63.5 161t195.5 63q102 0 160 -50q66 50 168 50q127 0 193 -69.5t66 -205.5v-87h-324v-18q3 -97 65 -97q33 0 48.5 18
t18.5 56v3h191v-3q-5 -106 -72 -165.5t-190 -59.5q-161 0 -224 119q-59 -119 -195 -119q-87 0 -131.5 49zM560 357h131l1 17q-2 45 -17.5 66.5t-48.5 21.5q-32 0 -47.5 -21.5t-18.5 -67.5v-16zM339.5 165q18.5 26 18.5 65v18q-37 16 -70 16q-36 0 -50 -18.5t-14 -44.5v-4
q0 -30 14 -44t46 -14q37 0 55.5 26z" />
    <glyph glyph-name="ccedilla" unicode="&#xe7;" horiz-adv-x="577" 
d="M554 347h-194v28q-2 40 -17 59t-46 19q-68 0 -68 -97v-115q0 -100 68 -100q61 0 64 82v30h193v-5q-1 -127 -61.5 -191.5t-169.5 -71.5l-8 -24q14 2 20 2q33 0 56 -18.5t23 -53.5q0 -43 -31.5 -69.5t-91.5 -26.5q-127 0 -128 104h89q1 -19 9.5 -26t23.5 -7q25 0 25 28
q0 14 -7.5 21.5t-19.5 7.5q-5 0 -13 -2l-37 24l14 42q-109 13 -164.5 86t-55.5 201v50q0 141 68.5 214t201.5 73q119 0 187.5 -64.5t69.5 -194.5v-5z" />
    <glyph glyph-name="egrave" unicode="&#xe8;" horiz-adv-x="581" 
d="M554 249h-325v-10q0 -52 16 -78.5t50 -26.5q33 0 48.5 18t17.5 56h191q-5 -106 -71.5 -165.5t-189.5 -59.5q-130 0 -197 76.5t-67 213.5v52q0 135 68 210.5t199 75.5q127 0 193.5 -69.5t66.5 -205.5v-87zM229 357h132v7q0 50 -15.5 74t-50.5 24q-34 0 -50 -25t-16 -79v-1
zM388 664h-115l-129 150h177z" />
    <glyph glyph-name="eacute" unicode="&#xe9;" horiz-adv-x="581" 
d="M554 249h-325v-10q0 -52 16 -78.5t50 -26.5q33 0 48.5 18t17.5 56h191q-5 -106 -71.5 -165.5t-189.5 -59.5q-130 0 -197 76.5t-67 213.5v52q0 135 68 210.5t199 75.5q127 0 193.5 -69.5t66.5 -205.5v-87zM229 357h132v7q0 50 -15.5 74t-50.5 24q-34 0 -50 -25t-16 -79v-1
zM438 814l-129 -150h-116l67 150h178z" />
    <glyph glyph-name="ecircumflex" unicode="&#xea;" horiz-adv-x="581" 
d="M554 249h-325v-10q0 -52 16 -78.5t50 -26.5q33 0 48.5 18t17.5 56h191q-5 -106 -71.5 -165.5t-189.5 -59.5q-130 0 -197 76.5t-67 213.5v52q0 135 68 210.5t199 75.5q127 0 193.5 -69.5t66.5 -205.5v-87zM229 357h132v7q0 50 -15.5 74t-50.5 24q-34 0 -50 -25t-16 -79v-1
zM231 659h-107l90 151h153l90 -151h-107l-59 70z" />
    <glyph glyph-name="edieresis" unicode="&#xeb;" horiz-adv-x="581" 
d="M554 249h-325v-10q0 -52 16 -78.5t50 -26.5q33 0 48.5 18t17.5 56h191q-5 -106 -71.5 -165.5t-189.5 -59.5q-130 0 -197 76.5t-67 213.5v52q0 135 68 210.5t199 75.5q127 0 193.5 -69.5t66.5 -205.5v-87zM229 357h132v7q0 50 -15.5 74t-50.5 24q-34 0 -50 -25t-16 -79v-1
zM108 682.5q-22 20.5 -22 64.5t22 65t69 21q48 0 69.5 -21t21.5 -65t-21.5 -64.5t-69.5 -20.5q-47 0 -69 20.5zM328 682.5q-22 20.5 -22 64.5t22 65t69 21q48 0 69.5 -21t21.5 -65t-21.5 -64.5t-69.5 -20.5q-47 0 -69 20.5z" />
    <glyph glyph-name="igrave" unicode="&#xec;" horiz-adv-x="292" 
d="M247 0h-202v594h202v-594zM243 664h-115l-129 150h177z" />
    <glyph glyph-name="iacute" unicode="&#xed;" horiz-adv-x="292" 
d="M247 0h-202v594h202v-594zM293 814l-129 -150h-116l67 150h178z" />
    <glyph glyph-name="icircumflex" unicode="&#xee;" horiz-adv-x="292" 
d="M247 0h-202v594h202v-594zM86 659h-107l90 151h153l90 -151h-107l-59 70z" />
    <glyph glyph-name="idieresis" unicode="&#xef;" horiz-adv-x="292" 
d="M247 0h-202v594h202v-594zM-37 682.5q-22 20.5 -22 64.5t22 65t69 21q48 0 69.5 -21t21.5 -65t-21.5 -64.5t-69.5 -20.5q-47 0 -69 20.5zM183 682.5q-22 20.5 -22 64.5t22 65t69 21q48 0 69.5 -21t21.5 -65t-21.5 -64.5t-69.5 -20.5q-47 0 -69 20.5z" />
    <glyph glyph-name="eth" unicode="&#xf0;" horiz-adv-x="600" 
d="M458 736q115 -96 115 -301v-158q0 -143 -67.5 -217.5t-205.5 -74.5q-137 0 -205 74t-68 211v6q0 125 61.5 197.5t169.5 72.5q93 0 142 -47q-7 71 -48 112l-37 -44l-67 51l33 39q-38 15 -83 24l73 134q64 -13 113 -34l38 45l69 -51zM370 304q0 37 -16 62.5t-54 25.5
q-37 0 -53.5 -26t-16.5 -66v-67q0 -46 16.5 -70t53.5 -24q70 0 70 93v72z" />
    <glyph glyph-name="ntilde" unicode="&#xf1;" horiz-adv-x="627" 
d="M585 394v-394h-203v368q0 40 -16 60.5t-46 20.5q-36 0 -54.5 -29t-18.5 -73v-347h-202v594h202v-32l-5 -57h1q49 106 161 106q181 0 181 -217zM336.5 661q-20.5 6 -45.5 17q-26 11 -36 11q-21 0 -24 -34l-95 14q2 66 26.5 98.5t74.5 32.5q27 0 48.5 -6.5t44.5 -16.5
q3 -1 15 -6t21 -5q21 0 24 34l95 -15q-2 -130 -101 -130q-27 0 -47.5 6z" />
    <glyph glyph-name="ograve" unicode="&#xf2;" horiz-adv-x="600" 
d="M96 57q-69 74 -69 215v52q0 140 69.5 213.5t203.5 73.5q135 0 204 -73.5t69 -213.5v-52q0 -142 -69 -215.5t-204 -73.5t-204 74zM370 240v114q0 99 -70 99t-70 -99v-114q0 -99 70 -99t70 99zM396 664h-115l-129 150h177z" />
    <glyph glyph-name="oacute" unicode="&#xf3;" horiz-adv-x="600" 
d="M96 57q-69 74 -69 215v52q0 140 69.5 213.5t203.5 73.5q135 0 204 -73.5t69 -213.5v-52q0 -142 -69 -215.5t-204 -73.5t-204 74zM370 240v114q0 99 -70 99t-70 -99v-114q0 -99 70 -99t70 99zM447 814l-129 -150h-116l67 150h178z" />
    <glyph glyph-name="ocircumflex" unicode="&#xf4;" horiz-adv-x="600" 
d="M96 57q-69 74 -69 215v52q0 140 69.5 213.5t203.5 73.5q135 0 204 -73.5t69 -213.5v-52q0 -142 -69 -215.5t-204 -73.5t-204 74zM370 240v114q0 99 -70 99t-70 -99v-114q0 -99 70 -99t70 99zM240 659h-107l90 151h153l90 -151h-107l-59 70z" />
    <glyph glyph-name="otilde" unicode="&#xf5;" horiz-adv-x="600" 
d="M96 57q-69 74 -69 215v52q0 140 69.5 213.5t203.5 73.5q135 0 204 -73.5t69 -213.5v-52q0 -142 -69 -215.5t-204 -73.5t-204 74zM370 240v114q0 99 -70 99t-70 -99v-114q0 -99 70 -99t70 99zM326.5 661q-20.5 6 -45.5 17q-26 11 -36 11q-21 0 -24 -34l-95 14
q2 66 26.5 98.5t74.5 32.5q27 0 48.5 -6.5t44.5 -16.5q3 -1 15 -6t21 -5q21 0 24 34l95 -15q-2 -130 -101 -130q-27 0 -47.5 6z" />
    <glyph glyph-name="odieresis" unicode="&#xf6;" horiz-adv-x="600" 
d="M96 57q-69 74 -69 215v52q0 140 69.5 213.5t203.5 73.5q135 0 204 -73.5t69 -213.5v-52q0 -142 -69 -215.5t-204 -73.5t-204 74zM370 240v114q0 99 -70 99t-70 -99v-114q0 -99 70 -99t70 99zM117 682.5q-22 20.5 -22 64.5t22 65t69 21q48 0 69.5 -21t21.5 -65
t-21.5 -64.5t-69.5 -20.5q-47 0 -69 20.5zM337 682.5q-22 20.5 -22 64.5t22 65t69 21q48 0 69.5 -21t21.5 -65t-21.5 -64.5t-69.5 -20.5q-47 0 -69 20.5z" />
    <glyph glyph-name="divide" unicode="&#xf7;" horiz-adv-x="499" 
d="M161.5 456q-26.5 21 -26.5 64q0 44 26.5 65t83.5 21t83.5 -21t26.5 -65q0 -43 -26.5 -64t-83.5 -21t-83.5 21zM448 257h-397v149h397v-149zM161.5 85.5q-26.5 20.5 -26.5 63.5q0 44 26.5 65t83.5 21t83.5 -21t26.5 -65q0 -43 -26.5 -63.5t-83.5 -20.5t-83.5 20.5z" />
    <glyph glyph-name="oslash" unicode="&#xf8;" horiz-adv-x="600" 
d="M462 572q111 -69 111 -248v-52q0 -142 -69 -215.5t-204 -73.5q-52 0 -96 12l-30 -68l-68 26l31 70q-110 69 -110 249v52q0 140 69.5 213.5t203.5 73.5q51 0 95 -11l30 67l68 -26zM230 240v-9l97 217q-13 5 -27 5q-70 0 -70 -99v-114zM370 354v11l-98 -219q13 -5 28 -5
q70 0 70 99v114z" />
    <glyph glyph-name="ugrave" unicode="&#xf9;" horiz-adv-x="627" 
d="M380 594h203v-594h-203v33l6 56h-2q-49 -106 -161 -106q-180 0 -180 217v394h202v-368q0 -40 16 -60.5t46 -20.5q36 0 54.5 29t18.5 73v347zM410 664h-115l-129 150h177z" />
    <glyph glyph-name="uacute" unicode="&#xfa;" horiz-adv-x="627" 
d="M380 594h203v-594h-203v33l6 56h-2q-49 -106 -161 -106q-180 0 -180 217v394h202v-368q0 -40 16 -60.5t46 -20.5q36 0 54.5 29t18.5 73v347zM461 814l-129 -150h-116l67 150h178z" />
    <glyph glyph-name="ucircumflex" unicode="&#xfb;" horiz-adv-x="627" 
d="M380 594h203v-594h-203v33l6 56h-2q-49 -106 -161 -106q-180 0 -180 217v394h202v-368q0 -40 16 -60.5t46 -20.5q36 0 54.5 29t18.5 73v347zM254 659h-107l90 151h153l90 -151h-107l-59 70z" />
    <glyph glyph-name="udieresis" unicode="&#xfc;" horiz-adv-x="627" 
d="M380 594h203v-594h-203v33l6 56h-2q-49 -106 -161 -106q-180 0 -180 217v394h202v-368q0 -40 16 -60.5t46 -20.5q36 0 54.5 29t18.5 73v347zM130 682.5q-22 20.5 -22 64.5t22 65t69 21q48 0 69.5 -21t21.5 -65t-21.5 -64.5t-69.5 -20.5q-47 0 -69 20.5zM350 682.5
q-22 20.5 -22 64.5t22 65t69 21q48 0 69.5 -21t21.5 -65t-21.5 -64.5t-69.5 -20.5q-47 0 -69 20.5z" />
    <glyph glyph-name="yacute" unicode="&#xfd;" horiz-adv-x="588" 
d="M112 -57q60 12 90.5 29t40.5 48l2 5h-79l-164 569h211l75 -351l5 -43h2l5 43l74 351h212l-157 -556q-28 -104 -98.5 -162t-192.5 -70zM442 814l-129 -150h-116l67 150h178z" />
    <glyph glyph-name="thorn" unicode="&#xfe;" horiz-adv-x="621" 
d="M544 539q44 -72 44 -219v-40q0 -152 -44.5 -224.5t-142.5 -72.5q-52 0 -93.5 26.5t-62.5 76.5h-5l7 -55v-211h-202v946h202v-199l-7 -59h5q23 52 63.5 77.5t92.5 25.5q99 0 143 -72zM385 337q0 55 -14 86.5t-53 31.5q-71 0 -71 -111v-98q0 -48 16.5 -77.5t54.5 -29.5
q40 0 53.5 28.5t13.5 86.5v83z" />
    <glyph glyph-name="ydieresis" unicode="&#xff;" horiz-adv-x="588" 
d="M112 -57q60 12 90.5 29t40.5 48l2 5h-79l-164 569h211l75 -351l5 -43h2l5 43l74 351h212l-157 -556q-28 -104 -98.5 -162t-192.5 -70zM112 682.5q-22 20.5 -22 64.5t22 65t69 21q48 0 69.5 -21t21.5 -65t-21.5 -64.5t-69.5 -20.5q-47 0 -69 20.5zM332 682.5
q-22 20.5 -22 64.5t22 65t69 21q48 0 69.5 -21t21.5 -65t-21.5 -64.5t-69.5 -20.5q-47 0 -69 20.5z" />
    <glyph glyph-name="Amacron" unicode="&#x100;" horiz-adv-x="687" 
d="M682 0h-223l-25 124h-180l-26 -124h-222l193 744h289zM331 496l-44 -212h114l-44 212l-12 68h-2zM487 790h-322v120h322v-120z" />
    <glyph glyph-name="amacron" unicode="&#x101;" horiz-adv-x="603" 
d="M498.5 547.5q61.5 -63.5 61.5 -180.5v-367h-202v38l5 44h-2q-45 -99 -153 -99q-88 0 -135.5 50.5t-47.5 135.5q0 87 55 135.5t165 48.5q57 0 113 -17v48q0 76 -63 76q-31 0 -46 -20t-15 -48v-9h-195q1 101 63 164.5t195 63.5q140 0 201.5 -63.5zM340 165.5
q18 28.5 18 74.5v5q-13 7 -32.5 11.5t-37.5 4.5q-64 0 -64 -62q0 -32 14 -47t45 -15q39 0 57 28.5zM461 660h-322v120h322v-120z" />
    <glyph glyph-name="Abreve" unicode="&#x102;" horiz-adv-x="687" 
d="M682 0h-223l-25 124h-180l-26 -124h-222l193 744h289zM331 496l-44 -212h114l-44 212l-12 68h-2zM179 925q0 16 1 25h108q-1 -7 -1 -19q0 -26 10.5 -36.5t34.5 -10.5q27 0 37.5 14.5t6.5 51.5h107q1 -10 1 -28q0 -134 -152 -134q-153 0 -153 137z" />
    <glyph glyph-name="abreve" unicode="&#x103;" horiz-adv-x="603" 
d="M498.5 547.5q61.5 -63.5 61.5 -180.5v-367h-202v38l5 44h-2q-45 -99 -153 -99q-88 0 -135.5 50.5t-47.5 135.5q0 87 55 135.5t165 48.5q57 0 113 -17v48q0 76 -63 76q-31 0 -46 -20t-15 -48v-9h-195q1 101 63 164.5t195 63.5q140 0 201.5 -63.5zM340 165.5
q18 28.5 18 74.5v5q-13 7 -32.5 11.5t-37.5 4.5q-64 0 -64 -62q0 -32 14 -47t45 -15q39 0 57 28.5zM147 791q0 16 1 25h108q-1 -7 -1 -19q0 -26 10.5 -36.5t34.5 -10.5q27 0 37.5 14.5t6.5 51.5h107q1 -10 1 -28q0 -134 -152 -134q-153 0 -153 137z" />
    <glyph glyph-name="Aogonek" unicode="&#x104;" horiz-adv-x="687" 
d="M726 -75q2 -67 -31 -97.5t-110 -30.5q-59 0 -91 22.5t-32 63.5q0 37 31.5 68.5t89.5 48.5h-124l-25 124h-180l-26 -124h-222l193 744h289l194 -744h-6q-97 -48 -97 -100q0 -9 6 -14t15 -5q14 0 20 9.5t6 34.5h100zM331 496l-44 -212h114l-44 212l-12 68h-2z" />
    <glyph glyph-name="aogonek" unicode="&#x105;" horiz-adv-x="603" 
d="M609 -75q2 -67 -31 -97.5t-110 -30.5q-59 0 -91 22.5t-32 63.5q0 37 31.5 68.5t89.5 48.5h-108v38l5 44h-2q-45 -99 -153 -99q-88 0 -135.5 50.5t-47.5 135.5q0 87 55 135.5t165 48.5q57 0 113 -17v48q0 76 -63 76q-31 0 -46 -20t-15 -48v-9h-195q1 101 63 164.5
t195 63.5q140 0 201.5 -63.5t61.5 -180.5v-366h1h-1v-1h-1q-97 -48 -97 -100q0 -9 6 -14t15 -5q14 0 20 9.5t6 34.5h100zM340 165.5q18 28.5 18 74.5v5q-13 7 -32.5 11.5t-37.5 4.5q-64 0 -64 -62q0 -32 14 -47t45 -15q39 0 57 28.5z" />
    <glyph glyph-name="Cacute" unicode="&#x106;" horiz-adv-x="656" 
d="M108.5 64q-75.5 81 -75.5 241v131q0 161 75 242.5t223 81.5t222 -77t75 -220v-19h-214v30q-1 52 -20 79t-62 27q-83 0 -83 -119v-179q0 -120 83 -120q40 0 61 25t22 79v36h213v-23q-2 -296 -297 -296q-147 0 -222.5 81zM468 942l-135 -151h-116l73 151h178z" />
    <glyph glyph-name="cacute" unicode="&#x107;" horiz-adv-x="577" 
d="M94.5 58q-67.5 74 -67.5 216v50q0 141 68.5 214t201.5 73q119 0 187.5 -64.5t69.5 -194.5v-5h-194v28q-2 40 -17 59t-46 19q-68 0 -68 -97v-115q0 -100 68 -100q61 0 64 82v30h193v-5q-1 -135 -69.5 -199.5t-190.5 -64.5q-132 0 -199.5 74zM440 814l-129 -150h-116
l67 150h178z" />
    <glyph glyph-name="Ccircumflex" unicode="&#x108;" horiz-adv-x="656" 
d="M108.5 64q-75.5 81 -75.5 241v131q0 161 75 242.5t223 81.5t222 -77t75 -220v-19h-214v30q-1 52 -20 79t-62 27q-83 0 -83 -119v-179q0 -120 83 -120q40 0 61 25t22 79v36h213v-23q-2 -296 -297 -296q-147 0 -222.5 81zM271 790h-107l90 150h153l90 -150h-107l-59 70z
" />
    <glyph glyph-name="ccircumflex" unicode="&#x109;" horiz-adv-x="577" 
d="M94.5 58q-67.5 74 -67.5 216v50q0 141 68.5 214t201.5 73q119 0 187.5 -64.5t69.5 -194.5v-5h-194v28q-2 40 -17 59t-46 19q-68 0 -68 -97v-115q0 -100 68 -100q61 0 64 82v30h193v-5q-1 -135 -69.5 -199.5t-190.5 -64.5q-132 0 -199.5 74zM233 659h-107l90 151h153
l90 -151h-107l-59 70z" />
    <glyph glyph-name="Cdotaccent" unicode="&#x10a;" horiz-adv-x="656" 
d="M108.5 64q-75.5 81 -75.5 241v131q0 161 75 242.5t223 81.5t222 -77t75 -220v-19h-214v30q-1 52 -20 79t-62 27q-83 0 -83 -119v-179q0 -120 83 -120q40 0 61 25t22 79v36h213v-23q-2 -296 -297 -296q-147 0 -222.5 81zM266.5 804q-19.5 15 -19.5 48t19.5 48.5t64.5 15.5
q44 0 64 -15.5t20 -48.5t-20 -48t-64 -15q-45 0 -64.5 15z" />
    <glyph glyph-name="cdotaccent" unicode="&#x10b;" horiz-adv-x="577" 
d="M94.5 58q-67.5 74 -67.5 216v50q0 141 68.5 214t201.5 73q119 0 187.5 -64.5t69.5 -194.5v-5h-194v28q-2 40 -17 59t-46 19q-68 0 -68 -97v-115q0 -100 68 -100q61 0 64 82v30h193v-5q-1 -135 -69.5 -199.5t-190.5 -64.5q-132 0 -199.5 74zM213 683.5q-24 17.5 -24 56.5
t24 56.5t79 17.5q54 0 78.5 -17.5t24.5 -56.5t-24.5 -56.5t-78.5 -17.5q-55 0 -79 17.5z" />
    <glyph glyph-name="Ccaron" unicode="&#x10c;" horiz-adv-x="656" 
d="M108.5 64q-75.5 81 -75.5 241v131q0 161 75 242.5t223 81.5t222 -77t75 -220v-19h-214v30q-1 52 -20 79t-62 27q-83 0 -83 -119v-179q0 -120 83 -120q40 0 61 25t22 79v36h213v-23q-2 -296 -297 -296q-147 0 -222.5 81zM254 790l-90 151h107l60 -70l59 70h107l-90 -151
h-153z" />
    <glyph glyph-name="ccaron" unicode="&#x10d;" horiz-adv-x="577" 
d="M94.5 58q-67.5 74 -67.5 216v50q0 141 68.5 214t201.5 73q119 0 187.5 -64.5t69.5 -194.5v-5h-194v28q-2 40 -17 59t-46 19q-68 0 -68 -97v-115q0 -100 68 -100q61 0 64 82v30h193v-5q-1 -135 -69.5 -199.5t-190.5 -64.5q-132 0 -199.5 74zM216 656l-90 150h107l60 -70
l59 70h107l-90 -150h-153z" />
    <glyph glyph-name="Dcaron" unicode="&#x10e;" horiz-adv-x="672" 
d="M51 0v744h298q152 0 221 -82.5t69 -252.5v-75q0 -169 -68.5 -251.5t-220.5 -82.5h-299zM321 170q52 0 77.5 30.5t25.5 104.5v133q0 75 -25.5 105t-78.5 30h-54v-403h55zM260 790l-90 151h107l60 -70l59 70h107l-90 -151h-153z" />
    <glyph glyph-name="dcaron" unicode="&#x10f;" horiz-adv-x="722" 
d="M368 567v199h203v-766h-203v31l6 55h-3q-22 -50 -64 -76.5t-93 -26.5q-98 0 -142.5 72.5t-44.5 223.5v41q0 147 44.5 219t142.5 72q52 0 93 -25.5t64 -77.5h2zM613 534l-12 232h119l-14 -232h-93zM351.5 169.5q16.5 28.5 16.5 75.5v100q0 108 -70 108q-40 0 -54 -31
t-14 -84v-85q0 -56 13.5 -84t53.5 -28q38 0 54.5 28.5z" />
    <glyph glyph-name="Dcroat" unicode="&#x110;" horiz-adv-x="672" 
d="M349 744q152 0 221 -82.5t69 -252.5v-75q0 -169 -68.5 -251.5t-220.5 -82.5h-299v319h-51v100h51v325h298zM424 438q0 75 -25.5 105t-78.5 30h-54v-154h74v-100h-74v-149h55q52 0 77.5 30.5t25.5 104.5v133z" />
    <glyph glyph-name="dcroat" unicode="&#x111;" horiz-adv-x="616" 
d="M601 734v-96h-30v-638h-203v31l6 55h-3q-22 -50 -64 -76.5t-93 -26.5q-98 0 -142.5 72.5t-44.5 223.5v41q0 147 44.5 219t142.5 72q52 0 93 -25.5t64 -77.5h2l-5 59v71h-173v96h173v32h203v-32h30zM351.5 169.5q16.5 28.5 16.5 75.5v100q0 108 -70 108q-40 0 -54 -31
t-14 -84v-85q0 -56 13.5 -84t53.5 -28q38 0 54.5 28.5z" />
    <glyph glyph-name="Emacron" unicode="&#x112;" horiz-adv-x="560" 
d="M535 0h-484v744h477v-172h-262v-116h233v-158h-233v-124h269v-174zM440 790h-322v120h322v-120z" />
    <glyph glyph-name="emacron" unicode="&#x113;" horiz-adv-x="581" 
d="M554 249h-325v-10q0 -52 16 -78.5t50 -26.5q33 0 48.5 18t17.5 56h191q-5 -106 -71.5 -165.5t-189.5 -59.5q-130 0 -197 76.5t-67 213.5v52q0 135 68 210.5t199 75.5q127 0 193.5 -69.5t66.5 -205.5v-87zM229 357h132v7q0 50 -15.5 74t-50.5 24q-34 0 -50 -25t-16 -79v-1
zM452 660h-322v120h322v-120z" />
    <glyph glyph-name="Ebreve" unicode="&#x114;" horiz-adv-x="560" 
d="M535 0h-484v744h477v-172h-262v-116h233v-158h-233v-124h269v-174zM132 925q0 16 1 25h108q-1 -7 -1 -19q0 -26 10.5 -36.5t34.5 -10.5q27 0 37.5 14.5t6.5 51.5h107q1 -10 1 -28q0 -134 -152 -134q-153 0 -153 137z" />
    <glyph glyph-name="ebreve" unicode="&#x115;" horiz-adv-x="581" 
d="M554 249h-325v-10q0 -52 16 -78.5t50 -26.5q33 0 48.5 18t17.5 56h191q-5 -106 -71.5 -165.5t-189.5 -59.5q-130 0 -197 76.5t-67 213.5v52q0 135 68 210.5t199 75.5q127 0 193.5 -69.5t66.5 -205.5v-87zM229 357h132v7q0 50 -15.5 74t-50.5 24q-34 0 -50 -25t-16 -79v-1
zM138 791q0 16 1 25h108q-1 -7 -1 -19q0 -26 10.5 -36.5t34.5 -10.5q27 0 37.5 14.5t6.5 51.5h107q1 -10 1 -28q0 -134 -152 -134q-153 0 -153 137z" />
    <glyph glyph-name="Edotaccent" unicode="&#x116;" horiz-adv-x="560" 
d="M535 0h-484v744h477v-172h-262v-116h233v-158h-233v-124h269v-174zM221.5 804q-19.5 15 -19.5 48t19.5 48.5t64.5 15.5q44 0 64 -15.5t20 -48.5t-20 -48t-64 -15q-45 0 -64.5 15z" />
    <glyph glyph-name="edotaccent" unicode="&#x117;" horiz-adv-x="581" 
d="M554 249h-325v-10q0 -52 16 -78.5t50 -26.5q33 0 48.5 18t17.5 56h191q-5 -106 -71.5 -165.5t-189.5 -59.5q-130 0 -197 76.5t-67 213.5v52q0 135 68 210.5t199 75.5q127 0 193.5 -69.5t66.5 -205.5v-87zM229 357h132v7q0 50 -15.5 74t-50.5 24q-34 0 -50 -25t-16 -79v-1
zM212 683.5q-24 17.5 -24 56.5t24 56.5t79 17.5q54 0 78.5 -17.5t24.5 -56.5t-24.5 -56.5t-78.5 -17.5q-55 0 -79 17.5z" />
    <glyph glyph-name="Eogonek" unicode="&#x118;" horiz-adv-x="560" 
d="M584 -75q2 -67 -31 -97.5t-110 -30.5q-59 0 -91 22.5t-32 63.5q0 37 31.5 68.5t89.5 48.5h-390v744h477v-172h-262v-116h233v-158h-233v-124h269v-173h1h-1v-1h-1q-97 -48 -97 -100q0 -9 6 -14t15 -5q14 0 20 9.5t6 34.5h100z" />
    <glyph glyph-name="eogonek" unicode="&#x119;" horiz-adv-x="581" 
d="M554 249h-325v-10q0 -52 16 -78.5t50 -26.5q33 0 48.5 18t17.5 56h191q-3 -76 -39 -129t-104 -78q-82 -44 -82 -92q0 -9 6 -14t15 -5q14 0 20 9.5t6 34.5h100q2 -67 -31 -97.5t-110 -30.5q-59 0 -91 22.5t-32 63.5q0 26 15.5 49.5t45.5 41.5q-121 7 -182.5 82.5
t-61.5 207.5v52q0 135 68 210.5t199 75.5q127 0 193.5 -69.5t66.5 -205.5v-87zM229 357h132v7q0 50 -15.5 74t-50.5 24q-34 0 -50 -25t-16 -79v-1z" />
    <glyph glyph-name="Ecaron" unicode="&#x11a;" horiz-adv-x="560" 
d="M535 0h-484v744h477v-172h-262v-116h233v-158h-233v-124h269v-174zM209 790l-90 151h107l60 -70l59 70h107l-90 -151h-153z" />
    <glyph glyph-name="ecaron" unicode="&#x11b;" horiz-adv-x="581" 
d="M554 249h-325v-10q0 -52 16 -78.5t50 -26.5q33 0 48.5 18t17.5 56h191q-5 -106 -71.5 -165.5t-189.5 -59.5q-130 0 -197 76.5t-67 213.5v52q0 135 68 210.5t199 75.5q127 0 193.5 -69.5t66.5 -205.5v-87zM229 357h132v7q0 50 -15.5 74t-50.5 24q-34 0 -50 -25t-16 -79v-1
zM215 656l-90 150h107l60 -70l59 70h107l-90 -150h-153z" />
    <glyph glyph-name="Gcircumflex" unicode="&#x11c;" horiz-adv-x="656" 
d="M108.5 64.5q-75.5 81.5 -75.5 241.5v130q0 161 75 242.5t224 81.5q147 0 220.5 -75t73.5 -216v-3h-212v20q0 45 -20 70.5t-62 25.5q-40 0 -62 -28.5t-22 -86.5v-192q0 -125 87 -125q86 0 89 96v6h-90v147h294v-76q0 -176 -70 -258t-225 -82q-149 0 -224.5 81.5zM271 790
h-107l90 150h153l90 -150h-107l-59 70z" />
    <glyph glyph-name="gcircumflex" unicode="&#x11d;" horiz-adv-x="616" 
d="M369 594h202v-518q0 -138 -73.5 -205.5t-224.5 -67.5q-99 0 -188 25l7 147q28 -9 69.5 -14.5t80.5 -5.5q121 0 128 97v1l4 68h-2q-22 -48 -63.5 -74t-93.5 -26q-98 0 -143 71.5t-45 216.5v18q0 144 45 214t143 70q52 0 94 -26.5t63 -76.5h2l-5 54v32zM352.5 204.5
q16.5 27.5 16.5 71.5v71q0 45 -16 75.5t-55 30.5t-53.5 -30t-14.5 -79v-69q0 -46 14.5 -72t53.5 -26q38 0 54.5 27.5zM252 659h-107l90 151h153l90 -151h-107l-59 70z" />
    <glyph glyph-name="Gbreve" unicode="&#x11e;" horiz-adv-x="656" 
d="M108.5 64.5q-75.5 81.5 -75.5 241.5v130q0 161 75 242.5t224 81.5q147 0 220.5 -75t73.5 -216v-3h-212v20q0 45 -20 70.5t-62 25.5q-40 0 -62 -28.5t-22 -86.5v-192q0 -125 87 -125q86 0 89 96v6h-90v147h294v-76q0 -176 -70 -258t-225 -82q-149 0 -224.5 81.5zM178 925
q0 16 1 25h108q-1 -7 -1 -19q0 -26 10.5 -36.5t34.5 -10.5q27 0 37.5 14.5t6.5 51.5h107q1 -10 1 -28q0 -134 -152 -134q-153 0 -153 137z" />
    <glyph glyph-name="gbreve" unicode="&#x11f;" horiz-adv-x="616" 
d="M369 594h202v-518q0 -138 -73.5 -205.5t-224.5 -67.5q-99 0 -188 25l7 147q28 -9 69.5 -14.5t80.5 -5.5q121 0 128 97v1l4 68h-2q-22 -48 -63.5 -74t-93.5 -26q-98 0 -143 71.5t-45 216.5v18q0 144 45 214t143 70q52 0 94 -26.5t63 -76.5h2l-5 54v32zM352.5 204.5
q16.5 27.5 16.5 71.5v71q0 45 -16 75.5t-55 30.5t-53.5 -30t-14.5 -79v-69q0 -46 14.5 -72t53.5 -26q38 0 54.5 27.5zM159 791q0 16 1 25h108q-1 -7 -1 -19q0 -26 10.5 -36.5t34.5 -10.5q27 0 37.5 14.5t6.5 51.5h107q1 -10 1 -28q0 -134 -152 -134q-153 0 -153 137z" />
    <glyph glyph-name="Gdotaccent" unicode="&#x120;" horiz-adv-x="656" 
d="M108.5 64.5q-75.5 81.5 -75.5 241.5v130q0 161 75 242.5t224 81.5q147 0 220.5 -75t73.5 -216v-3h-212v20q0 45 -20 70.5t-62 25.5q-40 0 -62 -28.5t-22 -86.5v-192q0 -125 87 -125q86 0 89 96v6h-90v147h294v-76q0 -176 -70 -258t-225 -82q-149 0 -224.5 81.5z
M267.5 804q-19.5 15 -19.5 48t19.5 48.5t64.5 15.5q44 0 64 -15.5t20 -48.5t-20 -48t-64 -15q-45 0 -64.5 15z" />
    <glyph glyph-name="gdotaccent" unicode="&#x121;" horiz-adv-x="616" 
d="M369 594h202v-518q0 -138 -73.5 -205.5t-224.5 -67.5q-99 0 -188 25l7 147q28 -9 69.5 -14.5t80.5 -5.5q121 0 128 97v1l4 68h-2q-22 -48 -63.5 -74t-93.5 -26q-98 0 -143 71.5t-45 216.5v18q0 144 45 214t143 70q52 0 94 -26.5t63 -76.5h2l-5 54v32zM352.5 204.5
q16.5 27.5 16.5 71.5v71q0 45 -16 75.5t-55 30.5t-53.5 -30t-14.5 -79v-69q0 -46 14.5 -72t53.5 -26q38 0 54.5 27.5zM233 683.5q-24 17.5 -24 56.5t24 56.5t79 17.5q54 0 78.5 -17.5t24.5 -56.5t-24.5 -56.5t-78.5 -17.5q-55 0 -79 17.5z" />
    <glyph glyph-name="uni0122" unicode="&#x122;" horiz-adv-x="656" 
d="M108.5 64.5q-75.5 81.5 -75.5 241.5v130q0 161 75 242.5t224 81.5q147 0 220.5 -75t73.5 -216v-3h-212v20q0 45 -20 70.5t-62 25.5q-40 0 -62 -28.5t-22 -86.5v-192q0 -125 87 -125q86 0 89 96v6h-90v147h294v-76q0 -176 -70 -258t-225 -82q-149 0 -224.5 81.5zM256 -155
q41 0 54 6t13 24q-87 0 -87 46q0 24 22.5 35.5t70.5 11.5q50 0 73 -13t23 -42q0 -67 -42 -92t-127 -20v44z" />
    <glyph glyph-name="uni0123" unicode="&#x123;" horiz-adv-x="616" 
d="M369 594h202v-518q0 -138 -73.5 -205.5t-224.5 -67.5q-99 0 -188 25l7 147q28 -9 69.5 -14.5t80.5 -5.5q121 0 128 97v1l4 68h-2q-22 -48 -63.5 -74t-93.5 -26q-98 0 -143 71.5t-45 216.5v18q0 144 45 214t143 70q52 0 94 -26.5t63 -76.5h2l-5 54v32zM352.5 204.5
q16.5 27.5 16.5 71.5v71q0 45 -16 75.5t-55 30.5t-53.5 -30t-14.5 -79v-69q0 -46 14.5 -72t53.5 -26q38 0 54.5 27.5zM372 796q-31 0 -40.5 -7t-9.5 -28q65 0 65 -55q0 -29 -17 -42.5t-53 -13.5q-38 0 -55 15.5t-17 49.5q0 80 31.5 109.5t95.5 23.5v-52z" />
    <glyph glyph-name="Hcircumflex" unicode="&#x124;" horiz-adv-x="689" 
d="M422 463v281h216v-744h-216v288h-156v-288h-215v744h215v-281h156zM284 790h-107l90 150h153l90 -150h-107l-59 70z" />
    <glyph glyph-name="hcircumflex" unicode="&#x125;" horiz-adv-x="628" 
d="M585 395v-395h-203v367q0 41 -15.5 61.5t-45.5 20.5q-36 0 -55 -29t-19 -73v-347h-202v766h202v-205l-5 -56h2q24 53 65.5 79.5t94.5 26.5q181 0 181 -216zM86 785h-107l90 150h153l90 -150h-107l-59 70z" />
    <glyph glyph-name="Hbar" unicode="&#x126;" horiz-adv-x="689" 
d="M638 631h52v-77h-52v-554h-216v288h-156v-288h-215v554h-29v77h29v113h215v-113h156v113h216v-113zM266 463h156v91h-156v-91z" />
    <glyph glyph-name="hbar" unicode="&#x127;" horiz-adv-x="629" 
d="M586 395v-395h-203v367q0 41 -15.5 61.5t-45.5 20.5q-36 0 -55 -29t-19 -73v-347h-202v626h-41v97h41v43h202v-43h164v-97h-164v-65l-5 -56h2q24 53 65.5 79.5t94.5 26.5q181 0 181 -216z" />
    <glyph glyph-name="Itilde" unicode="&#x128;" horiz-adv-x="318" 
d="M266 0h-215v744h215v-744zM185.5 794q-20.5 6 -45.5 17q-26 11 -36 11q-21 0 -24 -34l-95 15q3 130 101 130q27 0 47.5 -6t45.5 -16q3 -1 15 -6t21 -5q21 0 24 33l95 -14q-2 -131 -101 -131q-27 0 -47.5 6z" />
    <glyph glyph-name="itilde" unicode="&#x129;" horiz-adv-x="292" 
d="M247 0h-202v594h202v-594zM172.5 661q-20.5 6 -45.5 17q-26 11 -36 11q-21 0 -24 -34l-95 14q2 66 26.5 98.5t74.5 32.5q27 0 48.5 -6.5t44.5 -16.5q3 -1 15 -6t21 -5q21 0 24 34l95 -15q-2 -130 -101 -130q-27 0 -47.5 6z" />
    <glyph glyph-name="Imacron" unicode="&#x12a;" horiz-adv-x="318" 
d="M266 0h-215v744h215v-744zM314 790h-322v120h322v-120z" />
    <glyph glyph-name="imacron" unicode="&#x12b;" horiz-adv-x="292" 
d="M247 0h-202v594h202v-594zM307 660h-322v120h322v-120z" />
    <glyph glyph-name="Ibreve" unicode="&#x12c;" horiz-adv-x="318" 
d="M266 0h-215v744h215v-744zM6 925q0 16 1 25h108q-1 -7 -1 -19q0 -26 10.5 -36.5t34.5 -10.5q27 0 37.5 14.5t6.5 51.5h107q1 -10 1 -28q0 -134 -152 -134q-153 0 -153 137z" />
    <glyph glyph-name="ibreve" unicode="&#x12d;" horiz-adv-x="292" 
d="M247 0h-202v594h202v-594zM-7 791q0 16 1 25h108q-1 -7 -1 -19q0 -26 10.5 -36.5t34.5 -10.5q27 0 37.5 14.5t6.5 51.5h107q1 -10 1 -28q0 -134 -152 -134q-153 0 -153 137z" />
    <glyph glyph-name="Iogonek" unicode="&#x12e;" horiz-adv-x="318" 
d="M273 -75q2 -66 -31 -97t-110 -31q-59 0 -91 22.5t-32 63.5q0 37 31.5 68.5t89.5 48.5h-79v744h215v-744h-43q-97 -48 -97 -100q0 -9 6 -14t15 -5q14 0 20 9.5t6 34.5h100z" />
    <glyph glyph-name="iogonek" unicode="&#x12f;" horiz-adv-x="292" 
d="M60 667.5q-27 21.5 -27 68.5t27.5 69t86.5 22t86 -22t27 -69t-27 -68.5t-86 -21.5q-60 0 -87 21.5zM256 -75q2 -66 -30.5 -97t-109.5 -31q-59 0 -91.5 22.5t-32.5 63.5q0 37 31 68t89 49h-67v594h202v-594q-79 -14 -108 -37.5t-29 -62.5q0 -9 5.5 -14t14.5 -5
q14 0 20.5 9.5t6.5 34.5h99z" />
    <glyph glyph-name="Idotaccent" unicode="&#x130;" horiz-adv-x="318" 
d="M266 0h-215v744h215v-744zM95.5 804q-19.5 15 -19.5 48t19.5 48.5t64.5 15.5q44 0 64 -15.5t20 -48.5t-20 -48t-64 -15q-45 0 -64.5 15z" />
    <glyph glyph-name="dotlessi" unicode="&#x131;" horiz-adv-x="292" 
d="M247 0h-202v594h202v-594z" />
    <glyph glyph-name="IJ" unicode="&#x132;" horiz-adv-x="818" 
d="M266 0h-215v744h215v-744zM563 744h215v-491q0 -142 -70 -206t-210 -64q-81 0 -173 19l6 175q78 -16 131 -16t77 25t24 82v305h-206v170h206v1z" />
    <glyph glyph-name="ij" unicode="&#x133;" horiz-adv-x="586" 
d="M60 668q-27 21 -27 68q0 48 27 69.5t86 21.5q60 0 87 -21.5t27 -69.5q0 -47 -27 -68t-87 -21q-59 0 -86 21zM247 0h-202v594h202v-594zM354 668q-27 21 -27 68q0 48 27 69.5t86 21.5q60 0 87 -21.5t27 -69.5q0 -47 -27 -68t-87 -21q-59 0 -86 21zM229 -187l5 143
q25 -5 46 -5q34 0 46.5 21t12.5 75v547h202v-540q0 -125 -54 -187.5t-180 -62.5q-33 0 -78 9z" />
    <glyph glyph-name="Jcircumflex" unicode="&#x134;" horiz-adv-x="501" 
d="M245 744h215v-491q0 -142 -70 -206t-210 -64q-81 0 -173 19l6 175q78 -16 131 -16t77 25t24 82v305h-206v170h206v1zM305 790h-107l90 150h153l90 -150h-107l-59 70z" />
    <glyph glyph-name="jcircumflex" unicode="&#x135;" horiz-adv-x="294" 
d="M-63 -187l5 143q25 -5 46 -5q34 0 46.5 21t12.5 75v547h202v-540q0 -125 -54 -187.5t-180 -62.5q-33 0 -78 9zM88 659h-107l90 151h153l90 -151h-107l-59 70z" />
    <glyph glyph-name="uni0136" unicode="&#x136;" horiz-adv-x="665" 
d="M266 0h-215v744h215v-276h48l94 276h231l-152 -358v-5l172 -381h-232l-113 294h-48v-294zM256 -155q41 0 54 6t13 24q-87 0 -87 46q0 24 22.5 35.5t70.5 11.5q50 0 73 -13t23 -42q0 -67 -42 -92t-127 -20v44z" />
    <glyph glyph-name="uni0137" unicode="&#x137;" horiz-adv-x="612" 
d="M247 0h-202v766h202v-381h48l77 209h220l-125 -291l144 -303h-226l-91 229h-47v-229zM233 -155q41 0 54 6t13 24q-87 0 -87 46q0 24 22.5 35.5t70.5 11.5q50 0 73 -13t23 -42q0 -67 -42 -92t-127 -20v44z" />
    <glyph glyph-name="kgreenlandic" unicode="&#x138;" horiz-adv-x="612" 
d="M247 0h-202v594h202v-209h48l77 209h220l-125 -291l144 -303h-226l-91 229h-47v-229z" />
    <glyph glyph-name="Lacute" unicode="&#x139;" horiz-adv-x="519" 
d="M504 0h-453v744h215v-567h238v-177zM303 942l-135 -151h-116l73 151h178z" />
    <glyph glyph-name="lacute" unicode="&#x13a;" horiz-adv-x="292" 
d="M247 0h-202v766h202v-766zM284 935l-135 -151h-116l73 151h178z" />
    <glyph glyph-name="uni013B" unicode="&#x13b;" horiz-adv-x="519" 
d="M504 0h-453v744h215v-567h238v-177zM188 -155q41 0 54 6t13 24q-87 0 -87 46q0 24 22.5 35.5t70.5 11.5q50 0 73 -13t23 -42q0 -67 -42 -92t-127 -20v44z" />
    <glyph glyph-name="uni013C" unicode="&#x13c;" horiz-adv-x="292" 
d="M247 0h-202v766h202v-766zM71 -155q41 0 54 6t13 24q-87 0 -87 46q0 24 22.5 35.5t70.5 11.5q50 0 73 -13t23 -42q0 -67 -42 -92t-127 -20v44z" />
    <glyph glyph-name="Lcaron" unicode="&#x13d;" horiz-adv-x="509" 
d="M504 0h-453v744h215v-567h238v-177zM490 744l-15 -240h-98l-13 240h126z" />
    <glyph glyph-name="lcaron" unicode="&#x13e;" horiz-adv-x="403" 
d="M247 0h-202v766h202v-766zM401 767l-15 -240h-98l-13 240h126z" />
    <glyph glyph-name="Ldot" unicode="&#x13f;" horiz-adv-x="530" 
d="M504 0h-453v744h215v-567h238v-177zM357 400.5q-21 16.5 -21 51.5t21 52t66 17t65.5 -17t20.5 -52t-20.5 -51.5t-65.5 -16.5t-66 16.5z" />
    <glyph glyph-name="ldot" unicode="&#x140;" horiz-adv-x="404" 
d="M247 0h-202v766h202v-766zM298 357.5q-15 12.5 -15 38.5q0 51 64 51q33 0 48.5 -12.5t15.5 -38.5t-15 -38.5t-49 -12.5t-49 12.5z" />
    <glyph glyph-name="Lslash" unicode="&#x141;" horiz-adv-x="527" 
d="M274 389v-212h238v-177h-453v296l-16 -7l-35 74l51 22v359h215v-266l60 26l36 -74z" />
    <glyph glyph-name="lslash" unicode="&#x142;" horiz-adv-x="363" 
d="M325 494l37 -74l-80 -36v-384h-203v294l-42 -19l-36 74l78 35v382h203v-291z" />
    <glyph glyph-name="Nacute" unicode="&#x143;" horiz-adv-x="710" 
d="M257 0h-206v744h222l157 -347l22 -54h2l-1 61v340h205v-744h-221l-157 344l-23 53h-1l1 -61v-336zM492 942l-135 -151h-116l73 151h178z" />
    <glyph glyph-name="nacute" unicode="&#x144;" horiz-adv-x="627" 
d="M585 394v-394h-203v368q0 40 -16 60.5t-46 20.5q-36 0 -54.5 -29t-18.5 -73v-347h-202v594h202v-32l-5 -57h1q49 106 161 106q181 0 181 -217zM458 814l-129 -150h-116l67 150h178z" />
    <glyph glyph-name="uni0145" unicode="&#x145;" horiz-adv-x="710" 
d="M257 0h-206v744h222l157 -347l22 -54h2l-1 61v340h205v-744h-221l-157 344l-23 53h-1l1 -61v-336zM279 -155q41 0 54 6t13 24q-87 0 -87 46q0 24 22.5 35.5t70.5 11.5q50 0 73 -13t23 -42q0 -67 -42 -92t-127 -20v44z" />
    <glyph glyph-name="uni0146" unicode="&#x146;" horiz-adv-x="627" 
d="M585 394v-394h-203v368q0 40 -16 60.5t-46 20.5q-36 0 -54.5 -29t-18.5 -73v-347h-202v594h202v-32l-5 -57h1q49 106 161 106q181 0 181 -217zM235 -155q41 0 54 6t13 24q-87 0 -87 46q0 24 22.5 35.5t70.5 11.5q50 0 73 -13t23 -42q0 -67 -42 -92t-127 -20v44z" />
    <glyph glyph-name="Ncaron" unicode="&#x147;" horiz-adv-x="710" 
d="M257 0h-206v744h222l157 -347l22 -54h2l-1 61v340h205v-744h-221l-157 344l-23 53h-1l1 -61v-336zM278 790l-90 151h107l60 -70l59 70h107l-90 -151h-153z" />
    <glyph glyph-name="ncaron" unicode="&#x148;" horiz-adv-x="627" 
d="M585 394v-394h-203v368q0 40 -16 60.5t-46 20.5q-36 0 -54.5 -29t-18.5 -73v-347h-202v594h202v-32l-5 -57h1q49 106 161 106q181 0 181 -217zM234 656l-90 150h107l60 -70l59 70h107l-90 -150h-153z" />
    <glyph glyph-name="Eng" unicode="&#x14a;" horiz-adv-x="710" 
d="M453 744h205v-744q0 -104 -72 -148t-222 -44v111q54 0 82 21t28 60h-37l-157 344l-23 53h-1l1 -61v-336h-206v744h222l157 -347l22 -54h2l-1 61v340z" />
    <glyph glyph-name="eng" unicode="&#x14b;" horiz-adv-x="627" 
d="M585 394v-394q0 -102 -80 -147t-233 -45v111q54 0 82 21t28 60v368q0 40 -16 60.5t-46 20.5q-36 0 -54.5 -29t-18.5 -73v-347h-202v594h202v-32l-5 -57h1q49 106 161 106q181 0 181 -217z" />
    <glyph glyph-name="Omacron" unicode="&#x14c;" horiz-adv-x="667" 
d="M109 64.5q-76 81.5 -76 240.5v133q0 159 76 240.5t224 81.5q149 0 225 -81.5t76 -240.5v-133q0 -159 -76 -240.5t-224 -81.5q-149 0 -225 81.5zM418 282v179q0 119 -84 119q-85 0 -85 -119v-179q0 -119 85 -119q84 0 84 119zM495 790h-322v120h322v-120z" />
    <glyph glyph-name="omacron" unicode="&#x14d;" horiz-adv-x="600" 
d="M96 57q-69 74 -69 215v52q0 140 69.5 213.5t203.5 73.5q135 0 204 -73.5t69 -213.5v-52q0 -142 -69 -215.5t-204 -73.5t-204 74zM370 240v114q0 99 -70 99t-70 -99v-114q0 -99 70 -99t70 99zM461 660h-322v120h322v-120z" />
    <glyph glyph-name="Obreve" unicode="&#x14e;" horiz-adv-x="667" 
d="M109 64.5q-76 81.5 -76 240.5v133q0 159 76 240.5t224 81.5q149 0 225 -81.5t76 -240.5v-133q0 -159 -76 -240.5t-224 -81.5q-149 0 -225 81.5zM418 282v179q0 119 -84 119q-85 0 -85 -119v-179q0 -119 85 -119q84 0 84 119zM187 925q0 16 1 25h108q-1 -7 -1 -19
q0 -26 10.5 -36.5t34.5 -10.5q27 0 37.5 14.5t6.5 51.5h107q1 -10 1 -28q0 -134 -152 -134q-153 0 -153 137z" />
    <glyph glyph-name="obreve" unicode="&#x14f;" horiz-adv-x="600" 
d="M96 57q-69 74 -69 215v52q0 140 69.5 213.5t203.5 73.5q135 0 204 -73.5t69 -213.5v-52q0 -142 -69 -215.5t-204 -73.5t-204 74zM370 240v114q0 99 -70 99t-70 -99v-114q0 -99 70 -99t70 99zM147 791q0 16 1 25h108q-1 -7 -1 -19q0 -26 10.5 -36.5t34.5 -10.5
q27 0 37.5 14.5t6.5 51.5h107q1 -10 1 -28q0 -134 -152 -134q-153 0 -153 137z" />
    <glyph glyph-name="Ohungarumlaut" unicode="&#x150;" horiz-adv-x="667" 
d="M109 64.5q-76 81.5 -76 240.5v133q0 159 76 240.5t224 81.5q149 0 225 -81.5t76 -240.5v-133q0 -159 -76 -240.5t-224 -81.5q-149 0 -225 81.5zM418 282v179q0 119 -84 119q-85 0 -85 -119v-179q0 -119 85 -119q84 0 84 119zM409 941l-125 -150h-106l67 150h164zM585 941
l-124 -150h-107l68 150h163z" />
    <glyph glyph-name="ohungarumlaut" unicode="&#x151;" horiz-adv-x="600" 
d="M96 57q-69 74 -69 215v52q0 140 69.5 213.5t203.5 73.5q135 0 204 -73.5t69 -213.5v-52q0 -142 -69 -215.5t-204 -73.5t-204 74zM370 240v114q0 99 -70 99t-70 -99v-114q0 -99 70 -99t70 99zM331 813l-120 -150h-107l62 150h165zM507 813l-120 -150h-107l62 150h165z" />
    <glyph glyph-name="OE" unicode="&#x152;" horiz-adv-x="891" 
d="M867 174v-174h-411q-53 -17 -123 -17q-151 0 -225.5 81.5t-74.5 243.5v129q0 162 74 242.5t226 80.5q72 0 120 -16h406v-172h-261v-116h232v-158h-232v-124h269zM382 188v368q-17 24 -48 24q-41 0 -63 -30.5t-22 -89.5v-175q0 -60 21.5 -91t63.5 -31q30 0 48 25z" />
    <glyph glyph-name="oe" unicode="&#x153;" horiz-adv-x="940" 
d="M841 542.5q66 -69.5 66 -206.5v-86h-324v-11q0 -52 15.5 -78t49.5 -26q33 0 48.5 18t18.5 55h191q-5 -105 -72 -165t-190 -60q-101 0 -164 48q-66 -48 -175 -48q-135 0 -203.5 74t-68.5 215v52q0 141 69 214t203 73q109 0 174 -47q67 48 169 48q127 0 193 -69.5zM583 357
h132v7q0 50 -15.5 74t-50.5 24t-50.5 -24.5t-15.5 -78.5v-2zM376 354q0 99 -71 99q-70 0 -70 -99v-114q0 -99 70 -99q71 0 71 99v114z" />
    <glyph glyph-name="Racute" unicode="&#x154;" horiz-adv-x="646" 
d="M51 0v744h301q136 0 203.5 -57.5t67.5 -165.5v-8q0 -71 -31 -119t-88 -64v-1q97 -23 107 -173l5 -64q5 -62 19 -92h-214q-10 36 -17 118l-5 53q-4 38 -23.5 56t-59.5 18h-50v-245h-215zM330 395q38 0 58.5 21t20.5 70v9q0 83 -73 83h-70v-183h64zM470 942l-135 -151h-116
l73 151h178z" />
    <glyph glyph-name="racute" unicode="&#x155;" horiz-adv-x="447" 
d="M438 603v-180q-28 7 -60 7q-63 0 -97 -39t-34 -113v-278h-202v594h202v-33l-6 -58h2q17 51 54.5 79.5t84.5 28.5q32 0 56 -8zM377 814l-129 -150h-116l67 150h178z" />
    <glyph glyph-name="uni0156" unicode="&#x156;" horiz-adv-x="646" 
d="M51 0v744h301q136 0 203.5 -57.5t67.5 -165.5v-8q0 -71 -31 -119t-88 -64v-1q97 -23 107 -173l5 -64q5 -62 19 -92h-214q-10 36 -17 118l-5 53q-4 38 -23.5 56t-59.5 18h-50v-245h-215zM330 395q38 0 58.5 21t20.5 70v9q0 83 -73 83h-70v-183h64zM257 -155q41 0 54 6
t13 24q-87 0 -87 46q0 24 22.5 35.5t70.5 11.5q50 0 73 -13t23 -42q0 -67 -42 -92t-127 -20v44z" />
    <glyph glyph-name="uni0157" unicode="&#x157;" horiz-adv-x="447" 
d="M438 603v-180q-28 7 -60 7q-63 0 -97 -39t-34 -113v-278h-202v594h202v-33l-6 -58h2q17 51 54.5 79.5t84.5 28.5q32 0 56 -8zM64 -155q41 0 54 6t13 24q-87 0 -87 46q0 24 22.5 35.5t70.5 11.5q50 0 73 -13t23 -42q0 -67 -42 -92t-127 -20v44z" />
    <glyph glyph-name="Rcaron" unicode="&#x158;" horiz-adv-x="646" 
d="M51 0v744h301q136 0 203.5 -57.5t67.5 -165.5v-8q0 -71 -31 -119t-88 -64v-1q97 -23 107 -173l5 -64q5 -62 19 -92h-214q-10 36 -17 118l-5 53q-4 38 -23.5 56t-59.5 18h-50v-245h-215zM330 395q38 0 58.5 21t20.5 70v9q0 83 -73 83h-70v-183h64zM256 790l-90 151h107
l60 -70l59 70h107l-90 -151h-153z" />
    <glyph glyph-name="rcaron" unicode="&#x159;" horiz-adv-x="447" 
d="M438 603v-180q-28 7 -60 7q-63 0 -97 -39t-34 -113v-278h-202v594h202v-33l-6 -58h2q17 51 54.5 79.5t84.5 28.5q32 0 56 -8zM153 656l-90 150h107l60 -70l59 70h107l-90 -150h-153z" />
    <glyph glyph-name="Sacute" unicode="&#x15a;" horiz-adv-x="615" 
d="M95.5 47q-72.5 64 -73.5 189h207q0 -88 82 -88q34 0 51 16.5t17 44.5q0 27 -11.5 42t-35.5 26.5t-87 35.5q-82 27 -128 57t-65.5 70t-19.5 101v1q0 102 72 160t202 58q137 0 206.5 -66.5t68.5 -184.5h-198q-1 41 -18.5 63t-57.5 22q-32 0 -47.5 -14.5t-15.5 -38.5v-1
q0 -28 20.5 -44t70.5 -32q100 -30 155.5 -64.5t79 -80t23.5 -111.5q0 -107 -76 -166t-207 -59q-142 0 -214.5 64zM446 942l-135 -151h-116l73 151h178z" />
    <glyph glyph-name="sacute" unicode="&#x15b;" horiz-adv-x="571" 
d="M89.5 40q-65.5 56 -65.5 159h194q1 -73 74 -73q28 0 42 11.5t14 32.5v2q0 25 -18.5 38t-71.5 24q-86 19 -135 45.5t-69 63.5t-20 91v1q0 81 58.5 128.5t186.5 47.5t190 -51.5t62 -144.5h-184q-1 24 -16 39t-46 15q-51 0 -51 -39v-1q0 -23 18 -35t70 -23
q122 -24 174.5 -70.5t52.5 -129.5q0 -91 -66.5 -139t-195.5 -48q-132 0 -197.5 56zM433 814l-129 -150h-116l67 150h178z" />
    <glyph glyph-name="Scircumflex" unicode="&#x15c;" horiz-adv-x="615" 
d="M95.5 47q-72.5 64 -73.5 189h207q0 -88 82 -88q34 0 51 16.5t17 44.5q0 27 -11.5 42t-35.5 26.5t-87 35.5q-82 27 -128 57t-65.5 70t-19.5 101v1q0 102 72 160t202 58q137 0 206.5 -66.5t68.5 -184.5h-198q-1 41 -18.5 63t-57.5 22q-32 0 -47.5 -14.5t-15.5 -38.5v-1
q0 -28 20.5 -44t70.5 -32q100 -30 155.5 -64.5t79 -80t23.5 -111.5q0 -107 -76 -166t-207 -59q-142 0 -214.5 64zM249 790h-107l90 150h153l90 -150h-107l-59 70z" />
    <glyph glyph-name="scircumflex" unicode="&#x15d;" horiz-adv-x="571" 
d="M89.5 40q-65.5 56 -65.5 159h194q1 -73 74 -73q28 0 42 11.5t14 32.5v2q0 25 -18.5 38t-71.5 24q-86 19 -135 45.5t-69 63.5t-20 91v1q0 81 58.5 128.5t186.5 47.5t190 -51.5t62 -144.5h-184q-1 24 -16 39t-46 15q-51 0 -51 -39v-1q0 -23 18 -35t70 -23
q122 -24 174.5 -70.5t52.5 -129.5q0 -91 -66.5 -139t-195.5 -48q-132 0 -197.5 56zM225 659h-107l90 151h153l90 -151h-107l-59 70z" />
    <glyph glyph-name="Scedilla" unicode="&#x15e;" horiz-adv-x="615" 
d="M525 48.5q-68 -58.5 -187 -64.5l-8 -23q14 2 20 2q33 0 56.5 -18.5t23.5 -53.5q0 -42 -32 -69t-92 -27q-127 0 -128 104h90q1 -19 9 -26t23 -7q26 0 26 28q0 14 -8 21.5t-19 7.5q-5 0 -13 -2l-38 24l13 40q-118 10 -178 74t-61 177h207q0 -88 82 -88q34 0 51 16.5
t17 44.5q0 27 -11.5 42t-35.5 26.5t-87 35.5q-82 27 -128 57t-65.5 70t-19.5 101v1q0 102 72 160t202 58q137 0 206.5 -66.5t68.5 -184.5h-198q-1 41 -18.5 63t-57.5 22q-32 0 -47.5 -14.5t-15.5 -38.5v-1q0 -28 20.5 -44t70.5 -32q100 -30 155.5 -64.5t79 -80t23.5 -111.5
q0 -101 -68 -159.5z" />
    <glyph glyph-name="scedilla" unicode="&#x15f;" horiz-adv-x="571" 
d="M490 38q-59 -48 -174 -53l-8 -24q14 2 20 2q33 0 56 -18.5t23 -53.5q0 -43 -31.5 -69.5t-92.5 -26.5q-127 0 -128 104h90q1 -19 9 -26t23 -7q26 0 26 28q0 14 -8 21.5t-19 7.5q-5 0 -13 -2l-37 24l13 41q-108 10 -161.5 65t-53.5 148h194q1 -73 74 -73q28 0 42 11.5
t14 32.5v2q0 25 -18.5 38t-71.5 24q-86 19 -135 45.5t-69 63.5t-20 91v1q0 81 58.5 128.5t186.5 47.5t190 -51.5t62 -144.5h-184q-1 24 -16 39t-46 15q-51 0 -51 -39v-1q0 -23 18 -35t70 -23q122 -24 174.5 -70.5t52.5 -129.5q0 -85 -59 -133z" />
    <glyph glyph-name="Scaron" unicode="&#x160;" horiz-adv-x="615" 
d="M95.5 47q-72.5 64 -73.5 189h207q0 -88 82 -88q34 0 51 16.5t17 44.5q0 27 -11.5 42t-35.5 26.5t-87 35.5q-82 27 -128 57t-65.5 70t-19.5 101v1q0 102 72 160t202 58q137 0 206.5 -66.5t68.5 -184.5h-198q-1 41 -18.5 63t-57.5 22q-32 0 -47.5 -14.5t-15.5 -38.5v-1
q0 -28 20.5 -44t70.5 -32q100 -30 155.5 -64.5t79 -80t23.5 -111.5q0 -107 -76 -166t-207 -59q-142 0 -214.5 64zM232 790l-90 151h107l60 -70l59 70h107l-90 -151h-153z" />
    <glyph glyph-name="scaron" unicode="&#x161;" horiz-adv-x="571" 
d="M89.5 40q-65.5 56 -65.5 159h194q1 -73 74 -73q28 0 42 11.5t14 32.5v2q0 25 -18.5 38t-71.5 24q-86 19 -135 45.5t-69 63.5t-20 91v1q0 81 58.5 128.5t186.5 47.5t190 -51.5t62 -144.5h-184q-1 24 -16 39t-46 15q-51 0 -51 -39v-1q0 -23 18 -35t70 -23
q122 -24 174.5 -70.5t52.5 -129.5q0 -91 -66.5 -139t-195.5 -48q-132 0 -197.5 56zM209 656l-90 150h107l60 -70l59 70h107l-90 -150h-153z" />
    <glyph glyph-name="uni0162" unicode="&#x162;" horiz-adv-x="544" 
d="M379 0h-72l-14 -41q14 2 20 2q33 0 56 -18.5t23 -53.5q0 -43 -31.5 -69.5t-91.5 -26.5q-127 0 -128 104h89q1 -19 9.5 -26t23.5 -7q25 0 25 28q0 14 -7.5 21.5t-19.5 7.5q-5 0 -13 -2l-37 24l19 57h-66v566h-156v178h528v-178h-157v-566z" />
    <glyph glyph-name="uni0163" unicode="&#x163;" horiz-adv-x="415" 
d="M407 1q-64 -16 -131 -18l-7 -22q14 2 20 2q33 0 56 -18.5t23 -53.5q0 -43 -31.5 -69.5t-91.5 -26.5q-127 0 -128 104h89q1 -19 9.5 -26t23.5 -7q25 0 25 28q0 14 -7.5 21.5t-19.5 7.5q-5 0 -13 -2l-37 24l15 46q-128 31 -128 204v241h-67v158h67v131h203v-131h122v-158
h-122v-199q0 -44 14.5 -63.5t48.5 -19.5q32 0 67 6v-159z" />
    <glyph glyph-name="Tcaron" unicode="&#x164;" horiz-adv-x="544" 
d="M379 0h-215v566h-156v178h528v-178h-157v-566zM196 790l-90 151h107l60 -70l59 70h107l-90 -151h-153z" />
    <glyph glyph-name="tcaron" unicode="&#x165;" horiz-adv-x="415" 
d="M324 669l-13 226h126l-15 -226h-98zM277 237q0 -44 14.5 -63.5t48.5 -19.5q32 0 67 6v-159q-67 -18 -137 -18q-102 0 -149 54t-47 158v241h-67v158h67v131h203v-131h122v-158h-122v-199z" />
    <glyph glyph-name="Tbar" unicode="&#x166;" horiz-adv-x="544" 
d="M536 744v-178h-157v-155h97v-104h-97v-307h-215v307h-94v104h94v155h-156v178h528z" />
    <glyph glyph-name="tbar" unicode="&#x167;" horiz-adv-x="415" 
d="M407 160v-159q-67 -18 -137 -18q-102 0 -149 54t-47 158v54h-58v98h58v89h-67v158h67v131h203v-131h122v-158h-122v-89h84v-98h-84v-12q0 -44 14.5 -63.5t48.5 -19.5q32 0 67 6z" />
    <glyph glyph-name="Utilde" unicode="&#x168;" horiz-adv-x="667" 
d="M109.5 55.5q-68.5 72.5 -68.5 230.5v458h215v-475q0 -106 78 -106q77 0 77 106v475h215v-457q0 -158 -68.5 -231t-224.5 -73q-155 0 -223.5 72.5zM356.5 794q-20.5 6 -45.5 17q-26 11 -36 11q-21 0 -24 -34l-95 15q3 130 101 130q27 0 47.5 -6t45.5 -16q3 -1 15 -6t21 -5
q21 0 24 33l95 -14q-2 -131 -101 -131q-27 0 -47.5 6z" />
    <glyph glyph-name="utilde" unicode="&#x169;" horiz-adv-x="627" 
d="M380 594h203v-594h-203v33l6 56h-2q-49 -106 -161 -106q-180 0 -180 217v394h202v-368q0 -40 16 -60.5t46 -20.5q36 0 54.5 29t18.5 73v347zM339.5 661q-20.5 6 -45.5 17q-26 11 -36 11q-21 0 -24 -34l-95 14q2 66 26.5 98.5t74.5 32.5q27 0 48.5 -6.5t44.5 -16.5
q3 -1 15 -6t21 -5q21 0 24 34l95 -15q-2 -130 -101 -130q-27 0 -47.5 6z" />
    <glyph glyph-name="Umacron" unicode="&#x16a;" horiz-adv-x="667" 
d="M109.5 55.5q-68.5 72.5 -68.5 230.5v458h215v-475q0 -106 78 -106q77 0 77 106v475h215v-457q0 -158 -68.5 -231t-224.5 -73q-155 0 -223.5 72.5zM485 790h-322v120h322v-120z" />
    <glyph glyph-name="umacron" unicode="&#x16b;" horiz-adv-x="627" 
d="M380 594h203v-594h-203v33l6 56h-2q-49 -106 -161 -106q-180 0 -180 217v394h202v-368q0 -40 16 -60.5t46 -20.5q36 0 54.5 29t18.5 73v347zM474 660h-322v120h322v-120z" />
    <glyph glyph-name="Ubreve" unicode="&#x16c;" horiz-adv-x="667" 
d="M109.5 55.5q-68.5 72.5 -68.5 230.5v458h215v-475q0 -106 78 -106q77 0 77 106v475h215v-457q0 -158 -68.5 -231t-224.5 -73q-155 0 -223.5 72.5zM177 925q0 16 1 25h108q-1 -7 -1 -19q0 -26 10.5 -36.5t34.5 -10.5q27 0 37.5 14.5t6.5 51.5h107q1 -10 1 -28
q0 -134 -152 -134q-153 0 -153 137z" />
    <glyph glyph-name="ubreve" unicode="&#x16d;" horiz-adv-x="627" 
d="M380 594h203v-594h-203v33l6 56h-2q-49 -106 -161 -106q-180 0 -180 217v394h202v-368q0 -40 16 -60.5t46 -20.5q36 0 54.5 29t18.5 73v347zM160 791q0 16 1 25h108q-1 -7 -1 -19q0 -26 10.5 -36.5t34.5 -10.5q27 0 37.5 14.5t6.5 51.5h107q1 -10 1 -28q0 -134 -152 -134
q-153 0 -153 137z" />
    <glyph glyph-name="Uring" unicode="&#x16e;" horiz-adv-x="667" 
d="M109.5 55.5q-68.5 72.5 -68.5 230.5v458h215v-475q0 -106 78 -106q77 0 77 106v475h215v-457q0 -158 -68.5 -231t-224.5 -73q-155 0 -223.5 72.5zM222 811q-36 24 -36 71q0 95 144 95t144 -95q0 -47 -36.5 -71t-107.5 -24q-72 0 -108 24zM364 882q0 34 -34 34
q-35 0 -35 -34q0 -33 35 -33q34 0 34 33z" />
    <glyph glyph-name="uring" unicode="&#x16f;" horiz-adv-x="627" 
d="M380 594h203v-594h-203v33l6 56h-2q-49 -106 -161 -106q-180 0 -180 217v394h202v-368q0 -40 16 -60.5t46 -20.5q36 0 54.5 29t18.5 73v347zM206 679q-36 28 -36 82t36 82t108 28q71 0 107.5 -28t36.5 -82t-36.5 -82t-107.5 -28q-72 0 -108 28zM348 761q0 39 -34 39
q-35 0 -35 -39q0 -38 35 -38q34 0 34 38z" />
    <glyph glyph-name="Uhungarumlaut" unicode="&#x170;" horiz-adv-x="667" 
d="M109.5 55.5q-68.5 72.5 -68.5 230.5v458h215v-475q0 -106 78 -106q77 0 77 106v475h215v-457q0 -158 -68.5 -231t-224.5 -73q-155 0 -223.5 72.5zM399 941l-125 -150h-106l67 150h164zM575 941l-124 -150h-107l68 150h163z" />
    <glyph glyph-name="uhungarumlaut" unicode="&#x171;" horiz-adv-x="627" 
d="M380 594h203v-594h-203v33l6 56h-2q-49 -106 -161 -106q-180 0 -180 217v394h202v-368q0 -40 16 -60.5t46 -20.5q36 0 54.5 29t18.5 73v347zM344 813l-120 -150h-107l62 150h165zM520 813l-120 -150h-107l62 150h165z" />
    <glyph glyph-name="Uogonek" unicode="&#x172;" horiz-adv-x="667" 
d="M411 744h215v-457q0 -117 -36.5 -187t-117.5 -97q-77 -43 -77 -90q0 -9 6 -14t15 -5q14 0 20 9.5t6 34.5h100q2 -67 -31 -97.5t-110 -30.5q-59 0 -91 22.5t-32 63.5q0 24 13.5 46.5t40.5 40.5q-154 0 -222.5 72.5t-68.5 230.5v458h215v-475q0 -106 78 -106q77 0 77 106
v475z" />
    <glyph glyph-name="uogonek" unicode="&#x173;" horiz-adv-x="627" 
d="M631 -75q2 -67 -31 -97.5t-110 -30.5q-59 0 -91 22.5t-32 63.5q0 37 31.5 68.5t89.5 48.5h-108v33l6 56h-2q-49 -106 -161 -106q-180 0 -180 217v394h202v-368q0 -40 16 -60.5t46 -20.5q36 0 54.5 29t18.5 73v347h203v-594h-2q-97 -48 -97 -100q0 -9 6 -14t15 -5
q14 0 20 9.5t6 34.5h100z" />
    <glyph glyph-name="Wcircumflex" unicode="&#x174;" horiz-adv-x="995" 
d="M425 0h-272l-147 744h216l70 -504l8 -59h1l8 59l71 504h236l70 -504l8 -59h2l7 59l70 504h217l-147 -744h-272l-65 482l-7 60h-3l-6 -60zM444 790h-107l90 150h153l90 -150h-107l-59 70z" />
    <glyph glyph-name="wcircumflex" unicode="&#x175;" horiz-adv-x="887" 
d="M379 0h-252l-125 594h208l56 -374l3 -46h2l5 46l67 374h202l67 -374l4 -46h3l3 46l56 374h208l-125 -594h-253l-60 365l-3 25h-3l-2 -25zM387 659h-107l90 151h153l90 -151h-107l-59 70z" />
    <glyph glyph-name="Ycircumflex" unicode="&#x176;" horiz-adv-x="645" 
d="M431 0h-216v204l-209 540h230l79 -298l7 -38h1l8 38l77 298h232l-209 -540v-204zM265 790h-107l90 150h153l90 -150h-107l-59 70z" />
    <glyph glyph-name="ycircumflex" unicode="&#x177;" horiz-adv-x="588" 
d="M112 -57q60 12 90.5 29t40.5 48l2 5h-79l-164 569h211l75 -351l5 -43h2l5 43l74 351h212l-157 -556q-28 -104 -98.5 -162t-192.5 -70zM235 659h-107l90 151h153l90 -151h-107l-59 70z" />
    <glyph glyph-name="Ydieresis" unicode="&#x178;" horiz-adv-x="645" 
d="M431 0h-216v204l-209 540h230l79 -298l7 -38h1l8 38l77 298h232l-209 -540v-204zM155 866q0 77 77 77t77 -77t-77 -77t-77 77zM351 866q0 77 77 77t77 -77t-77 -77t-77 77z" />
    <glyph glyph-name="Zacute" unicode="&#x179;" horiz-adv-x="564" 
d="M550 0h-535v162l272 396h-259v186h513v-155l-274 -404h283v-185zM419 942l-135 -151h-116l73 151h178z" />
    <glyph glyph-name="zacute" unicode="&#x17a;" horiz-adv-x="515" 
d="M498 0h-480v137l234 301h-216v156h458v-148l-235 -290h239v-156zM408 814l-129 -150h-116l67 150h178z" />
    <glyph glyph-name="Zdotaccent" unicode="&#x17b;" horiz-adv-x="564" 
d="M550 0h-535v162l272 396h-259v186h513v-155l-274 -404h283v-185zM218.5 804q-19.5 15 -19.5 48t19.5 48.5t64.5 15.5q44 0 64 -15.5t20 -48.5t-20 -48t-64 -15q-45 0 -64.5 15z" />
    <glyph glyph-name="zdotaccent" unicode="&#x17c;" horiz-adv-x="515" 
d="M498 0h-480v137l234 301h-216v156h458v-148l-235 -290h239v-156zM182 683.5q-24 17.5 -24 56.5t24 56.5t79 17.5q54 0 78.5 -17.5t24.5 -56.5t-24.5 -56.5t-78.5 -17.5q-55 0 -79 17.5z" />
    <glyph glyph-name="Zcaron" unicode="&#x17d;" horiz-adv-x="564" 
d="M550 0h-535v162l272 396h-259v186h513v-155l-274 -404h283v-185zM205 790l-90 151h107l60 -70l59 70h107l-90 -151h-153z" />
    <glyph glyph-name="zcaron" unicode="&#x17e;" horiz-adv-x="515" 
d="M498 0h-480v137l234 301h-216v156h458v-148l-235 -290h239v-156zM184 656l-90 150h107l60 -70l59 70h107l-90 -150h-153z" />
    <glyph glyph-name="uni018F" unicode="&#x18f;" horiz-adv-x="646" 
d="M95 66.5q-71 82.5 -71 253.5v100h381v36q-2 62 -21.5 94.5t-63.5 32.5q-43 0 -62.5 -27.5t-21.5 -85.5h-210q2 133 75 211.5t218 78.5q154 0 228 -79.5t74 -234.5v-149q0 -157 -74 -235t-228 -78q-153 0 -224 82.5zM381.5 186.5q18.5 29.5 21.5 82.5v26h-167v-31
q3 -57 24 -82t60 -25q43 0 61.5 29.5z" />
    <glyph glyph-name="uni019D" unicode="&#x19d;" horiz-adv-x="710" 
d="M453 744h205v-744h-221l-157 344l-23 53h-1l1 -61v-336h-4q0 -102 -70 -147t-201 -45v111q37 0 53 20t16 61v744h222l157 -347l22 -54h2l-1 61v340z" />
    <glyph glyph-name="Ohorn" unicode="&#x1a0;" horiz-adv-x="667" 
d="M634 438v-133q0 -159 -76 -240.5t-224 -81.5q-149 0 -225 81.5t-76 240.5v133q0 159 76 240.5t224 81.5q43 0 85 -8q63 3 63 72q0 20 -4 40l114 6q6 -28 6 -53q0 -82 -66 -114q103 -80 103 -265zM418 461q0 119 -84 119q-85 0 -85 -119v-179q0 -119 85 -119q84 0 84 119
v179z" />
    <glyph glyph-name="ohorn" unicode="&#x1a1;" horiz-adv-x="600" 
d="M573 324v-52q0 -142 -69 -215.5t-204 -73.5t-204 74t-69 215v52q0 140 69.5 213.5t203.5 73.5q71 0 71 72q0 20 -4 40l114 6q6 -28 6 -53q0 -63 -39 -96q125 -65 125 -256zM370 354q0 99 -70 99t-70 -99v-114q0 -99 70 -99t70 99v114z" />
    <glyph glyph-name="Uhorn" unicode="&#x1af;" horiz-adv-x="680" 
d="M712 861q6 -28 6 -53q0 -96 -92 -125v-396q0 -158 -68.5 -231t-224.5 -73q-155 0 -223.5 72.5t-68.5 230.5v458h215v-475q0 -106 78 -106q77 0 77 106v475h136q55 8 55 71q0 20 -4 40z" />
    <glyph glyph-name="uhorn" unicode="&#x1b0;" horiz-adv-x="664" 
d="M657 712q6 -28 6 -53q0 -90 -80 -120v-539h-203v33l6 56h-2q-49 -106 -161 -106q-180 0 -180 217v394h202v-368q0 -40 16 -60.5t46 -20.5q36 0 54.5 29t18.5 73v347h96q71 0 71 72q0 20 -4 40z" />
    <glyph glyph-name="uni01CD" unicode="&#x1cd;" horiz-adv-x="687" 
d="M682 0h-223l-25 124h-180l-26 -124h-222l193 744h289zM331 496l-44 -212h114l-44 212l-12 68h-2zM255 790l-90 151h107l60 -70l59 70h107l-90 -151h-153z" />
    <glyph glyph-name="uni01CE" unicode="&#x1ce;" horiz-adv-x="603" 
d="M498.5 547.5q61.5 -63.5 61.5 -180.5v-367h-202v38l5 44h-2q-45 -99 -153 -99q-88 0 -135.5 50.5t-47.5 135.5q0 87 55 135.5t165 48.5q57 0 113 -17v48q0 76 -63 76q-31 0 -46 -20t-15 -48v-9h-195q1 101 63 164.5t195 63.5q140 0 201.5 -63.5zM340 165.5
q18 28.5 18 74.5v5q-13 7 -32.5 11.5t-37.5 4.5q-64 0 -64 -62q0 -32 14 -47t45 -15q39 0 57 28.5zM223 656l-90 150h107l60 -70l59 70h107l-90 -150h-153z" />
    <glyph glyph-name="uni01CF" unicode="&#x1cf;" horiz-adv-x="318" 
d="M266 0h-215v744h215v-744zM82 790l-90 151h107l60 -70l59 70h107l-90 -151h-153z" />
    <glyph glyph-name="uni01D0" unicode="&#x1d0;" horiz-adv-x="292" 
d="M247 0h-202v594h202v-594zM69 656l-90 150h107l60 -70l59 70h107l-90 -150h-153z" />
    <glyph glyph-name="uni01D1" unicode="&#x1d1;" horiz-adv-x="667" 
d="M109 64.5q-76 81.5 -76 240.5v133q0 159 76 240.5t224 81.5q149 0 225 -81.5t76 -240.5v-133q0 -159 -76 -240.5t-224 -81.5q-149 0 -225 81.5zM418 282v179q0 119 -84 119q-85 0 -85 -119v-179q0 -119 85 -119q84 0 84 119zM263 790l-90 151h107l60 -70l59 70h107
l-90 -151h-153z" />
    <glyph glyph-name="uni01D2" unicode="&#x1d2;" horiz-adv-x="600" 
d="M96 57q-69 74 -69 215v52q0 140 69.5 213.5t203.5 73.5q135 0 204 -73.5t69 -213.5v-52q0 -142 -69 -215.5t-204 -73.5t-204 74zM370 240v114q0 99 -70 99t-70 -99v-114q0 -99 70 -99t70 99zM223 656l-90 150h107l60 -70l59 70h107l-90 -150h-153z" />
    <glyph glyph-name="uni01D3" unicode="&#x1d3;" horiz-adv-x="667" 
d="M109.5 55.5q-68.5 72.5 -68.5 230.5v458h215v-475q0 -106 78 -106q77 0 77 106v475h215v-457q0 -158 -68.5 -231t-224.5 -73q-155 0 -223.5 72.5zM253 790l-90 151h107l60 -70l59 70h107l-90 -151h-153z" />
    <glyph glyph-name="uni01D4" unicode="&#x1d4;" horiz-adv-x="627" 
d="M380 594h203v-594h-203v33l6 56h-2q-49 -106 -161 -106q-180 0 -180 217v394h202v-368q0 -40 16 -60.5t46 -20.5q36 0 54.5 29t18.5 73v347zM237 656l-90 150h107l60 -70l59 70h107l-90 -150h-153z" />
    <glyph glyph-name="uni01D5" unicode="&#x1d5;" horiz-adv-x="667" 
d="M109.5 55.5q-68.5 72.5 -68.5 230.5v458h215v-475q0 -106 78 -106q77 0 77 106v475h215v-457q0 -158 -68.5 -231t-224.5 -73q-155 0 -223.5 72.5zM161 866q0 77 77 77t77 -77t-77 -77t-77 77zM357 866q0 77 77 77t77 -77t-77 -77t-77 77zM483 988h-322v120h322v-120z" />
    <glyph glyph-name="uni01D6" unicode="&#x1d6;" horiz-adv-x="627" 
d="M380 594h203v-594h-203v33l6 56h-2q-49 -106 -161 -106q-180 0 -180 217v394h202v-368q0 -40 16 -60.5t46 -20.5q36 0 54.5 29t18.5 73v347zM130 682.5q-22 20.5 -22 64.5t22 65t69 21q48 0 69.5 -21t21.5 -65t-21.5 -64.5t-69.5 -20.5q-47 0 -69 20.5zM350 682.5
q-22 20.5 -22 64.5t22 65t69 21q48 0 69.5 -21t21.5 -65t-21.5 -64.5t-69.5 -20.5q-47 0 -69 20.5zM467 892h-322v120h322v-120z" />
    <glyph glyph-name="uni01D7" unicode="&#x1d7;" horiz-adv-x="667" 
d="M109.5 55.5q-68.5 72.5 -68.5 230.5v458h215v-475q0 -106 78 -106q77 0 77 106v475h215v-457q0 -158 -68.5 -231t-224.5 -73q-155 0 -223.5 72.5zM161 866q0 77 77 77t77 -77t-77 -77t-77 77zM357 866q0 77 77 77t77 -77t-77 -77t-77 77zM466 1140l-135 -151h-116l73 151
h178z" />
    <glyph glyph-name="uni01D8" unicode="&#x1d8;" horiz-adv-x="627" 
d="M380 594h203v-594h-203v33l6 56h-2q-49 -106 -161 -106q-180 0 -180 217v394h202v-368q0 -40 16 -60.5t46 -20.5q36 0 54.5 29t18.5 73v347zM130 682.5q-22 20.5 -22 64.5t22 65t69 21q48 0 69.5 -21t21.5 -65t-21.5 -64.5t-69.5 -20.5q-47 0 -69 20.5zM350 682.5
q-22 20.5 -22 64.5t22 65t69 21q48 0 69.5 -21t21.5 -65t-21.5 -64.5t-69.5 -20.5q-47 0 -69 20.5zM453 1046l-129 -150h-116l67 150h178z" />
    <glyph glyph-name="uni01D9" unicode="&#x1d9;" horiz-adv-x="667" 
d="M109.5 55.5q-68.5 72.5 -68.5 230.5v458h215v-475q0 -106 78 -106q77 0 77 106v475h215v-457q0 -158 -68.5 -231t-224.5 -73q-155 0 -223.5 72.5zM161 866q0 77 77 77t77 -77t-77 -77t-77 77zM357 866q0 77 77 77t77 -77t-77 -77t-77 77zM252 988l-90 151h107l60 -70
l59 70h107l-90 -151h-153z" />
    <glyph glyph-name="uni01DA" unicode="&#x1da;" horiz-adv-x="627" 
d="M380 594h203v-594h-203v33l6 56h-2q-49 -106 -161 -106q-180 0 -180 217v394h202v-368q0 -40 16 -60.5t46 -20.5q36 0 54.5 29t18.5 73v347zM130 682.5q-22 20.5 -22 64.5t22 65t69 21q48 0 69.5 -21t21.5 -65t-21.5 -64.5t-69.5 -20.5q-47 0 -69 20.5zM350 682.5
q-22 20.5 -22 64.5t22 65t69 21q48 0 69.5 -21t21.5 -65t-21.5 -64.5t-69.5 -20.5q-47 0 -69 20.5zM230 888l-90 150h107l60 -70l59 70h107l-90 -150h-153z" />
    <glyph glyph-name="uni01DB" unicode="&#x1db;" horiz-adv-x="667" 
d="M109.5 55.5q-68.5 72.5 -68.5 230.5v458h215v-475q0 -106 78 -106q77 0 77 106v475h215v-457q0 -158 -68.5 -231t-224.5 -73q-155 0 -223.5 72.5zM161 866q0 77 77 77t77 -77t-77 -77t-77 77zM357 866q0 77 77 77t77 -77t-77 -77t-77 77zM451 989h-115l-135 151h177z" />
    <glyph glyph-name="Gcaron" unicode="&#x1e6;" horiz-adv-x="656" 
d="M108.5 64.5q-75.5 81.5 -75.5 241.5v130q0 161 75 242.5t224 81.5q147 0 220.5 -75t73.5 -216v-3h-212v20q0 45 -20 70.5t-62 25.5q-40 0 -62 -28.5t-22 -86.5v-192q0 -125 87 -125q86 0 89 96v6h-90v147h294v-76q0 -176 -70 -258t-225 -82q-149 0 -224.5 81.5zM254 790
l-90 151h107l60 -70l59 70h107l-90 -151h-153z" />
    <glyph glyph-name="gcaron" unicode="&#x1e7;" horiz-adv-x="616" 
d="M369 594h202v-518q0 -138 -73.5 -205.5t-224.5 -67.5q-99 0 -188 25l7 147q28 -9 69.5 -14.5t80.5 -5.5q121 0 128 97v1l4 68h-2q-22 -48 -63.5 -74t-93.5 -26q-98 0 -143 71.5t-45 216.5v18q0 144 45 214t143 70q52 0 94 -26.5t63 -76.5h2l-5 54v32zM352.5 204.5
q16.5 27.5 16.5 71.5v71q0 45 -16 75.5t-55 30.5t-53.5 -30t-14.5 -79v-69q0 -46 14.5 -72t53.5 -26q38 0 54.5 27.5zM235 656l-90 150h107l60 -70l59 70h107l-90 -150h-153z" />
    <glyph glyph-name="uni01EA" unicode="&#x1ea;" horiz-adv-x="667" 
d="M558 678.5q76 -81.5 76 -240.5v-133q0 -222 -147 -292h1q-99 -48 -99 -101q0 -9 6 -14t15 -5q14 0 20 9.5t6 34.5h100q2 -67 -31 -97.5t-110 -30.5q-59 0 -91 22.5t-32 63.5q0 24 14 47t41 41q-145 1 -219.5 82.5t-74.5 239.5v133q0 159 76 240.5t224 81.5
q149 0 225 -81.5zM249 282q0 -119 85 -119q84 0 84 119v179q0 119 -84 119q-85 0 -85 -119v-179z" />
    <glyph glyph-name="uni01EB" unicode="&#x1eb;" horiz-adv-x="600" 
d="M504 537.5q69 -73.5 69 -213.5v-52q0 -199 -134 -262q-89 -45 -89 -96q0 -9 6 -14t15 -5q14 0 20 9.5t6 34.5h100q2 -67 -31 -97.5t-110 -30.5q-59 0 -91 22.5t-32 63.5q0 24 13.5 46t39.5 40q-128 4 -193.5 78t-65.5 211v52q0 140 69.5 213.5t203.5 73.5
q135 0 204 -73.5zM230 240q0 -99 70 -99t70 99v114q0 99 -70 99t-70 -99v-114z" />
    <glyph glyph-name="Aringacute" unicode="&#x1fa;" horiz-adv-x="687" 
d="M682 0h-223l-25 124h-180l-26 -124h-222l193 744h289zM331 496l-44 -212h114l-44 212l-12 68h-2zM421 1099l-94 -105h-81l51 105h124zM224 811q-36 24 -36 71q0 95 144 95t144 -95q0 -47 -36.5 -71t-107.5 -24q-72 0 -108 24zM366 882q0 34 -34 34q-36 0 -36 -34
q0 -33 36 -33q34 0 34 33z" />
    <glyph glyph-name="aringacute" unicode="&#x1fb;" horiz-adv-x="603" 
d="M498.5 547.5q61.5 -63.5 61.5 -180.5v-367h-202v38l5 44h-2q-45 -99 -153 -99q-88 0 -135.5 50.5t-47.5 135.5q0 87 55 135.5t165 48.5q57 0 113 -17v48q0 76 -63 76q-31 0 -46 -20t-15 -48v-9h-195q1 101 63 164.5t195 63.5q140 0 201.5 -63.5zM340 165.5
q18 28.5 18 74.5v5q-13 7 -32.5 11.5t-37.5 4.5q-64 0 -64 -62q0 -32 14 -47t45 -15q39 0 57 28.5zM421 995l-90 -105h-81l47 105h124zM192 688q-36 28 -36 82q0 110 144 110t144 -110q0 -54 -36.5 -82t-107.5 -28q-72 0 -108 28zM334 770q0 40 -34 40q-35 0 -35 -40
q0 -38 35 -38q34 0 34 38z" />
    <glyph glyph-name="AEacute" unicode="&#x1fc;" horiz-adv-x="895" 
d="M608 298v-126h263v-172h-478v153h-126l-46 -153h-215l257 744h603v-171h-258v-119h230v-156h-230zM379 524l-69 -228h83v299h-4zM724 942l-135 -151h-116l73 151h178z" />
    <glyph glyph-name="aeacute" unicode="&#x1fd;" horiz-adv-x="912" 
d="M70.5 32q-44.5 49 -45.5 133v4q0 84 55.5 133.5t164.5 49.5q62 0 113 -17v49q0 33 -14.5 54.5t-48.5 21.5q-31 0 -46 -19.5t-15 -47.5v-10h-196v4q1 98 63.5 161t195.5 63q102 0 160 -50q66 50 168 50q127 0 193 -69.5t66 -205.5v-87h-324v-18q3 -97 65 -97q33 0 48.5 18
t18.5 56v3h191v-3q-5 -106 -72 -165.5t-190 -59.5q-161 0 -224 119q-59 -119 -195 -119q-87 0 -131.5 49zM560 357h131l1 17q-2 45 -17.5 66.5t-48.5 21.5q-32 0 -47.5 -21.5t-18.5 -67.5v-16zM339.5 165q18.5 26 18.5 65v18q-37 16 -70 16q-36 0 -50 -18.5t-14 -44.5v-4
q0 -30 14 -44t46 -14q37 0 55.5 26zM601 814l-129 -150h-116l67 150h178z" />
    <glyph glyph-name="oslashacute" unicode="&#x1ff;" horiz-adv-x="600" 
d="M462 572q111 -69 111 -248v-52q0 -142 -69 -215.5t-204 -73.5q-52 0 -96 12l-30 -68l-68 26l31 70q-110 69 -110 249v52q0 140 69.5 213.5t203.5 73.5q51 0 95 -11l30 67l68 -26zM230 240v-9l97 217q-13 5 -27 5q-70 0 -70 -99v-114zM370 354v11l-98 -219q13 -5 28 -5
q70 0 70 99v114zM442 814l-129 -150h-116l67 150h178z" />
    <glyph glyph-name="uni0218" unicode="&#x218;" horiz-adv-x="615" 
d="M95.5 47q-72.5 64 -73.5 189h207q0 -88 82 -88q34 0 51 16.5t17 44.5q0 27 -11.5 42t-35.5 26.5t-87 35.5q-82 27 -128 57t-65.5 70t-19.5 101v1q0 102 72 160t202 58q137 0 206.5 -66.5t68.5 -184.5h-198q-1 41 -18.5 63t-57.5 22q-32 0 -47.5 -14.5t-15.5 -38.5v-1
q0 -28 20.5 -44t70.5 -32q100 -30 155.5 -64.5t79 -80t23.5 -111.5q0 -107 -76 -166t-207 -59q-142 0 -214.5 64zM233 -155q41 0 54 6t13 24q-87 0 -87 46q0 24 22.5 35.5t70.5 11.5q50 0 73 -13t23 -42q0 -67 -42 -92t-127 -20v44z" />
    <glyph glyph-name="uni0219" unicode="&#x219;" horiz-adv-x="571" 
d="M89.5 40q-65.5 56 -65.5 159h194q1 -73 74 -73q28 0 42 11.5t14 32.5v2q0 25 -18.5 38t-71.5 24q-86 19 -135 45.5t-69 63.5t-20 91v1q0 81 58.5 128.5t186.5 47.5t190 -51.5t62 -144.5h-184q-1 24 -16 39t-46 15q-51 0 -51 -39v-1q0 -23 18 -35t70 -23
q122 -24 174.5 -70.5t52.5 -129.5q0 -91 -66.5 -139t-195.5 -48q-132 0 -197.5 56zM210 -155q41 0 54 6t13 24q-87 0 -87 46q0 24 22.5 35.5t70.5 11.5q50 0 73 -13t23 -42q0 -67 -42 -92t-127 -20v44z" />
    <glyph glyph-name="uni021A" unicode="&#x21a;" horiz-adv-x="544" 
d="M379 0h-215v566h-156v178h528v-178h-157v-566zM196 -157q41 0 54 6t13 24q-87 0 -87 46q0 24 22.5 35.5t70.5 11.5q50 0 73 -13t23 -42q0 -67 -42 -92t-127 -20v44z" />
    <glyph glyph-name="uni021B" unicode="&#x21b;" horiz-adv-x="415" 
d="M407 160v-159q-67 -18 -137 -18q-102 0 -149 54t-47 158v241h-67v158h67v131h203v-131h122v-158h-122v-199q0 -44 14.5 -63.5t48.5 -19.5q32 0 67 6zM171 -155q41 0 54 6t13 24q-87 0 -87 46q0 24 22.5 35.5t70.5 11.5q50 0 73 -13t23 -42q0 -67 -42 -92t-127 -20v44z
" />
    <glyph glyph-name="uni0232" unicode="&#x232;" horiz-adv-x="645" 
d="M431 0h-216v204l-209 540h230l79 -298l7 -38h1l8 38l77 298h232l-209 -540v-204zM479 790h-322v120h322v-120z" />
    <glyph glyph-name="uni0233" unicode="&#x233;" horiz-adv-x="588" 
d="M112 -57q60 12 90.5 29t40.5 48l2 5h-79l-164 569h211l75 -351l5 -43h2l5 43l74 351h212l-157 -556q-28 -104 -98.5 -162t-192.5 -70zM455 660h-322v120h322v-120z" />
    <glyph glyph-name="uni0237" unicode="&#x237;" horiz-adv-x="294" 
d="M-63 -187l5 143q25 -5 46 -5q34 0 46.5 21t12.5 75v547h202v-540q0 -125 -54 -187.5t-180 -62.5q-33 0 -78 9z" />
    <glyph glyph-name="uni0259" unicode="&#x259;" horiz-adv-x="581" 
d="M487.5 534.5q66.5 -76.5 66.5 -213.5v-52q0 -135 -68 -210.5t-199 -75.5q-127 0 -193 69.5t-66 205.5v87h324v10q0 105 -65 105q-34 0 -49.5 -18t-17.5 -56h-191q5 106 71.5 165.5t190.5 59.5q130 0 196.5 -76.5zM336 158q16 25 16 78v1h-132v-7q0 -50 15.5 -73.5
t50.5 -23.5q34 0 50 25z" />
    <glyph glyph-name="uni0272" unicode="&#x272;" horiz-adv-x="627" 
d="M585 394v-394h-203v368q0 40 -16 60.5t-46 20.5q-36 0 -54.5 -29t-18.5 -73v-347h1q0 -102 -80 -147t-233 -45v111q54 0 82 21t28 60v594h202v-32l-5 -57h1q49 106 161 106q181 0 181 -217z" />
    <glyph glyph-name="uni02BC" unicode="&#x2bc;" horiz-adv-x="236" 
d="M203 744l-15 -267h-143l-12 267h170z" />
    <glyph glyph-name="circumflex" unicode="&#x2c6;" horiz-adv-x="382" 
d="M132 668h-107l90 151h153l90 -151h-107l-59 70z" />
    <glyph glyph-name="caron" unicode="&#x2c7;" horiz-adv-x="382" 
d="M117 668l-90 151h106l60 -70l60 70h107l-90 -151h-153z" />
    <glyph glyph-name="breve" unicode="&#x2d8;" horiz-adv-x="350" 
d="M22 803q0 16 1 25h108q-1 -7 -1 -19q0 -26 10.5 -36.5t34.5 -10.5q27 0 37.5 14.5t6.5 51.5h107q1 -10 1 -28q0 -134 -152 -134q-153 0 -153 137z" />
    <glyph glyph-name="dotaccent" unicode="&#x2d9;" horiz-adv-x="255" 
d="M49 685.5q-24 17.5 -24 56.5t24 56.5t79 17.5q54 0 78.5 -17.5t24.5 -56.5t-24.5 -56.5t-78.5 -17.5q-55 0 -79 17.5z" />
    <glyph glyph-name="ring" unicode="&#x2da;" horiz-adv-x="337" 
d="M61 693q-36 28 -36 82t36 82t108 28q71 0 107.5 -28t36.5 -82t-36.5 -82t-107.5 -28q-72 0 -108 28zM203 775q0 39 -34 39q-35 0 -35 -39q0 -38 35 -38q34 0 34 38z" />
    <glyph glyph-name="ogonek" unicode="&#x2db;" horiz-adv-x="314" 
d="M57 -169.5q-32 22.5 -32 63.5q0 43 40 77t115 49l61 -8q-99 -48 -99 -100q0 -9 6 -14.5t15 -5.5q14 0 20 9.5t6 34.5h100q2 -66 -31 -97t-110 -31q-59 0 -91 22.5z" />
    <glyph glyph-name="tilde" unicode="&#x2dc;" horiz-adv-x="391" 
d="M221.5 664q-20.5 6 -45.5 17q-26 11 -36 11q-21 0 -24 -34l-95 14q2 66 26.5 98.5t74.5 32.5q27 0 48.5 -6.5t44.5 -16.5q3 -1 15 -6t21 -5q21 0 24 34l95 -15q-2 -130 -101 -130q-27 0 -47.5 6z" />
    <glyph glyph-name="hungarumlaut" unicode="&#x2dd;" horiz-adv-x="449" 
d="M256 818l-120 -150h-107l62 150h165zM432 818l-120 -150h-107l62 150h165z" />
    <glyph glyph-name="gravecomb" unicode="&#x300;" 
d="M-50 664h-115l-129 150h177z" />
    <glyph glyph-name="acutecomb" unicode="&#x301;" 
d="M-12 814l-129 -150h-116l67 150h178z" />
    <glyph glyph-name="uni0302" unicode="&#x302;" 
d="M-251 659h-107l90 151h153l90 -151h-107l-59 70z" />
    <glyph glyph-name="tildecomb" unicode="&#x303;" 
d="M-169.5 661q-20.5 6 -45.5 17q-26 11 -36 11q-21 0 -24 -34l-95 14q2 66 26.5 98.5t74.5 32.5q27 0 48.5 -6.5t44.5 -16.5q3 -1 15 -6t21 -5q21 0 24 34l95 -15q-2 -130 -101 -130q-27 0 -47.5 6z" />
    <glyph glyph-name="uni0304" unicode="&#x304;" 
d="M-30 660h-322v120h322v-120z" />
    <glyph glyph-name="uni0306" unicode="&#x306;" 
d="M-328 791q0 16 1 25h108q-1 -7 -1 -19q0 -26 10.5 -36.5t34.5 -10.5q27 0 37.5 14.5t6.5 51.5h107q1 -10 1 -28q0 -134 -152 -134q-153 0 -153 137z" />
    <glyph glyph-name="uni0307" unicode="&#x307;" 
d="M-206 683.5q-24 17.5 -24 56.5t24 56.5t79 17.5q54 0 78.5 -17.5t24.5 -56.5t-24.5 -56.5t-78.5 -17.5q-55 0 -79 17.5z" />
    <glyph glyph-name="uni0308" unicode="&#x308;" 
d="M-394 682.5q-22 20.5 -22 64.5t22 65t69 21q48 0 69.5 -21t21.5 -65t-21.5 -64.5t-69.5 -20.5q-47 0 -69 20.5zM-174 682.5q-22 20.5 -22 64.5t22 65t69 21q48 0 69.5 -21t21.5 -65t-21.5 -64.5t-69.5 -20.5q-47 0 -69 20.5z" />
    <glyph glyph-name="hookabovecomb" unicode="&#x309;" 
d="M-147 659q42 60 42 85q0 13 -14 13q-8 0 -12 -5.5t-3 -22.5h-74q-2 51 23.5 77t74.5 26q45 0 68 -19.5t23 -50.5q0 -22 -11.5 -46.5t-32.5 -56.5h-84z" />
    <glyph glyph-name="uni030A" unicode="&#x30a;" 
d="M-276 679q-36 28 -36 82t36 82t108 28q71 0 107.5 -28t36.5 -82t-36.5 -82t-107.5 -28q-72 0 -108 28zM-134 761q0 39 -34 39q-35 0 -35 -39q0 -38 35 -38q34 0 34 38z" />
    <glyph glyph-name="uni030B" unicode="&#x30b;" 
d="M-193 813l-120 -150h-107l62 150h165zM-17 813l-120 -150h-107l62 150h165z" />
    <glyph glyph-name="uni030C" unicode="&#x30c;" 
d="M-267 656l-90 150h107l60 -70l59 70h107l-90 -150h-153z" />
    <glyph glyph-name="uni0312" unicode="&#x312;" 
d="M-41 796q-31 0 -40.5 -7t-9.5 -28q65 0 65 -55q0 -29 -17 -42.5t-53 -13.5q-38 0 -55 15.5t-17 49.5q0 80 31.5 109.5t95.5 23.5v-52z" />
    <glyph glyph-name="uni031B" unicode="&#x31b;" 
d="M-206 594q71 0 71 72q0 20 -4 40l114 6q6 -28 6 -52q0 -72 -49 -105t-134 -32z" />
    <glyph glyph-name="dotbelowcomb" unicode="&#x323;" 
d="M-180.5 -152.5q-21.5 14.5 -21.5 46.5q0 33 21.5 48t70.5 15t71 -15t22 -48q0 -32 -22 -46.5t-71 -14.5t-70.5 14.5z" />
    <glyph glyph-name="uni0324" unicode="&#x324;" 
d="M-347 -165.5q-20 17.5 -20 55.5t20 56t63 18q42 0 62 -18t20 -56t-19.5 -55.5t-62.5 -17.5t-63 17.5zM-148 -165.5q-20 17.5 -20 55.5t20 56t63 18t63 -18t20 -56t-20 -55.5t-63 -17.5t-63 17.5z" />
    <glyph glyph-name="uni0326" unicode="&#x326;" 
d="M-183 -155q41 0 54 6t13 24q-87 0 -87 46q0 24 22.5 35.5t70.5 11.5q50 0 73 -13t23 -42q0 -67 -42 -92t-127 -20v44z" />
    <glyph glyph-name="uni0327" unicode="&#x327;" 
d="M-276 -101h89q1 -19 9.5 -26t23.5 -7q25 0 25 28q0 14 -7.5 21.5t-19.5 7.5q-5 0 -13 -2l-37 24l24 73h77l-19 -57q14 2 20 2q33 0 56 -18.5t23 -53.5q0 -43 -31.5 -69.5t-91.5 -26.5q-127 0 -128 104z" />
    <glyph glyph-name="uni0328" unicode="&#x328;" 
d="M-257 -172.5q-32 22.5 -32 63.5q0 42 40.5 76.5t114.5 48.5l61 -7q-99 -48 -99 -101q0 -9 6 -14t15 -5q14 0 20 9.5t6 34.5h100q2 -66 -31 -97t-110 -31q-59 0 -91 22.5z" />
    <glyph glyph-name="uni032E" unicode="&#x32e;" 
d="M-273 -61q0 13 1 20h91q-2 -28 6.5 -39t31.5 -11q22 0 31 11t7 39h91q1 -7 1 -19q0 -105 -130 -105t-130 104z" />
    <glyph glyph-name="uni0331" unicode="&#x331;" 
d="M-30 -144h-322v104h322v-104z" />
    <glyph glyph-name="uni0335" unicode="&#x335;" 
d="M-438 263v104h406v-104h-406z" />
    <glyph glyph-name="uni0336" unicode="&#x336;" 
d="M-447 303v77h414v-77h-414z" />
    <glyph glyph-name="uni0337" unicode="&#x337;" 
d="M-358 225l-36 74l324 145l37 -74z" />
    <glyph glyph-name="uni0338" unicode="&#x338;" 
d="M-467 -89l-68 26l319 714l68 -26z" />
    <glyph glyph-name="tonos" unicode="&#x384;" horiz-adv-x="354" 
d="M150 664l-16 150h185l-21 -150h-148z" />
    <glyph glyph-name="dieresistonos" unicode="&#x385;" horiz-adv-x="511" 
d="M301 674h-94l-14 195h128zM49 645.5q-16 14.5 -16 44.5q0 31 16 45.5t50 14.5q35 0 51 -14.5t16 -45.5q0 -30 -16 -44.5t-51 -14.5q-34 0 -50 14.5zM361 645.5q-16 14.5 -16 44.5q0 31 16 45.5t50 14.5q35 0 51.5 -14.5t16.5 -45.5q0 -30 -16.5 -44.5t-51.5 -14.5
q-34 0 -50 14.5z" />
    <glyph glyph-name="Alphatonos" unicode="&#x386;" horiz-adv-x="687" 
d="M682 0h-223l-25 124h-180l-26 -124h-222l193 744h289zM331 496l-44 -212h114l-44 212l-12 68h-2zM-65 593l-16 150h185l-21 -150h-148z" />
    <glyph glyph-name="Epsilontonos" unicode="&#x388;" horiz-adv-x="560" 
d="M535 0h-484v744h477v-172h-262v-116h233v-158h-233v-124h269v-174zM-132 593l-16 150h185l-21 -150h-148z" />
    <glyph glyph-name="Etatonos" unicode="&#x389;" horiz-adv-x="689" 
d="M422 463v281h216v-744h-216v288h-156v-288h-215v744h215v-281h156zM-135 593l-16 150h185l-21 -150h-148z" />
    <glyph glyph-name="Iotatonos" unicode="&#x38a;" horiz-adv-x="318" 
d="M266 0h-215v744h215v-744zM-141 593l-16 150h185l-21 -150h-148z" />
    <glyph glyph-name="Omicrontonos" unicode="&#x38c;" horiz-adv-x="667" 
d="M109 64.5q-76 81.5 -76 240.5v133q0 159 76 240.5t224 81.5q149 0 225 -81.5t76 -240.5v-133q0 -159 -76 -240.5t-224 -81.5q-149 0 -225 81.5zM418 282v179q0 119 -84 119q-85 0 -85 -119v-179q0 -119 85 -119q84 0 84 119zM-132 593l-16 150h185l-21 -150h-148z" />
    <glyph glyph-name="Upsilontonos" unicode="&#x38e;" horiz-adv-x="645" 
d="M431 0h-216v204l-209 540h230l79 -298l7 -38h1l8 38l77 298h232l-209 -540v-204zM-166 593l-16 150h185l-21 -150h-148z" />
    <glyph glyph-name="Omegatonos" unicode="&#x38f;" horiz-adv-x="665" 
d="M50 0v163h88v35q-54 32 -79.5 90t-25.5 148q0 163 70 243.5t229 80.5t229.5 -80.5t71.5 -243.5q0 -90 -25.5 -148t-80.5 -90v-35h88v-163h-264v266q38 6 52 35t14 86v51q0 79 -19 112.5t-66 33.5q-46 0 -64.5 -33.5t-18.5 -112.5v-51q0 -57 14 -86t52 -35v-266h-265z
M-109 593l-16 150h185l-21 -150h-148z" />
    <glyph glyph-name="iotadieresistonos" unicode="&#x390;" horiz-adv-x="292" 
d="M45 594h202v-408q0 -23 6.5 -31.5t23.5 -8.5v-149q-30 -14 -83 -14q-84 0 -116.5 47t-32.5 125v439zM193 674h-94l-14 195h128zM-59 645.5q-16 14.5 -16 44.5q0 31 16 45.5t50 14.5q35 0 51 -14.5t16 -45.5q0 -30 -16 -44.5t-51 -14.5q-34 0 -50 14.5zM253 645.5
q-16 14.5 -16 44.5q0 31 16 45.5t50 14.5q35 0 51.5 -14.5t16.5 -45.5q0 -30 -16.5 -44.5t-51.5 -14.5q-34 0 -50 14.5z" />
    <glyph glyph-name="Alpha" unicode="&#x391;" horiz-adv-x="687" 
d="M682 0h-223l-25 124h-180l-26 -124h-222l193 744h289zM331 496l-44 -212h114l-44 212l-12 68h-2z" />
    <glyph glyph-name="Beta" unicode="&#x392;" horiz-adv-x="643" 
d="M51 0v744h293q114 0 178.5 -46.5t64.5 -135.5v-3q0 -122 -110 -164v-1q69 -13 104.5 -58t35.5 -114v-5q0 -105 -65.5 -161t-190.5 -56h-310zM322 451q39 0 56 16.5t17 52.5q0 33 -17 48.5t-55 15.5h-63v-133h62zM326 159q42 0 60.5 18t18.5 57q0 38 -19.5 55t-62.5 17
h-63v-147h66z" />
    <glyph glyph-name="Gamma" unicode="&#x393;" horiz-adv-x="504" 
d="M255 0h-204v744h445v-174h-241v-570z" />
    <glyph glyph-name="uni0394" unicode="&#x394;" horiz-adv-x="682" 
d="M197 744h287l192 -744h-670zM333 460l-69 -289h153l-68 289l-6 107h-4z" />
    <glyph glyph-name="Epsilon" unicode="&#x395;" horiz-adv-x="560" 
d="M535 0h-484v744h477v-172h-262v-116h233v-158h-233v-124h269v-174z" />
    <glyph glyph-name="Zeta" unicode="&#x396;" horiz-adv-x="564" 
d="M550 0h-535v162l272 396h-259v186h513v-155l-274 -404h283v-185z" />
    <glyph glyph-name="Eta" unicode="&#x397;" horiz-adv-x="689" 
d="M422 463v281h216v-744h-216v288h-156v-288h-215v744h215v-281h156z" />
    <glyph glyph-name="Theta" unicode="&#x398;" horiz-adv-x="667" 
d="M108.5 62q-75.5 79 -75.5 234v151q0 155 75.5 234t224.5 79q150 0 225.5 -79t75.5 -234v-151q0 -155 -75.5 -234t-224.5 -79q-150 0 -225.5 79zM402 186q24 28 24 86v199q0 58 -24 85.5t-68 27.5q-93 0 -93 -113v-199q0 -114 93 -114q44 0 68 28zM395 305h-123v137h123
v-137z" />
    <glyph glyph-name="Iota" unicode="&#x399;" horiz-adv-x="318" 
d="M266 0h-215v744h215v-744z" />
    <glyph glyph-name="Kappa" unicode="&#x39a;" horiz-adv-x="665" 
d="M266 0h-215v744h215v-276h48l94 276h231l-152 -358v-5l172 -381h-232l-113 294h-48v-294z" />
    <glyph glyph-name="Lambda" unicode="&#x39b;" horiz-adv-x="691" 
d="M226 0h-222l197 744h286l198 -744h-222l-102 467l-14 114h-4l-14 -114z" />
    <glyph glyph-name="Mu" unicode="&#x39c;" horiz-adv-x="850" 
d="M256 0h-205v744h258l107 -386l8 -36h2l9 36l106 386h258v-744h-204v365l2 80h-2l-10 -33l-94 -320h-132l-94 320l-10 33h-2l3 -80v-365z" />
    <glyph glyph-name="Nu" unicode="&#x39d;" horiz-adv-x="710" 
d="M257 0h-206v744h222l157 -347l22 -54h2l-1 61v340h205v-744h-221l-157 344l-23 53h-1l1 -61v-336z" />
    <glyph glyph-name="Xi" unicode="&#x39e;" horiz-adv-x="528" 
d="M504 573h-479v171h479v-171zM448 297h-369v157h369v-157zM504 0h-479v175h479v-175z" />
    <glyph glyph-name="Omicron" unicode="&#x39f;" horiz-adv-x="667" 
d="M109 64.5q-76 81.5 -76 240.5v133q0 159 76 240.5t224 81.5q149 0 225 -81.5t76 -240.5v-133q0 -159 -76 -240.5t-224 -81.5q-149 0 -225 81.5zM418 282v179q0 119 -84 119q-85 0 -85 -119v-179q0 -119 85 -119q84 0 84 119z" />
    <glyph glyph-name="Pi" unicode="&#x3a0;" horiz-adv-x="682" 
d="M631 744v-744h-215v571h-150v-571h-215v744h580z" />
    <glyph glyph-name="Rho" unicode="&#x3a1;" horiz-adv-x="635" 
d="M51 0v744h301q129 0 200.5 -68t71.5 -200v-13q0 -137 -67.5 -207t-187.5 -70h-103v-186h-215zM325 360q42 0 63 22.5t21 79.5v9q0 53 -20 75.5t-62 22.5h-61v-209h59z" />
    <glyph glyph-name="Sigma" unicode="&#x3a3;" horiz-adv-x="519" 
d="M495 0h-487v146l166 228l-162 229v141h479v-174h-226l111 -167v-61l-113 -169h232v-173z" />
    <glyph glyph-name="Tau" unicode="&#x3a4;" horiz-adv-x="544" 
d="M379 0h-215v566h-156v178h528v-178h-157v-566z" />
    <glyph glyph-name="Upsilon" unicode="&#x3a5;" horiz-adv-x="645" 
d="M431 0h-216v204l-209 540h230l79 -298l7 -38h1l8 38l77 298h232l-209 -540v-204z" />
    <glyph glyph-name="Phi" unicode="&#x3a6;" horiz-adv-x="888" 
d="M549 678q153 0 230 -74.5t77 -230.5q0 -306 -307 -306h-8v-79h-194v79h-7q-153 0 -230 75t-77 231t77 230.5t229 74.5h8v77h194v-77h8zM347 221v303h-3q-51 -1 -76.5 -33t-25.5 -116v-4q0 -84 25.5 -117t76.5 -33h3zM646 375q0 60 -12 92.5t-33.5 44.5t-55.5 12h-4v-303
h4q50 0 75.5 33t25.5 117v4z" />
    <glyph glyph-name="Chi" unicode="&#x3a7;" horiz-adv-x="668" 
d="M239 0h-233l159 382l-144 362h232l67 -226l13 -46h3l13 46l67 226h232l-144 -361l159 -383h-232l-81 245l-15 47h-2l-15 -48z" />
    <glyph glyph-name="Psi" unicode="&#x3a8;" horiz-adv-x="903" 
d="M648 744h214v-273q0 -146 -73 -219t-228 -73h-2v-179h-215v179h-2q-157 0 -229 73t-72 219v273h214v-315q0 -95 89 -95v410h215v-410q89 0 89 95v315z" />
    <glyph glyph-name="uni03A9" unicode="&#x3a9;" horiz-adv-x="665" 
d="M50 0v163h88v35q-54 32 -79.5 90t-25.5 148q0 163 70 243.5t229 80.5t229.5 -80.5t71.5 -243.5q0 -90 -25.5 -148t-80.5 -90v-35h88v-163h-264v266q38 6 52 35t14 86v51q0 79 -19 112.5t-66 33.5q-46 0 -64.5 -33.5t-18.5 -112.5v-51q0 -57 14 -86t52 -35v-266h-265z" />
    <glyph glyph-name="Iotadieresis" unicode="&#x3aa;" horiz-adv-x="318" 
d="M266 0h-215v744h215v-744zM-11 866q0 77 77 77t77 -77t-77 -77t-77 77zM185 866q0 77 77 77t77 -77t-77 -77t-77 77z" />
    <glyph glyph-name="Upsilondieresis" unicode="&#x3ab;" horiz-adv-x="645" 
d="M431 0h-216v204l-209 540h230l79 -298l7 -38h1l8 38l77 298h232l-209 -540v-204zM157 866q0 77 77 77t77 -77t-77 -77t-77 77zM353 866q0 77 77 77t77 -77t-77 -77t-77 77z" />
    <glyph glyph-name="alphatonos" unicode="&#x3ac;" horiz-adv-x="609" 
d="M564 181q0 -23 6.5 -31.5t23.5 -8.5v-144q-30 -14 -83 -14q-82 0 -114.5 31.5t-27.5 71.5v1h-4q-21 -51 -63.5 -77.5t-95.5 -26.5q-97 0 -141 72.5t-44 223.5v37q0 149 44 222t141 73q53 0 95 -26.5t63 -76.5h5l-7 38v48h202v-413zM347 170.5q15 29.5 15 84.5v89
q0 111 -70 111q-40 0 -54 -30t-14 -88v-81q0 -58 14 -86.5t54 -28.5t55 29.5zM228 664l-16 150h185l-21 -150h-148z" />
    <glyph glyph-name="epsilontonos" unicode="&#x3ad;" horiz-adv-x="595" 
d="M97 31q-70 47 -70 137v2q0 53 36 91.5t93 48.5q-50 9 -81 43t-31 86v3q0 44 28 82.5t85.5 62.5t142.5 24q88 0 148 -28t89.5 -76.5t29.5 -109.5h-190v3q0 25 -17 43t-53 18q-70 0 -70 -52v-5q0 -26 19 -37t54 -11h66v-105h-67q-39 0 -58.5 -10t-19.5 -39v-12
q0 -56 75 -56q36 0 56 17t20 47v10h191q0 -108 -68 -166t-203 -58t-205 47zM205 664l-16 150h185l-21 -150h-148z" />
    <glyph glyph-name="etatonos" unicode="&#x3ae;" horiz-adv-x="621" 
d="M584 386v-558h-202v538q0 37 -15.5 59t-44.5 22q-38 0 -57 -28t-19 -78v-341h-202v416q0 22 -6 30.5t-23 8.5v142q26 14 82 14q81 0 110 -31.5t28 -69.5l-1 -9h5q23 52 67 81t98 29q180 0 180 -225zM235 664l-16 150h185l-21 -150h-148z" />
    <glyph glyph-name="iotatonos" unicode="&#x3af;" horiz-adv-x="292" 
d="M45 594h202v-408q0 -23 6.5 -31.5t23.5 -8.5v-149q-30 -14 -83 -14q-84 0 -116.5 47t-32.5 125v439zM70 664l-16 150h185l-21 -150h-148z" />
    <glyph glyph-name="upsilondieresistonos" unicode="&#x3b0;" horiz-adv-x="610" 
d="M550 594q19 -67 26 -129.5t7 -131.5v-59q0 -141 -67 -216t-202 -75q-269 0 -269 290v321h202v-358q0 -48 14 -72t53 -24q35 0 50.5 24.5t15.5 71.5v106q0 137 -27 252h197zM352 674h-94l-14 195h128zM100 645.5q-16 14.5 -16 44.5q0 31 16 45.5t50 14.5q35 0 51 -14.5
t16 -45.5q0 -30 -16 -44.5t-51 -14.5q-34 0 -50 14.5zM412 645.5q-16 14.5 -16 44.5q0 31 16 45.5t50 14.5q35 0 51.5 -14.5t16.5 -45.5q0 -30 -16.5 -44.5t-51.5 -14.5q-34 0 -50 14.5z" />
    <glyph glyph-name="alpha" unicode="&#x3b1;" horiz-adv-x="609" 
d="M564 181q0 -23 6.5 -31.5t23.5 -8.5v-144q-30 -14 -83 -14q-82 0 -114.5 31.5t-27.5 71.5v1h-4q-21 -51 -63.5 -77.5t-95.5 -26.5q-97 0 -141 72.5t-44 223.5v37q0 149 44 222t141 73q53 0 95 -26.5t63 -76.5h5l-7 38v48h202v-413zM347 170.5q15 29.5 15 84.5v89
q0 111 -70 111q-40 0 -54 -30t-14 -88v-81q0 -58 14 -86.5t54 -28.5t55 29.5z" />
    <glyph glyph-name="beta" unicode="&#x3b2;" horiz-adv-x="592" 
d="M25 542q0 123 65 180.5t194 57.5t194 -53t65 -156q0 -51 -15.5 -86.5t-53.5 -60.5q56 -23 77 -65.5t21 -121.5q0 -124 -61.5 -187.5t-160.5 -63.5q-63 0 -124 23v-189h-201v722zM341.5 165q18.5 18 18.5 66v27q0 44 -18 61.5t-53 17.5h-17v145h10q34 0 50.5 14.5
t16.5 55.5v1q0 64 -60 64q-63 0 -63 -71v-380q31 -19 66 -19q31 0 49.5 18z" />
    <glyph glyph-name="gamma" unicode="&#x3b3;" horiz-adv-x="558" 
d="M550 594q4 -27 4 -59q0 -80 -29 -175l-102 -360q-15 -54 -15 -101q0 -39 10 -79h-211q-4 29 -4 63q0 60 16 117h-51l-164 594h210l75 -348l4 -57h4l5 58l39 144q15 59 15 115q0 42 -8 88h202z" />
    <glyph glyph-name="delta" unicode="&#x3b4;" horiz-adv-x="600" 
d="M492 505q43 -35 62 -92.5t19 -139.5q0 -142 -67.5 -216t-205.5 -74t-205.5 75t-67.5 215q0 131 46.5 192.5t123.5 61.5q21 0 35.5 -3.5t30.5 -12.5l2 4l-70 39l-134 114v98h469v-154h-169zM370 293q0 54 -15.5 83.5t-54.5 29.5t-54.5 -29.5t-15.5 -83.5v-45
q0 -55 16 -81.5t54 -26.5t54 26t16 81v46z" />
    <glyph glyph-name="epsilon" unicode="&#x3b5;" horiz-adv-x="595" 
d="M97 31q-70 47 -70 137v2q0 53 36 91.5t93 48.5q-50 9 -81 43t-31 86v3q0 44 28 82.5t85.5 62.5t142.5 24q88 0 148 -28t89.5 -76.5t29.5 -109.5h-190v3q0 25 -17 43t-53 18q-70 0 -70 -52v-5q0 -26 19 -37t54 -11h66v-105h-67q-39 0 -58.5 -10t-19.5 -39v-12
q0 -56 75 -56q36 0 56 17t20 47v10h191q0 -108 -68 -166t-203 -58t-205 47z" />
    <glyph glyph-name="zeta" unicode="&#x3b6;" horiz-adv-x="507" 
d="M280 -65q6 16 6 30q0 17 -14 26t-47 9q-108 0 -157.5 37t-49.5 109q0 43 12.5 81.5t46.5 101t125 218.5l35 61h-198v158h436v-125q-120 -189 -168.5 -268.5t-62 -110t-13.5 -53.5q0 -28 20 -40.5t64 -12.5q85 0 130 -42t45 -110q0 -34 -10 -67l-35 -115h-203z" />
    <glyph glyph-name="eta" unicode="&#x3b7;" horiz-adv-x="621" 
d="M584 386v-558h-202v538q0 37 -15.5 59t-44.5 22q-38 0 -57 -28t-19 -78v-341h-202v416q0 22 -6 30.5t-23 8.5v142q26 14 82 14q81 0 110 -31.5t28 -69.5l-1 -9h5q23 52 67 81t98 29q180 0 180 -225z" />
    <glyph glyph-name="theta" unicode="&#x3b8;" horiz-adv-x="609" 
d="M518.5 691.5q63.5 -80.5 63.5 -231.5v-165q0 -148 -63 -230t-214 -82t-214.5 81.5t-63.5 229.5v166q0 151 63 231.5t214 80.5t214.5 -80.5zM246.5 589q-17.5 -30 -17.5 -89v-50h151v50q0 59 -17.5 89t-57.5 30q-41 0 -58.5 -30zM380 254v48h-151v-48q0 -55 17.5 -86
t58.5 -31q75 0 75 117z" />
    <glyph glyph-name="iota" unicode="&#x3b9;" horiz-adv-x="292" 
d="M45 594h202v-408q0 -23 6.5 -31.5t23.5 -8.5v-149q-30 -14 -83 -14q-84 0 -116.5 47t-32.5 125v439z" />
    <glyph glyph-name="kappa" unicode="&#x3ba;" horiz-adv-x="612" 
d="M611 0h-226l-83 221h-55v-221h-202v594h202v-204h53l71 204h220l-123 -291z" />
    <glyph glyph-name="lambda" unicode="&#x3bb;" horiz-adv-x="622" 
d="M616 150v-161q-30 -6 -66 -6q-163 0 -202 172l-47 166l-6 48h-4l-5 -48l-74 -321h-208l153 530h86l-9 36q-8 29 -21.5 41t-35.5 12q-18 0 -27 -4v161q23 6 63 6q84 0 130.5 -41t72.5 -136l22 -75l94 -331q8 -30 20.5 -41.5t36.5 -11.5q11 0 27 4z" />
    <glyph glyph-name="uni03BC" unicode="&#x3bc;" horiz-adv-x="621" 
d="M577 177q0 -23 6 -31.5t22 -8.5v-140q-12 -6 -34 -10t-47 -4q-66 0 -93.5 28t-27.5 63v12h-3q-13 -51 -44 -77t-76 -26q-36 0 -60 18l5 -36l13 -145h-202v774h203v-380q0 -44 12 -68t47 -24q37 0 56 29t20 74v369h203v-417z" />
    <glyph glyph-name="nu" unicode="&#x3bd;" horiz-adv-x="553" 
d="M166 0l-164 594h210l75 -348l4 -57h4l4 58l39 144q15 60 15 118q0 44 -7 85h202q3 -28 3 -58q0 -85 -28 -176l-102 -360h-255z" />
    <glyph glyph-name="xi" unicode="&#x3be;" horiz-adv-x="510" 
d="M444.5 110.5q45.5 -40.5 45.5 -106.5q0 -33 -10 -66l-35 -116h-203l41 126q4 9 4 21q0 31 -46 31q-113 0 -163 44t-51 133l-1 59q0 148 115 174v1q-42 9 -65 40t-23 78v16q0 50 25 78l-48 -1l1 141h438v-141h-168q-31 0 -46 -17t-15 -48v-27q0 -66 59 -66h87v-137h-89
q-66 0 -66 -64v-46q0 -36 19 -51t63 -15q86 0 131.5 -40.5z" />
    <glyph glyph-name="omicron" unicode="&#x3bf;" horiz-adv-x="600" 
d="M96 57q-69 74 -69 215v52q0 140 69.5 213.5t203.5 73.5q135 0 204 -73.5t69 -213.5v-52q0 -142 -69 -215.5t-204 -73.5t-204 74zM370 240v114q0 99 -70 99t-70 -99v-114q0 -99 70 -99t70 99z" />
    <glyph glyph-name="pi" unicode="&#x3c0;" horiz-adv-x="632" 
d="M624 423h-48v-243q0 -23 6.5 -31.5t22.5 -8.5v-143q-12 -6 -34.5 -10t-47.5 -4q-84 0 -117 43.5t-33 131.5v265h-117v-423h-203v423h-48v171h619v-171z" />
    <glyph glyph-name="rho" unicode="&#x3c1;" horiz-adv-x="617" 
d="M522 536q68 -75 68 -213v-53q0 -139 -51.5 -213t-145.5 -74q-107 0 -145 88h-5l4 -36v-215h-202v503q0 138 68.5 213t203.5 75q137 0 205 -75zM387 346q0 54 -15 81.5t-54 27.5t-54.5 -25.5t-15.5 -70.5v-122q0 -41 15.5 -69.5t54.5 -28.5q40 0 54.5 29t14.5 80v98z" />
    <glyph glyph-name="uni03C2" unicode="&#x3c2;" horiz-adv-x="574" 
d="M501.5 108.5q53.5 -41.5 53.5 -110.5q0 -29 -9 -60l-35 -116h-203l41 126q4 11 4 22q0 30 -53 30q-97 0 -157.5 25t-90.5 82t-30 153v74q0 137 66 207t205 70q120 0 188 -66.5t69 -201.5h-194q-3 64 -17.5 87.5t-45.5 23.5q-40 0 -54 -25t-14 -68v-101q0 -61 26 -85.5
t92 -24.5q105 0 158.5 -41.5z" />
    <glyph glyph-name="sigma" unicode="&#x3c3;" horiz-adv-x="590" 
d="M581 594v-153l-102 12q89 -49 89 -171v-17q0 -136 -68 -209t-205 -73t-205 74.5t-68 213.5v36q0 139 68 213t205 74h286zM365 345q0 96 -70 96q-39 0 -54.5 -25.5t-15.5 -70.5v-109q0 -47 16 -71t54 -24t54 24t16 70v110z" />
    <glyph glyph-name="tau" unicode="&#x3c4;" horiz-adv-x="354" 
d="M346 438h-69v-259q0 -23 6 -31.5t23 -8.5v-142q-13 -6 -35 -10t-47 -4q-84 0 -117 46.5t-33 125.5v283h-69v156h341v-156z" />
    <glyph glyph-name="upsilon" unicode="&#x3c5;" horiz-adv-x="610" 
d="M550 594q19 -67 26 -129.5t7 -131.5v-59q0 -141 -67 -216t-202 -75q-269 0 -269 290v321h202v-358q0 -48 14 -72t53 -24q35 0 50.5 24.5t15.5 71.5v106q0 137 -27 252h197z" />
    <glyph glyph-name="phi" unicode="&#x3c6;" horiz-adv-x="936" 
d="M865.5 538q43.5 -73 43.5 -225v-33q0 -152 -43.5 -224.5t-140.5 -72.5q-52 0 -93 24t-62 68h-4l3 -38v-217h-202v217l4 38h-5q-21 -44 -62 -68t-93 -24q-97 0 -140.5 72.5t-43.5 224.5v33q0 152 43.5 225t140.5 73q52 0 93.5 -24t62.5 -68h4l-4 38v209h202v-209l-3 -38h3
q21 44 62.5 68t93.5 24q97 0 140.5 -73zM368 256v81q0 115 -70 115q-40 0 -54 -30.5t-14 -84.5v-81q0 -54 14 -83t54 -29q70 0 70 112zM707 337q0 54 -14.5 84.5t-54.5 30.5q-70 0 -70 -116v-81q0 -111 71 -111q39 0 53.5 27.5t14.5 84.5v81z" />
    <glyph glyph-name="chi" unicode="&#x3c7;" horiz-adv-x="584" 
d="M609 -27v-161q-28 -7 -66 -7q-160 0 -200 174l-48 166l-5 54l-5 -54l-73 -323h-210l144 456l-41 126q-14 44 -59 44q-15 0 -28 -5v162q24 6 64 6q151 0 177 -134l26 -86l5 -39l5 39l43 203h197l-100 -307l89 -266q9 -28 21 -40.5t36 -12.5q15 0 28 5z" />
    <glyph glyph-name="psi" unicode="&#x3c8;" horiz-adv-x="835" 
d="M774 594q20 -69 27 -138t7 -171v-3q0 -154 -65 -226.5t-217 -72.5h-3v-162h-194v162h-3q-151 0 -216 70.5t-65 215.5v325h202v-368q0 -90 82 -90v625h194v-625q43 0 62.5 25.5t19.5 82.5v62q0 86 -5.5 152t-20.5 136h195z" />
    <glyph glyph-name="omega" unicode="&#x3c9;" horiz-adv-x="901" 
d="M266 594q-21 -67 -28.5 -131.5t-7.5 -145.5v-63q0 -57 13 -85.5t46 -28.5q36 0 48 28t12 73v292h203v-292q0 -44 12 -72.5t48 -28.5q34 0 47 28.5t13 85.5v63q0 81 -7.5 145.5t-28.5 131.5h197q25 -68 33 -134t8 -164q0 -156 -57 -234.5t-173 -78.5q-74 0 -121.5 25.5
t-71.5 77.5q-25 -52 -72.5 -77.5t-121.5 -25.5q-116 0 -173 78.5t-57 234.5q0 98 8 164t33 134h198z" />
    <glyph glyph-name="iotadieresis" unicode="&#x3ca;" horiz-adv-x="292" 
d="M45 594h202v-408q0 -23 6.5 -31.5t23.5 -8.5v-149q-30 -14 -83 -14q-84 0 -116.5 47t-32.5 125v439zM-30 686.5q-22 20.5 -22 64.5t22 65t69 21q48 0 69.5 -21t21.5 -65t-21.5 -64.5t-69.5 -20.5q-47 0 -69 20.5zM190 686.5q-22 20.5 -22 64.5t22 65t69 21q48 0 69.5 -21
t21.5 -65t-21.5 -64.5t-69.5 -20.5q-47 0 -69 20.5z" />
    <glyph glyph-name="upsilondieresis" unicode="&#x3cb;" horiz-adv-x="610" 
d="M550 594q19 -67 26 -129.5t7 -131.5v-59q0 -141 -67 -216t-202 -75q-269 0 -269 290v321h202v-358q0 -48 14 -72t53 -24q35 0 50.5 24.5t15.5 71.5v106q0 137 -27 252h197zM129 686.5q-22 20.5 -22 64.5t22 65t69 21q48 0 69.5 -21t21.5 -65t-21.5 -64.5t-69.5 -20.5
q-47 0 -69 20.5zM349 686.5q-22 20.5 -22 64.5t22 65t69 21q48 0 69.5 -21t21.5 -65t-21.5 -64.5t-69.5 -20.5q-47 0 -69 20.5z" />
    <glyph glyph-name="omicrontonos" unicode="&#x3cc;" horiz-adv-x="600" 
d="M96 57q-69 74 -69 215v52q0 140 69.5 213.5t203.5 73.5q135 0 204 -73.5t69 -213.5v-52q0 -142 -69 -215.5t-204 -73.5t-204 74zM370 240v114q0 99 -70 99t-70 -99v-114q0 -99 70 -99t70 99zM224 664l-16 150h185l-21 -150h-148z" />
    <glyph glyph-name="upsilontonos" unicode="&#x3cd;" horiz-adv-x="610" 
d="M550 594q19 -67 26 -129.5t7 -131.5v-59q0 -141 -67 -216t-202 -75q-269 0 -269 290v321h202v-358q0 -48 14 -72t53 -24q35 0 50.5 24.5t15.5 71.5v106q0 137 -27 252h197zM229 664l-16 150h185l-21 -150h-148z" />
    <glyph glyph-name="omegatonos" unicode="&#x3ce;" horiz-adv-x="901" 
d="M266 594q-21 -67 -28.5 -131.5t-7.5 -145.5v-63q0 -57 13 -85.5t46 -28.5q36 0 48 28t12 73v292h203v-292q0 -44 12 -72.5t48 -28.5q34 0 47 28.5t13 85.5v63q0 81 -7.5 145.5t-28.5 131.5h197q25 -68 33 -134t8 -164q0 -156 -57 -234.5t-173 -78.5q-74 0 -121.5 25.5
t-71.5 77.5q-25 -52 -72.5 -77.5t-121.5 -25.5q-116 0 -173 78.5t-57 234.5q0 98 8 164t33 134h198zM375 664l-16 150h185l-21 -150h-148z" />
    <glyph glyph-name="uni0401" unicode="&#x401;" horiz-adv-x="560" 
d="M535 0h-484v744h477v-172h-262v-116h233v-158h-233v-124h269v-174zM119 866q0 77 77 77t77 -77t-77 -77t-77 77zM315 866q0 77 77 77t77 -77t-77 -77t-77 77z" />
    <glyph glyph-name="uni0402" unicode="&#x402;" horiz-adv-x="780" 
d="M690 449.5q47 -57.5 47 -151.5v-93q0 -83 -29 -132t-87 -69.5t-150 -20.5v158q32 0 42.5 17.5t10.5 56.5v53q0 37 -14.5 59.5t-46.5 22.5q-34 0 -55 -26t-21 -74v-250h-215v565h-164v180h547v-180h-168v-128q31 34 71.5 52t87.5 18q97 0 144 -57.5z" />
    <glyph glyph-name="uni0403" unicode="&#x403;" horiz-adv-x="504" 
d="M266 0h-215v744h445v-174h-230v-570zM411 942l-135 -151h-116l73 151h178z" />
    <glyph glyph-name="uni0404" unicode="&#x404;" horiz-adv-x="656" 
d="M249 465v-22h209v-137h-209v-28q0 -122 83 -122q40 0 60.5 26.5t22.5 84.5h213v-3q-2 -133 -75.5 -207t-220.5 -74q-152 0 -225.5 75.5t-73.5 232.5v160q0 158 73 233.5t227 75.5q146 0 220 -75t75 -207v-3h-214q-2 54 -20.5 82.5t-61.5 28.5q-83 0 -83 -121z" />
    <glyph glyph-name="uni0405" unicode="&#x405;" horiz-adv-x="615" 
d="M95.5 47q-72.5 64 -73.5 189h207q0 -88 82 -88q34 0 51 16.5t17 44.5q0 27 -11.5 42t-35.5 26.5t-87 35.5q-82 27 -128 57t-65.5 70t-19.5 101v1q0 102 72 160t202 58q137 0 206.5 -66.5t68.5 -184.5h-198q-1 41 -18.5 63t-57.5 22q-32 0 -47.5 -14.5t-15.5 -38.5v-1
q0 -28 20.5 -44t70.5 -32q100 -30 155.5 -64.5t79 -80t23.5 -111.5q0 -107 -76 -166t-207 -59q-142 0 -214.5 64z" />
    <glyph glyph-name="uni0406" unicode="&#x406;" horiz-adv-x="318" 
d="M266 0h-215v744h215v-744z" />
    <glyph glyph-name="uni0407" unicode="&#x407;" horiz-adv-x="318" 
d="M266 0h-215v744h215v-744zM-11 866q0 77 77 77t77 -77t-77 -77t-77 77zM185 866q0 77 77 77t77 -77t-77 -77t-77 77z" />
    <glyph glyph-name="uni0408" unicode="&#x408;" horiz-adv-x="501" 
d="M245 744h215v-491q0 -142 -70 -206t-210 -64q-81 0 -173 19l6 175q78 -16 131 -16t77 25t24 82v305h-206v170h206v1z" />
    <glyph glyph-name="uni0409" unicode="&#x409;" horiz-adv-x="1012" 
d="M15 151q39 0 53.5 20.5t17.5 67.5q11 212 11 505h545v-230h85q127 0 193 -57.5t66 -190.5v-10q0 -139 -65.5 -197.5t-193.5 -58.5h-301v561h-115q-4 -215 -10 -319q-5 -99 -35 -155t-90 -80t-161 -24v168zM698 155q43 0 61 22t18 69v10q0 57 -18 80t-64 23h-53v-204h56z
" />
    <glyph glyph-name="uni040A" unicode="&#x40a;" horiz-adv-x="986" 
d="M700 492q128 0 193.5 -56t65.5 -185q0 -136 -65.5 -193.5t-192.5 -57.5h-301v321h-134v-321h-215v744h215v-251h134v251h215v-252h85zM671 155q43 0 61.5 22.5t18.5 73.5q0 42 -19 62t-64 20h-53v-178h56z" />
    <glyph glyph-name="uni040B" unicode="&#x40b;" horiz-adv-x="778" 
d="M688.5 446.5q46.5 -60.5 46.5 -159.5v-287h-213v267q0 40 -16 61.5t-47 21.5q-32 0 -52 -27t-20 -68v-255h-215v565h-164v180h547v-180h-168v-131q62 73 159 73q96 0 142.5 -60.5z" />
    <glyph glyph-name="uni040C" unicode="&#x40c;" horiz-adv-x="665" 
d="M266 0h-215v744h215v-276h48l94 276h231l-152 -358v-5l172 -381h-232l-113 294h-48v-294zM467 942l-135 -151h-116l73 151h178z" />
    <glyph glyph-name="uni040E" unicode="&#x40e;" horiz-adv-x="636" 
d="M32 6l28 167q38 -8 66 -8q21 0 35 10.5t25 36.5l14 39l-195 493h228l71 -227l16 -83h3l13 84l63 226h232l-237 -584q-37 -88 -89 -130.5t-131 -42.5q-84 0 -142 19zM169 924q0 16 1 25h108q-1 -7 -1 -19q0 -26 10.5 -36.5t34.5 -10.5q27 0 37.5 14.5t6.5 51.5h107
q1 -10 1 -28q0 -134 -152 -134q-153 0 -153 137z" />
    <glyph glyph-name="uni040F" unicode="&#x40f;" horiz-adv-x="681" 
d="M415 173v571h215v-744h-183v-96h-208v96h-188v744h215v-571h149z" />
    <glyph glyph-name="uni0410" unicode="&#x410;" horiz-adv-x="687" 
d="M682 0h-223l-25 124h-180l-26 -124h-222l193 744h289zM331 496l-44 -212h114l-44 212l-12 68h-2z" />
    <glyph glyph-name="uni0411" unicode="&#x411;" horiz-adv-x="644" 
d="M366 468q125 0 188 -51.5t63 -165.5v-37q0 -112 -63.5 -163t-186.5 -51h-316v744h513v-176h-298v-100h100zM409 248q0 43 -17 62t-56 19h-70v-183h73q37 0 53.5 19.5t16.5 59.5v23z" />
    <glyph glyph-name="uni0412" unicode="&#x412;" horiz-adv-x="643" 
d="M51 0v744h293q114 0 178.5 -46.5t64.5 -135.5v-3q0 -122 -110 -164v-1q69 -13 104.5 -58t35.5 -114v-5q0 -105 -65.5 -161t-190.5 -56h-310zM322 451q39 0 56 16.5t17 52.5q0 33 -17 48.5t-55 15.5h-63v-133h62zM326 159q42 0 60.5 18t18.5 57q0 38 -19.5 55t-62.5 17
h-63v-147h66z" />
    <glyph glyph-name="uni0413" unicode="&#x413;" horiz-adv-x="504" 
d="M266 0h-215v744h445v-174h-230v-570z" />
    <glyph glyph-name="uni0414" unicode="&#x414;" horiz-adv-x="737" 
d="M662 169h63v-265h-191v96h-328v-96h-191v265h4q94 0 94 187v388h549v-575zM325 392q0 -150 -42 -223h164v412h-122v-189z" />
    <glyph glyph-name="uni0415" unicode="&#x415;" horiz-adv-x="560" 
d="M535 0h-484v744h477v-172h-262v-116h233v-158h-233v-124h269v-174z" />
    <glyph glyph-name="uni0416" unicode="&#x416;" horiz-adv-x="973" 
d="M235 0h-228l146 395l-122 349h223l78 -260h48v260h215v-260h47l79 260h223l-124 -348l146 -396h-228l-96 309h-47v-309h-215v309h-48z" />
    <glyph glyph-name="uni0417" unicode="&#x417;" horiz-adv-x="648" 
d="M103 53.5q-76 70.5 -76 205.5v1h210v-12q0 -92 86 -92q41 0 60.5 19.5t19.5 59.5v11q0 36 -19 54.5t-62 18.5h-78v122h74q38 0 59.5 15.5t21.5 48.5v11q0 70 -75 70q-86 0 -86 -93v-6h-210v3q0 129 75.5 199.5t223.5 70.5q136 0 207 -57t71 -152q0 -67 -29.5 -107
t-78.5 -54q52 -13 85 -55t33 -107v-1q0 -122 -75 -183t-213 -61q-148 0 -224 70.5z" />
    <glyph glyph-name="uni0418" unicode="&#x418;" horiz-adv-x="710" 
d="M659 744v-744h-206v336l1 61h-1l-23 -53l-157 -344h-221v744h205v-401h1l22 54l158 347h221z" />
    <glyph glyph-name="uni0419" unicode="&#x419;" horiz-adv-x="710" 
d="M659 744v-744h-206v336l1 61h-1l-23 -53l-157 -344h-221v744h205v-401h1l22 54l158 347h221zM189 924q0 16 1 25h108q-1 -7 -1 -19q0 -26 10.5 -36.5t34.5 -10.5q27 0 37.5 14.5t6.5 51.5h107q1 -10 1 -28q0 -134 -152 -134q-153 0 -153 137z" />
    <glyph glyph-name="uni041A" unicode="&#x41a;" horiz-adv-x="665" 
d="M266 0h-215v744h215v-276h48l94 276h231l-152 -358v-5l172 -381h-232l-113 294h-48v-294z" />
    <glyph glyph-name="uni041B" unicode="&#x41b;" horiz-adv-x="699" 
d="M648 0h-215v561h-122q-3 -181 -10 -319q-5 -99 -35 -155t-90 -80t-161 -24v168q39 0 53.5 20.5t17.5 67.5q11 212 11 505h551v-744z" />
    <glyph glyph-name="uni041C" unicode="&#x41c;" horiz-adv-x="850" 
d="M256 0h-205v744h258l107 -386l8 -36h2l9 36l106 386h258v-744h-204v365l2 80h-2l-10 -33l-94 -320h-132l-94 320l-10 33h-2l3 -80v-365z" />
    <glyph glyph-name="uni041D" unicode="&#x41d;" horiz-adv-x="689" 
d="M422 463v281h216v-744h-216v288h-156v-288h-215v744h215v-281h156z" />
    <glyph glyph-name="uni041E" unicode="&#x41e;" horiz-adv-x="667" 
d="M109 64.5q-76 81.5 -76 240.5v133q0 159 76 240.5t224 81.5q149 0 225 -81.5t76 -240.5v-133q0 -159 -76 -240.5t-224 -81.5q-149 0 -225 81.5zM418 282v179q0 119 -84 119q-85 0 -85 -119v-179q0 -119 85 -119q84 0 84 119z" />
    <glyph glyph-name="uni041F" unicode="&#x41f;" horiz-adv-x="682" 
d="M631 744v-744h-215v571h-150v-571h-215v744h580z" />
    <glyph glyph-name="uni0420" unicode="&#x420;" horiz-adv-x="635" 
d="M51 0v744h301q129 0 200.5 -68t71.5 -200v-13q0 -137 -67.5 -207t-187.5 -70h-103v-186h-215zM325 360q42 0 63 22.5t21 79.5v9q0 53 -20 75.5t-62 22.5h-61v-209h59z" />
    <glyph glyph-name="uni0421" unicode="&#x421;" horiz-adv-x="656" 
d="M108.5 64q-75.5 81 -75.5 241v131q0 161 75 242.5t223 81.5t222 -77t75 -220v-19h-214v30q-1 52 -20 79t-62 27q-83 0 -83 -119v-179q0 -120 83 -120q40 0 61 25t22 79v36h213v-23q-2 -296 -297 -296q-147 0 -222.5 81z" />
    <glyph glyph-name="uni0422" unicode="&#x422;" horiz-adv-x="544" 
d="M379 0h-215v566h-156v178h528v-178h-157v-566z" />
    <glyph glyph-name="uni0423" unicode="&#x423;" horiz-adv-x="636" 
d="M32 6l28 167q38 -8 66 -8q21 0 35 10.5t25 36.5l14 39l-195 493h228l71 -227l16 -83h3l13 84l63 226h232l-237 -584q-37 -88 -89 -130.5t-131 -42.5q-84 0 -142 19z" />
    <glyph glyph-name="uni0424" unicode="&#x424;" horiz-adv-x="888" 
d="M549 678q153 0 230 -74.5t77 -230.5q0 -306 -307 -306h-8v-79h-194v79h-7q-153 0 -230 75t-77 231t77 230.5t229 74.5h8v77h194v-77h8zM347 221v303h-3q-51 -1 -76.5 -33t-25.5 -116v-4q0 -84 25.5 -117t76.5 -33h3zM646 375q0 60 -12 92.5t-33.5 44.5t-55.5 12h-4v-303
h4q50 0 75.5 33t25.5 117v4z" />
    <glyph glyph-name="uni0425" unicode="&#x425;" horiz-adv-x="668" 
d="M239 0h-233l159 382l-144 362h232l67 -226l13 -46h3l13 46l67 226h232l-144 -361l159 -383h-232l-81 245l-15 47h-2l-15 -48z" />
    <glyph glyph-name="uni0426" unicode="&#x426;" horiz-adv-x="709" 
d="M631 744v-571h65v-269h-190v96h-455v744h215v-571h150v571h215z" />
    <glyph glyph-name="uni0427" unicode="&#x427;" horiz-adv-x="654" 
d="M388 744h215v-744h-215v267q-57 -19 -124 -19q-126 0 -180.5 69.5t-54.5 183.5v243h215v-233q0 -40 16 -64t56 -24q37 0 72 11v310z" />
    <glyph glyph-name="uni0428" unicode="&#x428;" horiz-adv-x="949" 
d="M685 170v574h213v-744h-847v744h213v-574h116v574h189v-574h116z" />
    <glyph glyph-name="uni0429" unicode="&#x429;" horiz-adv-x="972" 
d="M898 744v-574h61v-268h-190v98h-718v744h213v-574h116v574h189v-574h116v574h213z" />
    <glyph glyph-name="uni042A" unicode="&#x42a;" horiz-adv-x="661" 
d="M375 514q129 0 194.5 -59t65.5 -198v-6q0 -135 -65.5 -193t-193.5 -58h-307v571h-61v173h276v-230h91zM426 260q0 54 -18.5 76.5t-64.5 22.5h-59v-204h63q43 0 61 23t18 75v7z" />
    <glyph glyph-name="uni042B" unicode="&#x42b;" horiz-adv-x="961" 
d="M51 0v744h215v-230h92q129 0 194 -59t65 -198v-6q0 -135 -65.5 -193t-192.5 -58h-308zM329 155q44 0 62 23t18 75v7q0 54 -18.5 76.5t-64.5 22.5h-60v-204h63zM910 0h-215v744h215v-744z" />
    <glyph glyph-name="uni042C" unicode="&#x42c;" horiz-adv-x="644" 
d="M51 0v744h215v-230h92q129 0 194 -59t65 -198v-6q0 -135 -65.5 -193t-192.5 -58h-308zM329 155q44 0 62 23t18 75v7q0 54 -18.5 76.5t-64.5 22.5h-60v-204h63z" />
    <glyph glyph-name="uni042D" unicode="&#x42d;" horiz-adv-x="656" 
d="M551 684.5q73 -75.5 73 -233.5v-160q0 -157 -73.5 -232.5t-226.5 -75.5q-147 0 -220.5 74t-75.5 207v3h214q1 -58 21.5 -84.5t60.5 -26.5q83 0 83 122v28h-209v137h209v22q0 121 -83 121q-42 0 -61 -28.5t-21 -82.5h-214v3q1 132 75 207t221 75q154 0 227 -75.5z" />
    <glyph glyph-name="uni042E" unicode="&#x42e;" horiz-adv-x="975" 
d="M867.5 681.5q75.5 -78.5 75.5 -229.5v-160q0 -152 -75.5 -230.5t-221.5 -78.5q-147 0 -222 77.5t-76 227.5h-82v-288h-215v744h215v-283h82q2 147 77.5 223t219.5 76q147 0 222.5 -78.5zM726 471q0 111 -80 111q-39 0 -60.5 -27t-21.5 -84v-199q0 -57 21.5 -84.5
t60.5 -27.5q80 0 80 112v199z" />
    <glyph glyph-name="uni042F" unicode="&#x42f;" horiz-adv-x="646" 
d="M595 0h-215v245h-50q-40 0 -59.5 -18t-23.5 -56l-5 -53q-7 -78 -16 -118h-215q14 30 19 92l5 64q10 150 107 173v1q-57 16 -88 64t-31 119v8q0 108 67.5 165.5t203.5 57.5h301v-744zM380 395v183h-69q-74 0 -74 -83v-9q0 -49 20.5 -70t58.5 -21h64z" />
    <glyph glyph-name="uni0430" unicode="&#x430;" horiz-adv-x="603" 
d="M498.5 547.5q61.5 -63.5 61.5 -180.5v-367h-202v38l5 44h-2q-45 -99 -153 -99q-88 0 -135.5 50.5t-47.5 135.5q0 87 55 135.5t165 48.5q57 0 113 -17v48q0 76 -63 76q-31 0 -46 -20t-15 -48v-9h-195q1 101 63 164.5t195 63.5q140 0 201.5 -63.5zM340 165.5
q18 28.5 18 74.5v5q-13 7 -32.5 11.5t-37.5 4.5q-64 0 -64 -62q0 -32 14 -47t45 -15q39 0 57 28.5z" />
    <glyph glyph-name="uni0431" unicode="&#x431;" horiz-adv-x="600" 
d="M527.5 494.5q45.5 -56.5 45.5 -161.5v-63q0 -139 -68.5 -213t-204.5 -74q-138 0 -205.5 76.5t-67.5 214.5v137q0 155 64 230.5t195 84.5q46 4 64 13.5t18 28.5h187q-1 -83 -55 -125.5t-169 -52.5q-54 -5 -77.5 -29t-25.5 -78l-2 -22h5q21 44 61.5 67t95.5 23
q94 0 139.5 -56.5zM370 306q0 100 -69 100q-34 0 -53 -26t-19 -65v-81q0 -42 17 -68.5t54 -26.5t53.5 26t16.5 69v72z" />
    <glyph glyph-name="uni0432" unicode="&#x432;" horiz-adv-x="644" 
d="M45 0v594h338q96 0 153.5 -38t57.5 -109q0 -52 -29.5 -88.5t-85.5 -45.5v-1q67 -10 102.5 -47.5t35.5 -94.5q0 -91 -61 -130.5t-175 -39.5h-336zM337 358q31 0 47.5 11t16.5 31q0 47 -63 47h-91v-89h90zM347 147q67 0 67 48q0 26 -19 38.5t-52 12.5h-96v-99h100z" />
    <glyph glyph-name="uni0433" unicode="&#x433;" horiz-adv-x="454" 
d="M242 438v-438h-197v594h407v-156h-210z" />
    <glyph glyph-name="uni0434" unicode="&#x434;" horiz-adv-x="686" 
d="M614 151h51v-247h-168v96h-301v-96h-168v247h5q45 0 64.5 59t19.5 171v213h497v-443zM306 388q0 -164 -59 -237h165v293h-106v-56z" />
    <glyph glyph-name="uni0435" unicode="&#x435;" horiz-adv-x="581" 
d="M554 249h-325v-10q0 -52 16 -78.5t50 -26.5q33 0 48.5 18t17.5 56h191q-5 -106 -71.5 -165.5t-189.5 -59.5q-130 0 -197 76.5t-67 213.5v52q0 135 68 210.5t199 75.5q127 0 193.5 -69.5t66.5 -205.5v-87zM229 357h132v7q0 50 -15.5 74t-50.5 24q-34 0 -50 -25t-16 -79v-1
z" />
    <glyph glyph-name="uni0436" unicode="&#x436;" horiz-adv-x="918" 
d="M916 0h-227l-79 219h-50v-219h-202v219h-50l-79 -219h-227l139 303l-124 291h221l69 -202h51v202h202v-202h51l69 202h220l-123 -291z" />
    <glyph glyph-name="uni0437" unicode="&#x437;" horiz-adv-x="594" 
d="M90 42q-68 58 -68 166h190v-10q0 -30 20 -47t56 -17q76 0 76 56v12q0 29 -20 39t-59 10h-67v105h66q35 0 54 11t19 37v5q0 52 -70 52q-35 0 -52 -18t-17 -43v-3h-191q0 61 29.5 109.5t90 76.5t148.5 28q85 0 142.5 -24t85 -62.5t27.5 -82.5v-3q0 -52 -30.5 -86t-80.5 -43
q57 -10 92.5 -48.5t35.5 -91.5v-2q0 -90 -70 -137t-204 -47q-135 0 -203 58z" />
    <glyph glyph-name="uni0438" unicode="&#x438;" horiz-adv-x="636" 
d="M591 594v-594h-188v279l6 36l-6 2l-10 -37l-158 -279l-190 -1v594h189v-282l-7 -37l6 -1l11 36l156 284h191z" />
    <glyph glyph-name="uni0439" unicode="&#x439;" horiz-adv-x="636" 
d="M591 594v-594h-188v279l6 36l-6 2l-10 -37l-158 -279l-190 -1v594h189v-282l-7 -37l6 -1l11 36l156 284h191zM165 791q0 16 1 25h108q-1 -7 -1 -19q0 -26 10.5 -36.5t34.5 -10.5q27 0 37.5 14.5t6.5 51.5h107q1 -10 1 -28q0 -134 -152 -134q-153 0 -153 137z" />
    <glyph glyph-name="uni043A" unicode="&#x43a;" horiz-adv-x="612" 
d="M611 0h-226l-83 221h-55v-221h-202v594h202v-204h53l71 204h220l-123 -291z" />
    <glyph glyph-name="uni043B" unicode="&#x43b;" horiz-adv-x="663" 
d="M618 0h-202v444h-113q-2 -101 -5 -148q-6 -118 -34 -185.5t-84.5 -97.5t-151.5 -30v163q23 0 36.5 14.5t22 52t12.5 109.5q4 88 4 272h515v-594z" />
    <glyph glyph-name="uni043C" unicode="&#x43c;" horiz-adv-x="783" 
d="M228 0h-183v594h224l111 -294l10 -45h3l9 45l112 294h224v-594h-183v248l5 60h-3l-14 -47l-85 -216h-134l-85 216l-13 47h-4l6 -60v-248z" />
    <glyph glyph-name="uni043D" unicode="&#x43d;" horiz-adv-x="620" 
d="M372 385v209h203v-594h-203v232h-125v-232h-202v594h202v-209h125z" />
    <glyph glyph-name="uni043E" unicode="&#x43e;" horiz-adv-x="600" 
d="M96 57q-69 74 -69 215v52q0 140 69.5 213.5t203.5 73.5q135 0 204 -73.5t69 -213.5v-52q0 -142 -69 -215.5t-204 -73.5t-204 74zM370 240v114q0 99 -70 99t-70 -99v-114q0 -99 70 -99t70 99z" />
    <glyph glyph-name="uni043F" unicode="&#x43f;" horiz-adv-x="622" 
d="M577 594v-594h-202v438h-128v-438h-202v594h532z" />
    <glyph glyph-name="uni0440" unicode="&#x440;" horiz-adv-x="615" 
d="M543.5 538.5q44.5 -72.5 44.5 -224.5v-40q0 -147 -44 -219t-143 -72q-52 0 -93.5 26.5t-62.5 76.5h-3l5 -59v-207h-202v774h202v-31l-5 -55h3q21 50 62.5 76.5t93.5 26.5q98 0 142.5 -72.5zM385 341q0 53 -14 82.5t-53 29.5q-71 0 -71 -107v-98q0 -49 15.5 -78t55.5 -29
q39 0 53 29.5t14 86.5v84z" />
    <glyph glyph-name="uni0441" unicode="&#x441;" horiz-adv-x="577" 
d="M94.5 58q-67.5 74 -67.5 216v50q0 141 68.5 214t201.5 73q119 0 187.5 -64.5t69.5 -194.5v-5h-194v28q-2 40 -17 59t-46 19q-68 0 -68 -97v-115q0 -100 68 -100q61 0 64 82v30h193v-5q-1 -135 -69.5 -199.5t-190.5 -64.5q-132 0 -199.5 74z" />
    <glyph glyph-name="uni0442" unicode="&#x442;" horiz-adv-x="509" 
d="M355 0h-202v438h-148v156h499v-156h-149v-438z" />
    <glyph glyph-name="uni0443" unicode="&#x443;" horiz-adv-x="588" 
d="M112 -57q60 12 90.5 29t40.5 48l2 5h-79l-164 569h211l75 -351l5 -43h2l5 43l74 351h212l-157 -556q-28 -104 -98.5 -162t-192.5 -70z" />
    <glyph glyph-name="uni0444" unicode="&#x444;" horiz-adv-x="936" 
d="M865.5 538q43.5 -73 43.5 -225v-33q0 -152 -43.5 -224.5t-140.5 -72.5q-52 0 -93 24t-62 68h-4l3 -38v-217h-202v217l4 38h-5q-21 -44 -62 -68t-93 -24q-97 0 -140.5 72.5t-43.5 224.5v33q0 152 43.5 225t140.5 73q52 0 93.5 -24t62.5 -68h4l-4 38v209h202v-209l-3 -38h3
q21 44 62.5 68t93.5 24q97 0 140.5 -73zM368 256v81q0 115 -70 115q-40 0 -54 -30.5t-14 -84.5v-81q0 -54 14 -83t54 -29q70 0 70 112zM707 337q0 54 -14.5 84.5t-54.5 30.5q-70 0 -70 -116v-81q0 -111 71 -111q39 0 53.5 27.5t14.5 84.5v81z" />
    <glyph glyph-name="uni0445" unicode="&#x445;" horiz-adv-x="604" 
d="M223 0h-221l146 311l-129 283h217l59 -176l6 -24h2l6 23l59 177h218l-129 -283l145 -311h-221l-72 191l-6 19h-2l-6 -19z" />
    <glyph glyph-name="uni0446" unicode="&#x446;" horiz-adv-x="651" 
d="M577 594v-438h54v-254h-169v98h-417v594h202v-438h128v438h202z" />
    <glyph glyph-name="uni0447" unicode="&#x447;" horiz-adv-x="616" 
d="M368 210q-28 -10 -58 -16t-74 -6q-99 0 -149.5 50.5t-50.5 136.5v219h202v-208q0 -32 12 -50t47 -18q44 0 71 16v260h203v-594h-203v210z" />
    <glyph glyph-name="uni0448" unicode="&#x448;" horiz-adv-x="891" 
d="M643 156v438h203v-594h-801v594h202v-438h99v438h199v-438h98z" />
    <glyph glyph-name="uni0449" unicode="&#x449;" horiz-adv-x="918" 
d="M846 594v-438h51v-254h-169v98h-683v594h202v-438h99v438h199v-438h98v438h203z" />
    <glyph glyph-name="uni044A" unicode="&#x44a;" horiz-adv-x="657" 
d="M372 441q122 0 190 -50t68 -168v-3q0 -118 -66.5 -169t-189.5 -51h-299v421h-70v173h272v-153h95zM427 221q0 44 -20 62t-64 18h-66v-161h71q40 0 59.5 18.5t19.5 59.5v3z" />
    <glyph glyph-name="uni044B" unicode="&#x44b;" horiz-adv-x="919" 
d="M45 0v594h202v-153h95q122 0 190 -50t68 -168v-3q0 -118 -66.5 -169t-189.5 -51h-299zM318 140q40 0 59.5 18.5t19.5 59.5v3q0 44 -20 62t-63 18h-67v-161h71zM874 0h-202v594h202v-594z" />
    <glyph glyph-name="uni044C" unicode="&#x44c;" horiz-adv-x="627" 
d="M45 0v594h202v-153h95q122 0 190 -50t68 -168v-3q0 -118 -66.5 -169t-189.5 -51h-299zM318 140q40 0 59.5 18.5t19.5 59.5v3q0 44 -20 62t-63 18h-67v-161h71z" />
    <glyph glyph-name="uni044D" unicode="&#x44d;" horiz-adv-x="577" 
d="M483.5 537q66.5 -74 66.5 -211v-55q0 -136 -65.5 -211.5t-204.5 -75.5q-117 0 -186.5 63.5t-70.5 178.5h192q1 -47 16 -68.5t48 -21.5q35 0 52.5 23t17.5 73v17h-148v106h148v4q0 49 -17 73.5t-54 24.5q-30 0 -45 -17t-18 -56h-193q1 106 71 166.5t187 60.5
q137 0 203.5 -74z" />
    <glyph glyph-name="uni044E" unicode="&#x44e;" horiz-adv-x="879" 
d="M784 537.5q68 -73.5 68 -220.5v-39q0 -148 -68.5 -221.5t-200.5 -73.5q-242 0 -267 243h-69v-226h-202v594h202v-212h70q30 229 266 229q133 0 201 -73.5zM649 360q0 47 -17.5 71t-48.5 24q-32 0 -49.5 -23.5t-17.5 -71.5v-126q0 -48 17.5 -71.5t49.5 -23.5q31 0 48.5 24
t17.5 71v126z" />
    <glyph glyph-name="uni044F" unicode="&#x44f;" horiz-adv-x="595" 
d="M550 594v-594h-202v197h-43q-34 -1 -48 -14t-18 -43l-8 -73q-2 -24 -6 -38t-12 -29h-211q20 22 27 72l8 67q6 42 19.5 64t47.5 34q-80 52 -80 156v2q0 96 54.5 147.5t167.5 51.5h304zM348 337v108h-62q-60 0 -60 -51v-1q0 -56 62 -56h60z" />
    <glyph glyph-name="uni0451" unicode="&#x451;" horiz-adv-x="581" 
d="M554 249h-325v-10q0 -52 16 -78.5t50 -26.5q33 0 48.5 18t17.5 56h191q-5 -106 -71.5 -165.5t-189.5 -59.5q-130 0 -197 76.5t-67 213.5v52q0 135 68 210.5t199 75.5q127 0 193.5 -69.5t66.5 -205.5v-87zM229 357h132v7q0 50 -15.5 74t-50.5 24q-34 0 -50 -25t-16 -79v-1
zM105 682.5q-22 20.5 -22 64.5t22 65t69 21q48 0 69.5 -21t21.5 -65t-21.5 -64.5t-69.5 -20.5q-47 0 -69 20.5zM325 682.5q-22 20.5 -22 64.5t22 65t69 21q48 0 69.5 -21t21.5 -65t-21.5 -64.5t-69.5 -20.5q-47 0 -69 20.5z" />
    <glyph glyph-name="uni0452" unicode="&#x452;" horiz-adv-x="628" 
d="M585 75l1 -82q0 -93 -48.5 -140t-137.5 -47q-70 0 -130 17l23 126q6 -1 20 -3t28 -2q25 0 33.5 13.5t8.5 40.5v2h-1v367q0 41 -15.5 61.5t-45.5 20.5q-36 0 -55 -29t-19 -73v-347h-202v633h-55v98h55v35h202v-35h176v-98h-176v-72l-5 -56h2q24 53 65.5 79.5t94.5 26.5
q181 0 181 -216v-320z" />
    <glyph glyph-name="uni0453" unicode="&#x453;" horiz-adv-x="454" 
d="M242 438v-438h-197v594h407v-156h-210zM396 814l-129 -150h-116l67 150h178z" />
    <glyph glyph-name="uni0454" unicode="&#x454;" horiz-adv-x="577" 
d="M346 157.5q15 21.5 17 68.5h191q-1 -115 -70.5 -178.5t-186.5 -63.5q-139 0 -204.5 75.5t-65.5 211.5v55q0 137 66.5 211t203.5 74q117 0 187 -60.5t71 -166.5h-193q-2 39 -17.5 56t-45.5 17q-37 0 -54 -24.5t-17 -73.5v-4h148v-106h-148v-17q0 -50 17.5 -73t52.5 -23
q33 0 48 21.5z" />
    <glyph glyph-name="uni0455" unicode="&#x455;" horiz-adv-x="571" 
d="M89.5 40q-65.5 56 -65.5 159h194q1 -73 74 -73q28 0 42 11.5t14 32.5v2q0 25 -18.5 38t-71.5 24q-86 19 -135 45.5t-69 63.5t-20 91v1q0 81 58.5 128.5t186.5 47.5t190 -51.5t62 -144.5h-184q-1 24 -16 39t-46 15q-51 0 -51 -39v-1q0 -23 18 -35t70 -23
q122 -24 174.5 -70.5t52.5 -129.5q0 -91 -66.5 -139t-195.5 -48q-132 0 -197.5 56z" />
    <glyph glyph-name="uni0456" unicode="&#x456;" horiz-adv-x="292" 
d="M60 668q-27 21 -27 68q0 48 27 69.5t86 21.5q60 0 87 -21.5t27 -69.5q0 -47 -27 -68t-87 -21q-59 0 -86 21zM247 0h-202v594h202v-594z" />
    <glyph glyph-name="uni0457" unicode="&#x457;" horiz-adv-x="292" 
d="M247 0h-202v594h202v-594zM-37 682.5q-22 20.5 -22 64.5t22 65t69 21q48 0 69.5 -21t21.5 -65t-21.5 -64.5t-69.5 -20.5q-47 0 -69 20.5zM183 682.5q-22 20.5 -22 64.5t22 65t69 21q48 0 69.5 -21t21.5 -65t-21.5 -64.5t-69.5 -20.5q-47 0 -69 20.5z" />
    <glyph glyph-name="uni0458" unicode="&#x458;" horiz-adv-x="294" 
d="M62 668q-27 21 -27 68q0 48 27 69.5t86 21.5q60 0 87 -21.5t27 -69.5q0 -47 -27 -68t-87 -21q-59 0 -86 21zM-63 -187l5 143q25 -5 46 -5q34 0 46.5 21t12.5 75v547h202v-540q0 -125 -54 -187.5t-180 -62.5q-33 0 -78 9z" />
    <glyph glyph-name="uni0459" unicode="&#x459;" horiz-adv-x="981" 
d="M28 146q23 0 36.5 14.5t22 52t12.5 109.5q4 88 4 272h509v-153h85q121 0 189 -50t68 -168v-7q0 -116 -67 -166t-189 -50h-289v444h-106q-2 -101 -5 -148q-6 -118 -34 -185.5t-84.5 -97.5t-151.5 -30v163zM672 140q39 0 59.5 17.5t20.5 56.5v7q0 44 -20.5 62t-63.5 18h-56
v-161h60z" />
    <glyph glyph-name="uni045A" unicode="&#x45a;" horiz-adv-x="943" 
d="M45 0v594h202v-192h120v192h202v-190h89q258 0 258 -201v-6q0 -102 -68 -149.5t-188 -47.5h-293v248h-120v-248h-202zM643 140q33 0 51.5 14.5t19.5 40.5v7q0 58 -76 58h-69v-120h74z" />
    <glyph glyph-name="uni045B" unicode="&#x45b;" horiz-adv-x="628" 
d="M585 395v-395h-203v367q0 41 -15.5 61.5t-45.5 20.5q-36 0 -55 -29t-19 -73v-347h-202v633h-55v98h55v35h202v-35h176v-98h-176v-72l-5 -56h2q24 53 65.5 79.5t94.5 26.5q181 0 181 -216z" />
    <glyph glyph-name="uni045C" unicode="&#x45c;" horiz-adv-x="612" 
d="M611 0h-226l-83 221h-55v-221h-202v594h202v-204h53l71 204h220l-123 -291zM455 814l-129 -150h-116l67 150h178z" />
    <glyph glyph-name="uni045E" unicode="&#x45e;" horiz-adv-x="588" 
d="M112 -57q60 12 90.5 29t40.5 48l2 5h-79l-164 569h211l75 -351l5 -43h2l5 43l74 351h212l-157 -556q-28 -104 -98.5 -162t-192.5 -70zM143 791q0 16 1 25h108q-1 -7 -1 -19q0 -26 10.5 -36.5t34.5 -10.5q27 0 37.5 14.5t6.5 51.5h107q1 -10 1 -28q0 -134 -152 -134
q-153 0 -153 137z" />
    <glyph glyph-name="uni045F" unicode="&#x45f;" horiz-adv-x="622" 
d="M375 156v438h202v-594h-181v-96h-168v96h-183v594h202v-438h128z" />
    <glyph glyph-name="uni0462" unicode="&#x462;" horiz-adv-x="710" 
d="M358 514q129 0 194 -59t65 -198v-6q0 -135 -65.5 -193t-192.5 -58h-308v637h-42v118h423v-118h-166v-123h92zM409 260q0 54 -18.5 76.5t-64.5 22.5h-60v-204h63q44 0 62 23t18 75v7z" />
    <glyph glyph-name="uni0463" unicode="&#x463;" horiz-adv-x="655" 
d="M398 416q230 0 230 -192v-36q0 -188 -229 -188h-304v596h-90v90h90v80h203v-80h111v-90h-111v-180h100zM426 241q0 33 -15 47.5t-46 14.5h-67v-177h70q58 0 58 59v56z" />
    <glyph glyph-name="uni0490" unicode="&#x490;" horiz-adv-x="504" 
d="M326 744v96h170v-270h-231v-570h-214v744h275z" />
    <glyph glyph-name="uni0491" unicode="&#x491;" horiz-adv-x="454" 
d="M276 594v105h176v-261h-210v-438h-197v594h231z" />
    <glyph glyph-name="uni04D9" unicode="&#x4d9;" horiz-adv-x="581" 
d="M487.5 534.5q66.5 -76.5 66.5 -213.5v-52q0 -135 -68 -210.5t-199 -75.5q-127 0 -193 69.5t-66 205.5v87h324v10q0 105 -65 105q-34 0 -49.5 -18t-17.5 -56h-191q5 106 71.5 165.5t190.5 59.5q130 0 196.5 -76.5zM336 158q16 25 16 78v1h-132v-7q0 -50 15.5 -73.5
t50.5 -23.5q34 0 50 25z" />
    <glyph glyph-name="uni1E0C" unicode="&#x1e0c;" horiz-adv-x="672" 
d="M51 0v744h298q152 0 221 -82.5t69 -252.5v-75q0 -169 -68.5 -251.5t-220.5 -82.5h-299zM321 170q52 0 77.5 30.5t25.5 104.5v133q0 75 -25.5 105t-78.5 30h-54v-403h55zM268.5 -152.5q-21.5 14.5 -21.5 46.5q0 33 21.5 48t70.5 15t71 -15t22 -48q0 -32 -22 -46.5
t-71 -14.5t-70.5 14.5z" />
    <glyph glyph-name="uni1E0D" unicode="&#x1e0d;" horiz-adv-x="616" 
d="M368 766h203v-766h-203v31l6 55h-3q-22 -50 -64 -76.5t-93 -26.5q-98 0 -142.5 72.5t-44.5 223.5v41q0 147 44.5 219t142.5 72q52 0 93 -25.5t64 -77.5h2l-5 59v199zM351.5 169.5q16.5 28.5 16.5 75.5v100q0 108 -70 108q-40 0 -54 -31t-14 -84v-85q0 -56 13.5 -84
t53.5 -28q38 0 54.5 28.5zM236.5 -152.5q-21.5 14.5 -21.5 46.5q0 33 21.5 48t70.5 15t71 -15t22 -48q0 -32 -22 -46.5t-71 -14.5t-70.5 14.5z" />
    <glyph glyph-name="uni1E0E" unicode="&#x1e0e;" horiz-adv-x="672" 
d="M51 0v744h298q152 0 221 -82.5t69 -252.5v-75q0 -169 -68.5 -251.5t-220.5 -82.5h-299zM321 170q52 0 77.5 30.5t25.5 104.5v133q0 75 -25.5 105t-78.5 30h-54v-403h55zM492 -144h-322v104h322v-104z" />
    <glyph glyph-name="uni1E0F" unicode="&#x1e0f;" horiz-adv-x="616" 
d="M368 766h203v-766h-203v31l6 55h-3q-22 -50 -64 -76.5t-93 -26.5q-98 0 -142.5 72.5t-44.5 223.5v41q0 147 44.5 219t142.5 72q52 0 93 -25.5t64 -77.5h2l-5 59v199zM351.5 169.5q16.5 28.5 16.5 75.5v100q0 108 -70 108q-40 0 -54 -31t-14 -84v-85q0 -56 13.5 -84
t53.5 -28q38 0 54.5 28.5zM459 -144h-322v104h322v-104z" />
    <glyph glyph-name="uni1E20" unicode="&#x1e20;" horiz-adv-x="656" 
d="M108.5 64.5q-75.5 81.5 -75.5 241.5v130q0 161 75 242.5t224 81.5q147 0 220.5 -75t73.5 -216v-3h-212v20q0 45 -20 70.5t-62 25.5q-40 0 -62 -28.5t-22 -86.5v-192q0 -125 87 -125q86 0 89 96v6h-90v147h294v-76q0 -176 -70 -258t-225 -82q-149 0 -224.5 81.5zM486 790
h-322v120h322v-120z" />
    <glyph glyph-name="uni1E21" unicode="&#x1e21;" horiz-adv-x="616" 
d="M369 594h202v-518q0 -138 -73.5 -205.5t-224.5 -67.5q-99 0 -188 25l7 147q28 -9 69.5 -14.5t80.5 -5.5q121 0 128 97v1l4 68h-2q-22 -48 -63.5 -74t-93.5 -26q-98 0 -143 71.5t-45 216.5v18q0 144 45 214t143 70q52 0 94 -26.5t63 -76.5h2l-5 54v32zM352.5 204.5
q16.5 27.5 16.5 71.5v71q0 45 -16 75.5t-55 30.5t-53.5 -30t-14.5 -79v-69q0 -46 14.5 -72t53.5 -26q38 0 54.5 27.5zM473 660h-322v120h322v-120z" />
    <glyph glyph-name="uni1E24" unicode="&#x1e24;" horiz-adv-x="689" 
d="M422 463v281h216v-744h-216v288h-156v-288h-215v744h215v-281h156zM275.5 -152.5q-21.5 14.5 -21.5 46.5q0 33 21.5 48t70.5 15t71 -15t22 -48q0 -32 -22 -46.5t-71 -14.5t-70.5 14.5z" />
    <glyph glyph-name="uni1E25" unicode="&#x1e25;" horiz-adv-x="628" 
d="M585 395v-395h-203v367q0 41 -15.5 61.5t-45.5 20.5q-36 0 -55 -29t-19 -73v-347h-202v766h202v-205l-5 -56h2q24 53 65.5 79.5t94.5 26.5q181 0 181 -216zM242.5 -152.5q-21.5 14.5 -21.5 46.5q0 33 21.5 48t70.5 15t71 -15t22 -48q0 -32 -22 -46.5t-71 -14.5
t-70.5 14.5z" />
    <glyph glyph-name="uni1E2A" unicode="&#x1e2a;" horiz-adv-x="689" 
d="M422 463v281h216v-744h-216v288h-156v-288h-215v744h215v-281h156zM218 -61q0 13 1 20h91q-2 -28 6.5 -39t31.5 -11q22 0 31 11t7 39h91q1 -7 1 -19q0 -105 -130 -105t-130 104z" />
    <glyph glyph-name="uni1E2B" unicode="&#x1e2b;" horiz-adv-x="628" 
d="M585 395v-395h-203v367q0 41 -15.5 61.5t-45.5 20.5q-36 0 -55 -29t-19 -73v-347h-202v766h202v-205l-5 -56h2q24 53 65.5 79.5t94.5 26.5q181 0 181 -216zM185 -61q0 13 1 20h91q-2 -28 6.5 -39t31.5 -11q22 0 31 11t7 39h91q1 -7 1 -19q0 -105 -130 -105t-130 104z" />
    <glyph glyph-name="uni1E36" unicode="&#x1e36;" horiz-adv-x="519" 
d="M504 0h-453v744h215v-567h238v-177zM195.5 -152.5q-21.5 14.5 -21.5 46.5q0 33 21.5 48t70.5 15t71 -15t22 -48q0 -32 -22 -46.5t-71 -14.5t-70.5 14.5z" />
    <glyph glyph-name="uni1E37" unicode="&#x1e37;" horiz-adv-x="292" 
d="M247 0h-202v766h202v-766zM78.5 -152.5q-21.5 14.5 -21.5 46.5q0 33 21.5 48t70.5 15t71 -15t22 -48q0 -32 -22 -46.5t-71 -14.5t-70.5 14.5z" />
    <glyph glyph-name="uni1E38" unicode="&#x1e38;" horiz-adv-x="519" 
d="M504 0h-453v744h215v-567h238v-177zM195.5 -152.5q-21.5 14.5 -21.5 46.5q0 33 21.5 48t70.5 15t71 -15t22 -48q0 -32 -22 -46.5t-71 -14.5t-70.5 14.5zM321 790h-322v120h322v-120z" />
    <glyph glyph-name="uni1E39" unicode="&#x1e39;" horiz-adv-x="292" 
d="M247 0h-202v766h202v-766zM78.5 -152.5q-21.5 14.5 -21.5 46.5q0 33 21.5 48t70.5 15t71 -15t22 -48q0 -32 -22 -46.5t-71 -14.5t-70.5 14.5zM301 783h-322v120h322v-120z" />
    <glyph glyph-name="uni1E3A" unicode="&#x1e3a;" horiz-adv-x="519" 
d="M504 0h-453v744h215v-567h238v-177zM418 -144h-322v104h322v-104z" />
    <glyph glyph-name="uni1E3B" unicode="&#x1e3b;" horiz-adv-x="292" 
d="M247 0h-202v766h202v-766zM301 -144h-322v104h322v-104z" />
    <glyph glyph-name="uni1E42" unicode="&#x1e42;" horiz-adv-x="850" 
d="M256 0h-205v744h258l107 -386l8 -36h2l9 36l106 386h258v-744h-204v365l2 80h-2l-10 -33l-94 -320h-132l-94 320l-10 33h-2l3 -80v-365zM355.5 -152.5q-21.5 14.5 -21.5 46.5q0 33 21.5 48t70.5 15t71 -15t22 -48q0 -32 -22 -46.5t-71 -14.5t-70.5 14.5z" />
    <glyph glyph-name="uni1E43" unicode="&#x1e43;" horiz-adv-x="951" 
d="M45 0v594h202v-33l-5 -56h2q23 52 66 79t99 27q61 0 101.5 -28.5t56.5 -78.5h2q23 51 66 79t99 28q100 0 137 -67t37 -170v-374h-203v361q0 40 -12 64t-45 24q-32 0 -51 -28.5t-19 -70.5v-350h-203v366q0 83 -58 83q-32 0 -51 -28.5t-19 -70.5v-350h-202zM404.5 -152.5
q-21.5 14.5 -21.5 46.5q0 33 21.5 48t70.5 15t71 -15t22 -48q0 -32 -22 -46.5t-71 -14.5t-70.5 14.5z" />
    <glyph glyph-name="uni1E44" unicode="&#x1e44;" horiz-adv-x="710" 
d="M257 0h-206v744h222l157 -347l22 -54h2l-1 61v340h205v-744h-221l-157 344l-23 53h-1l1 -61v-336zM290.5 804q-19.5 15 -19.5 48t19.5 48.5t64.5 15.5q44 0 64 -15.5t20 -48.5t-20 -48t-64 -15q-45 0 -64.5 15z" />
    <glyph glyph-name="uni1E45" unicode="&#x1e45;" horiz-adv-x="627" 
d="M585 394v-394h-203v368q0 40 -16 60.5t-46 20.5q-36 0 -54.5 -29t-18.5 -73v-347h-202v594h202v-32l-5 -57h1q49 106 161 106q181 0 181 -217zM231 683.5q-24 17.5 -24 56.5t24 56.5t79 17.5q54 0 78.5 -17.5t24.5 -56.5t-24.5 -56.5t-78.5 -17.5q-55 0 -79 17.5z" />
    <glyph glyph-name="uni1E46" unicode="&#x1e46;" horiz-adv-x="710" 
d="M257 0h-206v744h222l157 -347l22 -54h2l-1 61v340h205v-744h-221l-157 344l-23 53h-1l1 -61v-336zM286.5 -152.5q-21.5 14.5 -21.5 46.5q0 33 21.5 48t70.5 15t71 -15t22 -48q0 -32 -22 -46.5t-71 -14.5t-70.5 14.5z" />
    <glyph glyph-name="uni1E47" unicode="&#x1e47;" horiz-adv-x="627" 
d="M585 394v-394h-203v368q0 40 -16 60.5t-46 20.5q-36 0 -54.5 -29t-18.5 -73v-347h-202v594h202v-32l-5 -57h1q49 106 161 106q181 0 181 -217zM242.5 -152.5q-21.5 14.5 -21.5 46.5q0 33 21.5 48t70.5 15t71 -15t22 -48q0 -32 -22 -46.5t-71 -14.5t-70.5 14.5z" />
    <glyph glyph-name="uni1E48" unicode="&#x1e48;" horiz-adv-x="710" 
d="M257 0h-206v744h222l157 -347l22 -54h2l-1 61v340h205v-744h-221l-157 344l-23 53h-1l1 -61v-336zM509 -144h-322v104h322v-104z" />
    <glyph glyph-name="uni1E49" unicode="&#x1e49;" horiz-adv-x="627" 
d="M585 394v-394h-203v368q0 40 -16 60.5t-46 20.5q-36 0 -54.5 -29t-18.5 -73v-347h-202v594h202v-32l-5 -57h1q49 106 161 106q181 0 181 -217zM466 -144h-322v104h322v-104z" />
    <glyph glyph-name="uni1E5A" unicode="&#x1e5a;" horiz-adv-x="646" 
d="M51 0v744h301q136 0 203.5 -57.5t67.5 -165.5v-8q0 -71 -31 -119t-88 -64v-1q97 -23 107 -173l5 -64q5 -62 19 -92h-214q-10 36 -17 118l-5 53q-4 38 -23.5 56t-59.5 18h-50v-245h-215zM330 395q38 0 58.5 21t20.5 70v9q0 83 -73 83h-70v-183h64zM264.5 -152.5
q-21.5 14.5 -21.5 46.5q0 33 21.5 48t70.5 15t71 -15t22 -48q0 -32 -22 -46.5t-71 -14.5t-70.5 14.5z" />
    <glyph glyph-name="uni1E5B" unicode="&#x1e5b;" horiz-adv-x="447" 
d="M438 603v-180q-28 7 -60 7q-63 0 -97 -39t-34 -113v-278h-202v594h202v-33l-6 -58h2q17 51 54.5 79.5t84.5 28.5q32 0 56 -8zM71.5 -152.5q-21.5 14.5 -21.5 46.5q0 33 21.5 48t70.5 15t71 -15t22 -48q0 -32 -22 -46.5t-71 -14.5t-70.5 14.5z" />
    <glyph glyph-name="uni1E5C" unicode="&#x1e5c;" horiz-adv-x="646" 
d="M51 0v744h301q136 0 203.5 -57.5t67.5 -165.5v-8q0 -71 -31 -119t-88 -64v-1q97 -23 107 -173l5 -64q5 -62 19 -92h-214q-10 36 -17 118l-5 53q-4 38 -23.5 56t-59.5 18h-50v-245h-215zM330 395q38 0 58.5 21t20.5 70v9q0 83 -73 83h-70v-183h64zM264.5 -152.5
q-21.5 14.5 -21.5 46.5q0 33 21.5 48t70.5 15t71 -15t22 -48q0 -32 -22 -46.5t-71 -14.5t-70.5 14.5zM488 790h-322v120h322v-120z" />
    <glyph glyph-name="uni1E5D" unicode="&#x1e5d;" horiz-adv-x="447" 
d="M438 603v-180q-28 7 -60 7q-63 0 -97 -39t-34 -113v-278h-202v594h202v-33l-6 -58h2q17 51 54.5 79.5t84.5 28.5q32 0 56 -8zM71.5 -152.5q-21.5 14.5 -21.5 46.5q0 33 21.5 48t70.5 15t71 -15t22 -48q0 -32 -22 -46.5t-71 -14.5t-70.5 14.5zM391 660h-322v120h322v-120z
" />
    <glyph glyph-name="uni1E5E" unicode="&#x1e5e;" horiz-adv-x="646" 
d="M51 0v744h301q136 0 203.5 -57.5t67.5 -165.5v-8q0 -71 -31 -119t-88 -64v-1q97 -23 107 -173l5 -64q5 -62 19 -92h-214q-10 36 -17 118l-5 53q-4 38 -23.5 56t-59.5 18h-50v-245h-215zM330 395q38 0 58.5 21t20.5 70v9q0 83 -73 83h-70v-183h64zM488 -144h-322v104h322
v-104z" />
    <glyph glyph-name="uni1E5F" unicode="&#x1e5f;" horiz-adv-x="447" 
d="M438 603v-180q-28 7 -60 7q-63 0 -97 -39t-34 -113v-278h-202v594h202v-33l-6 -58h2q17 51 54.5 79.5t84.5 28.5q32 0 56 -8zM294 -144h-322v104h322v-104z" />
    <glyph glyph-name="uni1E60" unicode="&#x1e60;" horiz-adv-x="615" 
d="M95.5 47q-72.5 64 -73.5 189h207q0 -88 82 -88q34 0 51 16.5t17 44.5q0 27 -11.5 42t-35.5 26.5t-87 35.5q-82 27 -128 57t-65.5 70t-19.5 101v1q0 102 72 160t202 58q137 0 206.5 -66.5t68.5 -184.5h-198q-1 41 -18.5 63t-57.5 22q-32 0 -47.5 -14.5t-15.5 -38.5v-1
q0 -28 20.5 -44t70.5 -32q100 -30 155.5 -64.5t79 -80t23.5 -111.5q0 -107 -76 -166t-207 -59q-142 0 -214.5 64zM244.5 804q-19.5 15 -19.5 48t19.5 48.5t64.5 15.5q44 0 64 -15.5t20 -48.5t-20 -48t-64 -15q-45 0 -64.5 15z" />
    <glyph glyph-name="uni1E61" unicode="&#x1e61;" horiz-adv-x="571" 
d="M89.5 40q-65.5 56 -65.5 159h194q1 -73 74 -73q28 0 42 11.5t14 32.5v2q0 25 -18.5 38t-71.5 24q-86 19 -135 45.5t-69 63.5t-20 91v1q0 81 58.5 128.5t186.5 47.5t190 -51.5t62 -144.5h-184q-1 24 -16 39t-46 15q-51 0 -51 -39v-1q0 -23 18 -35t70 -23
q122 -24 174.5 -70.5t52.5 -129.5q0 -91 -66.5 -139t-195.5 -48q-132 0 -197.5 56zM206 683.5q-24 17.5 -24 56.5t24 56.5t79 17.5q54 0 78.5 -17.5t24.5 -56.5t-24.5 -56.5t-78.5 -17.5q-55 0 -79 17.5z" />
    <glyph glyph-name="uni1E62" unicode="&#x1e62;" horiz-adv-x="615" 
d="M95.5 47q-72.5 64 -73.5 189h207q0 -88 82 -88q34 0 51 16.5t17 44.5q0 27 -11.5 42t-35.5 26.5t-87 35.5q-82 27 -128 57t-65.5 70t-19.5 101v1q0 102 72 160t202 58q137 0 206.5 -66.5t68.5 -184.5h-198q-1 41 -18.5 63t-57.5 22q-32 0 -47.5 -14.5t-15.5 -38.5v-1
q0 -28 20.5 -44t70.5 -32q100 -30 155.5 -64.5t79 -80t23.5 -111.5q0 -107 -76 -166t-207 -59q-142 0 -214.5 64zM240.5 -152.5q-21.5 14.5 -21.5 46.5q0 33 21.5 48t70.5 15t71 -15t22 -48q0 -32 -22 -46.5t-71 -14.5t-70.5 14.5z" />
    <glyph glyph-name="uni1E63" unicode="&#x1e63;" horiz-adv-x="571" 
d="M89.5 40q-65.5 56 -65.5 159h194q1 -73 74 -73q28 0 42 11.5t14 32.5v2q0 25 -18.5 38t-71.5 24q-86 19 -135 45.5t-69 63.5t-20 91v1q0 81 58.5 128.5t186.5 47.5t190 -51.5t62 -144.5h-184q-1 24 -16 39t-46 15q-51 0 -51 -39v-1q0 -23 18 -35t70 -23
q122 -24 174.5 -70.5t52.5 -129.5q0 -91 -66.5 -139t-195.5 -48q-132 0 -197.5 56zM217.5 -152.5q-21.5 14.5 -21.5 46.5q0 33 21.5 48t70.5 15t71 -15t22 -48q0 -32 -22 -46.5t-71 -14.5t-70.5 14.5z" />
    <glyph glyph-name="uni1E6C" unicode="&#x1e6c;" horiz-adv-x="544" 
d="M379 0h-215v566h-156v178h528v-178h-157v-566zM202.5 -154.5q-21.5 14.5 -21.5 46.5q0 33 21.5 48t70.5 15t71 -15t22 -48q0 -32 -22 -46.5t-71 -14.5t-70.5 14.5z" />
    <glyph glyph-name="uni1E6D" unicode="&#x1e6d;" horiz-adv-x="415" 
d="M407 160v-159q-67 -18 -137 -18q-102 0 -149 54t-47 158v241h-67v158h67v131h203v-131h122v-158h-122v-199q0 -44 14.5 -63.5t48.5 -19.5q32 0 67 6zM178.5 -152.5q-21.5 14.5 -21.5 46.5q0 33 21.5 48t70.5 15t71 -15t22 -48q0 -32 -22 -46.5t-71 -14.5t-70.5 14.5z" />
    <glyph glyph-name="uni1E6E" unicode="&#x1e6e;" horiz-adv-x="544" 
d="M379 0h-215v566h-156v178h528v-178h-157v-566zM426 -146h-322v104h322v-104z" />
    <glyph glyph-name="uni1E6F" unicode="&#x1e6f;" horiz-adv-x="415" 
d="M407 160v-159q-67 -18 -137 -18q-102 0 -149 54t-47 158v241h-67v158h67v131h203v-131h122v-158h-122v-199q0 -44 14.5 -63.5t48.5 -19.5q32 0 67 6zM402 -144h-322v104h322v-104z" />
    <glyph glyph-name="Wgrave" unicode="&#x1e80;" horiz-adv-x="995" 
d="M425 0h-272l-147 744h216l70 -504l8 -59h1l8 59l71 504h236l70 -504l8 -59h2l7 59l70 504h217l-147 -744h-272l-65 482l-7 60h-3l-6 -60zM626 791h-115l-135 151h177z" />
    <glyph glyph-name="wgrave" unicode="&#x1e81;" horiz-adv-x="887" 
d="M379 0h-252l-125 594h208l56 -374l3 -46h2l5 46l67 374h202l67 -374l4 -46h3l3 46l56 374h208l-125 -594h-253l-60 365l-3 25h-3l-2 -25zM543 664h-115l-129 150h177z" />
    <glyph glyph-name="Wacute" unicode="&#x1e82;" horiz-adv-x="995" 
d="M425 0h-272l-147 744h216l70 -504l8 -59h1l8 59l71 504h236l70 -504l8 -59h2l7 59l70 504h217l-147 -744h-272l-65 482l-7 60h-3l-6 -60zM641 942l-135 -151h-116l73 151h178z" />
    <glyph glyph-name="wacute" unicode="&#x1e83;" horiz-adv-x="887" 
d="M379 0h-252l-125 594h208l56 -374l3 -46h2l5 46l67 374h202l67 -374l4 -46h3l3 46l56 374h208l-125 -594h-253l-60 365l-3 25h-3l-2 -25zM594 814l-129 -150h-116l67 150h178z" />
    <glyph glyph-name="Wdieresis" unicode="&#x1e84;" horiz-adv-x="995" 
d="M425 0h-272l-147 744h216l70 -504l8 -59h1l8 59l71 504h236l70 -504l8 -59h2l7 59l70 504h217l-147 -744h-272l-65 482l-7 60h-3l-6 -60zM334 866q0 77 77 77t77 -77t-77 -77t-77 77zM530 866q0 77 77 77t77 -77t-77 -77t-77 77z" />
    <glyph glyph-name="wdieresis" unicode="&#x1e85;" horiz-adv-x="887" 
d="M379 0h-252l-125 594h208l56 -374l3 -46h2l5 46l67 374h202l67 -374l4 -46h3l3 46l56 374h208l-125 -594h-253l-60 365l-3 25h-3l-2 -25zM264 682.5q-22 20.5 -22 64.5t22 65t69 21q48 0 69.5 -21t21.5 -65t-21.5 -64.5t-69.5 -20.5q-47 0 -69 20.5zM484 682.5
q-22 20.5 -22 64.5t22 65t69 21q48 0 69.5 -21t21.5 -65t-21.5 -64.5t-69.5 -20.5q-47 0 -69 20.5z" />
    <glyph glyph-name="uni1E8E" unicode="&#x1e8e;" horiz-adv-x="645" 
d="M431 0h-216v204l-209 540h230l79 -298l7 -38h1l8 38l77 298h232l-209 -540v-204zM260.5 804q-19.5 15 -19.5 48t19.5 48.5t64.5 15.5q44 0 64 -15.5t20 -48.5t-20 -48t-64 -15q-45 0 -64.5 15z" />
    <glyph glyph-name="uni1E8F" unicode="&#x1e8f;" horiz-adv-x="588" 
d="M112 -57q60 12 90.5 29t40.5 48l2 5h-79l-164 569h211l75 -351l5 -43h2l5 43l74 351h212l-157 -556q-28 -104 -98.5 -162t-192.5 -70zM216 683.5q-24 17.5 -24 56.5t24 56.5t79 17.5q54 0 78.5 -17.5t24.5 -56.5t-24.5 -56.5t-78.5 -17.5q-55 0 -79 17.5z" />
    <glyph glyph-name="uni1E92" unicode="&#x1e92;" horiz-adv-x="564" 
d="M550 0h-535v162l272 396h-259v186h513v-155l-274 -404h283v-185zM214.5 -152.5q-21.5 14.5 -21.5 46.5q0 33 21.5 48t70.5 15t71 -15t22 -48q0 -32 -22 -46.5t-71 -14.5t-70.5 14.5z" />
    <glyph glyph-name="uni1E93" unicode="&#x1e93;" horiz-adv-x="515" 
d="M498 0h-480v137l234 301h-216v156h458v-148l-235 -290h239v-156zM192.5 -152.5q-21.5 14.5 -21.5 46.5q0 33 21.5 48t70.5 15t71 -15t22 -48q0 -32 -22 -46.5t-71 -14.5t-70.5 14.5z" />
    <glyph glyph-name="uni1E97" unicode="&#x1e97;" horiz-adv-x="415" 
d="M407 160v-159q-67 -18 -137 -18q-102 0 -149 54t-47 158v241h-67v158h67v131h203v-131h122v-158h-122v-199q0 -44 14.5 -63.5t48.5 -19.5q32 0 67 6zM5 760.5q-22 20.5 -22 64.5t22 65t69 21q48 0 69.5 -21t21.5 -65t-21.5 -64.5t-69.5 -20.5q-47 0 -69 20.5zM225 760.5
q-22 20.5 -22 64.5t22 65t69 21q48 0 69.5 -21t21.5 -65t-21.5 -64.5t-69.5 -20.5q-47 0 -69 20.5z" />
    <glyph glyph-name="uni1E9E" unicode="&#x1e9e;" horiz-adv-x="625" 
d="M48 527q0 112 57 164.5t171 52.5h283v-151l-101 -163q75 -7 107.5 -56.5t32.5 -121.5v-16q0 -123 -61.5 -179.5t-189.5 -56.5h-43v164h13q34 0 51.5 16t17.5 63v19q0 40 -19 55t-64 15v110l73 130h-64q-34 0 -48.5 -18t-14.5 -58v-496h-201v527z" />
    <glyph glyph-name="uni1EA0" unicode="&#x1ea0;" horiz-adv-x="687" 
d="M682 0h-223l-25 124h-180l-26 -124h-222l193 744h289zM331 496l-44 -212h114l-44 212l-12 68h-2zM263.5 -152.5q-21.5 14.5 -21.5 46.5q0 33 21.5 48t70.5 15t71 -15t22 -48q0 -32 -22 -46.5t-71 -14.5t-70.5 14.5z" />
    <glyph glyph-name="uni1EA1" unicode="&#x1ea1;" horiz-adv-x="603" 
d="M498.5 547.5q61.5 -63.5 61.5 -180.5v-367h-202v38l5 44h-2q-45 -99 -153 -99q-88 0 -135.5 50.5t-47.5 135.5q0 87 55 135.5t165 48.5q57 0 113 -17v48q0 76 -63 76q-31 0 -46 -20t-15 -48v-9h-195q1 101 63 164.5t195 63.5q140 0 201.5 -63.5zM340 165.5
q18 28.5 18 74.5v5q-13 7 -32.5 11.5t-37.5 4.5q-64 0 -64 -62q0 -32 14 -47t45 -15q39 0 57 28.5zM231.5 -152.5q-21.5 14.5 -21.5 46.5q0 33 21.5 48t70.5 15t71 -15t22 -48q0 -32 -22 -46.5t-71 -14.5t-70.5 14.5z" />
    <glyph glyph-name="uni1EA2" unicode="&#x1ea2;" horiz-adv-x="687" 
d="M682 0h-223l-25 124h-180l-26 -124h-222l193 744h289zM331 496l-44 -212h114l-44 212l-12 68h-2zM298 787q42 60 42 88q0 13 -14 13q-8 0 -12 -5.5t-3 -22.5h-74q-2 51 23.5 77t74.5 26q45 0 68 -19.5t23 -50.5q0 -39 -44 -106h-84z" />
    <glyph glyph-name="uni1EA3" unicode="&#x1ea3;" horiz-adv-x="603" 
d="M498.5 547.5q61.5 -63.5 61.5 -180.5v-367h-202v38l5 44h-2q-45 -99 -153 -99q-88 0 -135.5 50.5t-47.5 135.5q0 87 55 135.5t165 48.5q57 0 113 -17v48q0 76 -63 76q-31 0 -46 -20t-15 -48v-9h-195q1 101 63 164.5t195 63.5q140 0 201.5 -63.5zM340 165.5
q18 28.5 18 74.5v5q-13 7 -32.5 11.5t-37.5 4.5q-64 0 -64 -62q0 -32 14 -47t45 -15q39 0 57 28.5zM267 659q42 60 42 85q0 13 -14 13q-8 0 -12 -5.5t-3 -22.5h-74q-2 51 23.5 77t74.5 26q45 0 68 -19.5t23 -50.5q0 -22 -11.5 -46.5t-32.5 -56.5h-84z" />
    <glyph glyph-name="uni1EA4" unicode="&#x1ea4;" horiz-adv-x="687" 
d="M682 0h-223l-25 124h-180l-26 -124h-222l193 744h289zM331 496l-44 -212h114l-44 212l-12 68h-2zM634 981l-92 -122l-81 -2l48 121zM272 790h-107l90 150h153l90 -150h-107l-59 70z" />
    <glyph glyph-name="uni1EA5" unicode="&#x1ea5;" horiz-adv-x="603" 
d="M498.5 547.5q61.5 -63.5 61.5 -180.5v-367h-202v38l5 44h-2q-45 -99 -153 -99q-88 0 -135.5 50.5t-47.5 135.5q0 87 55 135.5t165 48.5q57 0 113 -17v48q0 76 -63 76q-31 0 -46 -20t-15 -48v-9h-195q1 101 63 164.5t195 63.5q140 0 201.5 -63.5zM340 165.5
q18 28.5 18 74.5v5q-13 7 -32.5 11.5t-37.5 4.5q-64 0 -64 -62q0 -32 14 -47t45 -15q39 0 57 28.5zM617 851l-87 -122l-81 -1l44 121zM242 660h-107l90 150h153l90 -150h-107l-59 70z" />
    <glyph glyph-name="uni1EA6" unicode="&#x1ea6;" horiz-adv-x="687" 
d="M682 0h-223l-25 124h-180l-26 -124h-222l193 744h289zM331 496l-44 -212h114l-44 212l-12 68h-2zM551 916h-81l-94 120h124zM410 941l90 -151h-107l-60 70l-59 -70h-107l90 151h153z" />
    <glyph glyph-name="uni1EA7" unicode="&#x1ea7;" horiz-adv-x="603" 
d="M498.5 547.5q61.5 -63.5 61.5 -180.5v-367h-202v38l5 44h-2q-45 -99 -153 -99q-88 0 -135.5 50.5t-47.5 135.5q0 87 55 135.5t165 48.5q57 0 113 -17v48q0 76 -63 76q-31 0 -46 -20t-15 -48v-9h-195q1 101 63 164.5t195 63.5q140 0 201.5 -63.5zM340 165.5
q18 28.5 18 74.5v5q-13 7 -32.5 11.5t-37.5 4.5q-64 0 -64 -62q0 -32 14 -47t45 -15q39 0 57 28.5zM500 785h-81l-90 121h124zM377 810l90 -150h-107l-60 70l-59 -70h-107l90 150h153z" />
    <glyph glyph-name="uni1EA8" unicode="&#x1ea8;" horiz-adv-x="687" 
d="M682 0h-223l-25 124h-180l-26 -124h-222l193 744h289zM331 496l-44 -212h114l-44 212l-12 68h-2zM476 870q31 42 31 62q0 10 -10 10q-6 0 -9 -4.5t-3 -16.5h-53q-1 37 17.5 56t53.5 19q32 0 49 -14t17 -37q0 -16 -8 -33.5t-24 -41.5h-61zM271 791h-107l90 151h153
l90 -151h-107l-59 70z" />
    <glyph glyph-name="uni1EA9" unicode="&#x1ea9;" horiz-adv-x="603" 
d="M498.5 547.5q61.5 -63.5 61.5 -180.5v-367h-202v38l5 44h-2q-45 -99 -153 -99q-88 0 -135.5 50.5t-47.5 135.5q0 87 55 135.5t165 48.5q57 0 113 -17v48q0 76 -63 76q-31 0 -46 -20t-15 -48v-9h-195q1 101 63 164.5t195 63.5q140 0 201.5 -63.5zM340 165.5
q18 28.5 18 74.5v5q-13 7 -32.5 11.5t-37.5 4.5q-64 0 -64 -62q0 -32 14 -47t45 -15q39 0 57 28.5zM445 738q31 47 31 63q0 9 -10 9q-6 0 -9 -4t-2 -16h-55q-1 37 18 56t55 19q32 0 49 -14.5t17 -36.5q0 -16 -8.5 -33.5t-24.5 -42.5h-61zM240 660h-107l90 150h153l90 -150
h-107l-59 70z" />
    <glyph glyph-name="uni1EAA" unicode="&#x1eaa;" horiz-adv-x="687" 
d="M682 0h-223l-25 124h-180l-26 -124h-222l193 744h289zM331 496l-44 -212h114l-44 212l-12 68h-2zM348.5 975q-14.5 4 -31.5 12q-16 8 -24 8q-15 0 -18 -23l-66 10q2 91 71 91q28 0 65 -16q3 -1 11 -4.5t14 -3.5q16 0 17 24l66 -10q-2 -92 -71 -92q-19 0 -33.5 4zM272 791
h-107l90 150h153l90 -150h-107l-59 70z" />
    <glyph glyph-name="uni1EAB" unicode="&#x1eab;" horiz-adv-x="603" 
d="M498.5 547.5q61.5 -63.5 61.5 -180.5v-367h-202v38l5 44h-2q-45 -99 -153 -99q-88 0 -135.5 50.5t-47.5 135.5q0 87 55 135.5t165 48.5q57 0 113 -17v48q0 76 -63 76q-31 0 -46 -20t-15 -48v-9h-195q1 101 63 164.5t195 63.5q140 0 201.5 -63.5zM340 165.5
q18 28.5 18 74.5v5q-13 7 -32.5 11.5t-37.5 4.5q-64 0 -64 -62q0 -32 14 -47t45 -15q39 0 57 28.5zM316.5 844q-14.5 4 -31.5 12q-16 8 -24 8q-15 0 -18 -24l-66 10q2 91 71 91q18 0 31.5 -3.5t33.5 -11.5q16 -8 25 -8q16 0 17 23l66 -10q-2 -91 -71 -91q-19 0 -33.5 4z
M240 660h-107l90 150h153l90 -150h-107l-59 70z" />
    <glyph glyph-name="uni1EAC" unicode="&#x1eac;" horiz-adv-x="687" 
d="M682 0h-223l-25 124h-180l-26 -124h-222l193 744h289zM331 496l-44 -212h114l-44 212l-12 68h-2zM263.5 -152.5q-21.5 14.5 -21.5 46.5q0 33 21.5 48t70.5 15t71 -15t22 -48q0 -32 -22 -46.5t-71 -14.5t-70.5 14.5zM272 790h-107l90 150h153l90 -150h-107l-59 70z" />
    <glyph glyph-name="uni1EAD" unicode="&#x1ead;" horiz-adv-x="603" 
d="M498.5 547.5q61.5 -63.5 61.5 -180.5v-367h-202v38l5 44h-2q-45 -99 -153 -99q-88 0 -135.5 50.5t-47.5 135.5q0 87 55 135.5t165 48.5q57 0 113 -17v48q0 76 -63 76q-31 0 -46 -20t-15 -48v-9h-195q1 101 63 164.5t195 63.5q140 0 201.5 -63.5zM340 165.5
q18 28.5 18 74.5v5q-13 7 -32.5 11.5t-37.5 4.5q-64 0 -64 -62q0 -32 14 -47t45 -15q39 0 57 28.5zM231.5 -152.5q-21.5 14.5 -21.5 46.5q0 33 21.5 48t70.5 15t71 -15t22 -48q0 -32 -22 -46.5t-71 -14.5t-70.5 14.5zM240 659h-107l90 151h153l90 -151h-107l-59 70z" />
    <glyph glyph-name="uni1EAE" unicode="&#x1eae;" horiz-adv-x="687" 
d="M682 0h-223l-25 124h-180l-26 -124h-222l193 744h289zM331 496l-44 -212h114l-44 212l-12 68h-2zM449 1080l-110 -119l-92 2l60 120zM179 921q0 17 1 26h108q-1 -7 -1 -19q0 -26 10.5 -36.5t34.5 -10.5q27 0 37.5 14.5t6.5 51.5h107q1 -10 1 -28q0 -134 -152 -134
q-153 0 -153 136z" />
    <glyph glyph-name="uni1EAF" unicode="&#x1eaf;" horiz-adv-x="603" 
d="M498.5 547.5q61.5 -63.5 61.5 -180.5v-367h-202v38l5 44h-2q-45 -99 -153 -99q-88 0 -135.5 50.5t-47.5 135.5q0 87 55 135.5t165 48.5q57 0 113 -17v48q0 76 -63 76q-31 0 -46 -20t-15 -48v-9h-195q1 101 63 164.5t195 63.5q140 0 201.5 -63.5zM340 165.5
q18 28.5 18 74.5v5q-13 7 -32.5 11.5t-37.5 4.5q-64 0 -64 -62q0 -32 14 -47t45 -15q39 0 57 28.5zM432 948l-105 -118l-92 2l56 120zM147 791q0 16 1 25h108q-1 -7 -1 -19q0 -26 10.5 -36.5t34.5 -10.5q27 0 37.5 14.5t6.5 51.5h107q1 -10 1 -28q0 -134 -152 -134
q-153 0 -153 137z" />
    <glyph glyph-name="uni1EB0" unicode="&#x1eb0;" horiz-adv-x="687" 
d="M682 0h-223l-25 124h-180l-26 -124h-222l193 744h289zM331 496l-44 -212h114l-44 212l-12 68h-2zM417 963l-92 -2l-110 118l141 4zM179 921q0 17 1 26h107l-1 -16q0 -28 11 -39t35 -11q27 0 37 14t7 52h108q1 -9 1 -26q0 -136 -153 -136t-153 136z" />
    </font>
</defs>
</svg>
