<?xml version="1.0" standalone="no"?>
<!DOCTYPE svg PUBLIC "-//W3C//DTD SVG 1.1//EN" "http://www.w3.org/Graphics/SVG/1.1/DTD/svg11.dtd" >
<svg xmlns="http://www.w3.org/2000/svg" xmlns:xlink="http://www.w3.org/1999/xlink" version="1.1">
<metadata>
Created by FontForge 20201107 at Mon Sep  1 04:10:51 2025
 By 
Copyright (c) 2014 Commercial Type. All rights reserved. Viet hoa boi STYLEno.1 Fonts
</metadata>
<defs>
<font id="SVN-DrukWide-Bold" horiz-adv-x="1445" >
  <font-face 
    font-family="SVN-Druk Wide"
    font-weight="700"
    font-stretch="expanded"
    units-per-em="2048"
    panose-1="0 0 0 0 0 0 0 0 0 0"
    ascent="1638"
    descent="-410"
    x-height="1102"
    cap-height="1524"
    bbox="-233 -612 5421 2550"
    underline-thickness="102"
    underline-position="-204"
    unicode-range="U+000D-FB02"
  />
<missing-glyph horiz-adv-x="1007" 
d="M0 0v1413h1008v-1413h-1008zM563 707l344 -514v1030zM444 707l-344 516v-1030zM162 1313l342 -516l344 516h-686zM846 100l-342 516l-342 -516h684z" />
    <glyph glyph-name=".notdef" horiz-adv-x="1007" 
d="M0 0v1413h1008v-1413h-1008zM563 707l344 -514v1030zM444 707l-344 516v-1030zM162 1313l342 -516l344 516h-686zM846 100l-342 516l-342 -516h684z" />
    <glyph glyph-name=".null" horiz-adv-x="0" 
 />
    <glyph glyph-name="nonmarkingreturn" horiz-adv-x="682" 
 />
    <glyph glyph-name="NULL" horiz-adv-x="0" 
 />
    <glyph glyph-name="NULL" horiz-adv-x="0" 
 />
    <glyph glyph-name="CR" unicode="&#xd;" horiz-adv-x="622" 
 />
    <glyph glyph-name="space" unicode=" " horiz-adv-x="622" 
 />
    <glyph glyph-name="exclam" unicode="!" horiz-adv-x="780" 
d="M219 492l-186 1032h715l-189 -1032h-340zM100 399h580v-399h-580v399z" />
    <glyph glyph-name="quotedbl" unicode="&#x22;" horiz-adv-x="1110" 
d="M600 1524h444v-537h-444v537zM66 1524h442v-537h-442v537z" />
    <glyph glyph-name="numbersign" unicode="#" horiz-adv-x="1710" 
d="M676 670h282l72 254h-282zM1112 0h-340l117 416h-283l-117 -416h-339l116 416h-260l70 254h260l70 254h-261l72 254h260l96 346h342l-98 -346h285l96 346h342l-98 -346h262l-72 -254h-260l-72 -254h263l-72 -254h-262z" />
    <glyph glyph-name="dollar" unicode="$" horiz-adv-x="2062" 
d="M635 1104v-4q0 -53 60 -82t214 -39v244q-91 -3 -149 -13t-84 -28t-33.5 -35t-7.5 -43zM1419 461v8q0 62 -61 92q-58 33 -250 45v-297q186 6 248 47q63 42 63 105zM1108 -27v-127h-199v127q-882 12 -882 539v23h598q0 -192 284 -222v299l-143 6q-719 21 -719 453v19
q0 78 22.5 141.5t81.5 122.5t154 99.5t248.5 64.5t355.5 24v121h199v-121q870 -12 870 -473v-18h-592q-3 36 -20 67q-15 33 -83 63t-175 40v-250l149 -6q417 -12 596 -117t179 -330v-29q0 -92 -22 -160t-81 -134q-59 -71 -160 -117q-105 -47 -275.5 -76t-385.5 -29z" />
    <glyph glyph-name="percent" unicode="%" horiz-adv-x="2971" 
d="M700 657h-45q-141 0 -256 29.5t-186 75.5q-61 44 -102 106q-64 103 -64 219v33q0 146 107 266q62 71 191.5 112.5t309.5 41.5h45q143 0 258.5 -28.5t182.5 -73.5q48 -33 82.5 -74.5t51.5 -84.5t24.5 -81.5t7.5 -77.5v-33q0 -116 -64 -219q-41 -62 -102 -106
q-68 -46 -183.5 -75.5t-257.5 -29.5zM428 0l1671 1524h441l-1672 -1524h-440zM676 928q116 0 175.5 47t59.5 121v12q0 166 -235 166q-118 0 -176 -44.5t-58 -121.5v-10q0 -76 60 -123t174 -47zM2318 -16h-49q-142 0 -256.5 29t-181.5 75q-66 47 -105 107q-63 101 -63 219v32
q0 119 63 218q127 199 545 204h45q143 0 258.5 -28.5t182.5 -73.5q168 -113 168 -320v-32q0 -116 -64 -219q-42 -64 -102 -107q-67 -46 -183 -75t-258 -29zM2529 422v14q0 76 -58.5 120t-176.5 44q-236 0 -236 -164v-10q0 -77 59.5 -124.5t176.5 -47.5q116 0 175.5 47
t59.5 121z" />
    <glyph glyph-name="ampersand" unicode="&#x26;" horiz-adv-x="2342" 
d="M844 1182q0 -51 43 -97q40 -37 166 -124q252 79 252 192q0 68 -57 101.5t-189 33.5q-215 0 -215 -106zM1024 285q158 0 272 24l-575 379q-115 -59 -115 -166v-6q0 -102 106 -166.5t312 -64.5zM2357 348l-143 -371q-347 0 -563 113q-265 -119 -668 -119
q-267 0 -462.5 36.5t-301.5 103.5q-101 65 -147.5 140t-46.5 169v20q0 305 497 381q-205 153 -205 346v17q0 372 693 372h114q117 0 213 -12t163 -31.5t118.5 -48t82 -59t49.5 -66t25.5 -67.5t6.5 -66v-10q0 -138 -123.5 -230.5t-398.5 -142.5l399 -268q94 152 94 369h502
q-3 -293 -230 -547q126 -29 332 -29z" />
    <glyph glyph-name="quotesingle" unicode="'" horiz-adv-x="575" 
d="M66 1524h444v-537h-444v537z" />
    <glyph glyph-name="parenleft" unicode="(" horiz-adv-x="739" 
d="M55 698q0 550 420 957h279q-269 -431 -269 -957q0 -523 269 -966h-279q-420 410 -420 966z" />
    <glyph glyph-name="parenright" unicode=")" horiz-adv-x="739" 
d="M264 -268h-276q266 450 266 966q0 528 -266 957h276q420 -407 420 -957q0 -559 -420 -966z" />
    <glyph glyph-name="asterisk" unicode="*" horiz-adv-x="962" 
d="M651 1524l-61 -236l201 172l139 -260l-277 -70l277 -73l-139 -260l-203 166l63 -238h-340l68 238l-205 -166l-141 260l274 73l-274 70l141 260l201 -172l-64 236h340z" />
    <glyph glyph-name="plus" unicode="+" horiz-adv-x="1282" 
d="M1221 786v-309h-394v-360h-374v360h-392v309h392v359h374v-359h394z" />
    <glyph glyph-name="comma" unicode="," horiz-adv-x="704" 
d="M522 -227h-301q71 133 86 227h-244v399h578v-325q0 -127 -119 -301z" />
    <glyph glyph-name="hyphen" unicode="-" horiz-adv-x="811" 
d="M68 418v381h675v-381h-675z" />
    <glyph glyph-name="period" unicode="." horiz-adv-x="704" 
d="M63 399h578v-399h-578v399z" />
    <glyph glyph-name="slash" unicode="/" horiz-adv-x="1005" 
d="M616 1655h414l-696 -1923h-412z" />
    <glyph glyph-name="zero" unicode="0" horiz-adv-x="2326" 
d="M2279 795v-62q0 -108 -22 -196t-86 -191q-68 -110 -178 -188q-117 -83 -322 -135t-461 -52h-92q-257 0 -462 52t-322 135q-108 77 -180 188q-63 103 -85 191.5t-22 195.5v62q0 239 125 415q108 155 340 248.5t606 93.5h92q550 0 813 -211q145 -107 207 -274
q49 -124 49 -272zM1675 756v26q0 136 -102 238q-55 58 -160.5 90.5t-249.5 32.5q-147 0 -253.5 -32.5t-161.5 -90.5q-99 -102 -99 -238v-24q0 -134 101 -246q57 -59 164 -93t249 -34t248 34t162 93q102 105 102 244z" />
    <glyph glyph-name="one" unicode="1" horiz-adv-x="1087" 
d="M406 0v901h-369v318q368 21 483 305h463v-1524h-577z" />
    <glyph glyph-name="two" unicode="2" horiz-adv-x="2070" 
d="M2009 563v-563h-1958v178q0 69 2 96q5 50 23.5 114.5t46.5 109.5q35 58 96 119.5t139 107.5q202 116 510 182q177 40 295 60q133 27 174 51q39 23 39 63q2 31 -21 51t-99.5 34t-213.5 16q-184 0 -282 -54q-40 -21 -58 -51q-19 -31 -24.5 -48.5t-7.5 -45.5h-594v14
q0 555 905 555h88q439 0 655 -94q145 -64 205 -159t58 -220v-8q-3 -136 -62 -217t-206 -138t-427 -106l-327 -55q-408 -71 -408 -172h913v180h539z" />
    <glyph glyph-name="three" unicode="3" horiz-adv-x="2105" 
d="M1087 -29h-98q-180 0 -327.5 23t-245.5 60t-172 89t-114.5 103t-65.5 110.5t-32 102.5t-7 86v18h600q1 -6 2.5 -16t2.5 -14.5t4.5 -13t9 -19t15.5 -25.5q77 -113 373 -121q110 0 190 10t122.5 24.5t67 36.5t30.5 39t6 38q0 106 -188 106h-510v365h495q172 0 172 88v2
q0 35 -20 55q-21 26 -119.5 44t-263.5 18q-207 0 -299 -47q-34 -15 -58 -46q-14 -20 -19 -30.5t-6.5 -16t-2.5 -20.5h-596v20q0 30 3.5 58.5t15.5 68t32 75t56 75.5t83.5 72.5t119.5 63.5t159.5 52.5t206.5 34t258 12.5h88q242 0 428.5 -25t290.5 -65q100 -37 157 -94
q54 -52 71 -97.5t17 -111.5v-12q0 -104 -82 -174q-81 -68 -186 -86q128 -26 227 -119q97 -91 97 -254v-14q0 -529 -988 -529z" />
    <glyph glyph-name="four" unicode="4" horiz-adv-x="2076" 
d="M27 291v330l1065 911h639v-848h317v-393h-317v-291h-580v291h-1124zM618 684h533v455z" />
    <glyph glyph-name="five" unicode="5" horiz-adv-x="2011" 
d="M1077 -29h-98q-230 0 -412 37t-280 94q-93 53 -148 129q-49 68 -63.5 120t-14.5 120v14h605q37 -137 360 -137q201 0 272 47q72 51 72 127v8q0 172 -344 172q-170 0 -268 -36q-35 -15 -58.5 -34.5t-29.5 -30t-8 -17.5h-572v940h1778v-371h-1202v-248q166 135 538 135h19
q446 0 606 -151q78 -72 111.5 -156.5t33.5 -197.5v-13q0 -551 -897 -551z" />
    <glyph glyph-name="six" unicode="6" horiz-adv-x="2134" 
d="M1130 -31h-92q-234 0 -420 48.5t-296 127.5q-104 76 -168 183q-60 103 -82.5 197t-22.5 210v49q0 94 14 168q47 217 166 336q115 121 314 194t489 70h86q209 0 377 -30.5t268 -81.5q144 -72 205.5 -171t61.5 -202v-8h-590q-27 43 -66 65q-95 56 -289 56q-132 0 -229 -34
t-141 -91q-76 -99 -76 -205v-10q198 143 633 143h24q186 0 328 -24.5t230.5 -65.5t144 -101.5t77 -125.5t21.5 -144v-18q0 -87 -20 -153t-78 -136q-58 -73 -164 -127q-105 -54 -287.5 -86.5t-417.5 -32.5zM692 502v-6q0 -158 404 -158q397 0 397 154v6q0 32 -14.5 56
t-54 47.5t-122.5 36.5t-206 13q-404 0 -404 -149z" />
    <glyph glyph-name="seven" unicode="7" horiz-adv-x="2009" 
d="M63 848v676h1905v-342l-80 -88q-174 -198 -284 -349q-155 -209 -203 -366q-47 -161 -47 -367v-12h-652v182q0 165 78 303q76 134 299 336q26 24 115 101l98 86q137 116 131 135h-796v-295h-564z" />
    <glyph glyph-name="eight" unicode="8" horiz-adv-x="2086" 
d="M2017 1143v-19q0 -132 -102 -217q-104 -84 -238 -102q157 -27 267 -117q110 -88 110 -229v-23q0 -75 -17 -127.5t-73 -115.5q-60 -70 -160 -115q-106 -48 -293 -78.5t-424 -30.5h-88q-240 0 -428.5 30.5t-296.5 78.5q-93 44 -155 115q-53 64 -69.5 116t-16.5 127v23
q0 139 110 227q112 92 267 119q-139 21 -242 104q-100 81 -100 215v19q2 38 6.5 64.5t18.5 63t43.5 70.5t74.5 66q60 38 164 74q198 71 624 71h91q178 0 321 -15t238 -38.5t165.5 -59t108.5 -69.5t60 -78t28 -77t6 -72zM1413 1087v7q0 16 -4.5 28.5t-16.5 27.5t-38 26
t-65.5 21t-102 15t-144.5 5q-150 0 -247 -23q-80 -19 -101.5 -39.5t-21.5 -60.5v-7q0 -20 6 -36t28.5 -33.5t61 -29t108.5 -19.5t166 -8t166.5 7.5t109 19.5t61 29.5t28.5 33.5t6 36zM1454 473v6q0 42 -24 66q-27 29 -127 49t-261 20q-169 0 -268 -22q-88 -19 -114.5 -43.5
t-26.5 -69.5v-6q0 -141 409 -141q412 0 412 141z" />
    <glyph glyph-name="nine" unicode="9" horiz-adv-x="2134" 
d="M1442 1024v4q0 154 -404 154q-397 0 -397 -154v-4q0 -154 397 -154q404 0 404 154zM1112 -31h-88q-206 0 -374 31.5t-273 83.5q-143 71 -208 170t-65 199v10h588q52 -123 359 -123q131 0 227.5 35t140.5 92q76 101 76 205v8q-195 -145 -606 -145h-27q-443 0 -635 131
q-190 132 -190 348v18q0 87 20 152t76 133q59 75 158 121q104 52 284 83t410 31h92q1008 0 1008 -759v-50q0 -118 -22 -212t-81 -197q-68 -115 -165 -187q-109 -79 -292.5 -128.5t-412.5 -49.5z" />
    <glyph glyph-name="colon" unicode=":" horiz-adv-x="708" 
d="M66 1014h577v-400h-577v400zM66 399h577v-399h-577v399z" />
    <glyph glyph-name="semicolon" unicode=";" horiz-adv-x="708" 
d="M66 1014h577v-400h-577v400zM524 -227h-301q71 133 86 227h-243v399h577v-325q0 -127 -119 -301z" />
    <glyph glyph-name="less" unicode="&#x3c;" horiz-adv-x="1122" 
d="M1057 459v-330l-996 317v349l996 319v-332l-654 -164z" />
    <glyph glyph-name="equal" unicode="=" horiz-adv-x="1214" 
d="M70 692v287h1075v-287h-1075zM70 289v284h1075v-284h-1075z" />
    <glyph glyph-name="greater" unicode="&#x3e;" horiz-adv-x="1107" 
d="M1047 446l-981 -317v330l645 159l-645 164v332l981 -319v-349z" />
    <glyph glyph-name="question" unicode="?" horiz-adv-x="1857" 
d="M1110 520v-10h-557v137q0 121 59 189q59 65 260 112l203 47q101 22 140.5 48t39.5 63q0 33 -14 47q-15 19 -90.5 32t-202.5 13q-184 0 -272 -43q-31 -13 -53 -45q-19 -27 -23 -41.5t-6 -46.5h-563v25q0 65 2 88q16 121 69 188q175 221 785 221h108q402 0 602 -94
q237 -112 230 -340v-14q0 -310 -387 -404l-207 -49q-76 -18 -99.5 -42.5t-23.5 -80.5zM549 399h575v-399h-575v399z" />
    <glyph glyph-name="at" unicode="@" horiz-adv-x="2729" 
d="M1380 -322q-670 0 -999 224q-101 68 -164 144.5t-102 174.5q-68 172 -68 375v25q0 156 33 276t117 236q88 120 229 202q148 85 387.5 134t544.5 49h28q401 0 670 -64q226 -53 387 -166q61 -41 108.5 -102t74.5 -119q25 -54 36 -121q21 -105 21 -219v-22q0 -238 -137 -418
q-73 -98 -215 -153.5t-334 -55.5h-35q-302 0 -389 158q-158 -158 -461 -158h-29q-79 0 -147 12.5t-119 35.5t-92.5 54.5t-68.5 69.5t-47 81t-27 88t-9.5 91.5t5.5 91.5l14 111q22 151 121 264q56 63 152.5 98t219.5 35h31q314 0 496 -164l18 146h543l-94 -734q-9 -75 65 -75
q113 0 185.5 117.5t72.5 316.5v6q0 108 -14 182q-7 52 -24 85.5t-56 86.5q-91 110 -308.5 170.5t-613.5 61.5h-28q-492 0 -731 -135q-109 -59 -174 -154q-63 -88 -86 -180.5t-23 -223.5v-22q0 -121 23 -211t86 -182q72 -100 178 -162q115 -69 308 -109.5t441 -40.5
q495 0 736 70q147 41 178 53q62 23 119 54l84 -211q-357 -177 -1117 -177zM1567 573l4 33q13 108 -44 162.5t-181 54.5q-195 0 -216 -186l-6 -47q-14 -96 35.5 -158.5t157.5 -62.5q220 0 250 204z" />
    <glyph glyph-name="A" unicode="A" horiz-adv-x="2267" 
d="M852 627h506l-256 524zM2300 0h-637l-119 246h-870l-117 -246h-590l754 1524h782z" />
    <glyph glyph-name="B" unicode="B" horiz-adv-x="2207" 
d="M1540 0h-1442v1524h1434q308 0 434 -99q129 -95 129 -247v-23q0 -127 -82 -203q-85 -76 -180 -96q115 -25 223 -106q60 -43 93.5 -117.5t33.5 -167.5v-25q0 -440 -643 -440zM1356 1178h-676v-215h676q155 0 155 106v4q0 105 -155 105zM1393 621h-713v-263h713
q180 0 180 131v7q0 125 -180 125z" />
    <glyph glyph-name="C" unicode="C" horiz-adv-x="2306" 
d="M1204 -29h-80q-257 0 -461 51t-323 134q-109 76 -182 188q-65 102 -88 192.5t-23 200.5v60q0 113 22 201.5t85 187.5q67 108 178 184q118 82 324.5 132t467.5 50h80q536 0 805 -182q76 -48 130 -107.5t79.5 -119.5t36 -109.5t10.5 -97.5v-27h-604q-71 234 -502 234
q-510 0 -510 -357v-24q0 -138 101 -250q57 -61 162 -95t249 -34q120 0 217.5 22t151.5 54q45 25 82 71q9 12 16 21.5t12 18.5t7.5 14.5t5.5 13.5t4 10.5t3 12t3 12.5h602v-33q0 -77 -23.5 -149t-87.5 -158q-74 -92 -180 -160q-115 -72 -317 -117t-453 -45z" />
    <glyph glyph-name="D" unicode="D" horiz-adv-x="2320" 
d="M1182 0h-1084v1524h1082q246 0 444 -40t324 -110q338 -198 331 -571v-62q0 -121 -28 -217.5t-99 -191.5q-74 -103 -192 -172q-123 -73 -324.5 -116.5t-453.5 -43.5zM1112 1124h-432v-721h432q563 0 563 357v12q0 352 -563 352z" />
    <glyph glyph-name="E" unicode="E" horiz-adv-x="1869" 
d="M98 0v1524h1686v-373h-1112v-190h1089v-371h-1089v-209h1128v-381h-1702z" />
    <glyph glyph-name="F" unicode="F" horiz-adv-x="1822" 
d="M98 0v1524h1653v-373h-1077v-190h1055v-375h-1055v-586h-576z" />
    <glyph glyph-name="G" unicode="G" horiz-adv-x="2373" 
d="M1122 -29h-47q-230 0 -418.5 48.5t-304.5 127.5q-110 76 -182 183q-68 100 -95.5 198.5t-27.5 210.5v58q0 117 26.5 212.5t94.5 192.5q72 104 188 178q122 78 321.5 125t448.5 47h80q255 0 460 -40t319 -105q109 -57 178 -145q64 -79 87 -146.5t25 -150.5v-2h-606
q-5 22 -15.5 39t-39.5 45q-36 32 -82 51q-50 25 -145 41t-211 16q-527 0 -527 -377v-22q0 -161 129 -275q128 -110 393 -110q112 0 204.5 15t149.5 37.5t96.5 49.5t55 49.5t15.5 38.5h-535v297h1129v-858h-367q-24 119 -72 211q-217 -240 -725 -240z" />
    <glyph glyph-name="H" unicode="H" horiz-adv-x="2310" 
d="M680 0h-582v1524h582v-539h952v539h580v-1524h-580v580h-952v-580z" />
    <glyph glyph-name="I" unicode="I" horiz-adv-x="776" 
d="M98 1524h580v-1524h-580v1524z" />
    <glyph glyph-name="J" unicode="J" horiz-adv-x="1941" 
d="M987 -23h-125q-198 0 -357 45.5t-255 118.5q-83 66 -146 168q-52 92 -71 174t-19 181v12h572q27 -262 336 -262h16q172 0 255 89t83 253v768h582v-781q0 -255 -105 -436q-90 -150 -278 -240t-488 -90z" />
    <glyph glyph-name="K" unicode="K" horiz-adv-x="2142" 
d="M680 682v-682h-582v1524h582v-602l750 602h722l-886 -693l915 -831h-758z" />
    <glyph glyph-name="L" unicode="L" horiz-adv-x="1792" 
d="M98 0v1524h582v-1088h1057v-436h-1639z" />
    <glyph glyph-name="M" unicode="M" horiz-adv-x="2703" 
d="M666 0h-568v1524h799l467 -856l475 856h766v-1524h-575v950l-535 -950h-297l-532 950v-950z" />
    <glyph glyph-name="N" unicode="N" horiz-adv-x="2310" 
d="M98 0v1524h652l884 -867v867h578v-1524h-582l-954 924v-924h-578z" />
    <glyph glyph-name="O" unicode="O" horiz-adv-x="2408" 
d="M1159 1552h92q580 0 848 -209q83 -61 133 -126t80 -146q49 -124 49 -274v-62q4 -234 -127 -422q-50 -69 -136.5 -133.5t-194.5 -107.5q-257 -101 -652 -101h-92q-575 0 -852 211q-83 63 -131.5 128.5t-81.5 148.5q-47 128 -47 276v62q0 244 125 417q255 338 987 338z
M1759 754v28q0 140 -108 240q-58 57 -174 89t-273 32q-161 0 -276.5 -32t-173.5 -89q-105 -102 -105 -240v-24q0 -135 107 -248q59 -59 175.5 -93t272.5 -34q157 0 274 33.5t175 91.5q106 106 106 246z" />
    <glyph glyph-name="P" unicode="P" horiz-adv-x="2123" 
d="M1368 477h-688v-477h-582v1524h1270q723 0 723 -504v-33q0 -510 -723 -510zM1298 1143h-618v-285h618q193 0 193 139v7q0 139 -193 139z" />
    <glyph glyph-name="Q" unicode="Q" horiz-adv-x="2408" 
d="M1776 -317h-791v294q-285 18 -478.5 99t-297.5 198q-68 71 -103 158q-59 158 -59 303v62q-4 239 127 420q254 332 985 335h92q572 0 848 -206q262 -194 262 -549v-62q0 -98 -18 -178.5t-70 -173.5q-53 -100 -141 -176q-94 -80 -256 -141t-363 -80zM1759 754v28
q0 142 -108 242q-58 56 -173 87.5t-274 31.5q-555 0 -555 -361v-24q0 -135 107 -248q59 -59 175.5 -93t272.5 -34q157 0 274 33.5t175 91.5q106 106 106 246z" />
    <glyph glyph-name="R" unicode="R" horiz-adv-x="2191" 
d="M1348 1153h-668v-262h668q176 0 176 131v2q0 129 -176 129zM1237 522h-557v-522h-582v1524h1385q641 0 641 -391v-23q0 -63 -21.5 -117t-53 -90t-75 -64.5t-81 -43.5t-76.5 -25q148 -33 230.5 -127t82.5 -235v-226q0 -116 29 -172v-10h-594q-19 22 -19 80v178
q0 137 -72 200.5t-237 63.5z" />
    <glyph glyph-name="S" unicode="S" horiz-adv-x="2121" 
d="M1145 -29h-187q-929 0 -929 541v20h639q15 -215 381 -215h18q95 0 164 8t108.5 20.5t63 32t30.5 39t7 44.5v2q0 33 -12 54t-47.5 40t-109.5 29.5t-190 13.5l-282 8q-748 21 -748 459v18q0 79 22.5 144t82 126.5t156 103t253 66.5t363.5 25h182q926 0 926 -481v-16h-633
q-18 161 -369 161h-20q-144 0 -221 -18q-73 -16 -94 -35.5t-21 -58.5v-2q0 -26 12 -44t45.5 -35.5t102 -27t172.5 -10.5l274 -6q430 -12 619 -121q186 -107 186 -338v-29q0 -90 -21.5 -156.5t-80.5 -135.5q-187 -223 -842 -226z" />
    <glyph glyph-name="T" unicode="T" horiz-adv-x="2000" 
d="M1290 0h-581v1108h-658v416h1897v-416h-658v-1108z" />
    <glyph glyph-name="U" unicode="U" horiz-adv-x="2260" 
d="M82 797v727h584v-682q0 -158 88 -275q48 -63 146.5 -99t232.5 -36q132 0 229 36t145 99q90 115 90 275v682h582v-727q0 -114 -22 -210.5t-84 -205.5q-65 -117 -170 -203q-110 -91 -300.5 -147t-426.5 -56h-82q-243 0 -437 56t-305 147q-105 86 -170 203
q-59 111 -79.5 205.5t-20.5 210.5z" />
    <glyph glyph-name="V" unicode="V" horiz-adv-x="2203" 
d="M2230 1524l-714 -1524h-773l-770 1524h660l512 -1063l481 1063h604z" />
    <glyph glyph-name="W" unicode="W" horiz-adv-x="3143" 
d="M1585 963l-307 -963h-709l-594 1524h648l346 -1006l305 1006h655l309 -989l336 989h596l-594 -1524h-673z" />
    <glyph glyph-name="X" unicode="X" horiz-adv-x="2217" 
d="M1100 477l-422 -477h-701l699 782l-676 742h743l387 -449l390 449h690l-660 -736l691 -788h-715z" />
    <glyph glyph-name="Y" unicode="Y" horiz-adv-x="2148" 
d="M1374 0h-581v573l-834 951h696l445 -527l452 527h637l-815 -955v-569z" />
    <glyph glyph-name="Z" unicode="Z" horiz-adv-x="1953" 
d="M72 1122v402h1812v-310l-999 -798h1009v-416h-1835v311l971 811h-958z" />
    <glyph glyph-name="bracketleft" unicode="[" horiz-adv-x="765" 
d="M737 -268h-639v1923h639v-242h-227v-1438h227v-243z" />
    <glyph glyph-name="backslash" unicode="\" horiz-adv-x="1005" 
d="M1083 -268h-409l-697 1923h416z" />
    <glyph glyph-name="bracketright" unicode="]" horiz-adv-x="765" 
d="M668 -268h-639v243h227v1438h-227v242h639v-1923z" />
    <glyph glyph-name="asciicircum" unicode="^" horiz-adv-x="1509" 
d="M1505 868h-491l-262 361l-267 -361h-481l488 656h528z" />
    <glyph glyph-name="underscore" unicode="_" horiz-adv-x="1734" 
d="M1733 -332h-1731v291h1731v-291z" />
    <glyph glyph-name="grave" unicode="`" 
d="M909 1524l181 -330h-506l-228 330h553z" />
    <glyph glyph-name="a" unicode="a" horiz-adv-x="1732" 
d="M1067 473v47l-369 -65q-74 -12 -104.5 -33t-30.5 -62v-2q0 -51 42.5 -81.5t131.5 -30.5q150 0 238 67q92 71 92 160zM1077 147q-167 -167 -516 -167h-22q-259 0 -385 102q-125 101 -125 252v24q0 145 105.5 223.5t340.5 96.5l531 47q61 9 61 53q0 19 -8 32t-31 26
t-73.5 19.5t-127.5 6.5h-8q-168 0 -213 -45q-20 -23 -25 -33t-10 -34h-516v12q0 62 11 101t49 91q41 56 110 90q77 38 217 62t320 24h115q190 0 335 -22t222 -59q73 -34 116 -86q40 -47 51 -86t11 -101v-407q0 -47 47 -47h59v-322h-463q-154 0 -178 147z" />
    <glyph glyph-name="b" unicode="b" horiz-adv-x="1914" 
d="M82 0v1524h557v-572q235 170 535 170h43q178 0 310.5 -44t205.5 -124q139 -148 139 -376v-43q0 -230 -150 -383q-76 -81 -212.5 -126.5t-313.5 -45.5h-41q-307 0 -526 165q-13 -36 -29 -145h-518zM639 557v-8q0 -103 88 -182q89 -80 246 -80h12q162 0 242 73t80 189v8
q0 120 -79 191t-243 71h-12q-156 0 -245 -74.5t-89 -187.5z" />
    <glyph glyph-name="c" unicode="c" horiz-adv-x="1816" 
d="M973 -31h-123q-195 0 -349 36.5t-243 96.5q-86 61 -137 138q-48 77 -65 144.5t-17 154.5v36q0 558 809 558h127q200 0 359 -36t245 -93q82 -52 131 -125q47 -68 61.5 -120t14.5 -118v-6h-569q-9 52 -56 108q-30 38 -95 60t-155 22h-8q-156 0 -227.5 -69t-71.5 -187v-10
q0 -125 73.5 -201.5t225.5 -76.5h8q88 0 153 23t95 61q48 60 58 114h569v-4q0 -39 -5 -75.5t-24.5 -89.5t-52.5 -97.5t-95 -91t-144.5 -79t-209.5 -53t-282 -20.5z" />
    <glyph glyph-name="d" unicode="d" horiz-adv-x="1908" 
d="M1270 551v10q0 99 -92 176q-90 78 -254 78h-11q-158 0 -233.5 -69t-75.5 -185v-10q0 -111 80 -185.5t231 -74.5h9q166 0 256 78q90 81 90 182zM1270 963v561h557v-1524h-555v160q-38 -43 -148 -105q-143 -75 -383 -75h-34q-336 0 -504 157q-164 156 -164 400v43
q0 87 21.5 164t71 147t123 120.5t185 80.5t250.5 30h39q329 0 541 -159z" />
    <glyph glyph-name="e" unicode="e" horiz-adv-x="1818" 
d="M909 862q-271 0 -317 -166h635q-34 166 -318 166zM1231 401h549v-4q0 -61 -16 -109.5t-64 -107.5q-49 -58 -135 -106q-91 -46 -247.5 -75.5t-350.5 -29.5h-109q-189 0 -340 34t-242 91q-237 149 -237 443v41q0 555 813 555h113q430 0 622 -154q113 -88 155 -199t42 -248
v-61h-1198q27 -203 334 -203h2q75 0 133 11.5t89 27.5t52 36.5t27 33.5t8 24z" />
    <glyph glyph-name="f" unicode="f" horiz-adv-x="1085" 
d="M647 1524h397v-295h-172q-43 0 -59 -18t-16 -62v-47h247v-338h-247v-764h-553v764h-217v338h217v108q0 314 403 314z" />
    <glyph glyph-name="g" unicode="g" horiz-adv-x="1929" 
d="M934 811h-12q-162 0 -241 -60.5t-79 -160.5v-10q0 -104 81 -169t239 -65h12q166 0 259 66.5t93 167.5v6q0 100 -92 162.5t-260 62.5zM1036 -399h-157q-186 0 -336.5 29.5t-235.5 74.5q-112 66 -159 144.5t-42 144.5v6h560q21 -92 286 -92h6q334 0 334 280v23
q-164 -164 -536 -164h-33q-351 0 -518 150q-166 150 -166 374v37q0 218 156 365q155 149 491 149h45q368 0 559 -161v141h557v-918q0 -83 -18.5 -154t-69.5 -147q-52 -81 -139 -141q-88 -64 -241 -102.5t-343 -38.5z" />
    <glyph glyph-name="h" unicode="h" horiz-adv-x="1837" 
d="M639 0h-557v1524h557v-615q217 217 565 217h13q144 0 253.5 -38.5t171.5 -106.5q115 -121 115 -272v-709h-559v526q0 120 -66.5 187t-199.5 67q-136 0 -214.5 -73t-78.5 -195v-512z" />
    <glyph glyph-name="i" unicode="i" horiz-adv-x="720" 
d="M82 1524h557v-330h-557v330zM82 1102h557v-1102h-557v1102z" />
    <glyph glyph-name="j" unicode="j" horiz-adv-x="720" 
d="M82 1524h557v-330h-557v330zM-57 -385v330h73q39 0 52.5 14.5t13.5 60.5v1082h557v-1184q0 -153 -61 -228t-168 -75h-467z" />
    <glyph glyph-name="k" unicode="k" horiz-adv-x="1652" 
d="M639 496v-496h-557v1524h557v-852l377 430h600l-449 -488l514 -614h-632z" />
    <glyph glyph-name="l" unicode="l" horiz-adv-x="720" 
d="M82 1524h557v-1524h-557v1524z" />
    <glyph glyph-name="m" unicode="m" horiz-adv-x="2830" 
d="M639 514v-514h-557v1102h553v-197q221 221 547 221h12q330 0 455 -227q242 227 577 227h15q137 0 241.5 -39t161.5 -106q106 -126 106 -272v-709h-557v528q0 252 -227 252q-125 0 -197.5 -73.5t-72.5 -192.5v-514h-559v528q0 252 -228 252q-125 0 -197.5 -73.5
t-72.5 -192.5z" />
    <glyph glyph-name="n" unicode="n" horiz-adv-x="1837" 
d="M639 0h-557v1102h553v-195l47 43q24 20 76 56q51 35 114 59q146 61 332 61h13q144 0 253.5 -38.5t171.5 -106.5q115 -121 115 -272v-709h-559v526q0 120 -66.5 187t-199.5 67q-136 0 -214.5 -73t-78.5 -195v-512z" />
    <glyph glyph-name="o" unicode="o" horiz-adv-x="1898" 
d="M1026 -31h-152q-193 0 -348.5 36t-251.5 95q-87 57 -143 138q-52 75 -72 146t-20 157v32q0 84 19.5 153.5t70.5 143.5q59 81 143 134q92 58 248.5 93.5t351.5 35.5h156q832 0 832 -558v-36q0 -92 -16 -158.5t-66 -142.5q-52 -82 -138 -138q-91 -59 -250.5 -95t-363.5 -36
zM952 821h-2q-189 0 -268 -76q-78 -75 -78 -182v-8q0 -109 78 -193q79 -79 268 -79h2q186 0 265 82t79 190v8q0 117 -84 187.5t-260 70.5z" />
    <glyph glyph-name="p" unicode="p" horiz-adv-x="1910" 
d="M639 557v-8q0 -110 91.5 -186t250.5 -76h10q167 0 242 78q74 77 74 184v8q0 118 -77 189t-239 71h-10q-164 0 -253 -73t-89 -187zM82 -385v1487h557v-154q38 35 86 64q41 27 178 71q121 39 273 39h43q181 0 313 -43.5t205 -124.5q135 -146 135 -370v-43q0 -220 -141 -383
q-75 -84 -211.5 -131t-317.5 -47h-39q-149 0 -266 32q-76 22 -131 46t-78 39.5t-49 37.5v-520h-557z" />
    <glyph glyph-name="q" unicode="q" horiz-adv-x="1906" 
d="M1313 1102h514v-1487h-557v535q-170 -170 -533 -170h-28q-144 0 -259.5 31t-191 83t-126 124.5t-72 152t-21.5 168.5v43q0 218 143 370q74 80 206.5 125t303.5 45h37q342 0 549 -168q32 79 35 148zM1270 553v10q0 105 -94.5 178.5t-253.5 73.5h-11q-157 0 -232 -69
t-75 -185v-10q0 -113 78 -187.5t231 -74.5h11q167 0 256 80q90 81 90 184z" />
    <glyph glyph-name="r" unicode="r" horiz-adv-x="1617" 
d="M82 1102h553v-203q28 43 76 88q46 46 153 92q109 47 232 47h24q129 0 224 -41t145 -116q94 -137 94 -330v-111h-541v39q0 104 -49.5 165t-148.5 61q-95 0 -150 -65.5t-55 -172.5v-555h-557v1102z" />
    <glyph glyph-name="s" unicode="s" horiz-adv-x="1667" 
d="M874 -31h-112q-735 0 -735 391v15h567q0 -20 7 -39t28 -43t70 -38.5t122 -14.5h4q127 0 177.5 23t50.5 69v4q0 45 -43.5 65.5t-167.5 24.5l-234 6q-569 21 -569 346v13q0 76 29.5 131.5t101.5 105.5q154 105 592 105h108q723 0 723 -342v-15h-557q-3 24 -14 43
q-12 22 -67.5 41t-139.5 19h-2q-125 0 -170 -17t-45 -59v-2q0 -38 45.5 -58t159.5 -24l231 -6q150 -8 254 -25t172 -43.5t106 -68.5t53 -92t15 -122v-14q0 -66 -16.5 -118t-65.5 -102.5t-131 -84t-220.5 -54t-326.5 -20.5z" />
    <glyph glyph-name="t" unicode="t" horiz-adv-x="1052" 
d="M1001 342v-342h-471q-292 0 -292 313v451h-211v338h211v321h553v-321h210v-338h-210v-326q0 -56 18 -76t74 -20h118z" />
    <glyph glyph-name="u" unicode="u" horiz-adv-x="1816" 
d="M1180 1102h555v-1102h-553v197q-222 -222 -559 -222h-15q-143 0 -252 40.5t-168 109.5q-108 131 -108 281v696h559v-527q0 -119 63.5 -186t190.5 -67q133 0 210 74.5t77 193.5v512z" />
    <glyph glyph-name="v" unicode="v" horiz-adv-x="1714" 
d="M1235 0h-735l-523 1102h596l304 -717l288 717h572z" />
    <glyph glyph-name="w" unicode="w" horiz-adv-x="2496" 
d="M1264 668l-222 -668h-628l-434 1102h579l215 -694l211 694h574l215 -692l211 692h532l-410 -1102h-622z" />
    <glyph glyph-name="x" unicode="x" horiz-adv-x="1736" 
d="M862 324l-274 -324h-608l507 567l-497 535h633l251 -289l246 289h613l-486 -527l512 -575h-620z" />
    <glyph glyph-name="y" unicode="y" horiz-adv-x="1693" 
d="M762 -385h-518v340h250q51 0 51 35v2q0 21 -47 110l-521 1000h594l308 -709l284 709h553l-530 -1149q-82 -180 -180.5 -259t-243.5 -79z" />
    <glyph glyph-name="z" unicode="z" horiz-adv-x="1540" 
d="M1495 338v-338h-1450v299l733 477h-733v326h1448v-293l-756 -471h758z" />
    <glyph glyph-name="braceleft" unicode="{" horiz-adv-x="804" 
d="M778 -25v-243h-319q-367 0 -367 233q0 93 88 285t88 239q0 89 -90 89h-139v241h139q90 0 90 72q0 51 -88 237t-88 279q0 248 367 248h319v-242h-174q-92 0 -92 -74q0 -37 68 -202q67 -162 67 -226q0 -88 -49.5 -137t-165.5 -74q116 -23 165.5 -66.5t49.5 -117.5t-67 -242
q-68 -171 -68 -208q0 -91 109 -91h157z" />
    <glyph glyph-name="bar" unicode="|" horiz-adv-x="759" 
d="M188 1655h383v-1923h-383v1923z" />
    <glyph glyph-name="braceright" unicode="}" horiz-adv-x="804" 
d="M346 -268h-317v243h155q109 0 109 91q0 37 -68 208q-65 171 -65 242q0 74 49.5 117.5t163.5 66.5q-116 25 -164.5 73.5t-48.5 137.5q0 61 65 226q68 165 68 202q0 74 -92 74h-172v242h317q367 0 367 -248q0 -93 -88 -279q-86 -189 -86 -237q0 -72 88 -72h139v-241h-139
q-88 0 -88 -89q0 -44 86 -239q88 -192 88 -285q0 -233 -367 -233z" />
    <glyph glyph-name="asciitilde" unicode="~" horiz-adv-x="1421" 
d="M1057 498q-109 0 -191 28q-67 23 -211 103q-131 73 -166 73q-47 0 -47 -61v-178h-395v303q0 139 74 242q76 102 248 102q82 0 149 -20q74 -21 111 -39q45 -20 135 -70q140 -76 170 -76q45 0 45 64v180h395v-352q0 -131 -80.5 -215t-236.5 -84z" />
    <glyph glyph-name="nbspace" unicode="&#xa0;" horiz-adv-x="622" 
 />
    <glyph glyph-name="exclamdown" unicode="&#xa1;" horiz-adv-x="737" 
d="M526 610l187 -1032h-715l188 1032h340zM645 702h-579v400h579v-400z" />
    <glyph glyph-name="cent" unicode="&#xa2;" horiz-adv-x="1845" 
d="M1028 -31v-127h-209v127q-186 1 -335 40t-236 100q-79 58 -131 137q-46 74 -62 141.5t-16 151.5v36q0 546 780 558v124h209v-124q193 -1 346 -38.5t238 -95.5q79 -52 127 -125q45 -66 59 -117t14 -116v-6h-567q-29 148 -217 184v-532q82 15 133 57q34 27 52.5 52.5
t23 40.5t8.5 42h567v-4q0 -49 -8 -88q-24 -138 -112 -219q-83 -84 -250 -141.5t-414 -57.5zM604 569v-10q0 -226 215 -270v530q-215 -35 -215 -250z" />
    <glyph glyph-name="sterling" unicode="&#xa3;" horiz-adv-x="1966" 
d="M1317 535h594v-535h-1878v338h117q206 0 206 141v4q0 63 -30 162h-293v232h217q-31 112 -31 188v14q0 463 774 463h84q205 0 362.5 -35t241.5 -92q83 -53 129 -131q44 -72 56 -130t12 -148v-19h-569q-5 42 -13.5 68t-31.5 59q-49 78 -217 78q-145 0 -207 -55t-62 -158
q0 -39 13 -102h720v-232h-680q7 -47 7 -76q0 -157 -158 -231h637v197z" />
    <glyph glyph-name="yen" unicode="&#xa5;" horiz-adv-x="2080" 
d="M1343 0h-583v324h-529v180h529v98h-529v180h394l-666 742h686l424 -502l430 502h625l-647 -742h395v-180h-529v-98h529v-180h-529v-324z" />
    <glyph glyph-name="brokenbar" unicode="&#xa6;" horiz-adv-x="759" 
d="M188 1655h383v-871h-383v871zM188 672h383v-940h-383v940z" />
    <glyph glyph-name="section" unicode="&#xa7;" horiz-adv-x="1957" 
d="M764 502l555 -96q65 44 65 108q0 58 -44.5 92.5t-157.5 52.5q-344 53 -559 99q-68 -35 -68 -109q0 -59 46.5 -94t162.5 -53zM1022 -428h-113q-205 0 -365 32.5t-247 82.5q-83 49 -129 114q-43 63 -55.5 113t-12.5 123v8h551q4 -26 7 -39.5t13 -32t29 -39.5
q57 -69 269 -69h10q248 0 248 100v4q0 52 -45 78q-51 33 -195 53l-418 62q-542 76 -542 397v21q0 115 82 191t223 103q-176 92 -176 289v21q0 87 37 151.5t123.5 115t241.5 76t378 25.5h115q196 0 344 -25.5t229 -68.5q80 -41 125 -100q44 -57 57 -107.5t13 -128.5v-6h-547
q-5 30 -13 47.5t-32 44.5q-51 60 -240 60h-14q-155 0 -209.5 -19.5t-54.5 -68.5v-4q0 -44 41 -68q48 -27 182 -47l481 -70q291 -43 402 -135q112 -87 112 -244v-20q0 -125 -90 -197q-87 -70 -215 -100q170 -89 170 -291v-18q0 -414 -770 -414z" />
    <glyph glyph-name="dieresis" unicode="&#xa8;" 
d="M768 1524h487v-330h-487v330zM188 1524h486v-330h-486v330z" />
    <glyph glyph-name="copyright" unicode="&#xa9;" horiz-adv-x="2426" 
d="M1237 -25h-47q-1143 0 -1143 760v58q0 128 32 232t107 200q76 98 205 170q128 71 334 112t463 41h49q256 0 462 -41.5t335 -113.5q349 -202 346 -600v-58q0 -760 -1143 -760zM322 780v-35q0 -577 870 -577h43q870 0 870 577v35q0 106 -25 190.5t-86.5 158.5t-159.5 123.5
t-249 77.5t-350 28h-43q-199 0 -350 -28t-249 -77.5t-159.5 -123.5t-86.5 -158.5t-25 -190.5zM1251 301h-43q-126 0 -229.5 15.5t-174.5 41.5t-125.5 63t-86 75.5t-51.5 84t-26.5 84t-6.5 80.5v48q0 436 698 436h41q166 0 299.5 -27.5t206.5 -71.5q103 -60 143.5 -133.5
t36.5 -144.5v-14h-456q-34 125 -256 125q-260 0 -260 -183v-14q0 -88 63.5 -142.5t198.5 -54.5q73 0 129 17.5t80 44.5q42 45 45 78h456v-21q0 -53 -13.5 -96t-53.5 -96q-40 -55 -113 -97q-73 -43 -205 -70.5t-297 -27.5z" />
    <glyph glyph-name="ordfeminine" unicode="&#xaa;" horiz-adv-x="1247" 
d="M535 965q92 0 149 42.5t57 104.5v23l-227 -41q-88 -18 -88 -66q0 -63 109 -63zM762 893q-117 -117 -361 -117h-16q-181 0 -268.5 63.5t-87.5 172.5v14q0 94 81 146t259 69l329 29q25 5 34 11.5t9 23.5q0 51 -147 51h-12q-150 0 -150 -68h-385v8q0 41 6.5 65t30.5 58
q38 56 146.5 85.5t316.5 33.5h80q99 0 178 -8t132 -20.5t91.5 -32t60 -38.5t33.5 -44t15.5 -44.5t3.5 -43.5v-258q0 -33 30 -33h46v-225h-336q-104 0 -119 102z" />
    <glyph glyph-name="guillemotleft" unicode="&#xab;" horiz-adv-x="1167" 
d="M653 936l-241 -348l237 -355h-379l-247 355l247 348h383zM1139 936l-234 -348l225 -355h-378l-238 355l244 348h381z" />
    <glyph glyph-name="registered" unicode="&#xae;" horiz-adv-x="1376" 
d="M655 1548h72q147 0 259.5 -26t178.5 -67t107 -98t55 -110.5t14 -113.5v-29q0 -162 -127 -281q-68 -63 -194.5 -99t-294.5 -36h-70q-176 0 -304.5 36t-196.5 101q-119 119 -119 279v29q0 42 7 80.5t26 81t49 78.5t78.5 69t111.5 56t152 36.5t196 13.5zM688 809h6
q245 0 363 70q73 50 99 109.5t24 135.5q0 55 -8 89.5t-35 74.5q-90 137 -443 137h-6q-323 0 -418 -100q-43 -46 -58 -91.5t-15 -115.5q0 -56 8 -91.5t35 -76.5q95 -141 448 -141zM602 1231v-74h146q51 0 51 39q0 35 -51 35h-146zM733 1042h-131v-141h-231v438h454
q203 0 203 -112v-2q0 -41 -29.5 -67t-74.5 -32q108 -21 108 -104v-72q0 -28 12 -43v-6h-235q-10 10 -10 29v47q0 37 -14.5 51t-51.5 14z" />
    <glyph glyph-name="overscore" unicode="&#xaf;" 
d="M1186 1214h-926v265h926v-265z" />
    <glyph glyph-name="degree" unicode="&#xb0;" horiz-adv-x="880" 
d="M739 862q-119 -110 -299 -110q-182 0 -301 110t-119 287t119 287t301 110q180 0 299 -110q121 -112 121 -287t-121 -287zM440 989q74 0 119 44t45 116t-45.5 117t-118.5 45q-72 0 -118 -45t-46 -117t46 -116t118 -44z" />
    <glyph glyph-name="acute" unicode="&#xb4;" 
d="M860 1194h-504l183 330h548z" />
    <glyph glyph-name="paragraph" unicode="&#xb6;" horiz-adv-x="1660" 
d="M971 0h-309v647h-119q-261 0 -390.5 111.5t-129.5 310.5v39q0 95 23.5 166t80 129.5t161.5 89.5t257 31h1093v-254h-155v-1270h-312v1270h-200v-1270z" />
    <glyph glyph-name="middot" unicode="&#xb7;" horiz-adv-x="704" 
d="M63 850h578v-399h-578v399z" />
    <glyph glyph-name="cedilla" unicode="&#xb8;" 
d="M705 -530h-359v188h223q74 0 74 45t-74 45h-145v252h283v-100q120 -2 198 -16t121 -41.5t59 -63t15 -88.5v-6q0 -99 -86 -158q-80 -57 -309 -57z" />
    <glyph glyph-name="ordmasculine" unicode="&#xba;" horiz-adv-x="1300" 
d="M700 770h-100q-101 0 -184.5 13t-141.5 34t-102.5 52t-71 63.5t-43 71t-22.5 72.5t-6 71v22q0 37 6 70.5t22.5 71.5t43 69.5t70.5 61.5t102.5 50.5t142 33t184.5 12.5h102q570 0 570 -369v-22q0 -60 -11 -104t-44 -95q-105 -175 -517 -178zM442 1161v-4
q0 -73 50.5 -119.5t156.5 -46.5h2q106 0 156.5 46.5t50.5 119.5v4q0 73 -51 116.5t-156 43.5h-2q-105 0 -156 -43.5t-51 -116.5z" />
    <glyph glyph-name="guillemotright" unicode="&#xbb;" horiz-adv-x="1167" 
d="M37 233l225 355l-233 348h381l243 -348l-237 -355h-379zM1145 588l-248 -355h-379l238 355l-242 348h383z" />
    <glyph glyph-name="onequarter" unicode="&#xbc;" horiz-adv-x="2060" 
d="M236 770v418h-205v190q212 9 270 146h315v-754h-380zM-86 0l1667 1524h399l-1679 -1524h-387zM944 147v195l524 414h412v-389h154v-220h-154v-147h-379v147h-557zM1501 571l-260 -204h260v204z" />
    <glyph glyph-name="onehalf" unicode="&#xbd;" horiz-adv-x="2211" 
d="M-86 0l1667 1524h399l-1679 -1524h-387zM236 770v418h-205v190q212 9 270 146h315v-754h-380zM2175 225v-225h-1073v96q0 69 16 112.5t64 92.5q99 102 440 160q170 27 170 67v2q0 45 -143 45q-162 0 -162 -88h-373v9q0 274 510 274h39q126 0 219.5 -13t149 -34t89 -53.5
t45 -65.5t11.5 -76v-10q0 -107 -106 -156q-107 -47 -377 -77l-66 -11q-19 -2 -39 -4t-34 -3.5t-31 -4.5q-90 -13 -105 -37h756z" />
    <glyph glyph-name="threequarters" unicode="&#xbe;" horiz-adv-x="2451" 
d="M303 0l1667 1524h400l-1680 -1524h-387zM602 758h-67q-128 0 -230 21.5t-160 54.5q-74 49 -103.5 104t-25.5 104v11h377q-2 -7 0.5 -16t13.5 -20.5t29.5 -21t53 -16.5t79.5 -8q179 0 179 57v4q0 43 -89 43h-229v185h219q84 0 84 34v4q0 45 -172 45q-168 0 -168 -63h-364
v10q0 22 1.5 34t10.5 33.5t27 45.5q86 134 454 139h70q339 0 440 -63q48 -30 66 -59.5t18 -69.5v-9q0 -53 -44 -88t-114 -43q86 -12 138.5 -61t52.5 -123v-8q0 -56 -21 -96t-75 -80q-122 -84 -451 -84zM1337 147v195l525 414h411v-389h154v-220h-154v-147h-379v147h-557z
M1894 571l-260 -204h260v204z" />
    <glyph glyph-name="questiondown" unicode="&#xbf;" horiz-adv-x="1841" 
d="M727 582v10h557v-137q0 -122 -61 -189q-56 -65 -258 -112l-203 -48q-101 -22 -140.5 -47.5t-39.5 -62.5q0 -33 14 -47q15 -19 90.5 -32t202.5 -13q190 0 270 43q34 15 55 45q19 27 23 41.5t6 46.5h563v-25q0 -42 -4 -88q-2 -40 -20.5 -96.5t-48.5 -91.5
q-36 -45 -100.5 -88.5t-147.5 -67.5q-195 -65 -535 -65h-108q-397 0 -604 94q-235 113 -228 340v14q0 309 387 404l207 49q76 18 99.5 42.5t23.5 80.5zM1288 702h-575v400h575v-400z" />
    <glyph glyph-name="Agrave" unicode="&#xc0;" horiz-adv-x="2267" 
d="M852 627h506l-256 524zM2300 0h-637l-119 246h-870l-117 -246h-590l754 1524h782zM641 1933h571l162 -317h-526z" />
    <glyph glyph-name="Aacute" unicode="&#xc1;" horiz-adv-x="2267" 
d="M852 627h506l-256 524zM2300 0h-637l-119 246h-870l-117 -246h-590l754 1524h782zM1380 1616h-526l162 317h571z" />
    <glyph glyph-name="Acircumflex" unicode="&#xc2;" horiz-adv-x="2267" 
d="M852 627h506l-256 524zM2300 0h-637l-119 246h-870l-117 -246h-590l754 1524h782zM821 1933h578l336 -317h-500l-127 119l-125 -119h-494z" />
    <glyph glyph-name="Atilde" unicode="&#xc3;" horiz-adv-x="2267" 
d="M852 627h506l-256 524zM2300 0h-637l-119 246h-870l-117 -246h-590l754 1524h782zM1384 1624h-10q-99 0 -276 59q-46 16 -74 23.5t-48.5 7t-29 -11t-8.5 -31.5v-59h-330v174q0 90 55 145.5t177 55.5h8q37 0 106 -11q41 -5 76 -20l47 -14l51 -15q95 -31 121 -31
q35 0 35 41v60h330v-162q0 -211 -230 -211z" />
    <glyph glyph-name="Adieresis" unicode="&#xc4;" horiz-adv-x="2267" 
d="M852 627h506l-256 524zM2300 0h-637l-119 246h-870l-117 -246h-590l754 1524h782zM1161 1933h502v-317h-502v317zM559 1933h504v-317h-504v317z" />
    <glyph glyph-name="Aring" unicode="&#xc5;" horiz-adv-x="2267" 
d="M852 627h506l-256 524zM2300 0h-637l-119 246h-870l-117 -246h-590l754 1524h782zM1114 2085q404 0 404 -244t-404 -244q-409 0 -409 244t409 244zM956 1843q0 -94 158 -94q154 0 154 94q0 90 -154 90q-158 0 -158 -90z" />
    <glyph glyph-name="AE" unicode="&#xc6;" horiz-adv-x="3104" 
d="M977 618h391v545zM3035 0h-1667v238h-666l-170 -238h-585l1106 1524h1966v-373h-1077v-190h1056v-371h-1056v-209h1093v-381z" />
    <glyph glyph-name="Ccedilla" unicode="&#xc7;" horiz-adv-x="2306" 
d="M1204 -29h-80q-257 0 -461 51t-323 134q-109 76 -182 188q-65 102 -88 192.5t-23 200.5v60q0 113 22 201.5t85 187.5q67 108 178 184q118 82 324.5 132t467.5 50h80q536 0 805 -182q76 -48 130 -107.5t79.5 -119.5t36 -109.5t10.5 -97.5v-27h-604q-71 234 -502 234
q-510 0 -510 -357v-24q0 -138 101 -250q57 -61 162 -95t249 -34q120 0 217.5 22t151.5 54q45 25 82 71q9 12 16 21.5t12 18.5t7.5 14.5t5.5 13.5t4 10.5t3 12t3 12.5h602v-33q0 -77 -23.5 -149t-87.5 -158q-74 -92 -180 -160q-115 -72 -317 -117t-453 -45zM1157 -530h-358
v188h223q74 0 74 45t-74 45h-145v252h282v-100q120 -2 198 -16t121 -41.5t59 -63t15 -88.5v-6q0 -99 -86 -158q-80 -57 -309 -57z" />
    <glyph glyph-name="Egrave" unicode="&#xc8;" horiz-adv-x="1869" 
d="M98 0v1524h1686v-373h-1112v-190h1089v-371h-1089v-209h1128v-381h-1702zM532 1933h572l162 -317h-527z" />
    <glyph glyph-name="Eacute" unicode="&#xc9;" horiz-adv-x="1869" 
d="M98 0v1524h1686v-373h-1112v-190h1089v-371h-1089v-209h1128v-381h-1702zM1200 1616h-526l162 317h571z" />
    <glyph glyph-name="Ecircumflex" unicode="&#xca;" horiz-adv-x="1869" 
d="M98 0v1524h1686v-373h-1112v-190h1089v-371h-1089v-209h1128v-381h-1702zM672 1933h577l336 -317h-500l-127 119l-124 -119h-494z" />
    <glyph glyph-name="Edieresis" unicode="&#xcb;" horiz-adv-x="1869" 
d="M98 0v1524h1686v-373h-1112v-190h1089v-371h-1089v-209h1128v-381h-1702zM1010 1933h501v-317h-501v317zM408 1933h503v-317h-503v317z" />
    <glyph glyph-name="Igrave" unicode="&#xcc;" horiz-adv-x="776" 
d="M98 1524h580v-1524h-580v1524zM-80 1933h572l161 -317h-526z" />
    <glyph glyph-name="Iacute" unicode="&#xcd;" horiz-adv-x="776" 
d="M98 1524h580v-1524h-580v1524zM657 1616h-526l162 317h571z" />
    <glyph glyph-name="Icircumflex" unicode="&#xce;" horiz-adv-x="776" 
d="M98 1524h580v-1524h-580v1524zM98 1933h578l336 -317h-500l-127 119l-125 -119h-493z" />
    <glyph glyph-name="Idieresis" unicode="&#xcf;" horiz-adv-x="776" 
d="M98 1524h580v-1524h-580v1524zM438 1933h502v-317h-502v317zM-164 1933h504v-317h-504v317z" />
    <glyph glyph-name="Eth" unicode="&#xd0;" horiz-adv-x="2351" 
d="M1212 0h-1083v606h-125v322h125v596h1081q246 0 444 -40t324 -110q339 -198 332 -571v-62q0 -121 -28 -217.5t-99 -191.5q-74 -103 -192 -172q-123 -72 -325 -116t-454 -44zM1143 1124h-432v-196h616v-322h-616v-203h432q563 0 563 357v12q0 352 -563 352z" />
    <glyph glyph-name="Ntilde" unicode="&#xd1;" horiz-adv-x="2310" 
d="M98 0v1524h652l884 -867v867h578v-1524h-582l-954 924v-924h-578zM1436 1624h-11q-99 0 -276 59q-46 16 -74 23.5t-48.5 7t-29 -11t-8.5 -31.5v-59h-330v174q0 90 55 145.5t177 55.5h8q38 0 107 -11q40 -5 75 -20l47 -14l52 -15q95 -31 120 -31q35 0 35 41v60h330v-162
q0 -211 -229 -211z" />
    <glyph glyph-name="Ograve" unicode="&#xd2;" horiz-adv-x="2408" 
d="M1159 1552h92q580 0 848 -209q83 -61 133 -126t80 -146q49 -124 49 -274v-62q4 -234 -127 -422q-50 -69 -136.5 -133.5t-194.5 -107.5q-257 -101 -652 -101h-92q-575 0 -852 211q-83 63 -131.5 128.5t-81.5 148.5q-47 128 -47 276v62q0 244 125 417q255 338 987 338z
M1759 754v28q0 140 -108 240q-58 57 -174 89t-273 32q-161 0 -276.5 -32t-173.5 -89q-105 -102 -105 -240v-24q0 -135 107 -248q59 -59 175.5 -93t272.5 -34q157 0 274 33.5t175 91.5q106 106 106 246zM735 1933h572l161 -317h-526z" />
    <glyph glyph-name="Oacute" unicode="&#xd3;" horiz-adv-x="2408" 
d="M1159 1552h92q580 0 848 -209q83 -61 133 -126t80 -146q49 -124 49 -274v-62q4 -234 -127 -422q-50 -69 -136.5 -133.5t-194.5 -107.5q-257 -101 -652 -101h-92q-575 0 -852 211q-83 63 -131.5 128.5t-81.5 148.5q-47 128 -47 276v62q0 244 125 417q255 338 987 338z
M1759 754v28q0 140 -108 240q-58 57 -174 89t-273 32q-161 0 -276.5 -32t-173.5 -89q-105 -102 -105 -240v-24q0 -135 107 -248q59 -59 175.5 -93t272.5 -34q157 0 274 33.5t175 91.5q106 106 106 246zM1473 1616h-527l162 317h571z" />
    <glyph glyph-name="Ocircumflex" unicode="&#xd4;" horiz-adv-x="2408" 
d="M1159 1552h92q580 0 848 -209q83 -61 133 -126t80 -146q49 -124 49 -274v-62q4 -234 -127 -422q-50 -69 -136.5 -133.5t-194.5 -107.5q-257 -101 -652 -101h-92q-575 0 -852 211q-83 63 -131.5 128.5t-81.5 148.5q-47 128 -47 276v62q0 244 125 417q255 338 987 338z
M1759 754v28q0 140 -108 240q-58 57 -174 89t-273 32q-161 0 -276.5 -32t-173.5 -89q-105 -102 -105 -240v-24q0 -135 107 -248q59 -59 175.5 -93t272.5 -34q157 0 274 33.5t175 91.5q106 106 106 246zM915 1933h578l336 -317h-500l-127 119l-125 -119h-493z" />
    <glyph glyph-name="Otilde" unicode="&#xd5;" horiz-adv-x="2408" 
d="M1159 1552h92q580 0 848 -209q83 -61 133 -126t80 -146q49 -124 49 -274v-62q4 -234 -127 -422q-50 -69 -136.5 -133.5t-194.5 -107.5q-257 -101 -652 -101h-92q-575 0 -852 211q-83 63 -131.5 128.5t-81.5 148.5q-47 128 -47 276v62q0 244 125 417q255 338 987 338z
M1759 754v28q0 140 -108 240q-58 57 -174 89t-273 32q-161 0 -276.5 -32t-173.5 -89q-105 -102 -105 -240v-24q0 -135 107 -248q59 -59 175.5 -93t272.5 -34q157 0 274 33.5t175 91.5q106 106 106 246zM1475 1628h-11q-96 0 -276 60q-45 16 -73.5 23.5t-49 7t-29 -11.5
t-8.5 -32v-59h-330v174q0 90 55 145.5t177 55.5h8q37 0 106 -11q41 -5 76 -20l47 -14l52 -15q91 -30 120 -30q35 0 35 41v59h330v-162q0 -211 -229 -211z" />
    <glyph glyph-name="Odieresis" unicode="&#xd6;" horiz-adv-x="2408" 
d="M1159 1552h92q580 0 848 -209q83 -61 133 -126t80 -146q49 -124 49 -274v-62q4 -234 -127 -422q-50 -69 -136.5 -133.5t-194.5 -107.5q-257 -101 -652 -101h-92q-575 0 -852 211q-83 63 -131.5 128.5t-81.5 148.5q-47 128 -47 276v62q0 244 125 417q255 338 987 338z
M1759 754v28q0 140 -108 240q-58 57 -174 89t-273 32q-161 0 -276.5 -32t-173.5 -89q-105 -102 -105 -240v-24q0 -135 107 -248q59 -59 175.5 -93t272.5 -34q157 0 274 33.5t175 91.5q106 106 106 246zM1253 1933h502v-317h-502v317zM651 1933h504v-317h-504v317z" />
    <glyph glyph-name="multiply" unicode="&#xd7;" horiz-adv-x="1128" 
d="M1102 365l-219 -240l-320 285l-315 -285l-223 242l292 264l-290 258l217 246l317 -285l316 285l225 -242l-295 -264z" />
    <glyph glyph-name="Oslash" unicode="&#xd8;" horiz-adv-x="2418" 
d="M1257 -27h-94q-371 0 -614 97l-90 -70h-471q26 23 90 70l196 151q-229 195 -229 512v62q-4 238 127 419q258 333 991 336h94q355 0 603 -94l88 68h473l-283 -219q236 -199 236 -510v-62q0 -69 -9.5 -132.5t-40 -142t-79.5 -144.5t-135.5 -131t-200 -110t-281 -72.5
t-371.5 -27.5zM641 784v-26q0 -120 64 -205l745 584q-99 12 -242 12q-331 0 -460 -119q-107 -104 -107 -246zM1208 379q161 0 278.5 32.5t178.5 90.5q113 105 113 254v28q0 114 -60 199l-755 -590q112 -14 245 -14z" />
    <glyph glyph-name="Ugrave" unicode="&#xd9;" horiz-adv-x="2260" 
d="M82 797v727h584v-682q0 -158 88 -275q48 -63 146.5 -99t232.5 -36q132 0 229 36t145 99q90 115 90 275v682h582v-727q0 -114 -22 -210.5t-84 -205.5q-65 -117 -170 -203q-110 -91 -300.5 -147t-426.5 -56h-82q-243 0 -437 56t-305 147q-105 86 -170 203
q-59 111 -79.5 205.5t-20.5 210.5zM684 1931h571l162 -317h-526z" />
    <glyph glyph-name="Uacute" unicode="&#xda;" horiz-adv-x="2260" 
d="M82 797v727h584v-682q0 -158 88 -275q48 -63 146.5 -99t232.5 -36q132 0 229 36t145 99q90 115 90 275v682h582v-727q0 -114 -22 -210.5t-84 -205.5q-65 -117 -170 -203q-110 -91 -300.5 -147t-426.5 -56h-82q-243 0 -437 56t-305 147q-105 86 -170 203
q-59 111 -79.5 205.5t-20.5 210.5zM1370 1616h-526l162 317h571z" />
    <glyph glyph-name="Ucircumflex" unicode="&#xdb;" horiz-adv-x="2260" 
d="M82 797v727h584v-682q0 -158 88 -275q48 -63 146.5 -99t232.5 -36q132 0 229 36t145 99q90 115 90 275v682h582v-727q0 -114 -22 -210.5t-84 -205.5q-65 -117 -170 -203q-110 -91 -300.5 -147t-426.5 -56h-82q-243 0 -437 56t-305 147q-105 86 -170 203
q-59 111 -79.5 205.5t-20.5 210.5zM838 1933h577l336 -317h-500l-127 119l-125 -119h-493z" />
    <glyph glyph-name="Udieresis" unicode="&#xdc;" horiz-adv-x="2260" 
d="M82 797v727h584v-682q0 -158 88 -275q48 -63 146.5 -99t232.5 -36q132 0 229 36t145 99q90 115 90 275v682h582v-727q0 -114 -22 -210.5t-84 -205.5q-65 -117 -170 -203q-110 -91 -300.5 -147t-426.5 -56h-82q-243 0 -437 56t-305 147q-105 86 -170 203
q-59 111 -79.5 205.5t-20.5 210.5zM1180 1933h501v-317h-501v317zM578 1933h503v-317h-503v317z" />
    <glyph glyph-name="Yacute" unicode="&#xdd;" horiz-adv-x="2148" 
d="M1374 0h-581v573l-834 951h696l445 -527l452 527h637l-815 -955v-569zM1352 1616h-527l162 317h572z" />
    <glyph glyph-name="Thorn" unicode="&#xde;" horiz-adv-x="2119" 
d="M1354 246h-674v-246h-582v1524h582v-230h674q397 0 565 -133q168 -131 168 -373v-30q0 -512 -733 -512zM1292 915h-612v-286h612q191 0 191 141v6q0 139 -191 139z" />
    <glyph glyph-name="germandbls" unicode="&#xdf;" horiz-adv-x="1875" 
d="M1456 891q180 -34 283.5 -134t103.5 -265v-25q0 -467 -649 -467h-442v346h266q131 0 185 35.5t54 105.5v5q0 70 -53.5 104.5t-183.5 34.5h-268v348h245q193 0 193 111v2q0 25 -7 42t-30.5 36.5t-79 29.5t-141.5 10h-43q-140 0 -195 -37.5t-55 -125.5v-1047h-557v1079
q0 74 15 129t57 113q131 198 659 203h160q190 0 338 -22.5t229 -57.5q82 -37 121 -84q41 -47 53 -87t12 -102v-14q0 -101 -77 -174t-193 -92z" />
    <glyph glyph-name="agrave" unicode="&#xe0;" horiz-adv-x="1732" 
d="M1067 473v47l-369 -65q-74 -12 -104.5 -33t-30.5 -62v-2q0 -51 42.5 -81.5t131.5 -30.5q150 0 238 67q92 71 92 160zM1077 147q-167 -167 -516 -167h-22q-259 0 -385 102q-125 101 -125 252v24q0 145 105.5 223.5t340.5 96.5l531 47q61 9 61 53q0 19 -8 32t-31 26
t-73.5 19.5t-127.5 6.5h-8q-168 0 -213 -45q-20 -23 -25 -33t-10 -34h-516v12q0 62 11 101t49 91q41 56 110 90q77 38 217 62t320 24h115q190 0 335 -22t222 -59q73 -34 116 -86q40 -47 51 -86t11 -101v-407q0 -47 47 -47h59v-322h-463q-154 0 -178 147zM905 1524l180 -330
h-505l-228 330h553z" />
    <glyph glyph-name="aacute" unicode="&#xe1;" horiz-adv-x="1732" 
d="M1067 473v47l-369 -65q-74 -12 -104.5 -33t-30.5 -62v-2q0 -51 42.5 -81.5t131.5 -30.5q150 0 238 67q92 71 92 160zM1077 147q-167 -167 -516 -167h-22q-259 0 -385 102q-125 101 -125 252v24q0 145 105.5 223.5t340.5 96.5l531 47q61 9 61 53q0 19 -8 32t-31 26
t-73.5 19.5t-127.5 6.5h-8q-168 0 -213 -45q-20 -23 -25 -33t-10 -34h-516v12q0 62 11 101t49 91q41 56 110 90q77 38 217 62t320 24h115q190 0 335 -22t222 -59q73 -34 116 -86q40 -47 51 -86t11 -101v-407q0 -47 47 -47h59v-322h-463q-154 0 -178 147zM1077 1194h-504
l183 330h549z" />
    <glyph glyph-name="acircumflex" unicode="&#xe2;" horiz-adv-x="1732" 
d="M1067 473v47l-369 -65q-74 -12 -104.5 -33t-30.5 -62v-2q0 -51 42.5 -81.5t131.5 -30.5q150 0 238 67q92 71 92 160zM1077 147q-167 -167 -516 -167h-22q-259 0 -385 102q-125 101 -125 252v24q0 145 105.5 223.5t340.5 96.5l531 47q61 9 61 53q0 19 -8 32t-31 26
t-73.5 19.5t-127.5 6.5h-8q-168 0 -213 -45q-20 -23 -25 -33t-10 -34h-516v12q0 62 11 101t49 91q41 56 110 90q77 38 217 62t320 24h115q190 0 335 -22t222 -59q73 -34 116 -86q40 -47 51 -86t11 -101v-407q0 -47 47 -47h59v-322h-463q-154 0 -178 147zM535 1524h575
l313 -332h-485l-119 135l-119 -135h-477z" />
    <glyph glyph-name="atilde" unicode="&#xe3;" horiz-adv-x="1732" 
d="M1067 473v47l-369 -65q-74 -12 -104.5 -33t-30.5 -62v-2q0 -51 42.5 -81.5t131.5 -30.5q150 0 238 67q92 71 92 160zM1077 147q-167 -167 -516 -167h-22q-259 0 -385 102q-125 101 -125 252v24q0 145 105.5 223.5t340.5 96.5l531 47q61 9 61 53q0 19 -8 32t-31 26
t-73.5 19.5t-127.5 6.5h-8q-168 0 -213 -45q-20 -23 -25 -33t-10 -34h-516v12q0 62 11 101t49 91q41 56 110 90q77 38 217 62t320 24h115q190 0 335 -22t222 -59q73 -34 116 -86q40 -47 51 -86t11 -101v-407q0 -47 47 -47h59v-322h-463q-154 0 -178 147zM1083 1202h-8
q-84 0 -270 60q-95 28 -115 28q-33 0 -33 -43v-55h-325v166q0 90 52.5 144t172.5 54h8q96 0 273 -57q95 -31 112 -31q31 0 31 41v60h328v-156q0 -211 -226 -211z" />
    <glyph glyph-name="adieresis" unicode="&#xe4;" horiz-adv-x="1732" 
d="M1067 473v47l-369 -65q-74 -12 -104.5 -33t-30.5 -62v-2q0 -51 42.5 -81.5t131.5 -30.5q150 0 238 67q92 71 92 160zM1077 147q-167 -167 -516 -167h-22q-259 0 -385 102q-125 101 -125 252v24q0 145 105.5 223.5t340.5 96.5l531 47q61 9 61 53q0 19 -8 32t-31 26
t-73.5 19.5t-127.5 6.5h-8q-168 0 -213 -45q-20 -23 -25 -33t-10 -34h-516v12q0 62 11 101t49 91q41 56 110 90q77 38 217 62t320 24h115q190 0 335 -22t222 -59q73 -34 116 -86q40 -47 51 -86t11 -101v-407q0 -47 47 -47h59v-322h-463q-154 0 -178 147zM868 1524h488v-330
h-488v330zM289 1524h485v-330h-485v330z" />
    <glyph glyph-name="aring" unicode="&#xe5;" horiz-adv-x="1732" 
d="M1067 473v47l-369 -65q-74 -12 -104.5 -33t-30.5 -62v-2q0 -51 42.5 -81.5t131.5 -30.5q150 0 238 67q92 71 92 160zM1077 147q-167 -167 -516 -167h-22q-259 0 -385 102q-125 101 -125 252v24q0 145 105.5 223.5t340.5 96.5l531 47q61 9 61 53q0 19 -8 32t-31 26
t-73.5 19.5t-127.5 6.5h-8q-168 0 -213 -45q-20 -23 -25 -33t-10 -34h-516v12q0 62 11 101t49 91q41 56 110 90q77 38 217 62t320 24h115q190 0 335 -22t222 -59q73 -34 116 -86q40 -47 51 -86t11 -101v-407q0 -47 47 -47h59v-322h-463q-154 0 -178 147zM416 1425
q0 242 405 242q400 0 400 -242q0 -243 -400 -243q-405 0 -405 243zM668 1425q0 -92 153 -92q150 0 150 92q0 91 -150 91q-153 0 -153 -91z" />
    <glyph glyph-name="ae" unicode="&#xe6;" horiz-adv-x="2828" 
d="M1927 862h-4q-275 0 -315 -166h635q-34 166 -316 166zM735 244q146 0 234 67q90 72 90 162v47l-365 -63q-73 -12 -103 -33t-30 -62v-2q0 -53 43 -84.5t131 -31.5zM2245 401h544v-4q0 -62 -15.5 -110t-63.5 -105q-45 -56 -134 -106q-88 -46 -242.5 -75.5t-348.5 -29.5
h-113q-498 0 -701 232q-201 -223 -577 -223h-23q-284 0 -413 100q-129 102 -129 254v24q0 144 106 223t338 99l539 47q28 4 37.5 15.5t9.5 37.5v2q0 23 -13.5 38t-69 27.5t-155.5 12.5h-10q-240 0 -240 -110h-514v12q0 61 9.5 99t44.5 89q41 56 110 90q74 39 214 64.5
t321 25.5h112q362 0 512 -102q159 102 486 102h116q200 0 354 -36.5t244 -96.5q87 -62 134 -143q48 -79 63.5 -150.5t15.5 -171.5v-61h-1191q27 -203 331 -203h2q76 0 135 12t90.5 28t52 36.5t26.5 34t6 22.5z" />
    <glyph glyph-name="ccedilla" unicode="&#xe7;" horiz-adv-x="1816" 
d="M973 -31h-123q-195 0 -349 36.5t-243 96.5q-86 61 -137 138q-48 77 -65 144.5t-17 154.5v36q0 558 809 558h127q200 0 359 -36t245 -93q82 -52 131 -125q47 -68 61.5 -120t14.5 -118v-6h-569q-9 52 -56 108q-30 38 -95 60t-155 22h-8q-156 0 -227.5 -69t-71.5 -187v-10
q0 -125 73.5 -201.5t225.5 -76.5h8q88 0 153 23t95 61q48 60 58 114h569v-4q0 -39 -5 -75.5t-24.5 -89.5t-52.5 -97.5t-95 -91t-144.5 -79t-209.5 -53t-282 -20.5zM891 -530h-359v188h224q73 0 73 45t-73 45h-146v252h283v-100q120 -2 198 -16t121 -41.5t59 -63t15 -88.5v-6
q0 -99 -86 -158q-80 -57 -309 -57z" />
    <glyph glyph-name="egrave" unicode="&#xe8;" horiz-adv-x="1818" 
d="M909 862q-271 0 -317 -166h635q-34 166 -318 166zM1231 401h549v-4q0 -61 -16 -109.5t-64 -107.5q-49 -58 -135 -106q-91 -46 -247.5 -75.5t-350.5 -29.5h-109q-189 0 -340 34t-242 91q-237 149 -237 443v41q0 555 813 555h113q430 0 622 -154q113 -88 155 -199t42 -248
v-61h-1198q27 -203 334 -203h2q75 0 133 11.5t89 27.5t52 36.5t27 33.5t8 24zM979 1524l180 -330h-506l-227 330h553z" />
    <glyph glyph-name="eacute" unicode="&#xe9;" horiz-adv-x="1818" 
d="M909 862q-271 0 -317 -166h635q-34 166 -318 166zM1231 401h549v-4q0 -61 -16 -109.5t-64 -107.5q-49 -58 -135 -106q-91 -46 -247.5 -75.5t-350.5 -29.5h-109q-189 0 -340 34t-242 91q-237 149 -237 443v41q0 555 813 555h113q430 0 622 -154q113 -88 155 -199t42 -248
v-61h-1198q27 -203 334 -203h2q75 0 133 11.5t89 27.5t52 36.5t27 33.5t8 24zM1167 1194h-503l182 330h549z" />
    <glyph glyph-name="ecircumflex" unicode="&#xea;" horiz-adv-x="1818" 
d="M909 862q-271 0 -317 -166h635q-34 166 -318 166zM1231 401h549v-4q0 -61 -16 -109.5t-64 -107.5q-49 -58 -135 -106q-91 -46 -247.5 -75.5t-350.5 -29.5h-109q-189 0 -340 34t-242 91q-237 149 -237 443v41q0 555 813 555h113q430 0 622 -154q113 -88 155 -199t42 -248
v-61h-1198q27 -203 334 -203h2q75 0 133 11.5t89 27.5t52 36.5t27 33.5t8 24zM625 1524h575l313 -332h-485l-119 135l-118 -135h-478z" />
    <glyph glyph-name="edieresis" unicode="&#xeb;" horiz-adv-x="1818" 
d="M909 862q-271 0 -317 -166h635q-34 166 -318 166zM1231 401h549v-4q0 -61 -16 -109.5t-64 -107.5q-49 -58 -135 -106q-91 -46 -247.5 -75.5t-350.5 -29.5h-109q-189 0 -340 34t-242 91q-237 149 -237 443v41q0 555 813 555h113q430 0 622 -154q113 -88 155 -199t42 -248
v-61h-1198q27 -203 334 -203h2q75 0 133 11.5t89 27.5t52 36.5t27 33.5t8 24zM958 1524h488v-330h-488v330zM379 1524h485v-330h-485v330z" />
    <glyph glyph-name="igrave" unicode="&#xec;" horiz-adv-x="720" 
d="M82 1102h557v-1102h-557v1102zM434 1524l180 -330h-505l-228 330h553z" />
    <glyph glyph-name="iacute" unicode="&#xed;" horiz-adv-x="720" 
d="M82 1102h557v-1102h-557v1102zM614 1194h-503l182 330h549z" />
    <glyph glyph-name="icircumflex" unicode="&#xee;" horiz-adv-x="720" 
d="M102 1524h514l224 -330h-394l-90 135l-88 -135h-389zM82 1102h557v-1102h-557v1102z" />
    <glyph glyph-name="idieresis" unicode="&#xef;" horiz-adv-x="720" 
d="M397 1524h387v-330h-387v330zM-63 1524h385v-330h-385v330zM82 1102h557v-1102h-557v1102z" />
    <glyph glyph-name="eth" unicode="&#xf0;" horiz-adv-x="1898" 
d="M997 -31h-112q-140 0 -258 17.5t-204 47.5t-153 72.5t-110 90t-70.5 104t-39 110t-11.5 111.5v47q0 215 133 365q73 79 202.5 122.5t305.5 43.5h29q253 0 452 -99l-270 195l-565 -61v186l340 37l-228 166h670l143 -103l437 47v-186l-209 -22q203 -148 292 -300t89 -342
v-40q0 -99 -14.5 -167.5t-61.5 -152.5q-54 -91 -139 -147q-95 -62 -264 -102t-384 -40zM1294 551v8q0 114 -84.5 186t-259.5 72h-4q-176 0 -260 -70.5t-84 -187.5v-8q0 -110 78 -191q80 -77 266 -77h2q186 0 266 77q80 80 80 191z" />
    <glyph glyph-name="ntilde" unicode="&#xf1;" horiz-adv-x="1837" 
d="M639 0h-557v1102h553v-195l47 43q24 20 76 56q51 35 114 59q146 61 332 61h13q144 0 253.5 -38.5t171.5 -106.5q115 -121 115 -272v-709h-559v526q0 120 -66.5 187t-199.5 67q-136 0 -214.5 -73t-78.5 -195v-512zM1182 1198h-8q-88 0 -271 59q-98 29 -115 29
q-32 0 -32 -43v-55h-326v166q0 90 52.5 144t172.5 54h9q95 0 272 -57q95 -31 113 -31q30 0 30 41v60h328v-156q0 -211 -225 -211z" />
    <glyph glyph-name="ograve" unicode="&#xf2;" horiz-adv-x="1898" 
d="M1026 -31h-152q-193 0 -348.5 36t-251.5 95q-87 57 -143 138q-52 75 -72 146t-20 157v32q0 84 19.5 153.5t70.5 143.5q59 81 143 134q92 58 248.5 93.5t351.5 35.5h156q832 0 832 -558v-36q0 -92 -16 -158.5t-66 -142.5q-52 -82 -138 -138q-91 -59 -250.5 -95t-363.5 -36
zM952 821h-2q-189 0 -268 -76q-78 -75 -78 -182v-8q0 -109 78 -193q79 -79 268 -79h2q186 0 265 82t79 190v8q0 117 -84 187.5t-260 70.5zM1022 1524l180 -330h-506l-227 330h553z" />
    <glyph glyph-name="oacute" unicode="&#xf3;" horiz-adv-x="1898" 
d="M1026 -31h-152q-193 0 -348.5 36t-251.5 95q-87 57 -143 138q-52 75 -72 146t-20 157v32q0 84 19.5 153.5t70.5 143.5q59 81 143 134q92 58 248.5 93.5t351.5 35.5h156q832 0 832 -558v-36q0 -92 -16 -158.5t-66 -142.5q-52 -82 -138 -138q-91 -59 -250.5 -95t-363.5 -36
zM952 821h-2q-189 0 -268 -76q-78 -75 -78 -182v-8q0 -109 78 -193q79 -79 268 -79h2q186 0 265 82t79 190v8q0 117 -84 187.5t-260 70.5zM1200 1194h-504l183 330h548z" />
    <glyph glyph-name="ocircumflex" unicode="&#xf4;" horiz-adv-x="1898" 
d="M1026 -31h-152q-193 0 -348.5 36t-251.5 95q-87 57 -143 138q-52 75 -72 146t-20 157v32q0 84 19.5 153.5t70.5 143.5q59 81 143 134q92 58 248.5 93.5t351.5 35.5h156q832 0 832 -558v-36q0 -92 -16 -158.5t-66 -142.5q-52 -82 -138 -138q-91 -59 -250.5 -95t-363.5 -36
zM952 821h-2q-189 0 -268 -76q-78 -75 -78 -182v-8q0 -109 78 -193q79 -79 268 -79h2q186 0 265 82t79 190v8q0 117 -84 187.5t-260 70.5zM662 1524h575l313 -332h-485l-119 135l-119 -135h-477z" />
    <glyph glyph-name="otilde" unicode="&#xf5;" horiz-adv-x="1898" 
d="M1026 -31h-152q-193 0 -348.5 36t-251.5 95q-87 57 -143 138q-52 75 -72 146t-20 157v32q0 84 19.5 153.5t70.5 143.5q59 81 143 134q92 58 248.5 93.5t351.5 35.5h156q832 0 832 -558v-36q0 -92 -16 -158.5t-66 -142.5q-52 -82 -138 -138q-91 -59 -250.5 -95t-363.5 -36
zM952 821h-2q-189 0 -268 -76q-78 -75 -78 -182v-8q0 -109 78 -193q79 -79 268 -79h2q186 0 265 82t79 190v8q0 117 -84 187.5t-260 70.5zM1208 1202h-8q-84 0 -270 60q-95 28 -115 28q-33 0 -33 -43v-55h-325v166q0 90 52.5 144t172.5 54h8q96 0 273 -57q95 -31 112 -31
q31 0 31 41v60h328v-156q0 -211 -226 -211z" />
    <glyph glyph-name="odieresis" unicode="&#xf6;" horiz-adv-x="1898" 
d="M1026 -31h-152q-193 0 -348.5 36t-251.5 95q-87 57 -143 138q-52 75 -72 146t-20 157v32q0 84 19.5 153.5t70.5 143.5q59 81 143 134q92 58 248.5 93.5t351.5 35.5h156q832 0 832 -558v-36q0 -92 -16 -158.5t-66 -142.5q-52 -82 -138 -138q-91 -59 -250.5 -95t-363.5 -36
zM952 821h-2q-189 0 -268 -76q-78 -75 -78 -182v-8q0 -109 78 -193q79 -79 268 -79h2q186 0 265 82t79 190v8q0 117 -84 187.5t-260 70.5zM995 1524h488v-330h-488v330zM416 1524h485v-330h-485v330z" />
    <glyph glyph-name="divide" unicode="&#xf7;" horiz-adv-x="1257" 
d="M424 1212h410v-327h-410v327zM61 477v309h1135v-309h-1135zM424 375h410v-328h-410v328z" />
    <glyph glyph-name="oslash" unicode="&#xf8;" horiz-adv-x="1898" 
d="M1022 -31h-152q-268 0 -460 80l-76 -49h-363l242 168q-174 131 -174 373v32q0 84 20 153.5t72 143.5q59 81 143 134q95 58 251.5 93.5t351.5 35.5h153q257 0 457 -78l69 47h369l-235 -162q170 -141 170 -365v-36q0 -570 -838 -570zM592 563v-8q0 -66 20 -113l521 361
q-79 24 -181 24h-4q-184 0 -270 -72.5t-86 -191.5zM950 279h2q197 0 275 81q82 82 82 195v8q0 59 -17 101l-518 -361q70 -24 176 -24z" />
    <glyph glyph-name="ugrave" unicode="&#xf9;" horiz-adv-x="1816" 
d="M1180 1102h555v-1102h-553v197q-222 -222 -559 -222h-15q-143 0 -252 40.5t-168 109.5q-108 131 -108 281v696h559v-527q0 -119 63.5 -186t190.5 -67q133 0 210 74.5t77 193.5v512zM987 1524l180 -330h-505l-228 330h553z" />
    <glyph glyph-name="uacute" unicode="&#xfa;" horiz-adv-x="1816" 
d="M1180 1102h555v-1102h-553v197q-222 -222 -559 -222h-15q-143 0 -252 40.5t-168 109.5q-108 131 -108 281v696h559v-527q0 -119 63.5 -186t190.5 -67q133 0 210 74.5t77 193.5v512zM1149 1194h-504l182 330h549z" />
    <glyph glyph-name="ucircumflex" unicode="&#xfb;" horiz-adv-x="1816" 
d="M1180 1102h555v-1102h-553v197q-222 -222 -559 -222h-15q-143 0 -252 40.5t-168 109.5q-108 131 -108 281v696h559v-527q0 -119 63.5 -186t190.5 -67q133 0 210 74.5t77 193.5v512zM618 1524h576l313 -332h-485l-119 135l-119 -135h-477z" />
    <glyph glyph-name="udieresis" unicode="&#xfc;" horiz-adv-x="1816" 
d="M1180 1102h555v-1102h-553v197q-222 -222 -559 -222h-15q-143 0 -252 40.5t-168 109.5q-108 131 -108 281v696h559v-527q0 -119 63.5 -186t190.5 -67q133 0 210 74.5t77 193.5v512zM952 1524h488v-330h-488v330zM373 1524h485v-330h-485v330z" />
    <glyph glyph-name="yacute" unicode="&#xfd;" horiz-adv-x="1693" 
d="M762 -385h-518v340h250q51 0 51 35v2q0 21 -47 110l-521 1000h594l308 -709l284 709h553l-530 -1149q-82 -180 -180.5 -259t-243.5 -79zM1102 1194h-504l182 330h549z" />
    <glyph glyph-name="thorn" unicode="&#xfe;" horiz-adv-x="1910" 
d="M639 557v-8q0 -110 91.5 -186t250.5 -76h10q167 0 242 78q74 77 74 184v8q0 118 -77 189t-239 71h-10q-164 0 -253 -73t-89 -187zM82 -385v1909h557v-576q201 174 537 174h43q180 0 312.5 -44.5t205.5 -125.5q135 -146 135 -368v-43q0 -226 -141 -383
q-75 -84 -210.5 -131t-314.5 -47h-39q-203 0 -342 53q-141 57 -186 102v-520h-557z" />
    <glyph glyph-name="ydieresis" unicode="&#xff;" horiz-adv-x="1693" 
d="M762 -385h-518v340h250q51 0 51 35v2q0 21 -47 110l-521 1000h594l308 -709l284 709h553l-530 -1149q-82 -180 -180.5 -259t-243.5 -79zM915 1524h488v-330h-488v330zM336 1524h485v-330h-485v330z" />
    <glyph glyph-name="Amacron" unicode="&#x100;" horiz-adv-x="2267" 
d="M852 627h506l-256 524zM2300 0h-637l-119 246h-870l-117 -246h-590l754 1524h782zM1591 1632h-960v271h960v-271z" />
    <glyph glyph-name="amacron" unicode="&#x101;" horiz-adv-x="1732" 
d="M1067 473v47l-369 -65q-74 -12 -104.5 -33t-30.5 -62v-2q0 -51 42.5 -81.5t131.5 -30.5q150 0 238 67q92 71 92 160zM1077 147q-167 -167 -516 -167h-22q-259 0 -385 102q-125 101 -125 252v24q0 145 105.5 223.5t340.5 96.5l531 47q61 9 61 53q0 19 -8 32t-31 26
t-73.5 19.5t-127.5 6.5h-8q-168 0 -213 -45q-20 -23 -25 -33t-10 -34h-516v12q0 62 11 101t49 91q41 56 110 90q77 38 217 62t320 24h115q190 0 335 -22t222 -59q73 -34 116 -86q40 -47 51 -86t11 -101v-407q0 -47 47 -47h59v-322h-463q-154 0 -178 147zM1286 1217h-926v264
h926v-264z" />
    <glyph glyph-name="Abreve" unicode="&#x102;" horiz-adv-x="2267" 
d="M852 627h506l-256 524zM2300 0h-637l-119 246h-870l-117 -246h-590l754 1524h782zM1155 1602h-82q-136 0 -237 36.5t-146 98.5q-80 108 -80 213v4h375q0 -12 5.5 -27t18 -32.5t40.5 -29.5t67 -12t66.5 12t39.5 30t16.5 32.5t4.5 26.5h369v-4q0 -101 -90 -215
q-49 -59 -145.5 -96t-221.5 -37z" />
    <glyph glyph-name="abreve" unicode="&#x103;" horiz-adv-x="1732" 
d="M868 1184h-82q-111 0 -196.5 25.5t-133 62t-77.5 85t-39.5 87.5t-9.5 76v4h370q0 -37 32 -67t97 -30q62 0 94.5 30.5t32.5 66.5h365v-4q0 -99 -92 -207q-49 -58 -144.5 -93.5t-216.5 -35.5zM1067 473v47l-369 -65q-74 -12 -104.5 -33t-30.5 -62v-2q0 -51 42.5 -81.5
t131.5 -30.5q150 0 238 67q92 71 92 160zM1077 147q-167 -167 -516 -167h-22q-259 0 -385 102q-125 101 -125 252v24q0 145 105.5 223.5t340.5 96.5l531 47q61 9 61 53q0 19 -8 32t-31 26t-73.5 19.5t-127.5 6.5h-8q-168 0 -213 -45q-20 -23 -25 -33t-10 -34h-516v12
q0 62 11 101t49 91q41 56 110 90q77 38 217 62t320 24h115q190 0 335 -22t222 -59q73 -34 116 -86q40 -47 51 -86t11 -101v-407q0 -47 47 -47h59v-322h-463q-154 0 -178 147z" />
    <glyph glyph-name="Aogonek" unicode="&#x104;" horiz-adv-x="2267" 
d="M852 627h506l-256 524zM2300 0h-637l-119 246h-870l-117 -246h-590l754 1524h782zM1669 -238v7q0 78 92.5 130t302.5 101h234q-123 -80 -123 -125q0 -43 68 -43h55v-217h-328q-301 0 -301 147z" />
    <glyph glyph-name="aogonek" unicode="&#x105;" horiz-adv-x="1732" 
d="M1067 473v47l-369 -65q-74 -12 -104.5 -33t-30.5 -62v-2q0 -51 42.5 -81.5t131.5 -30.5q150 0 238 67q92 71 92 160zM1077 147q-167 -167 -516 -167h-22q-259 0 -385 102q-125 101 -125 252v24q0 145 105.5 223.5t340.5 96.5l531 47q61 9 61 53q0 19 -8 32t-31 26
t-73.5 19.5t-127.5 6.5h-8q-168 0 -213 -45q-20 -23 -25 -33t-10 -34h-516v12q0 62 11 101t49 91q41 56 110 90q77 38 217 62t320 24h115q190 0 335 -22t222 -59q73 -34 116 -86q40 -47 51 -86t11 -101v-407q0 -47 47 -47h59v-322h-463q-154 0 -178 147zM1090 -238v7
q0 78 92.5 130t302.5 101h233q-123 -80 -123 -125q0 -43 68 -43h55v-217h-327q-301 0 -301 147z" />
    <glyph glyph-name="Cacute" unicode="&#x106;" horiz-adv-x="2306" 
d="M1425 1622h-526l162 311h571zM1204 -29h-80q-257 0 -461 51t-323 134q-109 76 -182 188q-65 102 -88 192.5t-23 200.5v60q0 113 22 201.5t85 187.5q67 108 178 184q118 82 324.5 132t467.5 50h80q536 0 805 -182q76 -48 130 -107.5t79.5 -119.5t36 -109.5t10.5 -97.5v-27
h-604q-71 234 -502 234q-510 0 -510 -357v-24q0 -138 101 -250q57 -61 162 -95t249 -34q120 0 217.5 22t151.5 54q45 25 82 71q9 12 16 21.5t12 18.5t7.5 14.5t5.5 13.5t4 10.5t3 12t3 12.5h602v-33q0 -77 -23.5 -149t-87.5 -158q-74 -92 -180 -160q-115 -72 -317 -117
t-453 -45z" />
    <glyph glyph-name="cacute" unicode="&#x107;" horiz-adv-x="1816" 
d="M1163 1198h-504l181 326h549zM973 -31h-123q-195 0 -349 36.5t-243 96.5q-86 61 -137 138q-48 77 -65 144.5t-17 154.5v36q0 558 809 558h127q200 0 359 -36t245 -93q82 -52 131 -125q47 -68 61.5 -120t14.5 -118v-6h-569q-9 52 -56 108q-30 38 -95 60t-155 22h-8
q-156 0 -227.5 -69t-71.5 -187v-10q0 -125 73.5 -201.5t225.5 -76.5h8q88 0 153 23t95 61q48 60 58 114h569v-4q0 -39 -5 -75.5t-24.5 -89.5t-52.5 -97.5t-95 -91t-144.5 -79t-209.5 -53t-282 -20.5z" />
    <glyph glyph-name="Ccircumflex" unicode="&#x108;" horiz-adv-x="2306" 
d="M862 1933h590l330 -313h-498l-127 119l-127 -119h-493zM1204 -29h-80q-257 0 -461 51t-323 134q-109 76 -182 188q-65 102 -88 192.5t-23 200.5v60q0 113 22 201.5t85 187.5q67 108 178 184q118 82 324.5 132t467.5 50h80q536 0 805 -182q76 -48 130 -107.5t79.5 -119.5
t36 -109.5t10.5 -97.5v-27h-604q-71 234 -502 234q-510 0 -510 -357v-24q0 -138 101 -250q57 -61 162 -95t249 -34q120 0 217.5 22t151.5 54q45 25 82 71q9 12 16 21.5t12 18.5t7.5 14.5t5.5 13.5t4 10.5t3 12t3 12.5h602v-33q0 -77 -23.5 -149t-87.5 -158
q-74 -92 -180 -160q-115 -72 -317 -117t-453 -45z" />
    <glyph glyph-name="ccircumflex" unicode="&#x109;" horiz-adv-x="1816" 
d="M623 1524h575l313 -328h-485l-117 131l-118 -131h-480zM973 -31h-123q-195 0 -349 36.5t-243 96.5q-86 61 -137 138q-48 77 -65 144.5t-17 154.5v36q0 558 809 558h127q200 0 359 -36t245 -93q82 -52 131 -125q47 -68 61.5 -120t14.5 -118v-6h-569q-9 52 -56 108
q-30 38 -95 60t-155 22h-8q-156 0 -227.5 -69t-71.5 -187v-10q0 -125 73.5 -201.5t225.5 -76.5h8q88 0 153 23t95 61q48 60 58 114h569v-4q0 -39 -5 -75.5t-24.5 -89.5t-52.5 -97.5t-95 -91t-144.5 -79t-209.5 -53t-282 -20.5z" />
    <glyph glyph-name="Cdotaccent" unicode="&#x10a;" horiz-adv-x="2306" 
d="M885 1939h559v-317h-559v317zM1204 -29h-80q-257 0 -461 51t-323 134q-109 76 -182 188q-65 102 -88 192.5t-23 200.5v60q0 113 22 201.5t85 187.5q67 108 178 184q118 82 324.5 132t467.5 50h80q536 0 805 -182q76 -48 130 -107.5t79.5 -119.5t36 -109.5t10.5 -97.5v-27
h-604q-71 234 -502 234q-510 0 -510 -357v-24q0 -138 101 -250q57 -61 162 -95t249 -34q120 0 217.5 22t151.5 54q45 25 82 71q9 12 16 21.5t12 18.5t7.5 14.5t5.5 13.5t4 10.5t3 12t3 12.5h602v-33q0 -77 -23.5 -149t-87.5 -158q-74 -92 -180 -160q-115 -72 -317 -117
t-453 -45z" />
    <glyph glyph-name="cdotaccent" unicode="&#x10b;" horiz-adv-x="1816" 
d="M633 1524h557v-326h-557v326zM973 -31h-123q-195 0 -349 36.5t-243 96.5q-86 61 -137 138q-48 77 -65 144.5t-17 154.5v36q0 558 809 558h127q200 0 359 -36t245 -93q82 -52 131 -125q47 -68 61.5 -120t14.5 -118v-6h-569q-9 52 -56 108q-30 38 -95 60t-155 22h-8
q-156 0 -227.5 -69t-71.5 -187v-10q0 -125 73.5 -201.5t225.5 -76.5h8q88 0 153 23t95 61q48 60 58 114h569v-4q0 -39 -5 -75.5t-24.5 -89.5t-52.5 -97.5t-95 -91t-144.5 -79t-209.5 -53t-282 -20.5z" />
    <glyph glyph-name="Ccaron" unicode="&#x10c;" horiz-adv-x="2306" 
d="M1458 1622h-592l-331 311h501l127 -118l125 118h496zM1204 -29h-80q-257 0 -461 51t-323 134q-109 76 -182 188q-65 102 -88 192.5t-23 200.5v60q0 113 22 201.5t85 187.5q67 108 178 184q118 82 324.5 132t467.5 50h80q536 0 805 -182q76 -48 130 -107.5t79.5 -119.5
t36 -109.5t10.5 -97.5v-27h-604q-71 234 -502 234q-510 0 -510 -357v-24q0 -138 101 -250q57 -61 162 -95t249 -34q120 0 217.5 22t151.5 54q45 25 82 71q9 12 16 21.5t12 18.5t7.5 14.5t5.5 13.5t4 10.5t3 12t3 12.5h602v-33q0 -77 -23.5 -149t-87.5 -158
q-74 -92 -180 -160q-115 -72 -317 -117t-453 -45z" />
    <glyph glyph-name="ccaron" unicode="&#x10d;" horiz-adv-x="1816" 
d="M1208 1198h-590l-309 326h488l118 -133l119 133h482zM973 -31h-123q-195 0 -349 36.5t-243 96.5q-86 61 -137 138q-48 77 -65 144.5t-17 154.5v36q0 558 809 558h127q200 0 359 -36t245 -93q82 -52 131 -125q47 -68 61.5 -120t14.5 -118v-6h-569q-9 52 -56 108
q-30 38 -95 60t-155 22h-8q-156 0 -227.5 -69t-71.5 -187v-10q0 -125 73.5 -201.5t225.5 -76.5h8q88 0 153 23t95 61q48 60 58 114h569v-4q0 -39 -5 -75.5t-24.5 -89.5t-52.5 -97.5t-95 -91t-144.5 -79t-209.5 -53t-282 -20.5z" />
    <glyph glyph-name="Dcaron" unicode="&#x10e;" horiz-adv-x="2320" 
d="M1182 0h-1084v1524h1082q246 0 444 -40t324 -110q338 -198 331 -571v-62q0 -121 -28 -217.5t-99 -191.5q-74 -103 -192 -172q-123 -73 -324.5 -116.5t-453.5 -43.5zM1112 1124h-432v-721h432q563 0 563 357v12q0 352 -563 352zM1282 1616h-577l-338 317h499l127 -118
l125 118h494z" />
    <glyph glyph-name="dcaron" unicode="&#x10f;" horiz-adv-x="1908" 
d="M1270 551v10q0 99 -92 176q-90 78 -254 78h-11q-158 0 -233.5 -69t-75.5 -185v-10q0 -111 80 -185.5t231 -74.5h9q166 0 256 78q90 81 90 182zM1270 963v561h557v-1524h-555v160q-38 -43 -148 -105q-143 -75 -383 -75h-34q-336 0 -504 157q-164 156 -164 400v43
q0 87 21.5 164t71 147t123 120.5t185 80.5t250.5 30h39q329 0 541 -159zM2273 1178h-391l29 346h420z" />
    <glyph glyph-name="Dcroat" unicode="&#x110;" horiz-adv-x="2351" 
d="M1212 0h-1083v606h-125v322h125v596h1081q246 0 444 -40t324 -110q339 -198 332 -571v-62q0 -121 -28 -217.5t-99 -191.5q-74 -103 -192 -172q-123 -72 -325 -116t-454 -44zM1143 1124h-432v-196h616v-322h-616v-203h432q563 0 563 357v12q0 352 -563 352z" />
    <glyph glyph-name="dslash" unicode="&#x111;" horiz-adv-x="1908" 
d="M1270 1423v101h557v-101h141v-225h-141v-1198h-555v160q-38 -43 -148 -105q-143 -75 -383 -75h-34q-336 0 -504 157q-164 156 -164 400v43q0 87 21.5 164t71 147t123 120.5t185 80.5t250.5 30h39q329 0 541 -159v235h-553v225h553zM1270 551v10q0 99 -92 176
q-90 78 -254 78h-11q-158 0 -233.5 -69t-75.5 -185v-10q0 -111 80 -185.5t231 -74.5h9q166 0 256 78q90 81 90 182z" />
    <glyph glyph-name="Emacron" unicode="&#x112;" horiz-adv-x="1869" 
d="M98 0v1524h1686v-373h-1112v-190h1089v-371h-1089v-209h1128v-381h-1702zM1440 1632h-961v271h961v-271z" />
    <glyph glyph-name="emacron" unicode="&#x113;" horiz-adv-x="1818" 
d="M909 862q-271 0 -317 -166h635q-34 166 -318 166zM1231 401h549v-4q0 -61 -16 -109.5t-64 -107.5q-49 -58 -135 -106q-91 -46 -247.5 -75.5t-350.5 -29.5h-109q-189 0 -340 34t-242 91q-237 149 -237 443v41q0 555 813 555h113q430 0 622 -154q113 -88 155 -199t42 -248
v-61h-1198q27 -203 334 -203h2q75 0 133 11.5t89 27.5t52 36.5t27 33.5t8 24zM1376 1219h-925v264h925v-264z" />
    <glyph glyph-name="Ebreve" unicode="&#x114;" horiz-adv-x="1869" 
d="M98 0v1524h1686v-373h-1112v-190h1089v-371h-1089v-209h1128v-381h-1702zM1008 1602h-82q-136 0 -237 36.5t-146 98.5q-80 108 -80 213v4h375q0 -12 5.5 -27t18 -32.5t40.5 -29.5t67 -12t66.5 12t39.5 30t16.5 32.5t4.5 26.5h368v-4q0 -101 -90 -215
q-49 -60 -145.5 -96.5t-220.5 -36.5z" />
    <glyph glyph-name="ebreve" unicode="&#x115;" horiz-adv-x="1818" 
d="M956 1186h-82q-133 0 -231.5 35t-144.5 92q-80 107 -80 207v4h370q0 -30 29.5 -62t100.5 -32q111 0 126 94h365v-4q0 -96 -92 -207q-49 -57 -144.5 -92t-216.5 -35zM909 862q-271 0 -317 -166h635q-34 166 -318 166zM1231 401h549v-4q0 -61 -16 -109.5t-64 -107.5
q-49 -58 -135 -106q-91 -46 -247.5 -75.5t-350.5 -29.5h-109q-189 0 -340 34t-242 91q-237 149 -237 443v41q0 555 813 555h113q430 0 622 -154q113 -88 155 -199t42 -248v-61h-1198q27 -203 334 -203h2q75 0 133 11.5t89 27.5t52 36.5t27 33.5t8 24z" />
    <glyph glyph-name="Edotaccent" unicode="&#x116;" horiz-adv-x="1869" 
d="M98 0v1524h1686v-373h-1112v-190h1089v-371h-1089v-209h1128v-381h-1702zM684 1946h555v-330h-555v330z" />
    <glyph glyph-name="edotaccent" unicode="&#x117;" horiz-adv-x="1818" 
d="M635 1524h557v-326h-557v326zM909 862q-271 0 -317 -166h635q-34 166 -318 166zM1231 401h549v-4q0 -61 -16 -109.5t-64 -107.5q-49 -58 -135 -106q-91 -46 -247.5 -75.5t-350.5 -29.5h-109q-189 0 -340 34t-242 91q-237 149 -237 443v41q0 555 813 555h113
q430 0 622 -154q113 -88 155 -199t42 -248v-61h-1198q27 -203 334 -203h2q75 0 133 11.5t89 27.5t52 36.5t27 33.5t8 24z" />
    <glyph glyph-name="Eogonek" unicode="&#x118;" horiz-adv-x="1869" 
d="M948 -238v7q0 78 92.5 130t302.5 101h234q-71 -46 -98 -71.5t-27 -53.5q0 -43 70 -43h61v-217h-334q-301 0 -301 147zM98 0v1524h1686v-373h-1112v-190h1089v-371h-1089v-209h1128v-381h-1702z" />
    <glyph glyph-name="eogonek" unicode="&#x119;" horiz-adv-x="1818" 
d="M1442 -168h63v-217h-336q-299 0 -299 147v7q0 74 84 121.5t289 95.5q-163 -17 -276 -17h-109q-189 0 -340 34t-242 91q-237 149 -237 443v41q0 555 813 555h113q430 0 622 -154q113 -88 155 -199t42 -248v-61h-1198q27 -203 334 -203h2q75 0 133 11.5t89 27.5t52 36.5
t27 33.5t8 24h549v-4q0 -113 -66 -203t-217 -190q-100 -71 -115 -98q-8 -13 -8 -31q0 -43 68 -43zM909 862q-271 0 -317 -166h635q-34 166 -318 166z" />
    <glyph glyph-name="Ecaron" unicode="&#x11a;" horiz-adv-x="1869" 
d="M98 0v1524h1686v-373h-1112v-190h1089v-371h-1089v-209h1128v-381h-1702zM1255 1616h-577l-338 317h500l127 -118l125 118h493z" />
    <glyph glyph-name="ecaron" unicode="&#x11b;" horiz-adv-x="1818" 
d="M1210 1198h-592l-309 326h490l116 -133l119 133h484zM909 862q-271 0 -317 -166h635q-34 166 -318 166zM1231 401h549v-4q0 -61 -16 -109.5t-64 -107.5q-49 -58 -135 -106q-91 -46 -247.5 -75.5t-350.5 -29.5h-109q-189 0 -340 34t-242 91q-237 149 -237 443v41
q0 555 813 555h113q430 0 622 -154q113 -88 155 -199t42 -248v-61h-1198q27 -203 334 -203h2q75 0 133 11.5t89 27.5t52 36.5t27 33.5t8 24z" />
    <glyph glyph-name="Gcircumflex" unicode="&#x11c;" horiz-adv-x="2373" 
d="M881 1933h589l330 -313h-497l-127 119l-127 -119h-494zM1122 -29h-47q-230 0 -418.5 48.5t-304.5 127.5q-110 76 -182 183q-68 100 -95.5 198.5t-27.5 210.5v58q0 117 26.5 212.5t94.5 192.5q72 104 188 178q122 78 321.5 125t448.5 47h80q255 0 460 -40t319 -105
q109 -57 178 -145q64 -79 87 -146.5t25 -150.5v-2h-606q-5 22 -15.5 39t-39.5 45q-36 32 -82 51q-50 25 -145 41t-211 16q-527 0 -527 -377v-22q0 -161 129 -275q128 -110 393 -110q112 0 204.5 15t149.5 37.5t96.5 49.5t55 49.5t15.5 38.5h-535v297h1129v-858h-367
q-24 119 -72 211q-217 -240 -725 -240z" />
    <glyph glyph-name="gcircumflex" unicode="&#x11d;" horiz-adv-x="1929" 
d="M934 811h-12q-162 0 -241 -60.5t-79 -160.5v-10q0 -104 81 -169t239 -65h12q166 0 259 66.5t93 167.5v6q0 100 -92 162.5t-260 62.5zM1036 -399h-157q-186 0 -336.5 29.5t-235.5 74.5q-112 66 -159 144.5t-42 144.5v6h560q21 -92 286 -92h6q334 0 334 280v23
q-164 -164 -536 -164h-33q-351 0 -518 150q-166 150 -166 374v37q0 218 156 365q155 149 491 149h45q368 0 559 -161v141h557v-918q0 -83 -18.5 -154t-69.5 -147q-52 -81 -139 -141q-88 -64 -241 -102.5t-343 -38.5zM625 1524h575l313 -332h-485l-119 135l-118 -135h-478z
" />
    <glyph glyph-name="Gbreve" unicode="&#x11e;" horiz-adv-x="2373" 
d="M1122 -29h-47q-230 0 -418.5 48.5t-304.5 127.5q-110 76 -182 183q-68 100 -95.5 198.5t-27.5 210.5v58q0 117 26.5 212.5t94.5 192.5q72 104 188 178q122 78 321.5 125t448.5 47h80q255 0 460 -40t319 -105q109 -57 178 -145q64 -79 87 -146.5t25 -150.5v-2h-606
q-5 22 -15.5 39t-39.5 45q-36 32 -82 51q-50 25 -145 41t-211 16q-527 0 -527 -377v-22q0 -161 129 -275q128 -110 393 -110q112 0 204.5 15t149.5 37.5t96.5 49.5t55 49.5t15.5 38.5h-535v297h1129v-858h-367q-24 119 -72 211q-217 -240 -725 -240zM1223 1606h-82
q-136 0 -237 36.5t-146 98.5q-80 108 -80 213v4h375q0 -12 5.5 -26.5t18 -32.5t40.5 -29.5t67 -11.5t66.5 11.5t39.5 29.5t16.5 32.5t4.5 26.5h368v-4q0 -101 -90 -215q-49 -60 -145.5 -96.5t-220.5 -36.5z" />
    <glyph glyph-name="gbreve" unicode="&#x11f;" horiz-adv-x="1929" 
d="M934 811h-12q-162 0 -241 -60.5t-79 -160.5v-10q0 -104 81 -169t239 -65h12q166 0 259 66.5t93 167.5v6q0 100 -92 162.5t-260 62.5zM1036 -399h-157q-186 0 -336.5 29.5t-235.5 74.5q-112 66 -159 144.5t-42 144.5v6h560q21 -92 286 -92h6q334 0 334 280v23
q-164 -164 -536 -164h-33q-351 0 -518 150q-166 150 -166 374v37q0 218 156 365q155 149 491 149h45q368 0 559 -161v141h557v-918q0 -83 -18.5 -154t-69.5 -147q-52 -81 -139 -141q-88 -64 -241 -102.5t-343 -38.5zM1040 1524h365v-4q0 -105 -92 -211q-49 -57 -144.5 -92
t-216.5 -35h-82q-133 0 -231.5 35t-144.5 94q-80 103 -80 209v4h370q0 -13 4.5 -27.5t17 -32t40 -28.5t67.5 -11q63 0 95 30.5t32 68.5z" />
    <glyph glyph-name="Gdotaccent" unicode="&#x120;" horiz-adv-x="2373" 
d="M899 1939h559v-317h-559v317zM1122 -29h-47q-230 0 -418.5 48.5t-304.5 127.5q-110 76 -182 183q-68 100 -95.5 198.5t-27.5 210.5v58q0 117 26.5 212.5t94.5 192.5q72 104 188 178q122 78 321.5 125t448.5 47h80q255 0 460 -40t319 -105q109 -57 178 -145
q64 -79 87 -146.5t25 -150.5v-2h-606q-5 22 -15.5 39t-39.5 45q-36 32 -82 51q-50 25 -145 41t-211 16q-527 0 -527 -377v-22q0 -161 129 -275q128 -110 393 -110q112 0 204.5 15t149.5 37.5t96.5 49.5t55 49.5t15.5 38.5h-535v297h1129v-858h-367q-24 119 -72 211
q-217 -240 -725 -240z" />
    <glyph glyph-name="gdotaccent" unicode="&#x121;" horiz-adv-x="1929" 
d="M934 811h-12q-162 0 -241 -60.5t-79 -160.5v-10q0 -104 81 -169t239 -65h12q166 0 259 66.5t93 167.5v6q0 100 -92 162.5t-260 62.5zM1036 -399h-157q-186 0 -336.5 29.5t-235.5 74.5q-112 66 -159 144.5t-42 144.5v6h560q21 -92 286 -92h6q334 0 334 280v23
q-164 -164 -536 -164h-33q-351 0 -518 150q-166 150 -166 374v37q0 218 156 365q155 149 491 149h45q368 0 559 -161v141h557v-918q0 -83 -18.5 -154t-69.5 -147q-52 -81 -139 -141q-88 -64 -241 -102.5t-343 -38.5zM631 1524h555v-330h-555v330z" />
    <glyph glyph-name="uni0122" unicode="&#x122;" horiz-adv-x="2373" 
d="M1260 -612h-267q58 109 72 188h-231v326h528v-256q0 -94 -102 -258zM1122 -29h-47q-230 0 -418.5 48.5t-304.5 127.5q-110 76 -182 183q-68 100 -95.5 198.5t-27.5 210.5v58q0 117 26.5 212.5t94.5 192.5q72 104 188 178q122 78 321.5 125t448.5 47h80q255 0 460 -40
t319 -105q109 -57 178 -145q64 -79 87 -146.5t25 -150.5v-2h-606q-5 22 -15.5 39t-39.5 45q-36 32 -82 51q-50 25 -145 41t-211 16q-527 0 -527 -377v-22q0 -161 129 -275q128 -110 393 -110q112 0 204.5 15t149.5 37.5t96.5 49.5t55 49.5t15.5 38.5h-535v297h1129v-858
h-367q-24 119 -72 211q-217 -240 -725 -240z" />
    <glyph glyph-name="uni0123" unicode="&#x123;" horiz-adv-x="1929" 
d="M934 811h-12q-162 0 -241 -60.5t-79 -160.5v-10q0 -104 81 -169t239 -65h12q166 0 259 66.5t93 167.5v6q0 100 -92 162.5t-260 62.5zM1036 -399h-157q-186 0 -336.5 29.5t-235.5 74.5q-112 66 -159 144.5t-42 144.5v6h560q21 -92 286 -92h6q334 0 334 280v23
q-164 -164 -536 -164h-33q-351 0 -518 150q-166 150 -166 374v37q0 218 156 365q155 149 491 149h45q368 0 559 -161v141h557v-918q0 -83 -18.5 -154t-69.5 -147q-52 -81 -139 -141q-88 -64 -241 -102.5t-343 -38.5zM743 1708h267q-58 -109 -72 -188h231v-326h-528v256
q0 52 30.5 125t71.5 133z" />
    <glyph glyph-name="Hcircumflex" unicode="&#x124;" horiz-adv-x="2310" 
d="M680 0h-582v1524h582v-539h952v539h580v-1524h-580v580h-952v-580zM864 1933h578l336 -317h-500l-127 119l-125 -119h-494z" />
    <glyph glyph-name="hcircumflex" unicode="&#x125;" horiz-adv-x="1837" 
d="M639 0h-557v1524h557v-615q217 217 565 217h13q144 0 253.5 -38.5t171.5 -106.5q115 -121 115 -272v-709h-559v526q0 120 -66.5 187t-199.5 67q-136 0 -214.5 -73t-78.5 -195v-512zM563 1933h578l336 -317h-500l-127 119l-125 -119h-494z" />
    <glyph glyph-name="Hbar" unicode="&#x126;" horiz-adv-x="2373" 
d="M2380 1135h-2386v256h2386v-256zM711 0h-582v1524h582v-539h952v539h580v-1524h-580v580h-952v-580z" />
    <glyph glyph-name="hbar" unicode="&#x127;" horiz-adv-x="1837" 
d="M-59 1198v225h1210v-225h-1210zM639 0h-557v1524h557v-615q217 217 565 217h13q144 0 253.5 -38.5t171.5 -106.5q115 -121 115 -272v-709h-559v526q0 120 -66.5 187t-199.5 67q-136 0 -214.5 -73t-78.5 -195v-512z" />
    <glyph glyph-name="Itilde" unicode="&#x128;" horiz-adv-x="776" 
d="M98 1524h580v-1524h-580v1524zM659 1624h-10q-99 0 -276 59q-46 16 -74 23.5t-48.5 7t-29 -11t-8.5 -31.5v-59h-330v174q0 90 55 145.5t177 55.5h8q37 0 106 -11q41 -5 76 -20l47 -14l51 -15q95 -31 121 -31q35 0 35 41v60h330v-162q0 -211 -230 -211z" />
    <glyph glyph-name="itilde" unicode="&#x129;" horiz-adv-x="720" 
d="M575 1198h-8q-62 0 -219 59q-72 29 -92 29q-27 0 -27 -43v-55h-270v160q0 90 44 145t142 55h7q83 0 223 -61q71 -27 88 -27q24 0 24 41v58h273v-150q0 -211 -185 -211zM82 1102h557v-1102h-557v1102z" />
    <glyph glyph-name="Imacron" unicode="&#x12a;" horiz-adv-x="776" 
d="M827 1632h-878v271h878v-271zM98 1524h580v-1524h-580v1524z" />
    <glyph glyph-name="imacron" unicode="&#x12b;" horiz-adv-x="720" 
d="M750 1214h-779v265h779v-265zM82 1102h557v-1102h-557v1102z" />
    <glyph glyph-name="Ibreve" unicode="&#x12c;" horiz-adv-x="776" 
d="M98 1524h580v-1524h-580v1524zM434 1602h-82q-136 0 -237 36.5t-146 98.5q-80 108 -80 213v4h375q0 -12 5.5 -27t18 -32.5t40.5 -29.5t67 -12t66.5 12t39.5 30t16.5 32.5t4.5 26.5h369v-4q0 -101 -90 -215q-49 -59 -145.5 -96t-221.5 -37z" />
    <glyph glyph-name="ibreve" unicode="&#x12d;" horiz-adv-x="720" 
d="M455 1524h319v-4q0 -111 -74 -213q-39 -58 -123.5 -92.5t-199.5 -34.5h-29q-120 0 -207.5 34.5t-126.5 92.5q-69 103 -69 213v4h321q0 -37 23 -63.5t73 -26.5q46 0 69.5 27t23.5 63zM82 1102h557v-1102h-557v1102z" />
    <glyph glyph-name="Iogonek" unicode="&#x12e;" horiz-adv-x="776" 
d="M98 1524h580v-1524h-580v1524zM51 -238v7q0 78 92.5 130t302.5 101h234q-123 -80 -123 -125q0 -43 68 -43h55v-217h-328q-301 0 -301 147z" />
    <glyph glyph-name="iogonek" unicode="&#x12f;" horiz-adv-x="720" 
d="M82 1524h557v-330h-557v330zM82 1102h557v-1102h-557v1102zM10 -238v7q0 78 93 130t303 101h233q-123 -80 -123 -125q0 -43 68 -43h55v-217h-328q-301 0 -301 147z" />
    <glyph glyph-name="Idot" unicode="&#x130;" horiz-adv-x="776" 
d="M98 1524h580v-1524h-580v1524zM111 1946h555v-330h-555v330z" />
    <glyph glyph-name="dotlessi" unicode="&#x131;" horiz-adv-x="720" 
d="M82 1102h557v-1102h-557v1102z" />
    <glyph glyph-name="IJ" unicode="&#x132;" horiz-adv-x="2705" 
d="M98 1524h580v-1524h-580v1524zM1751 -23h-125q-198 0 -357 45.5t-255 118.5q-83 66 -146 168q-52 92 -71 174t-19 181v12h572q27 -262 336 -262h16q172 0 255 89t83 253v768h581v-781q0 -256 -104 -436q-90 -150 -278 -240t-488 -90z" />
    <glyph glyph-name="ij" unicode="&#x133;" horiz-adv-x="1427" 
d="M82 1524h557v-330h-557v330zM82 1102h557v-1102h-557v1102zM788 1524h558v-330h-558v330zM649 -385v330h74q39 0 52 14.5t13 60.5v1082h558v-1184q0 -153 -61.5 -228t-168.5 -75h-467z" />
    <glyph glyph-name="Jcircumflex" unicode="&#x134;" horiz-adv-x="1941" 
d="M987 -23h-125q-198 0 -357 45.5t-255 118.5q-83 66 -146 168q-52 92 -71 174t-19 181v12h572q27 -262 336 -262h16q172 0 255 89t83 253v768h582v-781q0 -255 -105 -436q-90 -150 -278 -240t-488 -90zM1270 1933h577l336 -317h-500l-127 119l-124 -119h-494z" />
    <glyph glyph-name="jcircumflex" unicode="&#x135;" horiz-adv-x="720" 
d="M102 1524h512l226 -330h-396l-88 135l-88 -135h-389zM-57 -385v330h73q39 0 52.5 14.5t13.5 60.5v1082h557v-1184q0 -153 -61 -228t-168 -75h-467z" />
    <glyph glyph-name="uni0136" unicode="&#x136;" horiz-adv-x="2142" 
d="M1190 -606h-266q56 106 71 188h-231v326h528v-256q0 -94 -102 -258zM680 682v-682h-582v1524h582v-602l750 602h722l-886 -693l915 -831h-758z" />
    <glyph glyph-name="uni0137" unicode="&#x137;" horiz-adv-x="1652" 
d="M999 -606h-266q58 109 72 188h-232v326h529v-256q0 -93 -103 -258zM639 496v-496h-557v1524h557v-852l377 430h600l-449 -488l514 -614h-632z" />
    <glyph glyph-name="Lacute" unicode="&#x139;" horiz-adv-x="1792" 
d="M98 0v1524h582v-1088h1057v-436h-1639zM662 1616h-527l162 317h571z" />
    <glyph glyph-name="lacute" unicode="&#x13a;" horiz-adv-x="720" 
d="M618 1616h-503l170 311h551zM82 1524h557v-1524h-557v1524z" />
    <glyph glyph-name="uni013B" unicode="&#x13b;" horiz-adv-x="1792" 
d="M1083 -606h-266q58 109 72 188h-232v326h529v-256q0 -93 -103 -258zM98 0v1524h582v-1088h1057v-436h-1639z" />
    <glyph glyph-name="uni013C" unicode="&#x13c;" horiz-adv-x="720" 
d="M522 -606h-266q58 109 72 188h-232v326h529v-256q0 -93 -103 -258zM82 1524h557v-1524h-557v1524z" />
    <glyph glyph-name="Lcaron" unicode="&#x13d;" horiz-adv-x="1792" 
d="M98 0v1524h582v-1088h1057v-436h-1639zM1124 1178h-391l29 346h420z" />
    <glyph glyph-name="lcaron" unicode="&#x13e;" horiz-adv-x="720" 
d="M82 1524h557v-1524h-557v1524zM1083 1178h-391l29 346h420z" />
    <glyph glyph-name="Ldot" unicode="&#x13f;" horiz-adv-x="1783" 
d="M98 0v1524h582v-1088h1057v-436h-1639zM1020 1073h575v-399h-575v399z" />
    <glyph glyph-name="ldot" unicode="&#x140;" horiz-adv-x="1294" 
d="M723 987h557v-399h-557v399zM82 1524h557v-1524h-557v1524z" />
    <glyph glyph-name="Lslash" unicode="&#x141;" horiz-adv-x="1832" 
d="M139 721v803h582v-594l620 221v-320l-620 -215v-180h1057v-436h-1639v416l-141 -49v305z" />
    <glyph glyph-name="lslash" unicode="&#x142;" horiz-adv-x="786" 
d="M780 799l-110 -47v-752h-557v512l-109 -45v307l109 47v703h557v-461l110 49v-313z" />
    <glyph glyph-name="Nacute" unicode="&#x143;" horiz-adv-x="2310" 
d="M98 0v1524h652l884 -867v867h578v-1524h-582l-954 924v-924h-578zM1421 1616h-526l162 317h571z" />
    <glyph glyph-name="nacute" unicode="&#x144;" horiz-adv-x="1837" 
d="M639 0h-557v1102h553v-195l47 43q24 20 76 56q51 35 114 59q146 61 332 61h13q144 0 253.5 -38.5t171.5 -106.5q115 -121 115 -272v-709h-559v526q0 120 -66.5 187t-199.5 67q-136 0 -214.5 -73t-78.5 -195v-512zM1174 1194h-504l182 330h549z" />
    <glyph glyph-name="uni0145" unicode="&#x145;" horiz-adv-x="2310" 
d="M1313 -606h-266q56 106 71 188h-231v326h528v-256q0 -94 -102 -258zM98 0v1524h652l884 -867v867h578v-1524h-582l-954 924v-924h-578z" />
    <glyph glyph-name="uni0146" unicode="&#x146;" horiz-adv-x="1837" 
d="M1081 -606h-266q58 109 72 188h-232v326h529v-256q0 -93 -103 -258zM639 0h-557v1102h553v-195l47 43q24 20 76 56q51 35 114 59q146 61 332 61h13q144 0 253.5 -38.5t171.5 -106.5q115 -121 115 -272v-709h-559v526q0 120 -66.5 187t-199.5 67q-136 0 -214.5 -73
t-78.5 -195v-512z" />
    <glyph glyph-name="Ncaron" unicode="&#x147;" horiz-adv-x="2310" 
d="M98 0v1524h652l884 -867v867h578v-1524h-582l-954 924v-924h-578zM1446 1616h-578l-338 317h500l127 -118l125 118h494z" />
    <glyph glyph-name="ncaron" unicode="&#x148;" horiz-adv-x="1837" 
d="M639 0h-557v1102h553v-195l47 43q24 20 76 56q51 35 114 59q146 61 332 61h13q144 0 253.5 -38.5t171.5 -106.5q115 -121 115 -272v-709h-559v526q0 120 -66.5 187t-199.5 67q-136 0 -214.5 -73t-78.5 -195v-512zM1212 1194h-575l-313 330h483l119 -133l118 133h480z" />
    <glyph glyph-name="napostrophe" unicode="&#x149;" horiz-adv-x="2351" 
d="M1153 0h-557v1102h553v-195l47 43q24 20 76 56q51 35 114 59q146 61 332 61h13q144 0 254 -38.5t172 -106.5q114 -120 114 -272v-709h-559v526q0 120 -66.5 187t-199.5 67q-136 0 -214.5 -73t-78.5 -195v-512zM440 973h-286q70 127 82 213h-228v338h547v-275
q0 -122 -115 -276z" />
    <glyph glyph-name="Eng" unicode="&#x14a;" horiz-adv-x="2310" 
d="M1634 1524h578v-1477q0 -210 -95 -321t-255 -111h-441v350h162q41 0 41 29q0 17 -61 78l-887 852v-924h-578v1524h652l884 -867v867z" />
    <glyph glyph-name="eng" unicode="&#x14b;" horiz-adv-x="1837" 
d="M1757 709v-795q0 -149 -62 -226t-163 -77h-524v350h120q39 0 54.5 17t15.5 63v485q0 120 -66.5 187t-199.5 67q-136 0 -214.5 -73t-78.5 -195v-512h-557v1102h553v-195l47 43q24 20 76 56q51 35 114 59q146 61 332 61h13q144 0 253.5 -38.5t171.5 -106.5
q115 -121 115 -272z" />
    <glyph glyph-name="Omacron" unicode="&#x14c;" horiz-adv-x="2408" 
d="M1159 1552h92q580 0 848 -209q83 -61 133 -126t80 -146q49 -124 49 -274v-62q4 -234 -127 -422q-50 -69 -136.5 -133.5t-194.5 -107.5q-257 -101 -652 -101h-92q-575 0 -852 211q-83 63 -131.5 128.5t-81.5 148.5q-47 128 -47 276v62q0 244 125 417q255 338 987 338z
M1759 754v28q0 140 -108 240q-58 57 -174 89t-273 32q-161 0 -276.5 -32t-173.5 -89q-105 -102 -105 -240v-24q0 -135 107 -248q59 -59 175.5 -93t272.5 -34q157 0 274 33.5t175 91.5q106 106 106 246zM1683 1636h-960v271h960v-271z" />
    <glyph glyph-name="omacron" unicode="&#x14d;" horiz-adv-x="1898" 
d="M1026 -31h-152q-193 0 -348.5 36t-251.5 95q-87 57 -143 138q-52 75 -72 146t-20 157v32q0 84 19.5 153.5t70.5 143.5q59 81 143 134q92 58 248.5 93.5t351.5 35.5h156q832 0 832 -558v-36q0 -92 -16 -158.5t-66 -142.5q-52 -82 -138 -138q-91 -59 -250.5 -95t-363.5 -36
zM952 821h-2q-189 0 -268 -76q-78 -75 -78 -182v-8q0 -109 78 -193q79 -79 268 -79h2q186 0 265 82t79 190v8q0 117 -84 187.5t-260 70.5zM1411 1219h-926v264h926v-264z" />
    <glyph glyph-name="Obreve" unicode="&#x14e;" horiz-adv-x="2408" 
d="M1159 1552h92q580 0 848 -209q83 -61 133 -126t80 -146q49 -124 49 -274v-62q4 -234 -127 -422q-50 -69 -136.5 -133.5t-194.5 -107.5q-257 -101 -652 -101h-92q-575 0 -852 211q-83 63 -131.5 128.5t-81.5 148.5q-47 128 -47 276v62q0 244 125 417q255 338 987 338z
M1759 754v28q0 140 -108 240q-58 57 -174 89t-273 32q-161 0 -276.5 -32t-173.5 -89q-105 -102 -105 -240v-24q0 -135 107 -248q59 -59 175.5 -93t272.5 -34q157 0 274 33.5t175 91.5q106 106 106 246zM1249 1606h-82q-136 0 -237 36.5t-146 98.5q-79 107 -79 213v4h374
q0 -12 5.5 -26.5t18 -32.5t40.5 -29.5t67 -11.5t66.5 11.5t39.5 29.5t16.5 32.5t4.5 26.5h369v-4q0 -101 -90 -215q-49 -59 -145.5 -96t-221.5 -37z" />
    <glyph glyph-name="obreve" unicode="&#x14f;" horiz-adv-x="1898" 
d="M993 1186h-82q-133 0 -231.5 35t-144.5 92q-80 107 -80 207v4h370q0 -12 5.5 -26t18 -30t40 -27t65.5 -11q112 0 127 94h365v-4q0 -96 -92 -207q-49 -57 -144.5 -92t-216.5 -35zM1026 -31h-152q-193 0 -348.5 36t-251.5 95q-87 57 -143 138q-52 75 -72 146t-20 157v32
q0 84 19.5 153.5t70.5 143.5q59 81 143 134q92 58 248.5 93.5t351.5 35.5h156q832 0 832 -558v-36q0 -92 -16 -158.5t-66 -142.5q-52 -82 -138 -138q-91 -59 -250.5 -95t-363.5 -36zM952 821h-2q-189 0 -268 -76q-78 -75 -78 -182v-8q0 -109 78 -193q79 -79 268 -79h2
q186 0 265 82t79 190v8q0 117 -84 187.5t-260 70.5z" />
    <glyph glyph-name="Ohungarumlaut" unicode="&#x150;" horiz-adv-x="2408" 
d="M1753 1622h-489l120 311h502zM1176 1622h-490l107 311h501zM1159 1552h92q580 0 848 -209q83 -61 133 -126t80 -146q49 -124 49 -274v-62q4 -234 -127 -422q-50 -69 -136.5 -133.5t-194.5 -107.5q-257 -101 -652 -101h-92q-575 0 -852 211q-83 63 -131.5 128.5
t-81.5 148.5q-47 128 -47 276v62q0 244 125 417q255 338 987 338zM1759 754v28q0 140 -108 240q-58 57 -174 89t-273 32q-161 0 -276.5 -32t-173.5 -89q-105 -102 -105 -240v-24q0 -135 107 -248q59 -59 175.5 -93t272.5 -34q157 0 274 33.5t175 91.5q106 106 106 246z" />
    <glyph glyph-name="ohungarumlaut" unicode="&#x151;" horiz-adv-x="1898" 
d="M1485 1198h-473l127 326h485zM924 1198h-471l112 326h484zM1026 -31h-152q-193 0 -348.5 36t-251.5 95q-87 57 -143 138q-52 75 -72 146t-20 157v32q0 84 19.5 153.5t70.5 143.5q59 81 143 134q92 58 248.5 93.5t351.5 35.5h156q832 0 832 -558v-36q0 -92 -16 -158.5
t-66 -142.5q-52 -82 -138 -138q-91 -59 -250.5 -95t-363.5 -36zM952 821h-2q-189 0 -268 -76q-78 -75 -78 -182v-8q0 -109 78 -193q79 -79 268 -79h2q186 0 265 82t79 190v8q0 117 -84 187.5t-260 70.5z" />
    <glyph glyph-name="OE" unicode="&#x152;" horiz-adv-x="3473" 
d="M1194 1141q-130 0 -229 -21.5t-158 -56t-95.5 -83t-49.5 -96t-13 -102.5v-24q0 -138 105 -246q59 -59 172.5 -93t267.5 -34t267.5 33t170.5 90q105 105 105 246v28q0 141 -105 240q-56 56 -169 87.5t-269 31.5zM3404 0h-1592v143q-92 -75 -262 -122.5t-401 -47.5h-76
q-246 0 -440.5 51.5t-306.5 133.5q-104 73 -174 186q-62 102 -83.5 191t-21.5 198v62q0 111 21.5 199.5t83.5 187.5q64 108 172 184q111 82 306.5 132t442.5 50h76q433 0 663 -151v127h1575v-373h-1077v-190h1057v-371h-1057v-209h1094v-381z" />
    <glyph glyph-name="oe" unicode="&#x153;" horiz-adv-x="3074" 
d="M2173 862q-269 0 -315 -166h630q-34 166 -315 166zM604 563v-8q0 -109 78 -193q79 -79 264 -79h2q186 0 262 82q80 83 80 190v8q0 117 -82.5 187.5t-257.5 70.5h-4q-176 0 -259 -70.5t-83 -187.5zM1583 135q-181 -166 -606 -166h-115q-192 0 -345.5 36t-246.5 95
q-86 58 -141 138q-52 75 -71 145.5t-19 157.5v32q0 85 18.5 154.5t69.5 142.5q58 80 141 134q90 58 244.5 93.5t347.5 35.5h119q413 0 602 -162q185 159 578 159h79q423 0 613 -153q75 -60 118.5 -138.5t56.5 -148.5t13 -158v-61h-1188q27 -203 330 -203h2q75 0 133 11.5
t89 27.5t52 36.5t27 33.5t8 24h545v-4q0 -61 -15 -108.5t-61 -104.5q-47 -59 -131 -106q-87 -47 -241.5 -77t-347.5 -30h-74q-390 0 -584 164z" />
    <glyph glyph-name="Racute" unicode="&#x154;" horiz-adv-x="2191" 
d="M1348 1153h-668v-262h668q176 0 176 131v2q0 129 -176 129zM1237 522h-557v-522h-582v1524h1385q641 0 641 -391v-23q0 -63 -21.5 -117t-53 -90t-75 -64.5t-81 -43.5t-76.5 -25q148 -33 230.5 -127t82.5 -235v-226q0 -116 29 -172v-10h-594q-19 22 -19 80v178
q0 137 -72 200.5t-237 63.5zM1325 1616h-526l162 317h571z" />
    <glyph glyph-name="racute" unicode="&#x155;" horiz-adv-x="1617" 
d="M82 1102h553v-203q28 43 76 88q46 46 153 92q109 47 232 47h24q129 0 224 -41t145 -116q94 -137 94 -330v-111h-541v39q0 104 -49.5 165t-148.5 61q-95 0 -150 -65.5t-55 -172.5v-555h-557v1102zM1051 1194h-504l182 330h549z" />
    <glyph glyph-name="uni0156" unicode="&#x156;" horiz-adv-x="2191" 
d="M1274 -606h-266q56 106 71 188h-231v326h528v-256q0 -94 -102 -258zM1348 1153h-668v-262h668q176 0 176 131v2q0 129 -176 129zM1237 522h-557v-522h-582v1524h1385q641 0 641 -391v-23q0 -63 -21.5 -117t-53 -90t-75 -64.5t-81 -43.5t-76.5 -25q148 -33 230.5 -127
t82.5 -235v-226q0 -116 29 -172v-10h-594q-19 22 -19 80v178q0 137 -72 200.5t-237 63.5z" />
    <glyph glyph-name="uni0157" unicode="&#x157;" horiz-adv-x="1617" 
d="M520 -606h-266q58 109 72 188h-232v326h529v-256q0 -93 -103 -258zM82 1102h553v-203q28 43 76 88q46 46 153 92q109 47 232 47h24q129 0 224 -41t145 -116q94 -137 94 -330v-111h-541v39q0 104 -49.5 165t-148.5 61q-95 0 -150 -65.5t-55 -172.5v-555h-557v1102z" />
    <glyph glyph-name="Rcaron" unicode="&#x158;" horiz-adv-x="2191" 
d="M1348 1153h-668v-262h668q176 0 176 131v2q0 129 -176 129zM1237 522h-557v-522h-582v1524h1385q641 0 641 -391v-23q0 -63 -21.5 -117t-53 -90t-75 -64.5t-81 -43.5t-76.5 -25q148 -33 230.5 -127t82.5 -235v-226q0 -116 29 -172v-10h-594q-19 22 -19 80v178
q0 137 -72 200.5t-237 63.5zM1350 1616h-578l-338 317h500l127 -118l125 118h493z" />
    <glyph glyph-name="rcaron" unicode="&#x159;" horiz-adv-x="1617" 
d="M82 1102h553v-203q28 43 76 88q46 46 153 92q109 47 232 47h24q129 0 224 -41t145 -116q94 -137 94 -330v-111h-541v39q0 104 -49.5 165t-148.5 61q-95 0 -150 -65.5t-55 -172.5v-555h-557v1102zM1081 1194h-575l-313 330h483l119 -133l118 133h480z" />
    <glyph glyph-name="Sacute" unicode="&#x15a;" horiz-adv-x="2121" 
d="M1311 1622h-527l162 311h572zM1145 -29h-187q-929 0 -929 541v20h639q15 -215 381 -215h18q95 0 164 8t108.5 20.5t63 32t30.5 39t7 44.5v2q0 33 -12 54t-47.5 40t-109.5 29.5t-190 13.5l-282 8q-748 21 -748 459v18q0 79 22.5 144t82 126.5t156 103t253 66.5t363.5 25
h182q926 0 926 -481v-16h-633q-18 161 -369 161h-20q-144 0 -221 -18q-73 -16 -94 -35.5t-21 -58.5v-2q0 -26 12 -44t45.5 -35.5t102 -27t172.5 -10.5l274 -6q430 -12 619 -121q186 -107 186 -338v-29q0 -90 -21.5 -156.5t-80.5 -135.5q-187 -223 -842 -226z" />
    <glyph glyph-name="sacute" unicode="&#x15b;" horiz-adv-x="1667" 
d="M1071 1198h-504l178 326h551zM874 -31h-112q-735 0 -735 391v15h567q0 -20 7 -39t28 -43t70 -38.5t122 -14.5h4q127 0 177.5 23t50.5 69v4q0 45 -43.5 65.5t-167.5 24.5l-234 6q-569 21 -569 346v13q0 76 29.5 131.5t101.5 105.5q154 105 592 105h108q723 0 723 -342v-15
h-557q-3 24 -14 43q-12 22 -67.5 41t-139.5 19h-2q-125 0 -170 -17t-45 -59v-2q0 -38 45.5 -58t159.5 -24l231 -6q150 -8 254 -25t172 -43.5t106 -68.5t53 -92t15 -122v-14q0 -66 -16.5 -118t-65.5 -102.5t-131 -84t-220.5 -54t-326.5 -20.5z" />
    <glyph glyph-name="Scircumflex" unicode="&#x15c;" horiz-adv-x="2121" 
d="M756 1933h590l329 -313h-497l-127 119l-127 -119h-492zM1145 -29h-187q-929 0 -929 541v20h639q15 -215 381 -215h18q95 0 164 8t108.5 20.5t63 32t30.5 39t7 44.5v2q0 33 -12 54t-47.5 40t-109.5 29.5t-190 13.5l-282 8q-748 21 -748 459v18q0 79 22.5 144t82 126.5
t156 103t253 66.5t363.5 25h182q926 0 926 -481v-16h-633q-18 161 -369 161h-20q-144 0 -221 -18q-73 -16 -94 -35.5t-21 -58.5v-2q0 -26 12 -44t45.5 -35.5t102 -27t172.5 -10.5l274 -6q430 -12 619 -121q186 -107 186 -338v-29q0 -90 -21.5 -156.5t-80.5 -135.5
q-187 -223 -842 -226z" />
    <glyph glyph-name="scircumflex" unicode="&#x15d;" horiz-adv-x="1667" 
d="M535 1524h573l313 -326h-483l-119 129l-119 -129h-477zM874 -31h-112q-735 0 -735 391v15h567q0 -20 7 -39t28 -43t70 -38.5t122 -14.5h4q127 0 177.5 23t50.5 69v4q0 45 -43.5 65.5t-167.5 24.5l-234 6q-569 21 -569 346v13q0 76 29.5 131.5t101.5 105.5
q154 105 592 105h108q723 0 723 -342v-15h-557q-3 24 -14 43q-12 22 -67.5 41t-139.5 19h-2q-125 0 -170 -17t-45 -59v-2q0 -38 45.5 -58t159.5 -24l231 -6q150 -8 254 -25t172 -43.5t106 -68.5t53 -92t15 -122v-14q0 -66 -16.5 -118t-65.5 -102.5t-131 -84t-220.5 -54
t-326.5 -20.5z" />
    <glyph glyph-name="uni015E" unicode="&#x15e;" horiz-adv-x="2121" 
d="M1145 -29h-187q-929 0 -929 541v20h639q15 -215 381 -215h18q95 0 164 8t108.5 20.5t63 32t30.5 39t7 44.5v2q0 33 -12 54t-47.5 40t-109.5 29.5t-190 13.5l-282 8q-748 21 -748 459v18q0 79 22.5 144t82 126.5t156 103t253 66.5t363.5 25h182q926 0 926 -481v-16h-633
q-18 161 -369 161h-20q-144 0 -221 -18q-73 -16 -94 -35.5t-21 -58.5v-2q0 -26 12 -44t45.5 -35.5t102 -27t172.5 -10.5l274 -6q430 -12 619 -121q186 -107 186 -338v-29q0 -90 -21.5 -156.5t-80.5 -135.5q-187 -223 -842 -226zM1077 -530h-358v188h223q74 0 74 45t-74 45
h-145v252h282v-100q158 -3 246.5 -28.5t118.5 -67.5t29 -113v-6q0 -98 -87 -158q-80 -57 -309 -57z" />
    <glyph glyph-name="uni015F" unicode="&#x15f;" horiz-adv-x="1667" 
d="M874 -31h-112q-735 0 -735 391v15h567q0 -20 7 -39t28 -43t70 -38.5t122 -14.5h4q127 0 177.5 23t50.5 69v4q0 45 -43.5 65.5t-167.5 24.5l-234 6q-569 21 -569 346v13q0 76 29.5 131.5t101.5 105.5q154 105 592 105h108q723 0 723 -342v-15h-557q-3 24 -14 43
q-12 22 -67.5 41t-139.5 19h-2q-125 0 -170 -17t-45 -59v-2q0 -38 45.5 -58t159.5 -24l231 -6q150 -8 254 -25t172 -43.5t106 -68.5t53 -92t15 -122v-14q0 -66 -16.5 -118t-65.5 -102.5t-131 -84t-220.5 -54t-326.5 -20.5zM811 -530h-358v188h223q74 0 74 45t-74 45h-146
v252h283v-100q120 -2 198 -16t121 -41.5t59 -63t15 -88.5v-6q0 -99 -86 -158q-80 -57 -309 -57z" />
    <glyph glyph-name="Scaron" unicode="&#x160;" horiz-adv-x="2121" 
d="M1145 -29h-187q-929 0 -929 541v20h639q15 -215 381 -215h18q95 0 164 8t108.5 20.5t63 32t30.5 39t7 44.5v2q0 33 -12 54t-47.5 40t-109.5 29.5t-190 13.5l-282 8q-748 21 -748 459v18q0 79 22.5 144t82 126.5t156 103t253 66.5t363.5 25h182q926 0 926 -481v-16h-633
q-18 161 -369 161h-20q-144 0 -221 -18q-73 -16 -94 -35.5t-21 -58.5v-2q0 -26 12 -44t45.5 -35.5t102 -27t172.5 -10.5l274 -6q430 -12 619 -121q186 -107 186 -338v-29q0 -90 -21.5 -156.5t-80.5 -135.5q-187 -223 -842 -226zM1331 1616h-577l-338 317h499l127 -118
l125 118h494z" />
    <glyph glyph-name="scaron" unicode="&#x161;" horiz-adv-x="1667" 
d="M874 -31h-112q-735 0 -735 391v15h567q0 -20 7 -39t28 -43t70 -38.5t122 -14.5h4q127 0 177.5 23t50.5 69v4q0 45 -43.5 65.5t-167.5 24.5l-234 6q-569 21 -569 346v13q0 76 29.5 131.5t101.5 105.5q154 105 592 105h108q723 0 723 -342v-15h-557q-3 24 -14 43
q-12 22 -67.5 41t-139.5 19h-2q-125 0 -170 -17t-45 -59v-2q0 -38 45.5 -58t159.5 -24l231 -6q150 -8 254 -25t172 -43.5t106 -68.5t53 -92t15 -122v-14q0 -66 -16.5 -118t-65.5 -102.5t-131 -84t-220.5 -54t-326.5 -20.5zM1108 1194h-576l-313 330h483l119 -133l119 133
h479z" />
    <glyph glyph-name="Tcommaaccent" unicode="&#x162;" horiz-adv-x="2000" 
d="M1161 -606h-266q58 109 72 188h-232v326h529v-256q0 -93 -103 -258zM1290 0h-581v1108h-658v416h1897v-416h-658v-1108z" />
    <glyph glyph-name="tcommaaccent" unicode="&#x163;" horiz-adv-x="1052" 
d="M827 -606h-266q58 109 72 188h-232v326h529v-256q0 -93 -103 -258zM1001 342v-342h-471q-292 0 -292 313v451h-211v338h211v321h553v-321h210v-338h-210v-326q0 -56 18 -76t74 -20h118z" />
    <glyph glyph-name="Tcaron" unicode="&#x164;" horiz-adv-x="2000" 
d="M1290 0h-581v1108h-658v416h1897v-416h-658v-1108zM1292 1616h-577l-338 317h500l127 -118l124 118h494z" />
    <glyph glyph-name="tcaron" unicode="&#x165;" horiz-adv-x="1052" 
d="M1001 342v-342h-471q-292 0 -292 313v451h-211v338h211v321h553v-321h210v-338h-210v-326q0 -56 18 -76t74 -20h118zM1237 1178h-391l28 346h420z" />
    <glyph glyph-name="Tbar" unicode="&#x166;" horiz-adv-x="2000" 
d="M1772 872v-290h-1543v290h1543zM1290 0h-581v1108h-658v416h1897v-416h-658v-1108z" />
    <glyph glyph-name="tbar" unicode="&#x167;" horiz-adv-x="1052" 
d="M883 330h118v-330h-471q-292 0 -292 313v144h-211v239h211v95h-211v311h211v321h553v-321h210v-311h-210v-95h210v-239h-210v-29q0 -57 18 -77.5t74 -20.5z" />
    <glyph glyph-name="Utilde" unicode="&#x168;" horiz-adv-x="2260" 
d="M82 797v727h584v-682q0 -158 88 -275q48 -63 146.5 -99t232.5 -36q132 0 229 36t145 99q90 115 90 275v682h582v-727q0 -114 -22 -210.5t-84 -205.5q-65 -117 -170 -203q-110 -91 -300.5 -147t-426.5 -56h-82q-243 0 -437 56t-305 147q-105 86 -170 203
q-59 111 -79.5 205.5t-20.5 210.5zM1401 1624h-10q-100 0 -277 59q-46 16 -74 23.5t-48.5 7t-29 -11t-8.5 -31.5v-59h-329v174q0 90 54.5 145.5t176.5 55.5h8q38 0 107 -11q41 -5 76 -20l47 -14l51 -15q95 -31 121 -31q34 0 34 41v60h330v-162q0 -211 -229 -211z" />
    <glyph glyph-name="utilde" unicode="&#x169;" horiz-adv-x="1816" 
d="M1180 1102h555v-1102h-553v197q-222 -222 -559 -222h-15q-143 0 -252 40.5t-168 109.5q-108 131 -108 281v696h559v-527q0 -119 63.5 -186t190.5 -67q133 0 210 74.5t77 193.5v512zM1169 1198h-8q-87 0 -270 59q-98 29 -115 29q-33 0 -33 -43v-55h-325v166q0 90 52.5 144
t172.5 54h8q96 0 273 -57q95 -31 112 -31q31 0 31 41v60h328v-156q0 -211 -226 -211z" />
    <glyph glyph-name="Umacron" unicode="&#x16a;" horiz-adv-x="2260" 
d="M82 797v727h584v-682q0 -158 88 -275q48 -63 146.5 -99t232.5 -36q132 0 229 36t145 99q90 115 90 275v682h582v-727q0 -114 -22 -210.5t-84 -205.5q-65 -117 -170 -203q-110 -91 -300.5 -147t-426.5 -56h-82q-243 0 -437 56t-305 147q-105 86 -170 203
q-59 111 -79.5 205.5t-20.5 210.5zM1610 1632h-961v271h961v-271z" />
    <glyph glyph-name="umacron" unicode="&#x16b;" horiz-adv-x="1816" 
d="M1180 1102h555v-1102h-553v197q-222 -222 -559 -222h-15q-143 0 -252 40.5t-168 109.5q-108 131 -108 281v696h559v-527q0 -119 63.5 -186t190.5 -67q133 0 210 74.5t77 193.5v512zM1370 1214h-926v265h926v-265z" />
    <glyph glyph-name="Ubreve" unicode="&#x16c;" horiz-adv-x="2260" 
d="M82 797v727h584v-682q0 -158 88 -275q48 -63 146.5 -99t232.5 -36q132 0 229 36t145 99q90 115 90 275v682h582v-727q0 -114 -22 -210.5t-84 -205.5q-65 -117 -170 -203q-110 -91 -300.5 -147t-426.5 -56h-82q-243 0 -437 56t-305 147q-105 86 -170 203
q-59 111 -79.5 205.5t-20.5 210.5zM1174 1602h-82q-136 0 -237 36.5t-146 98.5q-80 108 -80 213v4h375q0 -12 5.5 -27t18 -32.5t40.5 -29.5t67 -12t66.5 12t39.5 30t16.5 32.5t4.5 26.5h368v-4q0 -101 -90 -215q-49 -60 -145.5 -96.5t-220.5 -36.5z" />
    <glyph glyph-name="ubreve" unicode="&#x16d;" horiz-adv-x="1816" 
d="M1180 1102h555v-1102h-553v197q-222 -222 -559 -222h-15q-143 0 -252 40.5t-168 109.5q-108 131 -108 281v696h559v-527q0 -119 63.5 -186t190.5 -67q133 0 210 74.5t77 193.5v512zM1038 1524h365v-4q0 -105 -92 -211q-49 -57 -144.5 -92t-216.5 -35h-82
q-133 0 -231.5 35t-144.5 94q-80 103 -80 209v4h370q0 -13 4.5 -27.5t17 -32t40 -28.5t67.5 -11q63 0 95 30.5t32 68.5z" />
    <glyph glyph-name="Uring" unicode="&#x16e;" horiz-adv-x="2260" 
d="M82 797v727h584v-682q0 -158 88 -275q48 -63 146.5 -99t232.5 -36q132 0 229 36t145 99q90 115 90 275v682h582v-727q0 -114 -22 -210.5t-84 -205.5q-65 -117 -170 -203q-110 -91 -300.5 -147t-426.5 -56h-82q-243 0 -437 56t-305 147q-105 86 -170 203
q-59 111 -79.5 205.5t-20.5 210.5zM1133 2064q403 0 403 -243q0 -244 -403 -244q-410 0 -410 244q0 243 410 243zM975 1823q0 -94 158 -94q153 0 153 94q0 90 -153 90q-158 0 -158 -90z" />
    <glyph glyph-name="uring" unicode="&#x16f;" horiz-adv-x="1816" 
d="M1180 1102h555v-1102h-553v197q-222 -222 -559 -222h-15q-143 0 -252 40.5t-168 109.5q-108 131 -108 281v696h559v-527q0 -119 63.5 -186t190.5 -67q133 0 210 74.5t77 193.5v512zM504 1423q0 242 405 242q400 0 400 -242q0 -243 -400 -243q-405 0 -405 243zM756 1423
q0 -92 153 -92q150 0 150 92q0 90 -150 90q-153 0 -153 -90z" />
    <glyph glyph-name="Uhungarumlaut" unicode="&#x170;" horiz-adv-x="2260" 
d="M82 797v727h584v-682q0 -158 88 -275q48 -63 146.5 -99t232.5 -36q132 0 229 36t145 99q90 115 90 275v682h582v-727q0 -114 -22 -210.5t-84 -205.5q-65 -117 -170 -203q-110 -91 -300.5 -147t-426.5 -56h-82q-243 0 -437 56t-305 147q-105 86 -170 203
q-59 111 -79.5 205.5t-20.5 210.5zM1665 1616h-489l120 317h502zM1087 1616h-489l109 317h501z" />
    <glyph glyph-name="uhungarumlaut" unicode="&#x171;" horiz-adv-x="1816" 
d="M1180 1102h555v-1102h-553v197q-222 -222 -559 -222h-15q-143 0 -252 40.5t-168 109.5q-108 131 -108 281v696h559v-527q0 -119 63.5 -186t190.5 -67q133 0 210 74.5t77 193.5v512zM1423 1194h-473l129 330h486zM862 1194h-471l115 330h483z" />
    <glyph glyph-name="Uogonek" unicode="&#x172;" horiz-adv-x="2260" 
d="M1653 -168v-217h-338q-301 0 -301 147v7q0 73 88 122.5t291 98.5q-102 -15 -217 -15h-82q-243 0 -437 56t-305 147q-105 86 -170 203q-59 111 -79.5 205.5t-20.5 210.5v727h584v-682q0 -158 88 -275q48 -63 146.5 -99t232.5 -36q132 0 229 36t145 99q90 115 90 275v682
h582v-727q0 -501 -496 -781q-95 -52 -130 -81t-35 -60q0 -43 69 -43h66z" />
    <glyph glyph-name="uogonek" unicode="&#x173;" horiz-adv-x="1816" 
d="M1106 -238v7q0 78 92.5 130t302.5 101h234q-123 -80 -123 -125q0 -43 67 -43h56v-217h-328q-301 0 -301 147zM1180 1102h555v-1102h-553v197q-222 -222 -559 -222h-15q-143 0 -252 40.5t-168 109.5q-108 131 -108 281v696h559v-527q0 -119 63.5 -186t190.5 -67
q133 0 210 74.5t77 193.5v512z" />
    <glyph glyph-name="Wcircumflex" unicode="&#x174;" horiz-adv-x="3143" 
d="M1585 963l-307 -963h-709l-594 1524h648l346 -1006l305 1006h655l309 -989l336 989h596l-594 -1524h-673zM1300 1933h578l336 -317h-500l-127 119l-125 -119h-493z" />
    <glyph glyph-name="wcircumflex" unicode="&#x175;" horiz-adv-x="2496" 
d="M1264 668l-222 -668h-628l-434 1102h579l215 -694l211 694h574l215 -692l211 692h532l-410 -1102h-622zM983 1524h576l313 -332h-486l-118 135l-119 -135h-477z" />
    <glyph glyph-name="Ycircumflex" unicode="&#x176;" horiz-adv-x="2148" 
d="M1374 0h-581v573l-834 951h696l445 -527l452 527h637l-815 -955v-569zM805 1933h577l336 -317h-499l-127 119l-125 -119h-494z" />
    <glyph glyph-name="ycircumflex" unicode="&#x177;" horiz-adv-x="1693" 
d="M762 -385h-518v340h250q51 0 51 35v2q0 21 -47 110l-521 1000h594l308 -709l284 709h553l-530 -1149q-82 -180 -180.5 -259t-243.5 -79zM582 1524h575l313 -332h-485l-119 135l-118 -135h-478z" />
    <glyph glyph-name="Ydieresis" unicode="&#x178;" horiz-adv-x="2148" 
d="M1374 0h-581v573l-834 951h696l445 -527l452 527h637l-815 -955v-569zM1145 1933h502v-317h-502v317zM543 1933h504v-317h-504v317z" />
    <glyph glyph-name="Zacute" unicode="&#x179;" horiz-adv-x="1953" 
d="M72 1122v402h1812v-310l-999 -798h1009v-416h-1835v311l971 811h-958zM1202 1616h-526l162 317h571z" />
    <glyph glyph-name="zacute" unicode="&#x17a;" horiz-adv-x="1540" 
d="M1495 338v-338h-1450v299l733 477h-733v326h1448v-293l-756 -471h758zM1004 1194h-504l182 330h549z" />
    <glyph glyph-name="Zdotaccent" unicode="&#x17b;" horiz-adv-x="1953" 
d="M72 1122v402h1812v-310l-999 -798h1009v-416h-1835v311l971 811h-958zM698 1946h555v-330h-555v330z" />
    <glyph glyph-name="zdotaccent" unicode="&#x17c;" horiz-adv-x="1540" 
d="M1495 338v-338h-1450v299l733 477h-733v326h1448v-293l-756 -471h758zM492 1524h555v-330h-555v330z" />
    <glyph glyph-name="Zcaron" unicode="&#x17d;" horiz-adv-x="1953" 
d="M72 1122v402h1812v-310l-999 -798h1009v-416h-1835v311l971 811h-958zM1268 1616h-578l-338 317h500l127 -118l125 118h493z" />
    <glyph glyph-name="zcaron" unicode="&#x17e;" horiz-adv-x="1540" 
d="M1495 338v-338h-1450v299l733 477h-733v326h1448v-293l-756 -471h758zM1063 1194h-576l-313 330h483l119 -133l119 133h479z" />
    <glyph glyph-name="florin" unicode="&#x192;" horiz-adv-x="1114" 
d="M1053 995v-340h-254l-54 -1044h-552l51 1044h-201v340h217l10 215q9 146 99 230q93 84 319 84h365v-316h-154q-43 0 -58 -17t-20 -63l-6 -133h238z" />
    <glyph glyph-name="Ohorn" unicode="&#x1a0;" horiz-adv-x="2408" 
d="M1159 1552h92q196 0 369 -28q67 8 120.5 67t53.5 133h467q0 -230 -197 -356l35 -25q83 -61 133 -126t80 -146q49 -124 49 -274v-62q4 -234 -127 -422q-50 -69 -136.5 -133.5t-194.5 -107.5q-257 -101 -652 -101h-92q-575 0 -852 211q-83 63 -131.5 128.5t-81.5 148.5
q-47 128 -47 276v62q0 244 125 417q255 338 987 338zM1759 754v28q0 140 -108 240q-58 57 -174 89t-273 32q-161 0 -276.5 -32t-173.5 -89q-105 -102 -105 -240v-24q0 -135 107 -248q59 -59 175.5 -93t272.5 -34q157 0 274 33.5t175 91.5q106 106 106 246z" />
    <glyph glyph-name="ohorn" unicode="&#x1a1;" horiz-adv-x="1898" 
d="M1026 -31h-152q-193 0 -348.5 36t-251.5 95q-87 57 -143 138q-52 75 -72 146t-20 157v32q0 84 19.5 153.5t70.5 143.5q59 81 143 134q92 58 248.5 93.5t351.5 35.5h156q154 0 299 -23q58 16 97.5 63t39.5 109h447q0 -224 -193 -344q142 -133 142 -363v-36
q0 -92 -16 -158.5t-66 -142.5q-52 -82 -138 -138q-91 -59 -250.5 -95t-363.5 -36zM952 821h-2q-189 0 -268 -76q-78 -75 -78 -182v-8q0 -109 78 -193q79 -79 268 -79h2q186 0 265 82t79 190v8q0 117 -84 187.5t-260 70.5z" />
    <glyph glyph-name="Uhorn" unicode="&#x1af;" horiz-adv-x="2260" 
d="M82 797v727h584v-682q0 -158 88 -275q48 -63 146.5 -99t232.5 -36q132 0 229 36t145 99q90 115 90 275v682h191q69 3 125.5 64t56.5 136h467q0 -139 -71.5 -238t-186.5 -153v-536q0 -114 -22 -210.5t-84 -205.5q-65 -117 -170 -203q-110 -91 -300.5 -147t-426.5 -56h-82
q-243 0 -437 56t-305 147q-105 86 -170 203q-59 111 -79.5 205.5t-20.5 210.5z" />
    <glyph glyph-name="uhorn" unicode="&#x1b0;" horiz-adv-x="1871" 
d="M1546 1282h447q0 -139 -71.5 -234t-186.5 -143v-905h-553v197q-222 -222 -559 -222h-15q-143 0 -252 40.5t-168 109.5q-108 131 -108 281v696h559v-527q0 -119 63.5 -186t190.5 -67q133 0 210 74.5t77 193.5v512h184q71 3 126.5 54.5t55.5 125.5z" />
    <glyph glyph-name="Aringacute" unicode="&#x1fa;" horiz-adv-x="2267" 
d="M852 627h506l-256 524zM2300 0h-637l-119 246h-870l-117 -246h-590l754 1524h782zM1378 2130h-504l183 330h549zM1118 2083q404 0 404 -244t-404 -244q-409 0 -409 244t409 244zM961 1841q0 -94 157 -94q154 0 154 94q0 90 -154 90q-157 0 -157 -90z" />
    <glyph glyph-name="aringacute" unicode="&#x1fb;" horiz-adv-x="1732" 
d="M1067 473v47l-369 -65q-74 -12 -104.5 -33t-30.5 -62v-2q0 -51 42.5 -81.5t131.5 -30.5q150 0 238 67q92 71 92 160zM1077 147q-167 -167 -516 -167h-22q-259 0 -385 102q-125 101 -125 252v24q0 145 105.5 223.5t340.5 96.5l531 47q61 9 61 53q0 19 -8 32t-31 26
t-73.5 19.5t-127.5 6.5h-8q-168 0 -213 -45q-20 -23 -25 -33t-10 -34h-516v12q0 62 11 101t49 91q41 56 110 90q77 38 217 62t320 24h115q190 0 335 -22t222 -59q73 -34 116 -86q40 -47 51 -86t11 -101v-407q0 -47 47 -47h59v-322h-463q-154 0 -178 147zM1085 1718h-503
l182 330h549zM420 1425q0 242 405 242q400 0 400 -242q0 -243 -400 -243q-405 0 -405 243zM672 1425q0 -92 153 -92q150 0 150 92q0 91 -150 91q-153 0 -153 -91z" />
    <glyph glyph-name="AEacute" unicode="&#x1fc;" horiz-adv-x="3104" 
d="M2292 1616h-527l162 317h572zM977 618h391v545zM3035 0h-1667v238h-666l-170 -238h-585l1106 1524h1966v-373h-1077v-190h1056v-371h-1056v-209h1093v-381z" />
    <glyph glyph-name="aeacute" unicode="&#x1fd;" horiz-adv-x="2828" 
d="M1636 1194h-503l182 330h549zM1927 862h-4q-275 0 -315 -166h635q-34 166 -316 166zM735 244q146 0 234 67q90 72 90 162v47l-365 -63q-73 -12 -103 -33t-30 -62v-2q0 -53 43 -84.5t131 -31.5zM2245 401h544v-4q0 -62 -15.5 -110t-63.5 -105q-45 -56 -134 -106
q-88 -46 -242.5 -75.5t-348.5 -29.5h-113q-498 0 -701 232q-201 -223 -577 -223h-23q-284 0 -413 100q-129 102 -129 254v24q0 144 106 223t338 99l539 47q28 4 37.5 15.5t9.5 37.5v2q0 23 -13.5 38t-69 27.5t-155.5 12.5h-10q-240 0 -240 -110h-514v12q0 61 9.5 99t44.5 89
q41 56 110 90q74 39 214 64.5t321 25.5h112q362 0 512 -102q159 102 486 102h116q200 0 354 -36.5t244 -96.5q87 -62 134 -143q48 -79 63.5 -150.5t15.5 -171.5v-61h-1191q27 -203 331 -203h2q76 0 135 12t90.5 28t52 36.5t26.5 34t6 22.5z" />
    <glyph glyph-name="Oslashacute" unicode="&#x1fe;" horiz-adv-x="2418" 
d="M1473 1622h-527l162 311h571zM1257 -27h-94q-371 0 -614 97l-90 -70h-471q26 23 90 70l196 151q-229 195 -229 512v62q-4 238 127 419q258 333 991 336h94q355 0 603 -94l88 68h473l-283 -219q236 -199 236 -510v-62q0 -69 -9.5 -132.5t-40 -142t-79.5 -144.5
t-135.5 -131t-200 -110t-281 -72.5t-371.5 -27.5zM641 784v-26q0 -120 64 -205l745 584q-99 12 -242 12q-331 0 -460 -119q-107 -104 -107 -246zM1208 379q161 0 278.5 32.5t178.5 90.5q113 105 113 254v28q0 114 -60 199l-755 -590q112 -14 245 -14z" />
    <glyph glyph-name="oslashacute" unicode="&#x1ff;" horiz-adv-x="1898" 
d="M1198 1198h-504l178 326h549zM1022 -31h-152q-268 0 -460 80l-76 -49h-363l242 168q-174 131 -174 373v32q0 84 20 153.5t72 143.5q59 81 143 134q95 58 251.5 93.5t351.5 35.5h153q257 0 457 -78l69 47h369l-235 -162q170 -141 170 -365v-36q0 -570 -838 -570zM592 563
v-8q0 -66 20 -113l521 361q-79 24 -181 24h-4q-184 0 -270 -72.5t-86 -191.5zM950 279h2q197 0 275 81q82 82 82 195v8q0 59 -17 101l-518 -361q70 -24 176 -24z" />
    <glyph glyph-name="uni0218" unicode="&#x218;" horiz-adv-x="2121" 
d="M1214 -612h-266q58 109 72 188h-232v326h529v-256q0 -93 -103 -258zM1145 -29h-187q-929 0 -929 541v20h639q15 -215 381 -215h18q95 0 164 8t108.5 20.5t63 32t30.5 39t7 44.5v2q0 33 -12 54t-47.5 40t-109.5 29.5t-190 13.5l-282 8q-748 21 -748 459v18q0 79 22.5 144
t82 126.5t156 103t253 66.5t363.5 25h182q926 0 926 -481v-16h-633q-18 161 -369 161h-20q-144 0 -221 -18q-73 -16 -94 -35.5t-21 -58.5v-2q0 -26 12 -44t45.5 -35.5t102 -27t172.5 -10.5l274 -6q430 -12 619 -121q186 -107 186 -338v-29q0 -90 -21.5 -156.5t-80.5 -135.5
q-187 -223 -842 -226z" />
    <glyph glyph-name="uni0219" unicode="&#x219;" horiz-adv-x="1667" 
d="M991 -610h-266q58 109 72 188h-232v326h529v-256q0 -93 -103 -258zM874 -31h-112q-735 0 -735 391v15h567q0 -20 7 -39t28 -43t70 -38.5t122 -14.5h4q127 0 177.5 23t50.5 69v4q0 45 -43.5 65.5t-167.5 24.5l-234 6q-569 21 -569 346v13q0 76 29.5 131.5t101.5 105.5
q154 105 592 105h108q723 0 723 -342v-15h-557q-3 24 -14 43q-12 22 -67.5 41t-139.5 19h-2q-125 0 -170 -17t-45 -59v-2q0 -38 45.5 -58t159.5 -24l231 -6q150 -8 254 -25t172 -43.5t106 -68.5t53 -92t15 -122v-14q0 -66 -16.5 -118t-65.5 -102.5t-131 -84t-220.5 -54
t-326.5 -20.5z" />
    <glyph glyph-name="uni021A" unicode="&#x21a;" horiz-adv-x="2000" 
d="M1161 -606h-266q58 109 72 188h-232v326h529v-256q0 -93 -103 -258zM1290 0h-581v1108h-658v416h1897v-416h-658v-1108z" />
    <glyph glyph-name="uni021B" unicode="&#x21b;" horiz-adv-x="1052" 
d="M827 -606h-266q58 109 72 188h-232v326h529v-256q0 -93 -103 -258zM1001 342v-342h-471q-292 0 -292 313v451h-211v338h211v321h553v-321h210v-338h-210v-326q0 -56 18 -76t74 -20h118z" />
    <glyph glyph-name="uni0237" unicode="&#x237;" horiz-adv-x="720" 
d="M-57 -385v330h73q39 0 52.5 14.5t13.5 60.5v1082h557v-1184q0 -153 -61 -228t-168 -75h-467z" />
    <glyph glyph-name="circumflex" unicode="&#x2c6;" 
d="M434 1524h576l313 -332h-485l-119 135l-119 -135h-477z" />
    <glyph glyph-name="caron" unicode="&#x2c7;" 
d="M1012 1194h-576l-313 330h483l119 -133l119 133h479z" />
    <glyph glyph-name="breve" unicode="&#x2d8;" 
d="M854 1524h365v-4q0 -104 -93 -211q-49 -57 -144 -92t-216 -35h-82q-133 0 -232 35t-145 94q-80 103 -80 209v4h371q0 -13 4.5 -27.5t17 -32t40 -28.5t67.5 -11q63 0 95 30.5t32 68.5z" />
    <glyph glyph-name="dotaccent" unicode="&#x2d9;" 
d="M444 1524h555v-330h-555v330z" />
    <glyph glyph-name="ring" unicode="&#x2da;" 
d="M322 1423q0 242 405 242q399 0 399 -242q0 -243 -399 -243q-405 0 -405 243zM573 1423q0 -92 154 -92q150 0 150 92q0 90 -150 90q-154 0 -154 -90z" />
    <glyph glyph-name="ogonek" unicode="&#x2db;" 
d="M401 -238v7q0 78 93 130t303 101h233q-123 -80 -123 -125q0 -43 68 -43h55v-217h-328q-301 0 -301 147z" />
    <glyph glyph-name="tilde" unicode="&#x2dc;" 
d="M985 1198h-8q-87 0 -270 59q-98 29 -115 29q-33 0 -33 -43v-55h-326v166q0 90 53 144t173 54h8q95 0 272 -57q95 -31 113 -31q31 0 31 41v60h327v-156q0 -211 -225 -211z" />
    <glyph glyph-name="hungarumlaut" unicode="&#x2dd;" 
d="M1169 1194h-473l129 330h486zM608 1194h-471l115 330h483z" />
    <glyph glyph-name="gravecomb" unicode="&#x300;" 
d="M909 1524l181 -330h-506l-228 330h553z" />
    <glyph glyph-name="acutecomb" unicode="&#x301;" 
d="M860 1194h-504l183 330h548z" />
    <glyph glyph-name="uni0302" unicode="&#x302;" 
d="M434 1524h576l313 -332h-485l-119 135l-119 -135h-477z" />
    <glyph glyph-name="tildecomb" unicode="&#x303;" 
d="M985 1198h-8q-87 0 -270 59q-98 29 -115 29q-33 0 -33 -43v-55h-326v166q0 90 53 144t173 54h8q95 0 272 -57q95 -31 113 -31q31 0 31 41v60h327v-156q0 -211 -225 -211z" />
    <glyph glyph-name="uni0306" unicode="&#x306;" 
d="M854 1524h365v-4q0 -104 -93 -211q-49 -57 -144 -92t-216 -35h-82q-133 0 -232 35t-145 94q-80 103 -80 209v4h371q0 -13 4.5 -27.5t17 -32t40 -28.5t67.5 -11q63 0 95 30.5t32 68.5z" />
    <glyph glyph-name="hookabovecomb" unicode="&#x309;" horiz-adv-x="1097" 
d="M655 1219v-7h-280v35q0 80 43.5 127.5t159.5 81.5q48 13 66 27t18 35q0 12 -3.5 21.5t-12 14.5t-15 8.5t-19.5 5t-18.5 2t-19.5 0t-15 -0.5q-66 0 -95.5 -19.5t-29.5 -76.5h-303q0 74 22 127t55.5 83t88.5 47t107 22t124 5h52q62 0 113 -5t105 -20t90.5 -40.5t59.5 -69
t21 -102.5v-9q0 -52 -10 -87t-37.5 -65t-77.5 -52t-131 -41q-58 -14 -58 -47z" />
    <glyph glyph-name="uni031B" unicode="&#x31b;" horiz-adv-x="0" 
d="M1546 1282h447q0 -87 -31 -160t-81 -120.5t-115.5 -81t-132.5 -48t-134 -14.5l-141 244q72 0 130 52.5t58 127.5z" />
    <glyph glyph-name="dotbelowcomb" unicode="&#x323;" horiz-adv-x="907" 
d="M178 -119h557v-330h-557v330z" />
    <glyph glyph-name="Wgrave" unicode="&#x1e80;" horiz-adv-x="3143" 
d="M1585 963l-307 -963h-709l-594 1524h648l346 -1006l305 1006h655l309 -989l336 989h596l-594 -1524h-673zM1122 1933h572l161 -317h-526z" />
    <glyph glyph-name="wgrave" unicode="&#x1e81;" horiz-adv-x="2496" 
d="M1264 668l-222 -668h-628l-434 1102h579l215 -694l211 694h574l215 -692l211 692h532l-410 -1102h-622zM1333 1524l180 -330h-505l-228 330h553z" />
    <glyph glyph-name="Wacute" unicode="&#x1e82;" horiz-adv-x="3143" 
d="M1585 963l-307 -963h-709l-594 1524h648l346 -1006l305 1006h655l309 -989l336 989h596l-594 -1524h-673zM1866 1616h-527l162 317h572z" />
    <glyph glyph-name="wacute" unicode="&#x1e83;" horiz-adv-x="2496" 
d="M1264 668l-222 -668h-628l-434 1102h579l215 -694l211 694h574l215 -692l211 692h532l-410 -1102h-622zM1532 1194h-504l182 330h549z" />
    <glyph glyph-name="Wdieresis" unicode="&#x1e84;" horiz-adv-x="3143" 
d="M1585 963l-307 -963h-709l-594 1524h648l346 -1006l305 1006h655l309 -989l336 989h596l-594 -1524h-673zM1642 1933h502v-317h-502v317zM1040 1933h504v-317h-504v317z" />
    <glyph glyph-name="wdieresis" unicode="&#x1e85;" horiz-adv-x="2496" 
d="M1264 668l-222 -668h-628l-434 1102h579l215 -694l211 694h574l215 -692l211 692h532l-410 -1102h-622zM1315 1524h487v-330h-487v330zM735 1524h486v-330h-486v330z" />
    <glyph glyph-name="uni1EA0" unicode="&#x1ea0;" horiz-adv-x="2267" 
d="M825 -37h557v-330h-557v330zM852 627h506l-256 524zM2300 0h-637l-119 246h-870l-117 -246h-590l754 1524h782z" />
    <glyph glyph-name="uni1EA1" unicode="&#x1ea1;" horiz-adv-x="1732" 
d="M516 -119h557v-330h-557v330zM1067 473v47l-369 -65q-74 -12 -104.5 -33t-30.5 -62v-2q0 -51 42.5 -81.5t131.5 -30.5q150 0 238 67q92 71 92 160zM1077 147q-167 -167 -516 -167h-22q-259 0 -385 102q-125 101 -125 252v24q0 145 105.5 223.5t340.5 96.5l531 47
q61 9 61 53q0 19 -8 32t-31 26t-73.5 19.5t-127.5 6.5h-8q-168 0 -213 -45q-20 -23 -25 -33t-10 -34h-516v12q0 62 11 101t49 91q41 56 110 90q77 38 217 62t320 24h115q190 0 335 -22t222 -59q73 -34 116 -86q40 -47 51 -86t11 -101v-407q0 -47 47 -47h59v-322h-463
q-154 0 -178 147z" />
    <glyph glyph-name="uni1EA2" unicode="&#x1ea2;" horiz-adv-x="2267" 
d="M1270 1622v-6h-281v35q0 80 43.5 127.5t159.5 81.5q48 13 66 26.5t18 34.5q0 12 -3.5 21.5t-11.5 14.5t-14.5 8.5t-19.5 5t-18.5 2t-19.5 0t-15 -0.5q-66 0 -95.5 -19.5t-29.5 -76.5h-304q0 74 22 127t56 83t89 47.5t107 22.5t124 5h51q62 0 113 -5t105 -20.5t90.5 -41
t59.5 -69t21 -102.5v-8q0 -52 -10 -87t-37.5 -65.5t-78 -52.5t-130.5 -41q-34 -8 -45.5 -19.5t-11.5 -27.5zM852 627h506l-256 524zM2300 0h-637l-119 246h-870l-117 -246h-590l754 1524h782z" />
    <glyph glyph-name="uni1EA3" unicode="&#x1ea3;" horiz-adv-x="1732" 
d="M963 1219v-7h-281v35q0 80 43.5 127.5t159.5 81.5q48 13 66 27t18 35q0 12 -3.5 21.5t-12 14.5t-15 8.5t-19.5 5t-18.5 2t-19.5 0t-15 -0.5q-66 0 -95.5 -19.5t-29.5 -76.5h-303q0 74 22 127t56 83t89 47t107 22t124 5h51q62 0 113 -5t105 -20t90.5 -40.5t59.5 -69
t21 -102.5v-9q0 -52 -10 -87t-37.5 -65t-77.5 -52t-131 -41q-34 -8 -45.5 -19.5t-11.5 -27.5zM1067 473v47l-369 -65q-74 -12 -104.5 -33t-30.5 -62v-2q0 -51 42.5 -81.5t131.5 -30.5q150 0 238 67q92 71 92 160zM1077 147q-167 -167 -516 -167h-22q-259 0 -385 102
q-125 101 -125 252v24q0 145 105.5 223.5t340.5 96.5l531 47q61 9 61 53q0 19 -8 32t-31 26t-73.5 19.5t-127.5 6.5h-8q-168 0 -213 -45q-20 -23 -25 -33t-10 -34h-516v12q0 62 11 101t49 91q41 56 110 90q77 38 217 62t320 24h115q190 0 335 -22t222 -59q73 -34 116 -86
q40 -47 51 -86t11 -101v-407q0 -47 47 -47h59v-322h-463q-154 0 -178 147z" />
    <glyph glyph-name="uni1EA4" unicode="&#x1ea4;" horiz-adv-x="2267" 
d="M2079 1800h-445l162 318h510zM852 627h506l-256 524zM2300 0h-637l-119 246h-870l-117 -246h-590l754 1524h782zM821 1933h578l336 -317h-500l-127 119l-125 -119h-494z" />
    <glyph glyph-name="uni1EA5" unicode="&#x1ea5;" horiz-adv-x="1732" 
d="M1790 1391h-444l161 317h510zM1067 473v47l-369 -65q-74 -12 -104.5 -33t-30.5 -62v-2q0 -51 42.5 -81.5t131.5 -30.5q150 0 238 67q92 71 92 160zM1077 147q-167 -167 -516 -167h-22q-259 0 -385 102q-125 101 -125 252v24q0 145 105.5 223.5t340.5 96.5l531 47
q61 9 61 53q0 19 -8 32t-31 26t-73.5 19.5t-127.5 6.5h-8q-168 0 -213 -45q-20 -23 -25 -33t-10 -34h-516v12q0 62 11 101t49 91q41 56 110 90q77 38 217 62t320 24h115q190 0 335 -22t222 -59q73 -34 116 -86q40 -47 51 -86t11 -101v-407q0 -47 47 -47h59v-322h-463
q-154 0 -178 147zM535 1524h575l313 -332h-485l-119 135l-119 -135h-477z" />
    <glyph glyph-name="uni1EA6" unicode="&#x1ea6;" horiz-adv-x="2267" 
d="M2114 1800h-445l-227 318h510zM852 627h506l-256 524zM2300 0h-637l-119 246h-870l-117 -246h-590l754 1524h782zM821 1933h578l336 -317h-500l-127 119l-125 -119h-494z" />
    <glyph glyph-name="uni1EA7" unicode="&#x1ea7;" horiz-adv-x="1732" 
d="M1823 1391h-445l-227 317h510zM1067 473v47l-369 -65q-74 -12 -104.5 -33t-30.5 -62v-2q0 -51 42.5 -81.5t131.5 -30.5q150 0 238 67q92 71 92 160zM1077 147q-167 -167 -516 -167h-22q-259 0 -385 102q-125 101 -125 252v24q0 145 105.5 223.5t340.5 96.5l531 47
q61 9 61 53q0 19 -8 32t-31 26t-73.5 19.5t-127.5 6.5h-8q-168 0 -213 -45q-20 -23 -25 -33t-10 -34h-516v12q0 62 11 101t49 91q41 56 110 90q77 38 217 62t320 24h115q190 0 335 -22t222 -59q73 -34 116 -86q40 -47 51 -86t11 -101v-407q0 -47 47 -47h59v-322h-463
q-154 0 -178 147zM535 1524h575l313 -332h-485l-119 135l-119 -135h-477z" />
    <glyph glyph-name="uni1EA8" unicode="&#x1ea8;" horiz-adv-x="2267" 
d="M1901 1806v-6h-281v35q0 80 43.5 127.5t159.5 81.5q48 13 66 26.5t18 34.5q0 11 -3.5 19.5t-8 13.5t-13.5 9t-15 6t-17.5 3t-16 1h-16.5h-13q-66 0 -95.5 -20t-29.5 -77h-303q0 74 22 127t56 83t89 47.5t107 22.5t124 5h51q62 0 113 -5t105 -20.5t90.5 -41t59.5 -69
t21 -102.5v-8q0 -52 -10 -87t-37.5 -65.5t-78 -52.5t-130.5 -41q-34 -8 -45.5 -19.5t-11.5 -27.5zM852 627h506l-256 524zM2300 0h-637l-119 246h-870l-117 -246h-590l754 1524h782zM821 1933h578l336 -317h-500l-127 119l-125 -119h-494z" />
    <glyph glyph-name="uni1EA9" unicode="&#x1ea9;" horiz-adv-x="1732" 
d="M1612 1397v-6h-281v34q0 80 43.5 127.5t159.5 81.5q48 13 66 27t18 35q0 12 -3.5 21.5t-11.5 14.5t-14.5 8.5t-19.5 5t-18.5 2t-19.5 0t-15 -0.5q-66 0 -95.5 -19.5t-29.5 -76.5h-304q0 74 22 127t56 83t89 47t107 22t124 5h51q62 0 113 -5t105 -20t90.5 -40.5t59.5 -69
t21 -102.5v-8q0 -52 -10 -87t-37.5 -65.5t-78 -52.5t-130.5 -41q-34 -8 -45.5 -19.5t-11.5 -27.5zM1067 473v47l-369 -65q-74 -12 -104.5 -33t-30.5 -62v-2q0 -51 42.5 -81.5t131.5 -30.5q150 0 238 67q92 71 92 160zM1077 147q-167 -167 -516 -167h-22q-259 0 -385 102
q-125 101 -125 252v24q0 145 105.5 223.5t340.5 96.5l531 47q61 9 61 53q0 19 -8 32t-31 26t-73.5 19.5t-127.5 6.5h-8q-168 0 -213 -45q-20 -23 -25 -33t-10 -34h-516v12q0 62 11 101t49 91q41 56 110 90q77 38 217 62t320 24h115q190 0 335 -22t222 -59q73 -34 116 -86
q40 -47 51 -86t11 -101v-407q0 -47 47 -47h59v-322h-463q-154 0 -178 147zM535 1524h575l313 -332h-485l-119 135l-119 -135h-477z" />
    <glyph glyph-name="uni1EAA" unicode="&#x1eaa;" horiz-adv-x="2267" 
d="M1382 2013h-10q-96 0 -276 60q-45 16 -73.5 23.5t-49 7t-29 -11.5t-8.5 -32v-59h-330v174q0 90 55 145.5t177 55.5h8q37 0 106 -11q41 -5 76 -20l47 -14l51 -15q92 -30 121 -30q35 0 35 41v59h330v-162q0 -211 -230 -211zM852 627h506l-256 524zM2300 0h-637l-119 246
h-870l-117 -246h-590l754 1524h782zM821 1933h578l336 -317h-500l-127 119l-125 -119h-494z" />
    <glyph glyph-name="uni1EAB" unicode="&#x1eab;" horiz-adv-x="1732" 
d="M1094 1604h-11q-99 0 -276 59q-46 16 -74 23.5t-48.5 7t-29 -11t-8.5 -31.5v-60h-330v174q0 90 55 145.5t177 55.5h8q45 0 107 -10q37 -5 75 -21l47 -14l52 -14q95 -31 120 -31q35 0 35 41v59h330v-161q0 -211 -229 -211zM1067 473v47l-369 -65q-74 -12 -104.5 -33
t-30.5 -62v-2q0 -51 42.5 -81.5t131.5 -30.5q150 0 238 67q92 71 92 160zM1077 147q-167 -167 -516 -167h-22q-259 0 -385 102q-125 101 -125 252v24q0 145 105.5 223.5t340.5 96.5l531 47q61 9 61 53q0 19 -8 32t-31 26t-73.5 19.5t-127.5 6.5h-8q-168 0 -213 -45
q-20 -23 -25 -33t-10 -34h-516v12q0 62 11 101t49 91q41 56 110 90q77 38 217 62t320 24h115q190 0 335 -22t222 -59q73 -34 116 -86q40 -47 51 -86t11 -101v-407q0 -47 47 -47h59v-322h-463q-154 0 -178 147zM535 1524h575l313 -332h-485l-119 135l-119 -135h-477z" />
    <glyph glyph-name="uni1EAC" unicode="&#x1eac;" horiz-adv-x="2267" 
d="M825 -37h557v-330h-557v330zM852 627h506l-256 524zM2300 0h-637l-119 246h-870l-117 -246h-590l754 1524h782zM821 1933h578l336 -317h-500l-127 119l-125 -119h-494z" />
    <glyph glyph-name="uni1EAD" unicode="&#x1ead;" horiz-adv-x="1732" 
d="M516 -119h557v-330h-557v330zM1067 473v47l-369 -65q-74 -12 -104.5 -33t-30.5 -62v-2q0 -51 42.5 -81.5t131.5 -30.5q150 0 238 67q92 71 92 160zM1077 147q-167 -167 -516 -167h-22q-259 0 -385 102q-125 101 -125 252v24q0 145 105.5 223.5t340.5 96.5l531 47
q61 9 61 53q0 19 -8 32t-31 26t-73.5 19.5t-127.5 6.5h-8q-168 0 -213 -45q-20 -23 -25 -33t-10 -34h-516v12q0 62 11 101t49 91q41 56 110 90q77 38 217 62t320 24h115q190 0 335 -22t222 -59q73 -34 116 -86q40 -47 51 -86t11 -101v-407q0 -47 47 -47h59v-322h-463
q-154 0 -178 147zM535 1524h575l313 -332h-485l-119 135l-119 -135h-477z" />
    <glyph glyph-name="uni1EAE" unicode="&#x1eae;" horiz-adv-x="2267" 
d="M1305 2021h-445l162 318h510zM852 627h506l-256 524zM2300 0h-637l-119 246h-870l-117 -246h-590l754 1524h782zM1155 1602h-82q-136 0 -237 36.5t-146 98.5q-80 108 -80 213v4h375q0 -12 5.5 -27t18 -32.5t40.5 -29.5t67 -12t66.5 12t39.5 30t16.5 32.5t4.5 26.5h369v-4
q0 -101 -90 -215q-49 -59 -145.5 -96t-221.5 -37z" />
    <glyph glyph-name="uni1EAF" unicode="&#x1eaf;" horiz-adv-x="1732" 
d="M1020 1591h-445l162 318h510zM868 1184h-82q-111 0 -196.5 25.5t-133 62t-77.5 85t-39.5 87.5t-9.5 76v4h370q0 -37 32 -67t97 -30q62 0 94.5 30.5t32.5 66.5h365v-4q0 -99 -92 -207q-49 -58 -144.5 -93.5t-216.5 -35.5zM1067 473v47l-369 -65q-74 -12 -104.5 -33
t-30.5 -62v-2q0 -51 42.5 -81.5t131.5 -30.5q150 0 238 67q92 71 92 160zM1077 147q-167 -167 -516 -167h-22q-259 0 -385 102q-125 101 -125 252v24q0 145 105.5 223.5t340.5 96.5l531 47q61 9 61 53q0 19 -8 32t-31 26t-73.5 19.5t-127.5 6.5h-8q-168 0 -213 -45
q-20 -23 -25 -33t-10 -34h-516v12q0 62 11 101t49 91q41 56 110 90q77 38 217 62t320 24h115q190 0 335 -22t222 -59q73 -34 116 -86q40 -47 51 -86t11 -101v-407q0 -47 47 -47h59v-322h-463q-154 0 -178 147z" />
    <glyph glyph-name="uni1EB0" unicode="&#x1eb0;" horiz-adv-x="2267" 
d="M1356 2021h-445l-227 318h510zM852 627h506l-256 524zM2300 0h-637l-119 246h-870l-117 -246h-590l754 1524h782zM1155 1602h-82q-136 0 -237 36.5t-146 98.5q-80 108 -80 213v4h375q0 -12 5.5 -27t18 -32.5t40.5 -29.5t67 -12t66.5 12t39.5 30t16.5 32.5t4.5 26.5h369
v-4q0 -101 -90 -215q-49 -59 -145.5 -96t-221.5 -37z" />
    <glyph glyph-name="uni1EB1" unicode="&#x1eb1;" horiz-adv-x="1732" 
d="M1069 1591h-444l-228 318h510zM868 1184h-82q-111 0 -196.5 25.5t-133 62t-77.5 85t-39.5 87.5t-9.5 76v4h370q0 -37 32 -67t97 -30q62 0 94.5 30.5t32.5 66.5h365v-4q0 -99 -92 -207q-49 -58 -144.5 -93.5t-216.5 -35.5zM1067 473v47l-369 -65q-74 -12 -104.5 -33
t-30.5 -62v-2q0 -51 42.5 -81.5t131.5 -30.5q150 0 238 67q92 71 92 160zM1077 147q-167 -167 -516 -167h-22q-259 0 -385 102q-125 101 -125 252v24q0 145 105.5 223.5t340.5 96.5l531 47q61 9 61 53q0 19 -8 32t-31 26t-73.5 19.5t-127.5 6.5h-8q-168 0 -213 -45
q-20 -23 -25 -33t-10 -34h-516v12q0 62 11 101t49 91q41 56 110 90q77 38 217 62t320 24h115q190 0 335 -22t222 -59q73 -34 116 -86q40 -47 51 -86t11 -101v-407q0 -47 47 -47h59v-322h-463q-154 0 -178 147z" />
    <glyph glyph-name="uni1EB2" unicode="&#x1eb2;" horiz-adv-x="2267" 
d="M1247 2011v-6h-280v35q0 80 43 127.5t159 81.5q48 13 66 26.5t18 34.5q0 12 -3.5 21.5t-11.5 14.5t-14.5 8.5t-19.5 5t-18.5 2t-19.5 0t-15 -0.5q-66 0 -95.5 -19.5t-29.5 -76.5h-303q0 74 22 127t55.5 83t88.5 47.5t107 22.5t124 5h51q62 0 113.5 -5t105.5 -20.5
t90.5 -41t59.5 -69t21 -102.5v-8q0 -52 -10 -87t-37.5 -65.5t-78 -52.5t-130.5 -41q-58 -14 -58 -47zM852 627h506l-256 524zM2300 0h-637l-119 246h-870l-117 -246h-590l754 1524h782zM1155 1602h-82q-136 0 -237 36.5t-146 98.5q-80 108 -80 213v4h375q0 -12 5.5 -27
t18 -32.5t40.5 -29.5t67 -12t66.5 12t39.5 30t16.5 32.5t4.5 26.5h369v-4q0 -101 -90 -215q-49 -59 -145.5 -96t-221.5 -37z" />
    <glyph glyph-name="uni1EB3" unicode="&#x1eb3;" horiz-adv-x="1732" 
d="M963 1581v-6h-281v35q0 80 43.5 127.5t159.5 81.5q48 13 66 26.5t18 34.5q0 12 -3.5 21.5t-12 14.5t-15 8.5t-19.5 5t-18.5 2t-19.5 0t-15 -0.5q-66 0 -95.5 -19.5t-29.5 -76.5h-303q0 74 22 127t56 83t89 47.5t107 22.5t124 5h51q62 0 113 -5t105 -20.5t90.5 -41
t59.5 -69t21 -102.5v-8q0 -52 -10 -87t-37.5 -65.5t-78 -52.5t-130.5 -41q-34 -8 -45.5 -19.5t-11.5 -27.5zM868 1184h-82q-111 0 -196.5 25.5t-133 62t-77.5 85t-39.5 87.5t-9.5 76v4h370q0 -37 32 -67t97 -30q62 0 94.5 30.5t32.5 66.5h365v-4q0 -99 -92 -207
q-49 -58 -144.5 -93.5t-216.5 -35.5zM1067 473v47l-369 -65q-74 -12 -104.5 -33t-30.5 -62v-2q0 -51 42.5 -81.5t131.5 -30.5q150 0 238 67q92 71 92 160zM1077 147q-167 -167 -516 -167h-22q-259 0 -385 102q-125 101 -125 252v24q0 145 105.5 223.5t340.5 96.5l531 47
q61 9 61 53q0 19 -8 32t-31 26t-73.5 19.5t-127.5 6.5h-8q-168 0 -213 -45q-20 -23 -25 -33t-10 -34h-516v12q0 62 11 101t49 91q41 56 110 90q77 38 217 62t320 24h115q190 0 335 -22t222 -59q73 -34 116 -86q40 -47 51 -86t11 -101v-407q0 -47 47 -47h59v-322h-463
q-154 0 -178 147z" />
    <glyph glyph-name="uni1EB4" unicode="&#x1eb4;" horiz-adv-x="2267" 
d="M1384 2042h-10q-99 0 -276 59q-46 16 -74 23.5t-48.5 7t-29 -11t-8.5 -31.5v-59h-330v174q0 90 55 145t177 55h8q44 0 106 -10q41 -5 76 -20l47 -15l51 -14q95 -31 121 -31q35 0 35 41v60h330v-162q0 -211 -230 -211zM852 627h506l-256 524zM2300 0h-637l-119 246h-870
l-117 -246h-590l754 1524h782zM1155 1602h-82q-136 0 -237 36.5t-146 98.5q-80 108 -80 213v4h375q0 -12 5.5 -27t18 -32.5t40.5 -29.5t67 -12t66.5 12t39.5 30t16.5 32.5t4.5 26.5h369v-4q0 -101 -90 -215q-49 -59 -145.5 -96t-221.5 -37z" />
    <glyph glyph-name="uni1EB5" unicode="&#x1eb5;" horiz-adv-x="1732" 
d="M1100 1612h-10q-100 0 -277 59q-46 16 -74 23.5t-48.5 7t-29 -11t-8.5 -31.5v-60h-329v175q0 90 54.5 145t176.5 55h8q45 0 107 -10q40 -5 75 -20l48 -15l51 -14q95 -31 121 -31q34 0 34 41v60h330v-162q0 -211 -229 -211zM868 1184h-82q-111 0 -196.5 25.5t-133 62
t-77.5 85t-39.5 87.5t-9.5 76v4h370q0 -37 32 -67t97 -30q62 0 94.5 30.5t32.5 66.5h365v-4q0 -99 -92 -207q-49 -58 -144.5 -93.5t-216.5 -35.5zM1067 473v47l-369 -65q-74 -12 -104.5 -33t-30.5 -62v-2q0 -51 42.5 -81.5t131.5 -30.5q150 0 238 67q92 71 92 160zM1077 147
q-167 -167 -516 -167h-22q-259 0 -385 102q-125 101 -125 252v24q0 145 105.5 223.5t340.5 96.5l531 47q61 9 61 53q0 19 -8 32t-31 26t-73.5 19.5t-127.5 6.5h-8q-168 0 -213 -45q-20 -23 -25 -33t-10 -34h-516v12q0 62 11 101t49 91q41 56 110 90q77 38 217 62t320 24h115
q190 0 335 -22t222 -59q73 -34 116 -86q40 -47 51 -86t11 -101v-407q0 -47 47 -47h59v-322h-463q-154 0 -178 147z" />
    <glyph glyph-name="uni1EB6" unicode="&#x1eb6;" horiz-adv-x="2267" 
d="M825 -37h557v-330h-557v330zM852 627h506l-256 524zM2300 0h-637l-119 246h-870l-117 -246h-590l754 1524h782zM1155 1602h-82q-136 0 -237 36.5t-146 98.5q-80 108 -80 213v4h375q0 -12 5.5 -27t18 -32.5t40.5 -29.5t67 -12t66.5 12t39.5 30t16.5 32.5t4.5 26.5h369v-4
q0 -101 -90 -215q-49 -59 -145.5 -96t-221.5 -37z" />
    <glyph glyph-name="uni1EB7" unicode="&#x1eb7;" horiz-adv-x="1732" 
d="M516 -119h557v-330h-557v330zM868 1184h-82q-111 0 -196.5 25.5t-133 62t-77.5 85t-39.5 87.5t-9.5 76v4h370q0 -37 32 -67t97 -30q62 0 94.5 30.5t32.5 66.5h365v-4q0 -99 -92 -207q-49 -58 -144.5 -93.5t-216.5 -35.5zM1067 473v47l-369 -65q-74 -12 -104.5 -33
t-30.5 -62v-2q0 -51 42.5 -81.5t131.5 -30.5q150 0 238 67q92 71 92 160zM1077 147q-167 -167 -516 -167h-22q-259 0 -385 102q-125 101 -125 252v24q0 145 105.5 223.5t340.5 96.5l531 47q61 9 61 53q0 19 -8 32t-31 26t-73.5 19.5t-127.5 6.5h-8q-168 0 -213 -45
q-20 -23 -25 -33t-10 -34h-516v12q0 62 11 101t49 91q41 56 110 90q77 38 217 62t320 24h115q190 0 335 -22t222 -59q73 -34 116 -86q40 -47 51 -86t11 -101v-407q0 -47 47 -47h59v-322h-463q-154 0 -178 147z" />
    <glyph glyph-name="uni1EB8" unicode="&#x1eb8;" horiz-adv-x="1869" 
d="M672 -119h557v-330h-557v330zM98 0v1524h1686v-373h-1112v-190h1089v-371h-1089v-209h1128v-381h-1702z" />
    <glyph glyph-name="uni1EB9" unicode="&#x1eb9;" horiz-adv-x="1818" 
d="M639 -119h557v-330h-557v330zM909 862q-271 0 -317 -166h635q-34 166 -318 166zM1231 401h549v-4q0 -61 -16 -109.5t-64 -107.5q-49 -58 -135 -106q-91 -46 -247.5 -75.5t-350.5 -29.5h-109q-189 0 -340 34t-242 91q-237 149 -237 443v41q0 555 813 555h113
q430 0 622 -154q113 -88 155 -199t42 -248v-61h-1198q27 -203 334 -203h2q75 0 133 11.5t89 27.5t52 36.5t27 33.5t8 24z" />
    <glyph glyph-name="uni1EBA" unicode="&#x1eba;" horiz-adv-x="1869" 
d="M1126 1622v-6h-280v35q0 80 43.5 127.5t159.5 81.5q48 13 66 26.5t18 34.5q0 12 -3.5 21.5t-12 14.5t-15 8.5t-19.5 5t-18.5 2t-19.5 0t-15 -0.5q-66 0 -95.5 -19.5t-29.5 -76.5h-303q0 74 22 127t55.5 83t88.5 47.5t107 22.5t124 5h52q62 0 113 -5t105 -20.5t90.5 -41
t59.5 -69t21 -102.5v-8q0 -52 -10 -87t-37.5 -65.5t-78 -52.5t-130.5 -41q-58 -14 -58 -47zM98 0v1524h1686v-373h-1112v-190h1089v-371h-1089v-209h1128v-381h-1702z" />
    <glyph glyph-name="uni1EBB" unicode="&#x1ebb;" horiz-adv-x="1818" 
d="M1065 1219v-7h-281v35q0 80 43.5 127.5t159.5 81.5q48 13 66 27t18 35q0 12 -3.5 21.5t-11.5 14.5t-14.5 8.5t-19.5 5t-18.5 2t-19.5 0t-15 -0.5q-66 0 -95.5 -19.5t-29.5 -76.5h-303q0 74 22 127t55.5 83t88.5 47t107 22t124 5h51q62 0 113 -5t105 -20t90.5 -40.5
t59.5 -69t21 -102.5v-9q0 -52 -10 -87t-37.5 -65t-77.5 -52t-131 -41q-34 -8 -45.5 -19.5t-11.5 -27.5zM909 862q-271 0 -317 -166h635q-34 166 -318 166zM1231 401h549v-4q0 -61 -16 -109.5t-64 -107.5q-49 -58 -135 -106q-91 -46 -247.5 -75.5t-350.5 -29.5h-109
q-189 0 -340 34t-242 91q-237 149 -237 443v41q0 555 813 555h113q430 0 622 -154q113 -88 155 -199t42 -248v-61h-1198q27 -203 334 -203h2q75 0 133 11.5t89 27.5t52 36.5t27 33.5t8 24z" />
    <glyph glyph-name="uni1EBC" unicode="&#x1ebc;" horiz-adv-x="1869" 
d="M98 0v1524h1686v-373h-1112v-190h1089v-371h-1089v-209h1128v-381h-1702zM1198 1620h-8q-87 0 -270 59q-98 29 -115 29q-33 0 -33 -43v-55h-326v166q0 90 53 144t173 54h8q95 0 272 -57q95 -31 113 -31q31 0 31 41v60h327v-156q0 -211 -225 -211z" />
    <glyph glyph-name="uni1EBD" unicode="&#x1ebd;" horiz-adv-x="1818" 
d="M909 862q-271 0 -317 -166h635q-34 166 -318 166zM1231 401h549v-4q0 -61 -16 -109.5t-64 -107.5q-49 -58 -135 -106q-91 -46 -247.5 -75.5t-350.5 -29.5h-109q-189 0 -340 34t-242 91q-237 149 -237 443v41q0 555 813 555h113q430 0 622 -154q113 -88 155 -199t42 -248
v-61h-1198q27 -203 334 -203h2q75 0 133 11.5t89 27.5t52 36.5t27 33.5t8 24zM1171 1198h-8q-87 0 -270 59q-98 29 -115 29q-33 0 -33 -43v-55h-325v166q0 90 52.5 144t172.5 54h8q96 0 273 -57q95 -31 112 -31q31 0 31 41v60h328v-156q0 -211 -226 -211z" />
    <glyph glyph-name="uni1EBE" unicode="&#x1ebe;" horiz-adv-x="1869" 
d="M1929 1800h-444l162 318h510zM98 0v1524h1686v-373h-1112v-190h1089v-371h-1089v-209h1128v-381h-1702zM672 1933h577l336 -317h-500l-127 119l-124 -119h-494z" />
    <glyph glyph-name="uni1EBF" unicode="&#x1ebf;" horiz-adv-x="1818" 
d="M1880 1391h-444l161 317h510zM909 862q-271 0 -317 -166h635q-34 166 -318 166zM1231 401h549v-4q0 -61 -16 -109.5t-64 -107.5q-49 -58 -135 -106q-91 -46 -247.5 -75.5t-350.5 -29.5h-109q-189 0 -340 34t-242 91q-237 149 -237 443v41q0 555 813 555h113
q430 0 622 -154q113 -88 155 -199t42 -248v-61h-1198q27 -203 334 -203h2q75 0 133 11.5t89 27.5t52 36.5t27 33.5t8 24zM625 1524h575l313 -332h-485l-119 135l-118 -135h-478z" />
    <glyph glyph-name="uni1EC0" unicode="&#x1ec0;" horiz-adv-x="1869" 
d="M1964 1800h-444l-228 318h510zM98 0v1524h1686v-373h-1112v-190h1089v-371h-1089v-209h1128v-381h-1702zM672 1933h577l336 -317h-500l-127 119l-124 -119h-494z" />
    <glyph glyph-name="uni1EC1" unicode="&#x1ec1;" horiz-adv-x="1818" 
d="M1915 1391h-445l-227 317h510zM909 862q-271 0 -317 -166h635q-34 166 -318 166zM1231 401h549v-4q0 -61 -16 -109.5t-64 -107.5q-49 -58 -135 -106q-91 -46 -247.5 -75.5t-350.5 -29.5h-109q-189 0 -340 34t-242 91q-237 149 -237 443v41q0 555 813 555h113
q430 0 622 -154q113 -88 155 -199t42 -248v-61h-1198q27 -203 334 -203h2q75 0 133 11.5t89 27.5t52 36.5t27 33.5t8 24zM625 1524h575l313 -332h-485l-119 135l-118 -135h-478z" />
    <glyph glyph-name="uni1EC2" unicode="&#x1ec2;" horiz-adv-x="1869" 
d="M1751 1806v-6h-281v35q0 80 43.5 127.5t159.5 81.5q48 13 66 26.5t18 34.5q0 11 -3.5 19.5t-8 13.5t-13 9t-14.5 6t-17.5 3t-16 1h-16.5h-13q-66 0 -95.5 -20t-29.5 -77h-303q0 74 22 127t55.5 83t88.5 47.5t107 22.5t124 5h51q62 0 113 -5t105 -20.5t90.5 -41t59.5 -69
t21 -102.5v-8q0 -52 -10 -87t-37.5 -65.5t-78 -52.5t-130.5 -41q-34 -8 -45.5 -19.5t-11.5 -27.5zM98 0v1524h1686v-373h-1112v-190h1089v-371h-1089v-209h1128v-381h-1702zM672 1933h577l336 -317h-500l-127 119l-124 -119h-494z" />
    <glyph glyph-name="uni1EC3" unicode="&#x1ec3;" horiz-adv-x="1818" 
d="M1702 1397v-6h-281v34q0 80 43.5 127.5t159.5 81.5q48 13 66 27t18 35q0 12 -3.5 21.5t-11.5 14.5t-14.5 8.5t-19.5 5t-18.5 2t-19.5 0t-15 -0.5q-66 0 -95.5 -19.5t-29.5 -76.5h-303q0 74 22 127t55.5 83t88.5 47t107 22t124 5h51q62 0 113 -5t105 -20t90.5 -40.5
t59.5 -69t21 -102.5v-8q0 -52 -10 -87t-37.5 -65.5t-78 -52.5t-130.5 -41q-34 -8 -45.5 -19.5t-11.5 -27.5zM909 862q-271 0 -317 -166h635q-34 166 -318 166zM1231 401h549v-4q0 -61 -16 -109.5t-64 -107.5q-49 -58 -135 -106q-91 -46 -247.5 -75.5t-350.5 -29.5h-109
q-189 0 -340 34t-242 91q-237 149 -237 443v41q0 555 813 555h113q430 0 622 -154q113 -88 155 -199t42 -248v-61h-1198q27 -203 334 -203h2q75 0 133 11.5t89 27.5t52 36.5t27 33.5t8 24zM625 1524h575l313 -332h-485l-119 135l-118 -135h-478z" />
    <glyph glyph-name="uni1EC4" unicode="&#x1ec4;" horiz-adv-x="1869" 
d="M1233 2013h-10q-97 0 -277 60q-45 16 -73.5 23.5t-49 7t-29 -11.5t-8.5 -32v-59h-329v174q0 90 54.5 145.5t176.5 55.5h8q38 0 107 -11q41 -5 76 -20l47 -14l51 -15q91 -30 121 -30q35 0 35 41v59h329v-162q0 -211 -229 -211zM98 0v1524h1686v-373h-1112v-190h1089v-371
h-1089v-209h1128v-381h-1702zM672 1933h577l336 -317h-500l-127 119l-124 -119h-494z" />
    <glyph glyph-name="uni1EC5" unicode="&#x1ec5;" horiz-adv-x="1818" 
d="M1186 1604h-10q-100 0 -277 59q-46 16 -74 23.5t-48.5 7t-29 -11t-8.5 -31.5v-60h-329v174q0 90 54.5 145.5t176.5 55.5h8q45 0 107 -10q37 -5 75 -21l48 -14l51 -14q95 -31 121 -31q34 0 34 41v59h330v-161q0 -211 -229 -211zM909 862q-271 0 -317 -166h635
q-34 166 -318 166zM1231 401h549v-4q0 -61 -16 -109.5t-64 -107.5q-49 -58 -135 -106q-91 -46 -247.5 -75.5t-350.5 -29.5h-109q-189 0 -340 34t-242 91q-237 149 -237 443v41q0 555 813 555h113q430 0 622 -154q113 -88 155 -199t42 -248v-61h-1198q27 -203 334 -203h2
q75 0 133 11.5t89 27.5t52 36.5t27 33.5t8 24zM625 1524h575l313 -332h-485l-119 135l-118 -135h-478z" />
    <glyph glyph-name="uni1EC6" unicode="&#x1ec6;" horiz-adv-x="1869" 
d="M672 -119h557v-330h-557v330zM98 0v1524h1686v-373h-1112v-190h1089v-371h-1089v-209h1128v-381h-1702zM672 1933h577l336 -317h-500l-127 119l-124 -119h-494z" />
    <glyph glyph-name="uni1EC7" unicode="&#x1ec7;" horiz-adv-x="1818" 
d="M639 -119h557v-330h-557v330zM909 862q-271 0 -317 -166h635q-34 166 -318 166zM1231 401h549v-4q0 -61 -16 -109.5t-64 -107.5q-49 -58 -135 -106q-91 -46 -247.5 -75.5t-350.5 -29.5h-109q-189 0 -340 34t-242 91q-237 149 -237 443v41q0 555 813 555h113
q430 0 622 -154q113 -88 155 -199t42 -248v-61h-1198q27 -203 334 -203h2q75 0 133 11.5t89 27.5t52 36.5t27 33.5t8 24zM625 1524h575l313 -332h-485l-119 135l-118 -135h-478z" />
    <glyph glyph-name="uni1EC8" unicode="&#x1ec8;" horiz-adv-x="776" 
d="M530 1622v-6h-280v35q0 80 43.5 127.5t159.5 81.5q48 13 66 26.5t18 34.5q0 12 -3.5 21.5t-12 14.5t-15 8.5t-19.5 5t-18.5 2t-19.5 0t-15 -0.5q-66 0 -95.5 -19.5t-29.5 -76.5h-303q0 74 22 127t55.5 83t88.5 47.5t107 22.5t124 5h52q62 0 113 -5t105 -20.5t90.5 -41
t59.5 -69t21 -102.5v-8q0 -52 -10 -87t-37.5 -65.5t-78 -52.5t-130.5 -41q-58 -14 -58 -47zM98 1524h580v-1524h-580v1524z" />
    <glyph glyph-name="uni1EC9" unicode="&#x1ec9;" horiz-adv-x="720" 
d="M498 1219v-7h-281v35q0 80 43.5 127.5t159.5 81.5q48 13 66 27t18 35q0 12 -3.5 21.5t-12 14.5t-15 8.5t-19.5 5t-18.5 2t-19.5 0t-15 -0.5q-66 0 -95.5 -19.5t-29.5 -76.5h-303q0 74 22 127t56 83t89 47t107 22t124 5h51q62 0 113 -5t105 -20t90.5 -40.5t59.5 -69
t21 -102.5v-9q0 -52 -10 -87t-37.5 -65t-77.5 -52t-131 -41q-34 -8 -45.5 -19.5t-11.5 -27.5zM82 1102h557v-1102h-557v1102z" />
    <glyph glyph-name="uni1ECA" unicode="&#x1eca;" horiz-adv-x="776" 
d="M109 -119h557v-330h-557v330zM98 1524h580v-1524h-580v1524z" />
    <glyph glyph-name="uni1ECB" unicode="&#x1ecb;" horiz-adv-x="720" 
d="M82 -119h557v-330h-557v330zM82 1524h557v-330h-557v330zM82 1102h557v-1102h-557v1102z" />
    <glyph glyph-name="uni1ECC" unicode="&#x1ecc;" horiz-adv-x="2408" 
d="M918 -119h557v-330h-557v330zM1159 1552h92q580 0 848 -209q83 -61 133 -126t80 -146q49 -124 49 -274v-62q4 -234 -127 -422q-50 -69 -136.5 -133.5t-194.5 -107.5q-257 -101 -652 -101h-92q-575 0 -852 211q-83 63 -131.5 128.5t-81.5 148.5q-47 128 -47 276v62
q0 244 125 417q255 338 987 338zM1759 754v28q0 140 -108 240q-58 57 -174 89t-273 32q-161 0 -276.5 -32t-173.5 -89q-105 -102 -105 -240v-24q0 -135 107 -248q59 -59 175.5 -93t272.5 -34q157 0 274 33.5t175 91.5q106 106 106 246z" />
    <glyph glyph-name="uni1ECD" unicode="&#x1ecd;" horiz-adv-x="1898" 
d="M670 -119h557v-330h-557v330zM1026 -31h-152q-193 0 -348.5 36t-251.5 95q-87 57 -143 138q-52 75 -72 146t-20 157v32q0 84 19.5 153.5t70.5 143.5q59 81 143 134q92 58 248.5 93.5t351.5 35.5h156q832 0 832 -558v-36q0 -92 -16 -158.5t-66 -142.5q-52 -82 -138 -138
q-91 -59 -250.5 -95t-363.5 -36zM952 821h-2q-189 0 -268 -76q-78 -75 -78 -182v-8q0 -109 78 -193q79 -79 268 -79h2q186 0 265 82t79 190v8q0 117 -84 187.5t-260 70.5z" />
    <glyph glyph-name="uni1ECE" unicode="&#x1ece;" horiz-adv-x="2408" 
d="M1348 1642v-6h-281v35q0 80 43.5 127.5t159.5 81.5q48 13 66 27t18 35q0 12 -3.5 21.5t-12 14.5t-15 8.5t-19.5 5t-18.5 2t-19.5 0t-15 -0.5q-66 0 -95.5 -20t-29.5 -77h-303q0 74 22 127t56 83t89 47.5t107 22.5t124 5h51q62 0 113 -5t105 -20t90.5 -40.5t59.5 -69
t21 -102.5v-9q0 -52 -10 -87t-37.5 -65t-77.5 -52t-131 -41q-57 -14 -57 -48zM1159 1552h92q580 0 848 -209q83 -61 133 -126t80 -146q49 -124 49 -274v-62q4 -234 -127 -422q-50 -69 -136.5 -133.5t-194.5 -107.5q-257 -101 -652 -101h-92q-575 0 -852 211
q-83 63 -131.5 128.5t-81.5 148.5q-47 128 -47 276v62q0 244 125 417q255 338 987 338zM1759 754v28q0 140 -108 240q-58 57 -174 89t-273 32q-161 0 -276.5 -32t-173.5 -89q-105 -102 -105 -240v-24q0 -135 107 -248q59 -59 175.5 -93t272.5 -34q157 0 274 33.5t175 91.5
q106 106 106 246z" />
    <glyph glyph-name="uni1ECF" unicode="&#x1ecf;" horiz-adv-x="1898" 
d="M1092 1219v-7h-281v35q0 80 43.5 127.5t159.5 81.5q48 13 66 27t18 35q0 12 -3.5 21.5t-12 14.5t-15 8.5t-19.5 5t-18.5 2t-19.5 0t-15 -0.5q-66 0 -95.5 -19.5t-29.5 -76.5h-303q0 74 22 127t56 83t89 47t107 22t124 5h51q62 0 113 -5t105 -20t90.5 -40.5t59.5 -69
t21 -102.5v-9q0 -52 -10 -87t-37.5 -65t-77.5 -52t-131 -41q-34 -8 -45.5 -19.5t-11.5 -27.5zM1026 -31h-152q-193 0 -348.5 36t-251.5 95q-87 57 -143 138q-52 75 -72 146t-20 157v32q0 84 19.5 153.5t70.5 143.5q59 81 143 134q92 58 248.5 93.5t351.5 35.5h156
q832 0 832 -558v-36q0 -92 -16 -158.5t-66 -142.5q-52 -82 -138 -138q-91 -59 -250.5 -95t-363.5 -36zM952 821h-2q-189 0 -268 -76q-78 -75 -78 -182v-8q0 -109 78 -193q79 -79 268 -79h2q186 0 265 82t79 190v8q0 117 -84 187.5t-260 70.5z" />
    <glyph glyph-name="uni1ED0" unicode="&#x1ed0;" horiz-adv-x="2408" 
d="M2173 1800h-444l161 318h510zM1159 1552h92q580 0 848 -209q83 -61 133 -126t80 -146q49 -124 49 -274v-62q4 -234 -127 -422q-50 -69 -136.5 -133.5t-194.5 -107.5q-257 -101 -652 -101h-92q-575 0 -852 211q-83 63 -131.5 128.5t-81.5 148.5q-47 128 -47 276v62
q0 244 125 417q255 338 987 338zM1759 754v28q0 140 -108 240q-58 57 -174 89t-273 32q-161 0 -276.5 -32t-173.5 -89q-105 -102 -105 -240v-24q0 -135 107 -248q59 -59 175.5 -93t272.5 -34q157 0 274 33.5t175 91.5q106 106 106 246zM915 1933h578l336 -317h-500l-127 119
l-125 -119h-493z" />
    <glyph glyph-name="uni1ED1" unicode="&#x1ed1;" horiz-adv-x="1898" 
d="M1917 1391h-444l161 317h510zM1026 -31h-152q-193 0 -348.5 36t-251.5 95q-87 57 -143 138q-52 75 -72 146t-20 157v32q0 84 19.5 153.5t70.5 143.5q59 81 143 134q92 58 248.5 93.5t351.5 35.5h156q832 0 832 -558v-36q0 -92 -16 -158.5t-66 -142.5q-52 -82 -138 -138
q-91 -59 -250.5 -95t-363.5 -36zM952 821h-2q-189 0 -268 -76q-78 -75 -78 -182v-8q0 -109 78 -193q79 -79 268 -79h2q186 0 265 82t79 190v8q0 117 -84 187.5t-260 70.5zM662 1524h575l313 -332h-485l-119 135l-119 -135h-477z" />
    <glyph glyph-name="uni1ED2" unicode="&#x1ed2;" horiz-adv-x="2408" 
d="M2208 1800h-445l-227 318h510zM1159 1552h92q580 0 848 -209q83 -61 133 -126t80 -146q49 -124 49 -274v-62q4 -234 -127 -422q-50 -69 -136.5 -133.5t-194.5 -107.5q-257 -101 -652 -101h-92q-575 0 -852 211q-83 63 -131.5 128.5t-81.5 148.5q-47 128 -47 276v62
q0 244 125 417q255 338 987 338zM1759 754v28q0 140 -108 240q-58 57 -174 89t-273 32q-161 0 -276.5 -32t-173.5 -89q-105 -102 -105 -240v-24q0 -135 107 -248q59 -59 175.5 -93t272.5 -34q157 0 274 33.5t175 91.5q106 106 106 246zM915 1933h578l336 -317h-500l-127 119
l-125 -119h-493z" />
    <glyph glyph-name="uni1ED3" unicode="&#x1ed3;" horiz-adv-x="1898" 
d="M1952 1391h-445l-227 317h510zM1026 -31h-152q-193 0 -348.5 36t-251.5 95q-87 57 -143 138q-52 75 -72 146t-20 157v32q0 84 19.5 153.5t70.5 143.5q59 81 143 134q92 58 248.5 93.5t351.5 35.5h156q832 0 832 -558v-36q0 -92 -16 -158.5t-66 -142.5q-52 -82 -138 -138
q-91 -59 -250.5 -95t-363.5 -36zM952 821h-2q-189 0 -268 -76q-78 -75 -78 -182v-8q0 -109 78 -193q79 -79 268 -79h2q186 0 265 82t79 190v8q0 117 -84 187.5t-260 70.5zM662 1524h575l313 -332h-485l-119 135l-119 -135h-477z" />
    <glyph glyph-name="uni1ED4" unicode="&#x1ed4;" horiz-adv-x="2408" 
d="M1995 1806v-6h-281v35q0 80 43.5 127.5t159.5 81.5q48 13 66 26.5t18 34.5q0 11 -3.5 19.5t-8 13.5t-13.5 9t-15 6t-17.5 3t-16 1h-16.5h-13q-66 0 -95 -20t-29 -77h-304q0 74 22 127t56 83t89 47.5t107 22.5t124 5h51q62 0 113 -5t105 -20.5t90.5 -41t59.5 -69
t21 -102.5v-8q0 -52 -10 -87t-37.5 -65.5t-78 -52.5t-130.5 -41q-34 -8 -45.5 -19.5t-11.5 -27.5zM1159 1552h92q580 0 848 -209q83 -61 133 -126t80 -146q49 -124 49 -274v-62q4 -234 -127 -422q-50 -69 -136.5 -133.5t-194.5 -107.5q-257 -101 -652 -101h-92
q-575 0 -852 211q-83 63 -131.5 128.5t-81.5 148.5q-47 128 -47 276v62q0 244 125 417q255 338 987 338zM1759 754v28q0 140 -108 240q-58 57 -174 89t-273 32q-161 0 -276.5 -32t-173.5 -89q-105 -102 -105 -240v-24q0 -135 107 -248q59 -59 175.5 -93t272.5 -34
q157 0 274 33.5t175 91.5q106 106 106 246zM915 1933h578l336 -317h-500l-127 119l-125 -119h-493z" />
    <glyph glyph-name="uni1ED5" unicode="&#x1ed5;" horiz-adv-x="1898" 
d="M1739 1397v-6h-281v34q0 80 43.5 127.5t159.5 81.5q48 13 66 27t18 35q0 12 -3.5 21.5t-12 14.5t-15 8.5t-19.5 5t-18.5 2t-19.5 0t-15 -0.5q-66 0 -95 -19.5t-29 -76.5h-304q0 74 22 127t56 83t89 47t107 22t124 5h51q62 0 113 -5t105 -20t90.5 -40.5t59.5 -69
t21 -102.5v-8q0 -52 -10 -87t-37.5 -65.5t-78 -52.5t-130.5 -41q-34 -8 -45.5 -19.5t-11.5 -27.5zM1026 -31h-152q-193 0 -348.5 36t-251.5 95q-87 57 -143 138q-52 75 -72 146t-20 157v32q0 84 19.5 153.5t70.5 143.5q59 81 143 134q92 58 248.5 93.5t351.5 35.5h156
q832 0 832 -558v-36q0 -92 -16 -158.5t-66 -142.5q-52 -82 -138 -138q-91 -59 -250.5 -95t-363.5 -36zM952 821h-2q-189 0 -268 -76q-78 -75 -78 -182v-8q0 -109 78 -193q79 -79 268 -79h2q186 0 265 82t79 190v8q0 117 -84 187.5t-260 70.5zM662 1524h575l313 -332h-485
l-119 135l-119 -135h-477z" />
    <glyph glyph-name="uni1ED6" unicode="&#x1ed6;" horiz-adv-x="2408" 
d="M1477 2013h-11q-96 0 -276 60q-45 16 -73.5 23.5t-49 7t-29 -11.5t-8.5 -32v-59h-330v174q0 90 55 145.5t177 55.5h8q38 0 107 -11q40 -5 75 -20l47 -14l52 -15q91 -30 120 -30q35 0 35 41v59h330v-162q0 -211 -229 -211zM1159 1552h92q580 0 848 -209q83 -61 133 -126
t80 -146q49 -124 49 -274v-62q4 -234 -127 -422q-50 -69 -136.5 -133.5t-194.5 -107.5q-257 -101 -652 -101h-92q-575 0 -852 211q-83 63 -131.5 128.5t-81.5 148.5q-47 128 -47 276v62q0 244 125 417q255 338 987 338zM1759 754v28q0 140 -108 240q-58 57 -174 89t-273 32
q-161 0 -276.5 -32t-173.5 -89q-105 -102 -105 -240v-24q0 -135 107 -248q59 -59 175.5 -93t272.5 -34q157 0 274 33.5t175 91.5q106 106 106 246zM915 1933h578l336 -317h-500l-127 119l-125 -119h-493z" />
    <glyph glyph-name="uni1ED7" unicode="&#x1ed7;" horiz-adv-x="1898" 
d="M1221 1604h-11q-99 0 -276 59q-46 16 -74 23.5t-48.5 7t-29 -11t-8.5 -31.5v-60h-330v174q0 90 55 145.5t177 55.5h8q44 0 107 -10q37 -5 75 -21l47 -14l52 -14q95 -31 120 -31q35 0 35 41v59h330v-161q0 -211 -229 -211zM1026 -31h-152q-193 0 -348.5 36t-251.5 95
q-87 57 -143 138q-52 75 -72 146t-20 157v32q0 84 19.5 153.5t70.5 143.5q59 81 143 134q92 58 248.5 93.5t351.5 35.5h156q832 0 832 -558v-36q0 -92 -16 -158.5t-66 -142.5q-52 -82 -138 -138q-91 -59 -250.5 -95t-363.5 -36zM952 821h-2q-189 0 -268 -76
q-78 -75 -78 -182v-8q0 -109 78 -193q79 -79 268 -79h2q186 0 265 82t79 190v8q0 117 -84 187.5t-260 70.5zM662 1524h575l313 -332h-485l-119 135l-119 -135h-477z" />
    <glyph glyph-name="uni1ED8" unicode="&#x1ed8;" horiz-adv-x="2408" 
d="M918 -119h557v-330h-557v330zM1159 1552h92q580 0 848 -209q83 -61 133 -126t80 -146q49 -124 49 -274v-62q4 -234 -127 -422q-50 -69 -136.5 -133.5t-194.5 -107.5q-257 -101 -652 -101h-92q-575 0 -852 211q-83 63 -131.5 128.5t-81.5 148.5q-47 128 -47 276v62
q0 244 125 417q255 338 987 338zM1759 754v28q0 140 -108 240q-58 57 -174 89t-273 32q-161 0 -276.5 -32t-173.5 -89q-105 -102 -105 -240v-24q0 -135 107 -248q59 -59 175.5 -93t272.5 -34q157 0 274 33.5t175 91.5q106 106 106 246zM915 1933h578l336 -317h-500l-127 119
l-125 -119h-493z" />
    <glyph glyph-name="uni1ED9" unicode="&#x1ed9;" horiz-adv-x="1898" 
d="M670 -119h557v-330h-557v330zM1026 -31h-152q-193 0 -348.5 36t-251.5 95q-87 57 -143 138q-52 75 -72 146t-20 157v32q0 84 19.5 153.5t70.5 143.5q59 81 143 134q92 58 248.5 93.5t351.5 35.5h156q832 0 832 -558v-36q0 -92 -16 -158.5t-66 -142.5q-52 -82 -138 -138
q-91 -59 -250.5 -95t-363.5 -36zM952 821h-2q-189 0 -268 -76q-78 -75 -78 -182v-8q0 -109 78 -193q79 -79 268 -79h2q186 0 265 82t79 190v8q0 117 -84 187.5t-260 70.5zM662 1524h575l313 -332h-485l-119 135l-119 -135h-477z" />
    <glyph glyph-name="uni1EDA" unicode="&#x1eda;" horiz-adv-x="2408" 
d="M1473 1616h-527l162 317h571zM1159 1552h92q196 0 369 -28q67 8 120.5 67t53.5 133h467q0 -230 -197 -356l35 -25q83 -61 133 -126t80 -146q49 -124 49 -274v-62q4 -234 -127 -422q-50 -69 -136.5 -133.5t-194.5 -107.5q-257 -101 -652 -101h-92q-575 0 -852 211
q-83 63 -131.5 128.5t-81.5 148.5q-47 128 -47 276v62q0 244 125 417q255 338 987 338zM1759 754v28q0 140 -108 240q-58 57 -174 89t-273 32q-161 0 -276.5 -32t-173.5 -89q-105 -102 -105 -240v-24q0 -135 107 -248q59 -59 175.5 -93t272.5 -34q157 0 274 33.5t175 91.5
q106 106 106 246z" />
    <glyph glyph-name="uni1EDB" unicode="&#x1edb;" horiz-adv-x="1898" 
d="M1200 1194h-504l183 330h548zM1026 -31h-152q-193 0 -348.5 36t-251.5 95q-87 57 -143 138q-52 75 -72 146t-20 157v32q0 84 19.5 153.5t70.5 143.5q59 81 143 134q92 58 248.5 93.5t351.5 35.5h156q154 0 299 -23q58 16 97.5 63t39.5 109h447q0 -224 -193 -344
q142 -133 142 -363v-36q0 -92 -16 -158.5t-66 -142.5q-52 -82 -138 -138q-91 -59 -250.5 -95t-363.5 -36zM952 821h-2q-189 0 -268 -76q-78 -75 -78 -182v-8q0 -109 78 -193q79 -79 268 -79h2q186 0 265 82t79 190v8q0 117 -84 187.5t-260 70.5z" />
    <glyph glyph-name="uni1EDC" unicode="&#x1edc;" horiz-adv-x="2408" 
d="M735 1933h572l161 -317h-526zM1159 1552h92q196 0 369 -28q67 8 120.5 67t53.5 133h467q0 -230 -197 -356l35 -25q83 -61 133 -126t80 -146q49 -124 49 -274v-62q4 -234 -127 -422q-50 -69 -136.5 -133.5t-194.5 -107.5q-257 -101 -652 -101h-92q-575 0 -852 211
q-83 63 -131.5 128.5t-81.5 148.5q-47 128 -47 276v62q0 244 125 417q255 338 987 338zM1759 754v28q0 140 -108 240q-58 57 -174 89t-273 32q-161 0 -276.5 -32t-173.5 -89q-105 -102 -105 -240v-24q0 -135 107 -248q59 -59 175.5 -93t272.5 -34q157 0 274 33.5t175 91.5
q106 106 106 246z" />
    <glyph glyph-name="uni1EDD" unicode="&#x1edd;" horiz-adv-x="1898" 
d="M1022 1524l180 -330h-506l-227 330h553zM1026 -31h-152q-193 0 -348.5 36t-251.5 95q-87 57 -143 138q-52 75 -72 146t-20 157v32q0 84 19.5 153.5t70.5 143.5q59 81 143 134q92 58 248.5 93.5t351.5 35.5h156q154 0 299 -23q58 16 97.5 63t39.5 109h447
q0 -224 -193 -344q142 -133 142 -363v-36q0 -92 -16 -158.5t-66 -142.5q-52 -82 -138 -138q-91 -59 -250.5 -95t-363.5 -36zM952 821h-2q-189 0 -268 -76q-78 -75 -78 -182v-8q0 -109 78 -193q79 -79 268 -79h2q186 0 265 82t79 190v8q0 117 -84 187.5t-260 70.5z" />
    <glyph glyph-name="uni1EDE" unicode="&#x1ede;" horiz-adv-x="2408" 
d="M1348 1642v-6h-281v35q0 80 43.5 127.5t159.5 81.5q48 13 66 27t18 35q0 12 -3.5 21.5t-12 14.5t-15 8.5t-19.5 5t-18.5 2t-19.5 0t-15 -0.5q-66 0 -95.5 -20t-29.5 -77h-303q0 74 22 127t56 83t89 47.5t107 22.5t124 5h51q62 0 113 -5t105 -20t90.5 -40.5t59.5 -69
t21 -102.5v-9q0 -52 -10 -87t-37.5 -65t-77.5 -52t-131 -41q-57 -14 -57 -48zM1159 1552h92q196 0 369 -28q67 8 120.5 67t53.5 133h467q0 -230 -197 -356l35 -25q83 -61 133 -126t80 -146q49 -124 49 -274v-62q4 -234 -127 -422q-50 -69 -136.5 -133.5t-194.5 -107.5
q-257 -101 -652 -101h-92q-575 0 -852 211q-83 63 -131.5 128.5t-81.5 148.5q-47 128 -47 276v62q0 244 125 417q255 338 987 338zM1759 754v28q0 140 -108 240q-58 57 -174 89t-273 32q-161 0 -276.5 -32t-173.5 -89q-105 -102 -105 -240v-24q0 -135 107 -248
q59 -59 175.5 -93t272.5 -34q157 0 274 33.5t175 91.5q106 106 106 246z" />
    <glyph glyph-name="uni1EDF" unicode="&#x1edf;" horiz-adv-x="1898" 
d="M1092 1219v-7h-281v35q0 80 43.5 127.5t159.5 81.5q48 13 66 27t18 35q0 12 -3.5 21.5t-12 14.5t-15 8.5t-19.5 5t-18.5 2t-19.5 0t-15 -0.5q-66 0 -95.5 -19.5t-29.5 -76.5h-303q0 74 22 127t56 83t89 47t107 22t124 5h51q62 0 113 -5t105 -20t90.5 -40.5t59.5 -69
t21 -102.5v-9q0 -52 -10 -87t-37.5 -65t-77.5 -52t-131 -41q-34 -8 -45.5 -19.5t-11.5 -27.5zM1026 -31h-152q-193 0 -348.5 36t-251.5 95q-87 57 -143 138q-52 75 -72 146t-20 157v32q0 84 19.5 153.5t70.5 143.5q59 81 143 134q92 58 248.5 93.5t351.5 35.5h156
q154 0 299 -23q58 16 97.5 63t39.5 109h447q0 -224 -193 -344q142 -133 142 -363v-36q0 -92 -16 -158.5t-66 -142.5q-52 -82 -138 -138q-91 -59 -250.5 -95t-363.5 -36zM952 821h-2q-189 0 -268 -76q-78 -75 -78 -182v-8q0 -109 78 -193q79 -79 268 -79h2q186 0 265 82
t79 190v8q0 117 -84 187.5t-260 70.5z" />
    <glyph glyph-name="uni1EE0" unicode="&#x1ee0;" horiz-adv-x="2408" 
d="M1475 1628h-11q-96 0 -276 60q-45 16 -73.5 23.5t-49 7t-29 -11.5t-8.5 -32v-59h-330v174q0 90 55 145.5t177 55.5h8q37 0 106 -11q41 -5 76 -20l47 -14l52 -15q91 -30 120 -30q35 0 35 41v59h330v-162q0 -211 -229 -211zM1159 1552h92q196 0 369 -28q67 8 120.5 67
t53.5 133h467q0 -230 -197 -356l35 -25q83 -61 133 -126t80 -146q49 -124 49 -274v-62q4 -234 -127 -422q-50 -69 -136.5 -133.5t-194.5 -107.5q-257 -101 -652 -101h-92q-575 0 -852 211q-83 63 -131.5 128.5t-81.5 148.5q-47 128 -47 276v62q0 244 125 417
q255 338 987 338zM1759 754v28q0 140 -108 240q-58 57 -174 89t-273 32q-161 0 -276.5 -32t-173.5 -89q-105 -102 -105 -240v-24q0 -135 107 -248q59 -59 175.5 -93t272.5 -34q157 0 274 33.5t175 91.5q106 106 106 246z" />
    <glyph glyph-name="uni1EE1" unicode="&#x1ee1;" horiz-adv-x="1898" 
d="M1208 1202h-8q-84 0 -270 60q-95 28 -115 28q-33 0 -33 -43v-55h-325v166q0 90 52.5 144t172.5 54h8q96 0 273 -57q95 -31 112 -31q31 0 31 41v60h328v-156q0 -211 -226 -211zM1026 -31h-152q-193 0 -348.5 36t-251.5 95q-87 57 -143 138q-52 75 -72 146t-20 157v32
q0 84 19.5 153.5t70.5 143.5q59 81 143 134q92 58 248.5 93.5t351.5 35.5h156q154 0 299 -23q58 16 97.5 63t39.5 109h447q0 -224 -193 -344q142 -133 142 -363v-36q0 -92 -16 -158.5t-66 -142.5q-52 -82 -138 -138q-91 -59 -250.5 -95t-363.5 -36zM952 821h-2
q-189 0 -268 -76q-78 -75 -78 -182v-8q0 -109 78 -193q79 -79 268 -79h2q186 0 265 82t79 190v8q0 117 -84 187.5t-260 70.5z" />
    <glyph glyph-name="uni1EE2" unicode="&#x1ee2;" horiz-adv-x="2408" 
d="M918 -119h557v-330h-557v330zM1159 1552h92q196 0 369 -28q67 8 120.5 67t53.5 133h467q0 -230 -197 -356l35 -25q83 -61 133 -126t80 -146q49 -124 49 -274v-62q4 -234 -127 -422q-50 -69 -136.5 -133.5t-194.5 -107.5q-257 -101 -652 -101h-92q-575 0 -852 211
q-83 63 -131.5 128.5t-81.5 148.5q-47 128 -47 276v62q0 244 125 417q255 338 987 338zM1759 754v28q0 140 -108 240q-58 57 -174 89t-273 32q-161 0 -276.5 -32t-173.5 -89q-105 -102 -105 -240v-24q0 -135 107 -248q59 -59 175.5 -93t272.5 -34q157 0 274 33.5t175 91.5
q106 106 106 246z" />
    <glyph glyph-name="uni1EE3" unicode="&#x1ee3;" horiz-adv-x="1898" 
d="M670 -119h557v-330h-557v330zM1026 -31h-152q-193 0 -348.5 36t-251.5 95q-87 57 -143 138q-52 75 -72 146t-20 157v32q0 84 19.5 153.5t70.5 143.5q59 81 143 134q92 58 248.5 93.5t351.5 35.5h156q154 0 299 -23q58 16 97.5 63t39.5 109h447q0 -224 -193 -344
q142 -133 142 -363v-36q0 -92 -16 -158.5t-66 -142.5q-52 -82 -138 -138q-91 -59 -250.5 -95t-363.5 -36zM952 821h-2q-189 0 -268 -76q-78 -75 -78 -182v-8q0 -109 78 -193q79 -79 268 -79h2q186 0 265 82t79 190v8q0 117 -84 187.5t-260 70.5z" />
    <glyph glyph-name="uni1EE4" unicode="&#x1ee4;" horiz-adv-x="2260" 
d="M854 -119h557v-330h-557v330zM82 797v727h584v-682q0 -158 88 -275q48 -63 146.5 -99t232.5 -36q132 0 229 36t145 99q90 115 90 275v682h582v-727q0 -114 -22 -210.5t-84 -205.5q-65 -117 -170 -203q-110 -91 -300.5 -147t-426.5 -56h-82q-243 0 -437 56t-305 147
q-105 86 -170 203q-59 111 -79.5 205.5t-20.5 210.5z" />
    <glyph glyph-name="uni1EE5" unicode="&#x1ee5;" horiz-adv-x="1816" 
d="M608 -119h557v-330h-557v330zM1180 1102h555v-1102h-553v197q-222 -222 -559 -222h-15q-143 0 -252 40.5t-168 109.5q-108 131 -108 281v696h559v-527q0 -119 63.5 -186t190.5 -67q133 0 210 74.5t77 193.5v512z" />
    <glyph glyph-name="uni1EE6" unicode="&#x1ee6;" horiz-adv-x="2260" 
d="M1274 1622v-6h-281v35q0 80 43.5 127.5t159.5 81.5q48 13 66 26.5t18 34.5q0 12 -3.5 21.5t-11.5 14.5t-14.5 8.5t-19.5 5t-18.5 2t-19.5 0t-15 -0.5q-66 0 -95.5 -19.5t-29.5 -76.5h-303q0 74 22 127t55.5 83t88.5 47.5t107 22.5t124 5h51q62 0 113 -5t105 -20.5
t90.5 -41t59.5 -69t21 -102.5v-8q0 -52 -10 -87t-37.5 -65.5t-78 -52.5t-130.5 -41q-34 -8 -45.5 -19.5t-11.5 -27.5zM82 797v727h584v-682q0 -158 88 -275q48 -63 146.5 -99t232.5 -36q132 0 229 36t145 99q90 115 90 275v682h582v-727q0 -114 -22 -210.5t-84 -205.5
q-65 -117 -170 -203q-110 -91 -300.5 -147t-426.5 -56h-82q-243 0 -437 56t-305 147q-105 86 -170 203q-59 111 -79.5 205.5t-20.5 210.5z" />
    <glyph glyph-name="uni1EE7" unicode="&#x1ee7;" horiz-adv-x="1816" 
d="M1051 1219v-7h-281v35q0 80 43.5 127.5t159.5 81.5q48 13 66 27t18 35q0 12 -3.5 21.5t-12 14.5t-15 8.5t-19.5 5t-18.5 2t-19.5 0t-15 -0.5q-66 0 -95.5 -19.5t-29.5 -76.5h-303q0 74 22 127t56 83t89 47t107 22t124 5h51q62 0 113 -5t105 -20t90.5 -40.5t59.5 -69
t21 -102.5v-9q0 -52 -10 -87t-37.5 -65t-77.5 -52t-131 -41q-34 -8 -45.5 -19.5t-11.5 -27.5zM1180 1102h555v-1102h-553v197q-222 -222 -559 -222h-15q-143 0 -252 40.5t-168 109.5q-108 131 -108 281v696h559v-527q0 -119 63.5 -186t190.5 -67q133 0 210 74.5t77 193.5
v512z" />
    <glyph glyph-name="uni1EE8" unicode="&#x1ee8;" horiz-adv-x="2260" 
d="M1370 1616h-526l162 317h571zM82 797v727h584v-682q0 -158 88 -275q48 -63 146.5 -99t232.5 -36q132 0 229 36t145 99q90 115 90 275v682h191q69 3 125.5 64t56.5 136h467q0 -139 -71.5 -238t-186.5 -153v-536q0 -114 -22 -210.5t-84 -205.5q-65 -117 -170 -203
q-110 -91 -300.5 -147t-426.5 -56h-82q-243 0 -437 56t-305 147q-105 86 -170 203q-59 111 -79.5 205.5t-20.5 210.5z" />
    <glyph glyph-name="uni1EE9" unicode="&#x1ee9;" horiz-adv-x="1871" 
d="M1149 1194h-504l182 330h549zM1546 1282h447q0 -139 -71.5 -234t-186.5 -143v-905h-553v197q-222 -222 -559 -222h-15q-143 0 -252 40.5t-168 109.5q-108 131 -108 281v696h559v-527q0 -119 63.5 -186t190.5 -67q133 0 210 74.5t77 193.5v512h184q71 3 126.5 54.5
t55.5 125.5z" />
    <glyph glyph-name="uni1EEA" unicode="&#x1eea;" horiz-adv-x="2260" 
d="M684 1931h571l162 -317h-526zM82 797v727h584v-682q0 -158 88 -275q48 -63 146.5 -99t232.5 -36q132 0 229 36t145 99q90 115 90 275v682h191q69 3 125.5 64t56.5 136h467q0 -139 -71.5 -238t-186.5 -153v-536q0 -114 -22 -210.5t-84 -205.5q-65 -117 -170 -203
q-110 -91 -300.5 -147t-426.5 -56h-82q-243 0 -437 56t-305 147q-105 86 -170 203q-59 111 -79.5 205.5t-20.5 210.5z" />
    <glyph glyph-name="uni1EEB" unicode="&#x1eeb;" horiz-adv-x="1871" 
d="M987 1524l180 -330h-505l-228 330h553zM1546 1282h447q0 -139 -71.5 -234t-186.5 -143v-905h-553v197q-222 -222 -559 -222h-15q-143 0 -252 40.5t-168 109.5q-108 131 -108 281v696h559v-527q0 -119 63.5 -186t190.5 -67q133 0 210 74.5t77 193.5v512h184
q71 3 126.5 54.5t55.5 125.5z" />
    <glyph glyph-name="uni1EEC" unicode="&#x1eec;" horiz-adv-x="2260" 
d="M1274 1622v-6h-281v35q0 80 43.5 127.5t159.5 81.5q48 13 66 26.5t18 34.5q0 12 -3.5 21.5t-11.5 14.5t-14.5 8.5t-19.5 5t-18.5 2t-19.5 0t-15 -0.5q-66 0 -95.5 -19.5t-29.5 -76.5h-303q0 74 22 127t55.5 83t88.5 47.5t107 22.5t124 5h51q62 0 113 -5t105 -20.5
t90.5 -41t59.5 -69t21 -102.5v-8q0 -52 -10 -87t-37.5 -65.5t-78 -52.5t-130.5 -41q-34 -8 -45.5 -19.5t-11.5 -27.5zM82 797v727h584v-682q0 -158 88 -275q48 -63 146.5 -99t232.5 -36q132 0 229 36t145 99q90 115 90 275v682h191q69 3 125.5 64t56.5 136h467
q0 -139 -71.5 -238t-186.5 -153v-536q0 -114 -22 -210.5t-84 -205.5q-65 -117 -170 -203q-110 -91 -300.5 -147t-426.5 -56h-82q-243 0 -437 56t-305 147q-105 86 -170 203q-59 111 -79.5 205.5t-20.5 210.5z" />
    <glyph glyph-name="uni1EED" unicode="&#x1eed;" horiz-adv-x="1871" 
d="M1051 1219v-7h-281v35q0 80 43.5 127.5t159.5 81.5q48 13 66 27t18 35q0 12 -3.5 21.5t-12 14.5t-15 8.5t-19.5 5t-18.5 2t-19.5 0t-15 -0.5q-66 0 -95.5 -19.5t-29.5 -76.5h-303q0 74 22 127t56 83t89 47t107 22t124 5h51q62 0 113 -5t105 -20t90.5 -40.5t59.5 -69
t21 -102.5v-9q0 -52 -10 -87t-37.5 -65t-77.5 -52t-131 -41q-34 -8 -45.5 -19.5t-11.5 -27.5zM1546 1282h447q0 -139 -71.5 -234t-186.5 -143v-905h-553v197q-222 -222 -559 -222h-15q-143 0 -252 40.5t-168 109.5q-108 131 -108 281v696h559v-527q0 -119 63.5 -186
t190.5 -67q133 0 210 74.5t77 193.5v512h184q71 3 126.5 54.5t55.5 125.5z" />
    <glyph glyph-name="uni1EEE" unicode="&#x1eee;" horiz-adv-x="2260" 
d="M1401 1624h-10q-100 0 -277 59q-46 16 -74 23.5t-48.5 7t-29 -11t-8.5 -31.5v-59h-329v174q0 90 54.5 145.5t176.5 55.5h8q38 0 107 -11q41 -5 76 -20l47 -14l51 -15q95 -31 121 -31q34 0 34 41v60h330v-162q0 -211 -229 -211zM82 797v727h584v-682q0 -158 88 -275
q48 -63 146.5 -99t232.5 -36q132 0 229 36t145 99q90 115 90 275v682h191q69 3 125.5 64t56.5 136h467q0 -139 -71.5 -238t-186.5 -153v-536q0 -114 -22 -210.5t-84 -205.5q-65 -117 -170 -203q-110 -91 -300.5 -147t-426.5 -56h-82q-243 0 -437 56t-305 147
q-105 86 -170 203q-59 111 -79.5 205.5t-20.5 210.5z" />
    <glyph glyph-name="uni1EEF" unicode="&#x1eef;" horiz-adv-x="1871" 
d="M1169 1198h-8q-87 0 -270 59q-98 29 -115 29q-33 0 -33 -43v-55h-325v166q0 90 52.5 144t172.5 54h8q96 0 273 -57q95 -31 112 -31q31 0 31 41v60h328v-156q0 -211 -226 -211zM1546 1282h447q0 -139 -71.5 -234t-186.5 -143v-905h-553v197q-222 -222 -559 -222h-15
q-143 0 -252 40.5t-168 109.5q-108 131 -108 281v696h559v-527q0 -119 63.5 -186t190.5 -67q133 0 210 74.5t77 193.5v512h184q71 3 126.5 54.5t55.5 125.5z" />
    <glyph glyph-name="uni1EF0" unicode="&#x1ef0;" horiz-adv-x="2260" 
d="M854 -119h557v-330h-557v330zM82 797v727h584v-682q0 -158 88 -275q48 -63 146.5 -99t232.5 -36q132 0 229 36t145 99q90 115 90 275v682h191q69 3 125.5 64t56.5 136h467q0 -139 -71.5 -238t-186.5 -153v-536q0 -114 -22 -210.5t-84 -205.5q-65 -117 -170 -203
q-110 -91 -300.5 -147t-426.5 -56h-82q-243 0 -437 56t-305 147q-105 86 -170 203q-59 111 -79.5 205.5t-20.5 210.5z" />
    <glyph glyph-name="uni1EF1" unicode="&#x1ef1;" horiz-adv-x="1871" 
d="M608 -119h557v-330h-557v330zM1546 1282h447q0 -139 -71.5 -234t-186.5 -143v-905h-553v197q-222 -222 -559 -222h-15q-143 0 -252 40.5t-168 109.5q-108 131 -108 281v696h559v-527q0 -119 63.5 -186t190.5 -67q133 0 210 74.5t77 193.5v512h184q71 3 126.5 54.5
t55.5 125.5z" />
    <glyph glyph-name="Ygrave" unicode="&#x1ef2;" horiz-adv-x="2148" 
d="M1374 0h-581v573l-834 951h696l445 -527l452 527h637l-815 -955v-569zM639 1933h571l162 -317h-526z" />
    <glyph glyph-name="ygrave" unicode="&#x1ef3;" horiz-adv-x="1693" 
d="M762 -385h-518v340h250q51 0 51 35v2q0 21 -47 110l-521 1000h594l308 -709l284 709h553l-530 -1149q-82 -180 -180.5 -259t-243.5 -79zM946 1524l180 -330h-505l-228 330h553z" />
    <glyph glyph-name="uni1EF4" unicode="&#x1ef4;" horiz-adv-x="2148" 
d="M803 -119h557v-330h-557v330zM1374 0h-581v573l-834 951h696l445 -527l452 527h637l-815 -955v-569z" />
    <glyph glyph-name="uni1EF5" unicode="&#x1ef5;" horiz-adv-x="1693" 
d="M1255 -119h557v-330h-557v330zM762 -385h-518v340h250q51 0 51 35v2q0 21 -47 110l-521 1000h594l308 -709l284 709h553l-530 -1149q-82 -180 -180.5 -259t-243.5 -79z" />
    <glyph glyph-name="uni1EF6" unicode="&#x1ef6;" horiz-adv-x="2148" 
d="M1253 1622v-6h-280v35q0 80 43.5 127.5t159.5 81.5q48 13 66 26.5t18 34.5q0 12 -3.5 21.5t-12 14.5t-15 8.5t-19.5 5t-18.5 2t-19.5 0t-15 -0.5q-66 0 -95.5 -19.5t-29.5 -76.5h-303q0 74 22 127t55.5 83t88.5 47.5t107 22.5t124 5h52q62 0 113 -5t105 -20.5t90.5 -41
t59.5 -69t21 -102.5v-8q0 -52 -10 -87t-37.5 -65.5t-78 -52.5t-130.5 -41q-58 -14 -58 -47zM1374 0h-581v573l-834 951h696l445 -527l452 527h637l-815 -955v-569z" />
    <glyph glyph-name="uni1EF7" unicode="&#x1ef7;" horiz-adv-x="1693" 
d="M1012 1219v-7h-281v35q0 80 43.5 127.5t159.5 81.5q48 13 66 27t18 35q0 12 -3.5 21.5t-12 14.5t-15 8.5t-19.5 5t-18.5 2t-19.5 0t-15 -0.5q-66 0 -95 -19.5t-29 -76.5h-304q0 74 22 127t56 83t89 47t107 22t124 5h51q62 0 113 -5t105 -20t90.5 -40.5t59.5 -69
t21 -102.5v-9q0 -52 -10 -87t-37.5 -65t-77.5 -52t-131 -41q-34 -8 -45.5 -19.5t-11.5 -27.5zM762 -385h-518v340h250q51 0 51 35v2q0 21 -47 110l-521 1000h594l308 -709l284 709h553l-530 -1149q-82 -180 -180.5 -259t-243.5 -79z" />
    <glyph glyph-name="uni1EF8" unicode="&#x1ef8;" horiz-adv-x="2148" 
d="M1380 1624h-10q-99 0 -276 59q-46 16 -74 23.5t-48.5 7t-29 -11t-8.5 -31.5v-59h-330v174q0 90 55 145.5t177 55.5h8q37 0 106 -11q41 -5 76 -20l47 -14l51 -15q95 -31 121 -31q35 0 35 41v60h330v-162q0 -211 -230 -211zM1374 0h-581v573l-834 951h696l445 -527l452 527
h637l-815 -955v-569z" />
    <glyph glyph-name="uni1EF9" unicode="&#x1ef9;" horiz-adv-x="1693" 
d="M1149 1198h-8q-88 0 -271 59q-98 29 -114 29q-33 0 -33 -43v-55h-326v166q0 90 53 144t173 54h8q95 0 272 -57q95 -31 113 -31q31 0 31 41v60h327v-156q0 -211 -225 -211zM762 -385h-518v340h250q51 0 51 35v2q0 21 -47 110l-521 1000h594l308 -709l284 709h553
l-530 -1149q-82 -180 -180.5 -259t-243.5 -79z" />
    <glyph glyph-name="uni2009" unicode="&#x2009;" horiz-adv-x="43" 
 />
    <glyph glyph-name="endash" unicode="&#x2013;" horiz-adv-x="1884" 
d="M68 465v291h1749v-291h-1749z" />
    <glyph glyph-name="emdash" unicode="&#x2014;" horiz-adv-x="2811" 
d="M68 465v291h2676v-291h-2676z" />
    <glyph glyph-name="quoteleft" unicode="&#x2018;" horiz-adv-x="671" 
d="M178 1524h285q-68 -126 -82 -213h229v-338h-547v274q0 123 115 277z" />
    <glyph glyph-name="quoteright" unicode="&#x2019;" horiz-adv-x="671" 
d="M496 973h-287q70 127 82 213h-228v338h547v-275q0 -123 -114 -276z" />
    <glyph glyph-name="quotesinglbase" unicode="&#x201a;" horiz-adv-x="671" 
d="M496 -213h-287q70 127 82 213h-228v338h547v-272q0 -126 -114 -279z" />
    <glyph glyph-name="quotedblleft" unicode="&#x201c;" horiz-adv-x="1292" 
d="M178 1524h285q-68 -126 -82 -213h229v-338h-547v274q0 123 115 277zM799 1524h284q-68 -126 -82 -213h230v-338h-547v274q0 123 115 277z" />
    <glyph glyph-name="quotedblright" unicode="&#x201d;" horiz-adv-x="1292" 
d="M496 973h-287q70 127 82 213h-228v338h547v-275q0 -123 -114 -276zM1116 973h-287q70 127 82 213h-227v338h547v-275q0 -122 -115 -276z" />
    <glyph glyph-name="quotedblbase" unicode="&#x201e;" horiz-adv-x="1292" 
d="M1116 -213h-287q70 127 82 213h-227v338h547v-272q0 -125 -115 -279zM496 -213h-287q70 127 82 213h-228v338h547v-272q0 -126 -114 -279z" />
    <glyph glyph-name="dagger" unicode="&#x2020;" horiz-adv-x="1202" 
d="M860 0h-520v846h-293v373h293v305h520v-305h295v-373h-295v-846z" />
    <glyph glyph-name="daggerdbl" unicode="&#x2021;" horiz-adv-x="1208" 
d="M350 0v289h-297v350h297v254h-297v352h297v279h510v-279h295v-352h-295v-254h295v-350h-295v-289h-510z" />
    <glyph glyph-name="bullet" unicode="&#x2022;" horiz-adv-x="958" 
d="M479 258q-184 0 -307 117q-123 120 -123 301q0 182 123 299t307 117q187 0 307 -117q123 -117 123 -299q0 -181 -123 -301q-120 -117 -307 -117z" />
    <glyph glyph-name="ellipsis" unicode="&#x2026;" horiz-adv-x="2072" 
d="M63 399h578v-399h-578v399zM748 399h577v-399h-577v399zM1432 399h577v-399h-577v399z" />
    <glyph glyph-name="perthousand" unicode="&#x2030;" horiz-adv-x="4290" 
d="M700 657h-45q-141 0 -256 29.5t-186 75.5q-61 44 -102 106q-64 103 -64 219v33q0 146 107 266q62 71 191.5 112.5t309.5 41.5h45q143 0 258.5 -28.5t182.5 -73.5q48 -33 82.5 -74.5t51.5 -84.5t24.5 -81.5t7.5 -77.5v-33q0 -116 -64 -219q-41 -62 -102 -106
q-68 -46 -183.5 -75.5t-257.5 -29.5zM428 0l1671 1524h441l-1672 -1524h-440zM676 928q116 0 175.5 47t59.5 121v12q0 166 -235 166q-118 0 -176 -44.5t-58 -121.5v-10q0 -76 60 -123t174 -47zM2318 -16h-49q-142 0 -256.5 29t-181.5 75q-66 47 -105 107q-63 101 -63 219v32
q0 119 63 218q127 199 545 204h45q143 0 258.5 -28.5t182.5 -73.5q168 -113 168 -320v-32q0 -116 -64 -219q-42 -64 -102 -107q-67 -46 -183 -75t-258 -29zM3637 -16h-47q-142 0 -257.5 29t-182.5 75q-66 47 -105 107q-63 101 -63 219v32q0 119 63 218q127 199 547 204h45
q143 0 257.5 -28.5t181.5 -73.5q167 -112 167 -320v-32q0 -118 -63 -219q-42 -64 -102 -107q-67 -46 -183 -75t-258 -29zM2529 422v14q0 76 -58.5 120t-176.5 44q-236 0 -236 -164v-10q0 -77 59.5 -124.5t176.5 -47.5q116 0 175.5 47t59.5 121zM3613 254q116 0 175.5 47
t59.5 121v14q0 76 -58.5 120t-176.5 44q-234 0 -234 -164v-10q0 -78 58 -125t176 -47z" />
    <glyph glyph-name="uni2032" unicode="&#x2032;" horiz-adv-x="591" 
d="M131 1524h436l-106 -537h-436z" />
    <glyph glyph-name="uni2033" unicode="&#x2033;" horiz-adv-x="1107" 
d="M131 1524h434l-106 -537h-434zM1083 1524l-106 -537h-434l106 537h434z" />
    <glyph glyph-name="guilsinglleft" unicode="&#x2039;" horiz-adv-x="718" 
d="M436 588l248 -355h-401l-260 355l262 348h405z" />
    <glyph glyph-name="guilsinglright" unicode="&#x203a;" horiz-adv-x="718" 
d="M696 588l-258 -355h-403l248 355l-254 348h405z" />
    <glyph glyph-name="fraction" unicode="&#x2044;" horiz-adv-x="2078" 
d="M6 0l1667 1524h400l-1680 -1524h-387z" />
    <glyph glyph-name="Euro" unicode="&#x20ac;" horiz-adv-x="2377" 
d="M1321 -29h-82q-191 0 -354 33t-275 90q-294 153 -372 449h-215v180h188v98h-188v180h215q60 222 270 375q118 84 304.5 130t426.5 46h82q236 0 426 -43t301 -114q104 -62 174 -154q113 -147 113 -299v-24h-604q-11 48 -56 100q-46 59 -145 98t-260 39q-317 0 -420 -154
h598v-180h-649q0 -3 -1 -16t-1 -19v-24q0 -5 1 -20t1 -19h649v-180h-594q105 -172 418 -172q104 0 193 21.5t137 53.5q41 27 75 72q20 27 31.5 47.5t14 29t8.5 30.5h604v-25q0 -48 -10.5 -99t-41 -114t-77.5 -120t-127 -112t-182.5 -95t-251 -64.5t-324.5 -24.5z" />
    <glyph glyph-name="published" unicode="&#x2117;" horiz-adv-x="2426" 
d="M2380 793v-58q0 -760 -1143 -760h-47q-1143 0 -1143 760v58q0 128 32 232t107 200q76 98 205 170q128 71 334 112t463 41h49q256 0 462 -41.5t335 -113.5q349 -202 346 -600zM1192 168h43q870 0 870 577v35q0 106 -25 190.5t-86.5 158.5t-159.5 123.5t-249 77.5t-350 28
h-43q-199 0 -350 -28t-249 -77.5t-159.5 -123.5t-86.5 -158.5t-25 -190.5v-35q0 -577 870 -577zM1401 547h-314v-223h-423v884h737q279 0 389 -84q108 -82 108 -235v-21q0 -152 -110 -237q-110 -84 -387 -84zM1352 969h-265v-185h265q121 0 121 90v7q0 88 -121 88z" />
    <glyph glyph-name="trademark" unicode="&#x2122;" horiz-adv-x="2277" 
d="M909 1524v-240h-260v-493h-358v493h-260v240h878zM1294 791h-309v733h483l142 -361l143 361h461v-733h-313v456l-193 -456h-221l-193 456v-456z" />
    <glyph glyph-name="onethird" unicode="&#x2153;" horiz-adv-x="2263" 
d="M236 770v418h-205v190q212 9 270 146h315v-754h-380zM-86 0l1667 1524h399l-1679 -1524h-387zM1700 -14h-68q-128 0 -229.5 21t-159.5 54q-74 49 -103.5 104.5t-25.5 104.5v11h377q-2 -7 0.5 -16t13.5 -20.5t29.5 -21t53 -16.5t79.5 -8q178 0 178 57v4q0 43 -88 43h-229
v184h219q84 0 84 35v4q0 45 -172 45q-168 0 -168 -63h-365v10q0 22 1.5 34t10.5 33.5t27 45.5q86 134 455 139h70q339 0 440 -63q48 -30 66 -59.5t18 -69.5v-9q0 -53 -44 -88t-114 -43q86 -12 138.5 -61t52.5 -123v-8q0 -55 -21.5 -95.5t-75.5 -80.5q-122 -84 -450 -84z" />
    <glyph glyph-name="twothirds" unicode="&#x2154;" horiz-adv-x="2721" 
d="M1100 995v-225h-1073v96q0 69 15.5 112.5t63.5 92.5q99 102 441 160q170 27 170 67v2q0 46 -144 46q-161 0 -161 -89h-373v9q0 274 510 274h39q126 0 219.5 -13t149 -34t89 -53.5t45 -65.5t11.5 -76v-10q0 -106 -107 -155q-110 -49 -377 -78l-65 -11q-19 -2 -39 -4
t-34 -3.5t-31 -4.5q-90 -13 -105 -37h756zM373 0l1667 1524h399l-1679 -1524h-387zM2157 -14h-68q-128 0 -229.5 21t-159.5 54q-74 49 -103.5 104.5t-25.5 104.5v11h377q-2 -7 0.5 -16t13.5 -20.5t29.5 -21t53 -16.5t79.5 -8q178 0 178 57v4q0 43 -88 43h-229v184h219
q84 0 84 35v4q0 45 -172 45q-168 0 -168 -63h-365v10q0 22 1.5 34t10.5 33.5t27 45.5q86 134 455 139h69q340 0 441 -63q48 -30 66 -59.5t18 -69.5v-9q0 -53 -44 -88t-114 -43q86 -12 138 -61t52 -123v-8q0 -56 -21 -96t-75 -80q-122 -84 -450 -84z" />
    <glyph glyph-name="oneeighth" unicode="&#x215b;" horiz-adv-x="2289" 
d="M236 770v418h-205v190q212 9 270 146h315v-754h-380zM-86 0l1667 1524h399l-1679 -1524h-387zM2247 567v-12q0 -59 -52.5 -100.5t-134.5 -55.5q93 -12 150 -57.5t57 -112.5v-16q0 -227 -541 -227h-49q-542 0 -542 227v16q0 68 56.5 113t149.5 57q-83 14 -134.5 55
t-51.5 101v12q0 40 17.5 70t62.5 61q107 70 442 70h49q99 0 178.5 -7t133 -18t93 -27.5t61.5 -33t35 -38t16.5 -39t3.5 -38.5zM1860 535v4q0 53 -160 53q-158 0 -158 -53v-4q0 -56 158 -56q160 0 160 56zM1878 246v2q0 61 -178 61q-72 0 -112.5 -9t-52 -21t-11.5 -31v-2
q0 -64 176 -64q178 0 178 64z" />
    <glyph glyph-name="threeeighths" unicode="&#x215c;" horiz-adv-x="2682" 
d="M303 0l1667 1524h400l-1680 -1524h-387zM602 758h-67q-128 0 -230 21.5t-160 54.5q-74 49 -103.5 104t-25.5 104v11h377q-2 -7 0.5 -16t13.5 -20.5t29.5 -21t53 -16.5t79.5 -8q179 0 179 57v4q0 43 -89 43h-229v185h219q84 0 84 34v4q0 45 -172 45q-168 0 -168 -63h-364
v10q0 22 1.5 34t10.5 33.5t27 45.5q86 134 454 139h70q339 0 440 -63q48 -30 66 -59.5t18 -69.5v-9q0 -53 -44 -88t-114 -43q86 -12 138.5 -61t52.5 -123v-8q0 -56 -21 -96t-75 -80q-122 -84 -451 -84zM2640 567v-12q0 -59 -52 -100.5t-134 -55.5q93 -12 149.5 -57
t56.5 -113v-16q0 -227 -540 -227h-49q-543 0 -543 227v16q0 67 57 112.5t150 57.5q-83 14 -135 55.5t-52 100.5v12q0 40 17.5 70t62.5 61q107 70 443 70h49q115 0 203.5 -8.5t143 -25t91 -34.5t53.5 -43t23 -45t6 -45zM2253 535v4q0 53 -160 53q-158 0 -158 -53v-4
q0 -56 158 -56q160 0 160 56zM2271 246v2q0 61 -178 61q-72 0 -112.5 -9t-52 -21t-11.5 -31v-2q0 -64 176 -64q178 0 178 64z" />
    <glyph glyph-name="fiveeighths" unicode="&#x215d;" horiz-adv-x="2625" 
d="M246 0l1667 1524h399l-1679 -1524h-387zM606 756h-71q-494 0 -494 248v6h373q-4 -8 7 -19t49.5 -22.5t98.5 -12.5q152 0 152 74v6q0 72 -152 72q-60 -2 -98.5 -13t-49.5 -21.5t-7 -16.5h-359v467h987v-195h-626v-115q101 66 284 66h7q226 0 307 -63q86 -62 86 -175v-8
q0 -59 -19 -103t-67 -85q-104 -90 -408 -90zM2583 567v-12q0 -59 -52.5 -100.5t-134.5 -55.5q93 -12 150 -57.5t57 -112.5v-16q0 -227 -541 -227h-49q-543 0 -543 227v16q0 67 57 112.5t150 57.5q-83 14 -134.5 55t-51.5 101v12q0 40 17.5 70t62.5 61q107 70 442 70h49
q99 0 178.5 -7t133 -18t93 -27.5t61.5 -33t35 -38t16.5 -39t3.5 -38.5zM2195 535v4q0 53 -159 53q-158 0 -158 -53v-4q0 -56 158 -56q159 0 159 56zM2214 246v2q0 61 -178 61q-72 0 -112.5 -9t-52 -21t-11.5 -31v-2q0 -64 176 -64q178 0 178 64z" />
    <glyph glyph-name="seveneighths" unicode="&#x215e;" horiz-adv-x="2478" 
d="M35 1167v357h1063v-193q-4 -5 -36 -39.5t-73.5 -81.5t-68.5 -82q-77 -95 -97 -163q-18 -68 -18 -187v-8h-430v92q0 80 41 139q42 61 157 158q155 125 166 141q6 9 6 15h-348v-148h-362zM98 0l1667 1524h400l-1680 -1524h-387zM2435 567v-12q0 -59 -52 -100.5t-134 -55.5
q93 -12 150 -57.5t57 -112.5v-16q0 -227 -541 -227h-49q-543 0 -543 227v16q0 67 57 112.5t150 57.5q-83 14 -135 55.5t-52 100.5v12q0 40 17.5 70t62.5 61q107 70 443 70h49q115 0 203.5 -8.5t143 -25t91 -34.5t53.5 -43t23 -45t6 -45zM2048 535v4q0 53 -160 53
q-157 0 -157 -53v-4q0 -56 157 -56q160 0 160 56zM2066 246v2q0 61 -178 61q-72 0 -112.5 -9t-52 -21t-11.5 -31v-2q0 -64 176 -64q178 0 178 64z" />
    <glyph glyph-name="minus" unicode="&#x2212;" horiz-adv-x="1198" 
d="M61 475v313h1076v-313h-1076z" />
    <glyph glyph-name="J.alt" unicode="&#xe489;" horiz-adv-x="1093" 
d="M496 0h-443v434h195q99 0 141.5 48.5t42.5 166.5v875h582v-1002q0 -265 -127.5 -393.5t-390.5 -128.5z" />
    <glyph glyph-name="a.alt" unicode="&#xe4c0;" horiz-adv-x="1691" 
d="M1067 473v47l-369 -65q-74 -12 -104.5 -33t-30.5 -62v-2q0 -51 42.5 -81.5t131.5 -30.5q150 0 238 67q92 71 92 160zM1077 147q-167 -167 -516 -167h-22q-259 0 -385 102q-125 101 -125 252v24q0 145 105.5 223.5t340.5 96.5l531 47q61 9 61 53q0 19 -8 32t-31 26
t-73.5 19.5t-127.5 6.5h-8q-168 0 -213 -45q-20 -23 -25 -33t-10 -34h-516v12q0 62 11 101t49 91q41 56 110 90q77 38 217 62t320 24h115q188 0 332 -22t225 -57q77 -35 116 -88q40 -50 51 -91t11 -110v-389q0 -274 28 -363v-10h-538q-25 48 -25 147z" />
    <glyph glyph-name="r.alt" unicode="&#xe4d1;" horiz-adv-x="1206" 
d="M639 426v-426h-557v1102h553v-262q154 286 516 286v-503q-119 22 -209 22q-303 0 -303 -219z" />
    <glyph glyph-name="f_f" unicode="&#xfb00;" horiz-adv-x="1990" 
d="M797 764v-764h-553v764h-217v338h217v108q0 314 403 314h395v-295h-170q-43 0 -59 -18t-16 -62v-47h352v108q0 314 403 314h398v-295h-172q-43 0 -59.5 -18t-16.5 -62v-47h248v-338h-248v-764h-553v764h-352z" />
    <glyph glyph-name="fi" unicode="&#xfb01;" horiz-adv-x="1785" 
d="M1147 1524h557v-330h-557v330zM1147 1102h557v-1102h-557v1102zM647 1524h391v-295h-166q-43 0 -59 -18t-16 -62v-47h241v-338h-241v-764h-553v764h-217v338h217v108q0 314 403 314z" />
    <glyph glyph-name="fl" unicode="&#xfb02;" horiz-adv-x="1785" 
d="M647 1524h391v-295h-166q-43 0 -59 -18t-16 -62v-47h241v-338h-241v-764h-553v764h-217v338h217v108q0 314 403 314zM1147 1524h557v-1524h-557v1524z" />
    <glyph glyph-name="_1" horiz-adv-x="0" 
 />
    <glyph glyph-name="CR.001" horiz-adv-x="681" 
 />
    <glyph glyph-name="idotaccent" horiz-adv-x="720" 
d="M82 1524h557v-330h-557v330zM82 1102h557v-1102h-557v1102z" />
    <glyph glyph-name="space_uni0326" 
d="M885 -606h-267q58 109 72 188h-231v326h528v-256q0 -94 -102 -258z" />
    <glyph glyph-name="zero.num" horiz-adv-x="1284" 
d="M621 1540h47q106 0 193 -13.5t146.5 -35.5t104.5 -53.5t71 -64t42 -71.5t21 -71.5t5 -67.5v-30q0 -56 -11.5 -99.5t-45.5 -95.5q-117 -177 -526 -182h-47q-140 0 -253.5 25.5t-179.5 64.5q-153 100 -153 287v30q0 377 586 377zM856 1147v12q0 69 -51.5 112.5t-161.5 43.5
t-161.5 -43.5t-51.5 -112.5v-12q0 -72 51.5 -118t161.5 -46t161.5 46t51.5 118z" />
    <glyph glyph-name="one.num" horiz-adv-x="684" 
d="M236 770v418h-205v190q212 9 270 146h315v-754h-380z" />
    <glyph glyph-name="two.num" horiz-adv-x="1134" 
d="M1100 995v-225h-1073v96q0 69 15.5 112.5t63.5 92.5q99 102 441 160q170 27 170 67v2q0 46 -144 46q-161 0 -161 -89h-373v9q0 274 510 274h39q126 0 219.5 -13t149 -34t89 -53.5t45 -65.5t11.5 -76v-10q0 -106 -107 -155q-110 -49 -377 -78l-65 -11q-19 -2 -39 -4
t-34 -3.5t-31 -4.5q-90 -13 -105 -37h756z" />
    <glyph glyph-name="three.num" horiz-adv-x="1165" 
d="M602 756h-67q-128 0 -230 21t-160 54q-74 49 -103.5 104.5t-25.5 104.5v11h377q-2 -7 0.5 -16t13.5 -20.5t29.5 -21t53 -16.5t79.5 -8q179 0 179 57v4q0 43 -89 43h-229v184h219q84 0 84 35v4q0 45 -172 45q-168 0 -168 -63h-364v10q0 22 1.5 34t10.5 33.5t27 45.5
q86 134 454 139h70q339 0 440 -63q48 -30 66 -59.5t18 -69.5v-9q0 -53 -44 -88t-114 -43q86 -12 138.5 -61t52.5 -123v-8q0 -56 -21 -96t-75 -80q-122 -84 -451 -84z" />
    <glyph glyph-name="four.num" horiz-adv-x="1138" 
d="M25 918v194l524 414h412v-389h153v-219h-153v-148h-379v148h-557zM582 1341l-260 -204h260v204z" />
    <glyph glyph-name="five.num" horiz-adv-x="1128" 
d="M606 756h-71q-494 0 -494 248v6h373q-4 -8 7 -19t49.5 -22.5t98.5 -12.5q152 0 152 74v6q0 72 -152 72q-60 -2 -98.5 -13t-49.5 -21.5t-7 -16.5h-359v467h987v-195h-626v-115q101 66 284 66h7q226 0 307 -63q86 -62 86 -175v-8q0 -59 -19 -103t-67 -85q-104 -90 -408 -90
z" />
    <glyph glyph-name="six.num" horiz-adv-x="1216" 
d="M651 756h-67q-549 0 -549 381v24q0 379 540 379h56q129 0 227 -16.5t153.5 -41.5t90.5 -60t46 -66.5t11 -65.5v-4h-371q-27 53 -167 53q-63 0 -107 -16.5t-63.5 -43.5t-27 -49.5t-7.5 -45.5v-4q100 71 327 71h15q108 0 187 -11.5t126 -30t75.5 -47.5t38 -59.5t9.5 -70.5
v-10q0 -40 -9.5 -72.5t-43 -70.5t-90 -63.5t-159 -42.5t-241.5 -17zM440 1022v-4q0 -68 185 -68q180 0 180 68v4q0 68 -180 68q-185 0 -185 -68z" />
    <glyph glyph-name="seven.num" horiz-adv-x="1126" 
d="M35 1167v357h1063v-193q-4 -5 -36 -39.5t-73.5 -81.5t-68.5 -82q-77 -95 -97 -163q-18 -68 -18 -187v-8h-430v92q0 80 41 139q42 61 157 158q155 125 166 141q6 9 6 15h-348v-148h-362z" />
    <glyph glyph-name="eight.num" horiz-adv-x="1173" 
d="M1133 1337v-12q0 -59 -52.5 -100.5t-134.5 -55.5q93 -12 150 -57.5t57 -112.5v-16q0 -227 -541 -227h-49q-543 0 -543 227v16q0 67 57 112.5t150 57.5q-83 14 -134.5 55t-51.5 101v12q0 40 17.5 70t62.5 61q107 70 442 70h49q99 0 178.5 -7t133 -18t93 -27.5t61.5 -33
t35 -38t16.5 -39t3.5 -38.5zM745 1305v4q0 53 -159 53q-158 0 -158 -53v-4q0 -56 158 -56q159 0 159 56zM764 1016v2q0 61 -178 61q-72 0 -112.5 -9t-52 -21t-11.5 -31v-2q0 -64 176 -64q178 0 178 64z" />
    <glyph glyph-name="nine.num" horiz-adv-x="1218" 
d="M776 1272v4q0 67 -182 67q-184 0 -184 -67v-2q0 -68 184 -68q182 0 182 66zM641 756h-57q-157 0 -269.5 24t-164.5 66q-91 76 -91 160v2h371q-2 -4 1.5 -10t15 -13.5t29.5 -14t50 -11t72 -5.5q51 0 89 12t59 28.5t33.5 39.5t16 40.5t3.5 35.5v4q-85 -70 -318 -70h-12
q-255 0 -350 62q-94 61 -94 164v10q0 54 17 92.5t64 77.5q107 90 451 90h68q170 0 288.5 -35.5t173.5 -99.5q53 -59 74 -115t21 -125v-26q0 -51 -10 -97t-44.5 -100.5t-91 -93.5t-158.5 -65.5t-237 -26.5z" />
    <glyph glyph-name="zero.den" horiz-adv-x="1284" 
d="M621 770h47q106 0 193 -13.5t146.5 -35.5t104.5 -53.5t71 -64t42 -71.5t21 -71.5t5 -67.5v-31q0 -55 -11.5 -98.5t-45.5 -95.5q-117 -177 -526 -182h-47q-140 0 -253.5 25.5t-179.5 64.5q-153 100 -153 286v31q0 377 586 377zM856 377v12q0 69 -51.5 112.5t-161.5 43.5
t-161.5 -43.5t-51.5 -112.5v-12q0 -72 51.5 -118t161.5 -46t161.5 46t51.5 118z" />
    <glyph glyph-name="one.den" horiz-adv-x="684" 
d="M236 0v418h-205v190q212 9 270 146h315v-754h-380z" />
    <glyph glyph-name="two.den" horiz-adv-x="1134" 
d="M1100 225v-225h-1073v96q0 69 15.5 112.5t63.5 92.5q99 102 441 160q170 27 170 67v2q0 45 -144 45q-161 0 -161 -88h-373v9q0 274 510 274h39q126 0 219.5 -13t149 -34t89 -53.5t45 -65.5t11.5 -76v-10q0 -107 -107 -156q-107 -47 -377 -77l-65 -11q-19 -2 -39 -4
t-34 -3.5t-31 -4.5q-90 -13 -105 -37h756z" />
    <glyph glyph-name="three.den" horiz-adv-x="1165" 
d="M602 -14h-67q-128 0 -230 21t-160 54q-74 49 -103.5 104.5t-25.5 104.5v11h377q-2 -7 0.5 -16t13.5 -20.5t29.5 -21t53 -16.5t79.5 -8q179 0 179 57v4q0 43 -89 43h-229v184h219q84 0 84 35v4q0 45 -172 45q-168 0 -168 -63h-364v10q0 22 1.5 34t10.5 33.5t27 45.5
q86 134 454 139h70q339 0 440 -63q48 -30 66 -59.5t18 -69.5v-9q0 -53 -44 -88t-114 -43q86 -12 138.5 -61t52.5 -123v-8q0 -56 -21 -96t-75 -80q-122 -84 -451 -84z" />
    <glyph glyph-name="four.den" horiz-adv-x="1138" 
d="M25 147v195l524 414h412v-389h153v-220h-153v-147h-379v147h-557zM582 571l-260 -204h260v204z" />
    <glyph glyph-name="five.den" horiz-adv-x="1128" 
d="M606 -14h-71q-494 0 -494 247v7h373q-4 -8 7 -19t49.5 -22.5t98.5 -12.5q152 0 152 74v6q0 72 -152 72q-60 -2 -98.5 -13t-49.5 -21.5t-7 -16.5h-359v467h987v-195h-626v-115q101 66 284 66h7q225 0 307 -64q86 -62 86 -174v-8q0 -59 -19 -103t-67 -85q-104 -90 -408 -90
z" />
    <glyph glyph-name="six.den" horiz-adv-x="1216" 
d="M651 -14h-67q-549 0 -549 381v24q0 379 540 379h56q129 0 227 -16.5t153.5 -41.5t90.5 -60t46 -66.5t11 -65.5v-4h-371q-27 53 -167 53q-63 0 -107 -16.5t-63.5 -43.5t-27 -49.5t-7.5 -45.5v-4q100 71 327 71h15q108 0 187 -11.5t126 -30t75.5 -47.5t38 -59.5t9.5 -70.5
v-10q0 -40 -9.5 -72.5t-43 -70.5t-90 -63.5t-159 -42.5t-241.5 -17zM440 252v-4q0 -68 185 -68q180 0 180 68v4q0 67 -180 67q-185 0 -185 -67z" />
    <glyph glyph-name="seven.den" horiz-adv-x="1126" 
d="M35 397v357h1063v-193q-4 -5 -36 -39.5t-73.5 -81.5t-68.5 -82q-77 -95 -97 -163q-18 -67 -18 -187v-8h-430v92q0 80 41 139q42 61 157 158q155 125 166 141q6 9 6 15h-348v-148h-362z" />
    <glyph glyph-name="eight.den" horiz-adv-x="1173" 
d="M1133 567v-12q0 -59 -52.5 -100.5t-134.5 -55.5q93 -12 150 -57.5t57 -112.5v-16q0 -227 -541 -227h-49q-543 0 -543 227v16q0 67 57 112.5t150 57.5q-83 14 -134.5 55t-51.5 101v12q0 40 17.5 70t62.5 61q107 70 442 70h49q99 0 178.5 -7t133 -18t93 -27.5t61.5 -33
t35 -38t16.5 -39t3.5 -38.5zM745 535v4q0 53 -159 53q-158 0 -158 -53v-4q0 -56 158 -56q159 0 159 56zM764 246v2q0 61 -178 61q-72 0 -112.5 -9t-52 -21t-11.5 -31v-2q0 -64 176 -64q178 0 178 64z" />
    <glyph glyph-name="nine.den" horiz-adv-x="1218" 
d="M776 502v4q0 67 -182 67q-184 0 -184 -67v-2q0 -68 184 -68q182 0 182 66zM641 -14h-57q-157 0 -269.5 24t-164.5 66q-91 76 -91 160v2h371q-2 -4 1.5 -10t15 -13.5t29.5 -14t50 -11t72 -5.5q51 0 89 12t59 28.5t33.5 39.5t16 40.5t3.5 35.5v4q-85 -70 -318 -70h-12
q-255 0 -350 62q-94 61 -94 164v10q0 54 17 92.5t64 77.5q107 90 451 90h68q170 0 288.5 -35.5t173.5 -99.5q53 -59 74 -115t21 -125v-26q0 -51 -10 -97t-44.5 -100.5t-91 -93.5t-158.5 -65.5t-237 -26.5z" />
    <glyph glyph-name="zero.sub" horiz-adv-x="1284" 
d="M621 578h47q106 0 193 -13.5t146.5 -35.5t104.5 -53.5t71 -64t42 -71.5t21 -71.5t5 -67.5v-31q0 -56 -11.5 -99.5t-45.5 -93.5q-37 -55 -98 -92q-64 -41 -175.5 -66.5t-252.5 -25.5h-47q-141 0 -254.5 25.5t-178.5 66.5q-86 57 -121 133t-32 152v31q0 377 586 377z
M856 184v13q0 69 -51.5 112t-161.5 43t-161.5 -43t-51.5 -112v-13q0 -72 51.5 -118t161.5 -46t161.5 46t51.5 118z" />
    <glyph glyph-name="one.sub" horiz-adv-x="684" 
d="M236 -193v418h-205v191q212 9 270 145h315v-754h-380z" />
    <glyph glyph-name="two.sub" horiz-adv-x="1134" 
d="M1100 33v-226h-1073v97q0 69 15.5 112.5t63.5 92.5q98 101 441 159q170 27 170 68v2q0 45 -144 45q-161 0 -161 -88h-373v8q0 275 510 275h39q126 0 219.5 -13t149 -34t89 -53.5t45 -65.5t11.5 -76v-10q0 -107 -107 -156q-110 -49 -377 -78l-65 -10q-19 -2 -39 -4
t-34 -3.5t-31 -4.5q-90 -13 -105 -37h756z" />
    <glyph glyph-name="three.sub" horiz-adv-x="1165" 
d="M602 -207h-67q-128 0 -230 21.5t-160 54.5q-74 49 -103.5 104.5t-25.5 104.5v10h377q-2 -7 0.5 -16t13.5 -20.5t29.5 -21t53 -16.5t79.5 -8q179 0 179 57v5q0 43 -89 43h-229v184h219q84 0 84 35v4q0 45 -172 45q-168 0 -168 -64h-364v11q0 21 1.5 33t10.5 33.5t27 45.5
q87 135 454 140h70q337 0 440 -64q48 -30 66 -59.5t18 -69.5v-8q0 -53 -44 -88t-114 -43q86 -12 138.5 -61.5t52.5 -123.5v-8q0 -56 -21 -96.5t-75 -77.5q-116 -86 -451 -86z" />
    <glyph glyph-name="four.sub" horiz-adv-x="1138" 
d="M25 -45v195l524 413h412v-389h153v-219h-153v-148h-379v148h-557zM582 379l-260 -205h260v205z" />
    <glyph glyph-name="five.sub" horiz-adv-x="1128" 
d="M606 -207h-71q-494 0 -494 248v6h373q-2 -4 1 -10t13.5 -13.5t27.5 -13.5t46.5 -10.5t66.5 -5.5q152 0 152 74v6q0 71 -152 71q-60 -2 -98.5 -13t-49.5 -21.5t-7 -16.5h-359v467h987v-194h-626v-115q100 65 284 65h7q226 0 307 -63q86 -62 86 -174v-8q0 -59 -19 -103.5
t-67 -85.5q-104 -90 -408 -90z" />
    <glyph glyph-name="six.sub" horiz-adv-x="1216" 
d="M651 -207h-67q-549 0 -549 381v25q0 379 540 379h56q129 0 227 -16.5t153.5 -41.5t90.5 -60t46 -66.5t11 -65.5v-4h-371q-27 53 -167 53q-51 0 -90 -12t-60 -28.5t-34 -39.5t-17 -40.5t-4 -35.5v-4q101 72 327 72h15q108 0 187 -11.5t126 -30t75.5 -47.5t38 -59.5
t9.5 -70.5v-11q0 -40 -9.5 -72.5t-43 -70.5t-90 -63.5t-159 -42.5t-241.5 -17zM440 59v-4q0 -67 185 -67q180 0 180 67v4q0 68 -180 68q-185 0 -185 -68z" />
    <glyph glyph-name="seven.sub" horiz-adv-x="1126" 
d="M35 205v356h1063v-192q-4 -5 -36 -39.5t-73.5 -81.5t-68.5 -82q-76 -94 -97 -164q-18 -68 -18 -186v-9h-430v93q0 80 41 139q42 61 157 158q155 125 166 141q6 9 6 14h-348v-147h-362z" />
    <glyph glyph-name="eight.sub" horiz-adv-x="1173" 
d="M1133 375v-13q0 -59 -52.5 -100t-134.5 -55q93 -12 150 -57.5t57 -112.5v-17q0 -227 -541 -227h-49q-543 0 -543 227v17q0 67 57 112.5t150 57.5q-83 14 -134.5 55t-51.5 100v13q0 40 17.5 70t62.5 61q106 69 442 69h49q136 0 236 -13t153.5 -32t84.5 -48t39 -52.5
t8 -54.5zM745 342v4q0 53 -159 53q-158 0 -158 -53v-4q0 -55 158 -55q159 0 159 55zM764 53v2q0 62 -178 62q-72 0 -112.5 -9t-52 -21.5t-11.5 -31.5v-2q0 -63 176 -63q178 0 178 63z" />
    <glyph glyph-name="nine.sub" horiz-adv-x="1218" 
d="M776 309v4q0 68 -182 68q-184 0 -184 -68v-2q0 -67 184 -67q182 0 182 65zM641 -207h-57q-324 0 -434 92q-91 74 -91 158v2h371q-2 -4 1.5 -10t15 -13.5t29.5 -13.5t50 -10.5t72 -5.5q62 0 105.5 16.5t62.5 43.5t26 49.5t7 45.5v5q-85 -70 -318 -70h-12q-256 0 -350 61
t-94 164v10q0 54 17 92.5t64 77.5q109 91 451 91h68q170 0 288.5 -36t173.5 -100q53 -59 74 -114.5t21 -124.5v-27q0 -51 -10 -97t-44.5 -100.5t-91 -93.5t-158.5 -65.5t-237 -26.5z" />
    <glyph glyph-name="zero.sup" horiz-adv-x="1284" 
d="M621 1540h47q106 0 193 -13.5t146.5 -35.5t104.5 -53.5t71 -64t42 -71.5t21 -71.5t5 -67.5v-30q0 -56 -11.5 -99.5t-45.5 -95.5q-117 -177 -526 -182h-47q-140 0 -253.5 25.5t-179.5 64.5q-153 100 -153 287v30q0 377 586 377zM856 1147v12q0 69 -51.5 112.5t-161.5 43.5
t-161.5 -43.5t-51.5 -112.5v-12q0 -72 51.5 -118t161.5 -46t161.5 46t51.5 118z" />
    <glyph glyph-name="one.sup" horiz-adv-x="684" 
d="M236 770v418h-205v190q212 9 270 146h315v-754h-380z" />
    <glyph glyph-name="two.sup" horiz-adv-x="1134" 
d="M1100 995v-225h-1073v96q0 69 15.5 112.5t63.5 92.5q99 102 441 160q170 27 170 67v2q0 46 -144 46q-161 0 -161 -89h-373v9q0 274 510 274h39q126 0 219.5 -13t149 -34t89 -53.5t45 -65.5t11.5 -76v-10q0 -106 -107 -155q-110 -49 -377 -78l-65 -11q-19 -2 -39 -4
t-34 -3.5t-31 -4.5q-90 -13 -105 -37h756z" />
    <glyph glyph-name="three.sup" horiz-adv-x="1165" 
d="M602 756h-67q-128 0 -230 21t-160 54q-74 49 -103.5 104.5t-25.5 104.5v11h377q-2 -7 0.5 -16t13.5 -20.5t29.5 -21t53 -16.5t79.5 -8q179 0 179 57v4q0 43 -89 43h-229v184h219q84 0 84 35v4q0 45 -172 45q-168 0 -168 -63h-364v10q0 22 1.5 34t10.5 33.5t27 45.5
q86 134 454 139h70q339 0 440 -63q48 -30 66 -59.5t18 -69.5v-9q0 -53 -44 -88t-114 -43q86 -12 138.5 -61t52.5 -123v-8q0 -56 -21 -96t-75 -80q-122 -84 -451 -84z" />
    <glyph glyph-name="four.sup" horiz-adv-x="1138" 
d="M25 918v194l524 414h412v-389h153v-219h-153v-148h-379v148h-557zM582 1341l-260 -204h260v204z" />
    <glyph glyph-name="five.sup" horiz-adv-x="1128" 
d="M606 756h-71q-494 0 -494 248v6h373q-4 -8 7 -19t49.5 -22.5t98.5 -12.5q152 0 152 74v6q0 72 -152 72q-60 -2 -98.5 -13t-49.5 -21.5t-7 -16.5h-359v467h987v-195h-626v-115q101 66 284 66h7q226 0 307 -63q86 -62 86 -175v-8q0 -59 -19 -103t-67 -85q-104 -90 -408 -90
z" />
    <glyph glyph-name="six.sup" horiz-adv-x="1216" 
d="M651 756h-67q-549 0 -549 381v24q0 379 540 379h56q129 0 227 -16.5t153.5 -41.5t90.5 -60t46 -66.5t11 -65.5v-4h-371q-27 53 -167 53q-63 0 -107 -16.5t-63.5 -43.5t-27 -49.5t-7.5 -45.5v-4q100 71 327 71h15q108 0 187 -11.5t126 -30t75.5 -47.5t38 -59.5t9.5 -70.5
v-10q0 -40 -9.5 -72.5t-43 -70.5t-90 -63.5t-159 -42.5t-241.5 -17zM440 1022v-4q0 -68 185 -68q180 0 180 68v4q0 68 -180 68q-185 0 -185 -68z" />
    <glyph glyph-name="seven.sup" horiz-adv-x="1126" 
d="M35 1167v357h1063v-193q-4 -5 -36 -39.5t-73.5 -81.5t-68.5 -82q-77 -95 -97 -163q-18 -68 -18 -187v-8h-430v92q0 80 41 139q42 61 157 158q155 125 166 141q6 9 6 15h-348v-148h-362z" />
    <glyph glyph-name="eight.sup" horiz-adv-x="1173" 
d="M1133 1337v-12q0 -59 -52.5 -100.5t-134.5 -55.5q93 -12 150 -57.5t57 -112.5v-16q0 -227 -541 -227h-49q-543 0 -543 227v16q0 67 57 112.5t150 57.5q-83 14 -134.5 55t-51.5 101v12q0 40 17.5 70t62.5 61q107 70 442 70h49q99 0 178.5 -7t133 -18t93 -27.5t61.5 -33
t35 -38t16.5 -39t3.5 -38.5zM745 1305v4q0 53 -159 53q-158 0 -158 -53v-4q0 -56 158 -56q159 0 159 56zM764 1016v2q0 61 -178 61q-72 0 -112.5 -9t-52 -21t-11.5 -31v-2q0 -64 176 -64q178 0 178 64z" />
    <glyph glyph-name="nine.sup" horiz-adv-x="1218" 
d="M776 1272v4q0 67 -182 67q-184 0 -184 -67v-2q0 -68 184 -68q182 0 182 66zM641 756h-57q-157 0 -269.5 24t-164.5 66q-91 76 -91 160v2h371q-2 -4 1.5 -10t15 -13.5t29.5 -14t50 -11t72 -5.5q51 0 89 12t59 28.5t33.5 39.5t16 40.5t3.5 35.5v4q-85 -70 -318 -70h-12
q-255 0 -350 62q-94 61 -94 164v10q0 54 17 92.5t64 77.5q107 90 451 90h68q170 0 288.5 -35.5t173.5 -99.5q53 -59 74 -115t21 -125v-26q0 -51 -10 -97t-44.5 -100.5t-91 -93.5t-158.5 -65.5t-237 -26.5z" />
    <glyph glyph-name="IJ.alt" horiz-adv-x="1859" 
d="M98 1524h580v-1524h-580v1524zM1260 0h-443v434h195q99 0 141.5 48.5t42.5 166.5v875h582v-1002q0 -265 -127.5 -393.5t-390.5 -128.5z" />
    <glyph glyph-name="a.alt2" horiz-adv-x="1863" 
d="M1225 551v10q0 100 -88 176q-90 78 -236 78h-10q-142 0 -214.5 -71.5t-72.5 -182.5v-10q0 -100 74 -180t217 -80h10q148 0 234 80t86 180zM1225 963v139h557v-1102h-555v162q-38 -50 -150 -109q-136 -73 -358 -73h-33q-163 0 -290 45.5t-203.5 124.5t-115 177t-38.5 210
v43q0 226 160 383q163 159 469 159h37q186 0 321 -47.5t199 -111.5z" />
    <glyph glyph-name="Jcircumflex.alt" horiz-adv-x="1093" 
d="M426 1933h578l335 -317h-499l-127 119l-125 -119h-494zM496 0h-443v434h195q99 0 141.5 48.5t42.5 166.5v875h582v-1002q0 -265 -127.5 -393.5t-390.5 -128.5z" />
    <glyph glyph-name="aacute.alt" horiz-adv-x="1691" 
d="M1071 1198h-502l179 326h550zM1067 473v47l-369 -65q-74 -12 -104.5 -33t-30.5 -62v-2q0 -51 42.5 -81.5t131.5 -30.5q150 0 238 67q92 71 92 160zM1077 147q-167 -167 -516 -167h-22q-259 0 -385 102q-125 101 -125 252v24q0 145 105.5 223.5t340.5 96.5l531 47
q61 9 61 53q0 19 -8 32t-31 26t-73.5 19.5t-127.5 6.5h-8q-168 0 -213 -45q-20 -23 -25 -33t-10 -34h-516v12q0 62 11 101t49 91q41 56 110 90q77 38 217 62t320 24h115q188 0 332 -22t225 -57q77 -35 116 -88q40 -50 51 -91t11 -110v-389q0 -274 28 -363v-10h-538
q-25 48 -25 147z" />
    <glyph glyph-name="aacute.alt2" horiz-adv-x="1863" 
d="M1141 1194h-504l182 330h549zM1225 551v10q0 100 -88 176q-90 78 -236 78h-10q-142 0 -214.5 -71.5t-72.5 -182.5v-10q0 -100 74 -180t217 -80h10q148 0 234 80t86 180zM1225 963v139h557v-1102h-555v162q-38 -50 -150 -109q-136 -73 -358 -73h-33q-163 0 -290 45.5
t-203.5 124.5t-115 177t-38.5 210v43q0 226 160 383q163 159 469 159h37q186 0 321 -47.5t199 -111.5z" />
    <glyph glyph-name="abreve.alt" horiz-adv-x="1691" 
d="M868 1184h-82q-111 0 -196.5 25.5t-133 62t-77.5 85t-39.5 87.5t-9.5 76v4h370q0 -37 32 -67t97 -30q62 0 94.5 30.5t32.5 66.5h365v-4q0 -99 -92 -207q-49 -58 -144.5 -93.5t-216.5 -35.5zM1067 473v47l-369 -65q-74 -12 -104.5 -33t-30.5 -62v-2q0 -51 42.5 -81.5
t131.5 -30.5q150 0 238 67q92 71 92 160zM1077 147q-167 -167 -516 -167h-22q-259 0 -385 102q-125 101 -125 252v24q0 145 105.5 223.5t340.5 96.5l531 47q61 9 61 53q0 19 -8 32t-31 26t-73.5 19.5t-127.5 6.5h-8q-168 0 -213 -45q-20 -23 -25 -33t-10 -34h-516v12
q0 62 11 101t49 91q41 56 110 90q77 38 217 62t320 24h115q188 0 332 -22t225 -57q77 -35 116 -88q40 -50 51 -91t11 -110v-389q0 -274 28 -363v-10h-538q-25 48 -25 147z" />
    <glyph glyph-name="abreve.alt2" horiz-adv-x="1863" 
d="M1225 551v10q0 100 -88 176q-90 78 -236 78h-10q-142 0 -214.5 -71.5t-72.5 -182.5v-10q0 -100 74 -180t217 -80h10q148 0 234 80t86 180zM1225 963v139h557v-1102h-555v162q-38 -50 -150 -109q-136 -73 -358 -73h-33q-163 0 -290 45.5t-203.5 124.5t-115 177t-38.5 210
v43q0 226 160 383q163 159 469 159h37q186 0 321 -47.5t199 -111.5zM1016 1524h364v-4q0 -105 -92 -211q-49 -57 -144 -92t-216 -35h-82q-133 0 -232 35t-145 94q-80 103 -80 209v4h371q0 -13 4.5 -27.5t17 -32t40 -28.5t67.5 -11q63 0 95 30.5t32 68.5z" />
    <glyph glyph-name="acircumflex.alt" horiz-adv-x="1691" 
d="M535 1524h573l313 -328h-483l-119 131l-119 -131h-479zM1067 473v47l-369 -65q-74 -12 -104.5 -33t-30.5 -62v-2q0 -51 42.5 -81.5t131.5 -30.5q150 0 238 67q92 71 92 160zM1077 147q-167 -167 -516 -167h-22q-259 0 -385 102q-125 101 -125 252v24q0 145 105.5 223.5
t340.5 96.5l531 47q61 9 61 53q0 19 -8 32t-31 26t-73.5 19.5t-127.5 6.5h-8q-168 0 -213 -45q-20 -23 -25 -33t-10 -34h-516v12q0 62 11 101t49 91q41 56 110 90q77 38 217 62t320 24h115q188 0 332 -22t225 -57q77 -35 116 -88q40 -50 51 -91t11 -110v-389q0 -274 28 -363
v-10h-538q-25 48 -25 147z" />
    <glyph glyph-name="acircumflex.alt2" horiz-adv-x="1863" 
d="M598 1524h576l313 -332h-486l-118 135l-119 -135h-477zM1225 551v10q0 100 -88 176q-90 78 -236 78h-10q-142 0 -214.5 -71.5t-72.5 -182.5v-10q0 -100 74 -180t217 -80h10q148 0 234 80t86 180zM1225 963v139h557v-1102h-555v162q-38 -50 -150 -109q-136 -73 -358 -73
h-33q-163 0 -290 45.5t-203.5 124.5t-115 177t-38.5 210v43q0 226 160 383q163 159 469 159h37q186 0 321 -47.5t199 -111.5z" />
    <glyph glyph-name="adieresis.alt" horiz-adv-x="1691" 
d="M868 1524h490v-326h-490v326zM287 1524h487v-326h-487v326zM1067 473v47l-369 -65q-74 -12 -104.5 -33t-30.5 -62v-2q0 -51 42.5 -81.5t131.5 -30.5q150 0 238 67q92 71 92 160zM1077 147q-167 -167 -516 -167h-22q-259 0 -385 102q-125 101 -125 252v24
q0 145 105.5 223.5t340.5 96.5l531 47q61 9 61 53q0 19 -8 32t-31 26t-73.5 19.5t-127.5 6.5h-8q-168 0 -213 -45q-20 -23 -25 -33t-10 -34h-516v12q0 62 11 101t49 91q41 56 110 90q77 38 217 62t320 24h115q188 0 332 -22t225 -57q77 -35 116 -88q40 -50 51 -91t11 -110
v-389q0 -274 28 -363v-10h-538q-25 48 -25 147z" />
    <glyph glyph-name="adieresis.alt2" horiz-adv-x="1863" 
d="M934 1524h487v-330h-487v330zM354 1524h486v-330h-486v330zM1225 551v10q0 100 -88 176q-90 78 -236 78h-10q-142 0 -214.5 -71.5t-72.5 -182.5v-10q0 -100 74 -180t217 -80h10q148 0 234 80t86 180zM1225 963v139h557v-1102h-555v162q-38 -50 -150 -109
q-136 -73 -358 -73h-33q-163 0 -290 45.5t-203.5 124.5t-115 177t-38.5 210v43q0 226 160 383q163 159 469 159h37q186 0 321 -47.5t199 -111.5z" />
    <glyph glyph-name="agrave.alt" horiz-adv-x="1691" 
d="M905 1524l180 -326h-505l-228 326h553zM1067 473v47l-369 -65q-74 -12 -104.5 -33t-30.5 -62v-2q0 -51 42.5 -81.5t131.5 -30.5q150 0 238 67q92 71 92 160zM1077 147q-167 -167 -516 -167h-22q-259 0 -385 102q-125 101 -125 252v24q0 145 105.5 223.5t340.5 96.5
l531 47q61 9 61 53q0 19 -8 32t-31 26t-73.5 19.5t-127.5 6.5h-8q-168 0 -213 -45q-20 -23 -25 -33t-10 -34h-516v12q0 62 11 101t49 91q41 56 110 90q77 38 217 62t320 24h115q188 0 332 -22t225 -57q77 -35 116 -88q40 -50 51 -91t11 -110v-389q0 -274 28 -363v-10h-538
q-25 48 -25 147z" />
    <glyph glyph-name="agrave.alt2" horiz-adv-x="1863" 
d="M1225 551v10q0 100 -88 176q-90 78 -236 78h-10q-142 0 -214.5 -71.5t-72.5 -182.5v-10q0 -100 74 -180t217 -80h10q148 0 234 80t86 180zM1225 963v139h557v-1102h-555v162q-38 -50 -150 -109q-136 -73 -358 -73h-33q-163 0 -290 45.5t-203.5 124.5t-115 177t-38.5 210
v43q0 226 160 383q163 159 469 159h37q186 0 321 -47.5t199 -111.5zM963 1524l180 -330h-506l-227 330h553z" />
    <glyph glyph-name="amacron.alt" horiz-adv-x="1691" 
d="M1067 473v47l-369 -65q-74 -12 -104.5 -33t-30.5 -62v-2q0 -51 42.5 -81.5t131.5 -30.5q150 0 238 67q92 71 92 160zM1077 147q-167 -167 -516 -167h-22q-259 0 -385 102q-125 101 -125 252v24q0 145 105.5 223.5t340.5 96.5l531 47q61 9 61 53q0 19 -8 32t-31 26
t-73.5 19.5t-127.5 6.5h-8q-168 0 -213 -45q-20 -23 -25 -33t-10 -34h-516v12q0 62 11 101t49 91q41 56 110 90q77 38 217 62t320 24h115q188 0 332 -22t225 -57q77 -35 116 -88q40 -50 51 -91t11 -110v-389q0 -274 28 -363v-10h-538q-25 48 -25 147zM1286 1217h-926v264
h926v-264z" />
    <glyph glyph-name="amacron.alt2" horiz-adv-x="1863" 
d="M1354 1214h-926v265h926v-265zM1225 551v10q0 100 -88 176q-90 78 -236 78h-10q-142 0 -214.5 -71.5t-72.5 -182.5v-10q0 -100 74 -180t217 -80h10q148 0 234 80t86 180zM1225 963v139h557v-1102h-555v162q-38 -50 -150 -109q-136 -73 -358 -73h-33q-163 0 -290 45.5
t-203.5 124.5t-115 177t-38.5 210v43q0 226 160 383q163 159 469 159h37q186 0 321 -47.5t199 -111.5z" />
    <glyph glyph-name="aogonek.alt" horiz-adv-x="1691" 
d="M1067 473v47l-369 -65q-74 -12 -104.5 -33t-30.5 -62v-2q0 -51 42.5 -81.5t131.5 -30.5q150 0 238 67q92 71 92 160zM1077 147q-167 -167 -516 -167h-22q-259 0 -385 102q-125 101 -125 252v24q0 145 105.5 223.5t340.5 96.5l531 47q61 9 61 53q0 19 -8 32t-31 26
t-73.5 19.5t-127.5 6.5h-8q-168 0 -213 -45q-20 -23 -25 -33t-10 -34h-516v12q0 62 11 101t49 91q41 56 110 90q77 38 217 62t320 24h115q188 0 332 -22t225 -57q77 -35 116 -88q40 -50 51 -91t11 -110v-389q0 -274 28 -363v-10h-538q-25 48 -25 147zM1010 -238v7
q0 78 92.5 130t302.5 101h233q-122 -79 -122 -125q0 -43 67 -43h55v-217h-327q-301 0 -301 147z" />
    <glyph glyph-name="aogonek.alt2" horiz-adv-x="1863" 
d="M1151 -238v7q0 78 92.5 130t302.5 101h234q-123 -80 -123 -125q0 -43 67 -43h56v-217h-328q-301 0 -301 147zM1225 551v10q0 100 -88 176q-90 78 -236 78h-10q-142 0 -214.5 -71.5t-72.5 -182.5v-10q0 -100 74 -180t217 -80h10q148 0 234 80t86 180zM1225 963v139h557
v-1102h-555v162q-38 -50 -150 -109q-136 -73 -358 -73h-33q-163 0 -290 45.5t-203.5 124.5t-115 177t-38.5 210v43q0 226 160 383q163 159 469 159h37q186 0 321 -47.5t199 -111.5z" />
    <glyph glyph-name="aring.alt" horiz-adv-x="1691" 
d="M416 1425q0 242 405 242q400 0 400 -242q0 -243 -400 -243q-405 0 -405 243zM668 1425q0 -92 153 -92q150 0 150 92q0 91 -150 91q-153 0 -153 -91zM1067 473v47l-369 -65q-74 -12 -104.5 -33t-30.5 -62v-2q0 -51 42.5 -81.5t131.5 -30.5q150 0 238 67q92 71 92 160z
M1077 147q-167 -167 -516 -167h-22q-259 0 -385 102q-125 101 -125 252v24q0 145 105.5 223.5t340.5 96.5l531 47q61 9 61 53q0 19 -8 32t-31 26t-73.5 19.5t-127.5 6.5h-8q-168 0 -213 -45q-20 -23 -25 -33t-10 -34h-516v12q0 62 11 101t49 91q41 56 110 90q77 38 217 62
t320 24h115q188 0 332 -22t225 -57q77 -35 116 -88q40 -50 51 -91t11 -110v-389q0 -274 28 -363v-10h-538q-25 48 -25 147z" />
    <glyph glyph-name="aring.alt2" horiz-adv-x="1863" 
d="M481 1423q0 242 406 242q399 0 399 -242q0 -243 -399 -243q-406 0 -406 243zM733 1423q0 -92 154 -92q149 0 149 92q0 90 -149 90q-154 0 -154 -90zM1225 551v10q0 100 -88 176q-90 78 -236 78h-10q-142 0 -214.5 -71.5t-72.5 -182.5v-10q0 -100 74 -180t217 -80h10
q148 0 234 80t86 180zM1225 963v139h557v-1102h-555v162q-38 -50 -150 -109q-136 -73 -358 -73h-33q-163 0 -290 45.5t-203.5 124.5t-115 177t-38.5 210v43q0 226 160 383q163 159 469 159h37q186 0 321 -47.5t199 -111.5z" />
    <glyph glyph-name="aringacute.alt" horiz-adv-x="1691" 
d="M1085 1718h-503l182 330h549zM420 1425q0 242 405 242q400 0 400 -242q0 -243 -400 -243q-405 0 -405 243zM672 1425q0 -92 153 -92q150 0 150 92q0 91 -150 91q-153 0 -153 -91zM1067 473v47l-369 -65q-74 -12 -104.5 -33t-30.5 -62v-2q0 -51 42.5 -81.5t131.5 -30.5
q150 0 238 67q92 71 92 160zM1077 147q-167 -167 -516 -167h-22q-259 0 -385 102q-125 101 -125 252v24q0 145 105.5 223.5t340.5 96.5l531 47q61 9 61 53q0 19 -8 32t-31 26t-73.5 19.5t-127.5 6.5h-8q-168 0 -213 -45q-20 -23 -25 -33t-10 -34h-516v12q0 62 11 101t49 91
q41 56 110 90q77 38 217 62t320 24h115q188 0 332 -22t225 -57q77 -35 116 -88q40 -50 51 -91t11 -110v-389q0 -274 28 -363v-10h-538q-25 48 -25 147z" />
    <glyph glyph-name="aringacute.alt2" horiz-adv-x="1863" 
d="M1147 1714h-504l182 330h549zM481 1423q0 242 406 242q399 0 399 -242q0 -243 -399 -243q-406 0 -406 243zM733 1423q0 -92 154 -92q149 0 149 92q0 90 -149 90q-154 0 -154 -90zM1225 551v10q0 100 -88 176q-90 78 -236 78h-10q-142 0 -214.5 -71.5t-72.5 -182.5v-10
q0 -100 74 -180t217 -80h10q148 0 234 80t86 180zM1225 963v139h557v-1102h-555v162q-38 -50 -150 -109q-136 -73 -358 -73h-33q-163 0 -290 45.5t-203.5 124.5t-115 177t-38.5 210v43q0 226 160 383q163 159 469 159h37q186 0 321 -47.5t199 -111.5z" />
    </font>
</defs>
</svg>
